{
  "asset": {
    "version": "2.0",
    "generator": "THREE.GLTFExporter"
  },
  "scenes": [
    {
      "nodes": [
        0,
        1,
        2,
        3,
        4,
        5,
        6
      ]
    }
  ],
  "scene": 0,
  "nodes": [
    {
      "mesh": 0
    },
    {
      "mesh": 1
    },
    {
      "mesh": 2
    },
    {
      "mesh": 3
    },
    {
      "mesh": 4
    },
    {
      "mesh": 5
    },
    {
      "mesh": 6
    }
  ],
  "bufferViews": [
    {
      "buffer": 0,
      "byteOffset": 0,
      "byteLength": 72,
      "target": 34962,
      "byteStride": 12
    },
    {
      "buffer": 0,
      "byteOffset": 72,
      "byteLength": 72,
      "target": 34962,
      "byteStride": 12
    },
    {
      "buffer": 0,
      "byteOffset": 144,
      "byteLength": 173376,
      "target": 34962,
      "byteStride": 12
    },
    {
      "buffer": 0,
      "byteOffset": 173520,
      "byteLength": 115584,
      "target": 34962,
      "byteStride": 8
    },
    {
      "buffer": 0,
      "byteOffset": 289104,
      "byteLength": 173376,
      "target": 34962,
      "byteStride": 12
    },
    {
      "buffer": 0,
      "byteOffset": 462480,
      "byteLength": 161712,
      "target": 34962,
      "byteStride": 12
    },
    {
      "buffer": 0,
      "byteOffset": 624192,
      "byteLength": 107808,
      "target": 34962,
      "byteStride": 8
    },
    {
      "buffer": 0,
      "byteOffset": 732000,
      "byteLength": 161712,
      "target": 34962,
      "byteStride": 12
    },
    {
      "buffer": 0,
      "byteOffset": 893712,
      "byteLength": 63504,
      "target": 34962,
      "byteStride": 12
    },
    {
      "buffer": 0,
      "byteOffset": 957216,
      "byteLength": 42336,
      "target": 34962,
      "byteStride": 8
    },
    {
      "buffer": 0,
      "byteOffset": 999552,
      "byteLength": 63504,
      "target": 34962,
      "byteStride": 12
    },
    {
      "buffer": 0,
      "byteOffset": 1063056,
      "byteLength": 202176,
      "target": 34962,
      "byteStride": 12
    },
    {
      "buffer": 0,
      "byteOffset": 1265232,
      "byteLength": 134784,
      "target": 34962,
      "byteStride": 8
    },
    {
      "buffer": 0,
      "byteOffset": 1400016,
      "byteLength": 202176,
      "target": 34962,
      "byteStride": 12
    },
    {
      "buffer": 0,
      "byteOffset": 1602192,
      "byteLength": 104112,
      "target": 34962,
      "byteStride": 12
    },
    {
      "buffer": 0,
      "byteOffset": 1706304,
      "byteLength": 69408,
      "target": 34962,
      "byteStride": 8
    },
    {
      "buffer": 0,
      "byteOffset": 1775712,
      "byteLength": 104112,
      "target": 34962,
      "byteStride": 12
    },
    {
      "buffer": 0,
      "byteOffset": 1879824,
      "byteLength": 101160,
      "target": 34962,
      "byteStride": 12
    },
    {
      "buffer": 0,
      "byteOffset": 1980984,
      "byteLength": 67440,
      "target": 34962,
      "byteStride": 8
    },
    {
      "buffer": 0,
      "byteOffset": 2048424,
      "byteLength": 101160,
      "target": 34962,
      "byteStride": 12
    }
  ],
  "buffers": [
    {
      "byteLength": 2149584,
      "uri": "data:application/octet-stream;base64,"
    }
  ],
  "accessors": [
    {
      "bufferView": 0,
      "componentType": 5126,
      "count": 6,
      "max": [
        200,
        200,
        200
      ],
      "min": [
        0,
        0,
        0
      ],
      "type": "VEC3"
    },
    {
      "bufferView": 1,
      "componentType": 5126,
      "count": 6,
      "max": [
        1,
        1,
        1
      ],
      "min": [
        0,
        0,
        0
      ],
      "type": "VEC3"
    },
    {
      "bufferView": 2,
      "componentType": 5126,
      "count": 14448,
      "max": [
        -137.52395629882812,
        62.640567779541016,
        -81.35504150390625
      ],
      "min": [
        -262.8912048339844,
        -63.1391487121582,
        -119.20490264892578
      ],
      "type": "VEC3"
    },
    {
      "bufferView": 3,
      "componentType": 5126,
      "count": 14448,
      "max": [
        125.28113555908203,
        39.4098014831543
      ],
      "min": [
        -126.2782974243164,
        -36.28992462158203
      ],
      "type": "VEC2"
    },
    {
      "bufferView": 4,
      "componentType": 5126,
      "count": 14448,
      "max": [
        0.9926493167877197,
        0.9953484535217285,
        0.9999736547470093
      ],
      "min": [
        -0.9903407096862793,
        -0.9997398257255554,
        -0.999413013458252
      ],
      "type": "VEC3"
    },
    {
      "bufferView": 5,
      "componentType": 5126,
      "count": 13476,
      "max": [
        -132.77027893066406,
        66.02649688720703,
        120.56653594970703
      ],
      "min": [
        -267.27288818359375,
        -65.91951751708984,
        79.31312561035156
      ],
      "type": "VEC3"
    },
    {
      "bufferView": 6,
      "componentType": 5126,
      "count": 13476,
      "max": [
        134.45944213867188,
        42.373741149902344
      ],
      "min": [
        -134.5457763671875,
        -40.1330680847168
      ],
      "type": "VEC2"
    },
    {
      "bufferView": 7,
      "componentType": 5126,
      "count": 13476,
      "max": [
        0.9716450572013855,
        0.9773046970367432,
        0.97817063331604
      ],
      "min": [
        -0.9716439247131348,
        -0.9772805571556091,
        -0.9477638602256775
      ],
      "type": "VEC3"
    },
    {
      "bufferView": 8,
      "componentType": 5126,
      "count": 5292,
      "max": [
        58.105224609375,
        59.10502243041992,
        -84.20648956298828
      ],
      "min": [
        -59.93916702270508,
        -58.969444274902344,
        -116.32876586914062
      ],
      "type": "VEC3"
    },
    {
      "bufferView": 9,
      "componentType": 5126,
      "count": 5292,
      "max": [
        118.21004486083984,
        35.115665435791016
      ],
      "min": [
        -119.87833404541016,
        -30.587020874023438
      ],
      "type": "VEC2"
    },
    {
      "bufferView": 10,
      "componentType": 5126,
      "count": 5292,
      "max": [
        0.9854575991630554,
        0.9777562022209167,
        0.9505529999732971
      ],
      "min": [
        -0.9854693412780762,
        -0.9849275350570679,
        -0.9519014954566956
      ],
      "type": "VEC3"
    },
    {
      "bufferView": 11,
      "componentType": 5126,
      "count": 16848,
      "max": [
        62.4946174621582,
        61.21684646606445,
        114.99195098876953
      ],
      "min": [
        -62.4082145690918,
        -61.20225524902344,
        83.82540893554688
      ],
      "type": "VEC3"
    },
    {
      "bufferView": 12,
      "componentType": 5126,
      "count": 16848,
      "max": [
        124.9892349243164,
        33.349185943603516
      ],
      "min": [
        -124.8164291381836,
        -28.983898162841797
      ],
      "type": "VEC2"
    },
    {
      "bufferView": 13,
      "componentType": 5126,
      "count": 16848,
      "max": [
        0.9901012778282166,
        0.9734976291656494,
        0.9997453689575195
      ],
      "min": [
        -0.9901065230369568,
        -0.9974214434623718,
        -0.9997390508651733
      ],
      "type": "VEC3"
    },
    {
      "bufferView": 14,
      "componentType": 5126,
      "count": 8676,
      "max": [
        261.0306701660156,
        61.675228118896484,
        -79.6292495727539
      ],
      "min": [
        136.45782470703125,
        -63.18919372558594,
        -120.789306640625
      ],
      "type": "VEC3"
    },
    {
      "bufferView": 15,
      "componentType": 5126,
      "count": 8676,
      "max": [
        123.35045623779297,
        44.676265716552734
      ],
      "min": [
        -127.08435821533203,
        -39.74150085449219
      ],
      "type": "VEC2"
    },
    {
      "bufferView": 16,
      "componentType": 5126,
      "count": 8676,
      "max": [
        0.9486426115036011,
        0.960206925868988,
        0.9870548844337463
      ],
      "min": [
        -0.9478185176849365,
        -0.9780648350715637,
        -0.9870244860649109
      ],
      "type": "VEC3"
    },
    {
      "bufferView": 17,
      "componentType": 5126,
      "count": 8430,
      "max": [
        256.8018798828125,
        59.62921905517578,
        115.05364227294922
      ],
      "min": [
        142.97991943359375,
        -59.53529357910156,
        83.51575469970703
      ],
      "type": "VEC3"
    },
    {
      "bufferView": 18,
      "componentType": 5126,
      "count": 8430,
      "max": [
        119.25843811035156,
        36.93803024291992
      ],
      "min": [
        -119.07058715820312,
        -29.107282638549805
      ],
      "type": "VEC2"
    },
    {
      "bufferView": 19,
      "componentType": 5126,
      "count": 8430,
      "max": [
        0.9998328685760498,
        0.9996353387832642,
        0.9966710209846497
      ],
      "min": [
        -0.9960372447967529,
        -0.9929158091545105,
        -0.9979140758514404
      ],
      "type": "VEC3"
    }
  ],
  "materials": [
    {
      "pbrMetallicRoughness": {
        "metallicFactor": 0.5,
        "roughnessFactor": 0.5
      }
    },
    {
      "pbrMetallicRoughness": {
        "baseColorFactor": [
          0.3997231494872082,
          0.2716206770905132,
          0.739315583660695,
          1
        ],
        "metallicFactor": 0.5,
        "roughnessFactor": 0.5
      }
    },
    {
      "pbrMetallicRoughness": {
        "baseColorFactor": [
          0.248146403902211,
          0.37362068040590835,
          0.1095512491458801,
          1
        ],
        "metallicFactor": 0.5,
        "roughnessFactor": 0.5
      }
    },
    {
      "pbrMetallicRoughness": {
        "baseColorFactor": [
          0.8927730111573287,
          0.801883863945184,
          0.6290003698135866,
          1
        ],
        "metallicFactor": 0.5,
        "roughnessFactor": 0.5
      }
    },
    {
      "pbrMetallicRoughness": {
        "baseColorFactor": [
          0.05707866732373046,
          0.7817686206967185,
          0.39746172888617104,
          1
        ],
        "metallicFactor": 0.5,
        "roughnessFactor": 0.5
      }
    },
    {
      "pbrMetallicRoughness": {
        "baseColorFactor": [
          0.5109343410707534,
          0.25388022276001054,
          0.14477931295366164,
          1
        ],
        "metallicFactor": 0.5,
        "roughnessFactor": 0.5
      }
    },
    {
      "pbrMetallicRoughness": {
        "baseColorFactor": [
          0.36812885119600547,
          0.5351240771844079,
          0.666968522823117,
          1
        ],
        "metallicFactor": 0.5,
        "roughnessFactor": 0.5
      }
    }
  ],
  "meshes": [
    {
      "primitives": [
        {
          "mode": 1,
          "attributes": {
            "POSITION": 0,
            "COLOR_0": 1
          },
          "material": 0
        }
      ]
    },
    {
      "primitives": [
        {
          "mode": 4,
          "attributes": {
            "POSITION": 2,
            "TEXCOORD_0": 3,
            "NORMAL": 4
          },
          "material": 1
        }
      ]
    },
    {
      "primitives": [
        {
          "mode": 4,
          "attributes": {
            "POSITION": 5,
            "TEXCOORD_0": 6,
            "NORMAL": 7
          },
          "material": 2
        }
      ]
    },
    {
      "primitives": [
        {
          "mode": 4,
          "attributes": {
            "POSITION": 8,
            "TEXCOORD_0": 9,
            "NORMAL": 10
          },
          "material": 3
        }
      ]
    },
    {
      "primitives": [
        {
          "mode": 4,
          "attributes": {
            "POSITION": 11,
            "TEXCOORD_0": 12,
            "NORMAL": 13
          },
          "material": 4
        }
      ]
    },
    {
      "primitives": [
        {
          "mode": 4,
          "attributes": {
            "POSITION": 14,
            "TEXCOORD_0": 15,
            "NORMAL": 16
          },
          "material": 5
        }
      ]
    },
    {
      "primitives": [
        {
          "mode": 4,
          "attributes": {
            "POSITION": 17,
            "TEXCOORD_0": 18,
            "NORMAL": 19
          },
          "material": 6
        }
      ]
    }
  ]
}