{
  "asset": {
    "version": "2.0",
    "generator": "THREE.GLTFExporter"
  },
  "scenes": [
    {
      "nodes": [
        0,
        1,
        2,
        3,
        4,
        5,
        6
      ]
    }
  ],
  "scene": 0,
  "nodes": [
    {
      "mesh": 0
    },
    {
      "mesh": 1
    },
    {
      "mesh": 2
    },
    {
      "mesh": 3
    },
    {
      "mesh": 4
    },
    {
      "mesh": 5
    },
    {
      "mesh": 6
    }
  ],
  "bufferViews": [
    {
      "buffer": 0,
      "byteOffset": 0,
      "byteLength": 72,
      "target": 34962,
      "byteStride": 12
    },
    {
      "buffer": 0,
      "byteOffset": 72,
      "byteLength": 72,
      "target": 34962,
      "byteStride": 12
    },
    {
      "buffer": 0,
      "byteOffset": 144,
      "byteLength": 43488,
      "target": 34962,
      "byteStride": 12
    },
    {
      "buffer": 0,
      "byteOffset": 43632,
      "byteLength": 28992,
      "target": 34962,
      "byteStride": 8
    },
    {
      "buffer": 0,
      "byteOffset": 72624,
      "byteLength": 43488,
      "target": 34962,
      "byteStride": 12
    },
    {
      "buffer": 0,
      "byteOffset": 116112,
      "byteLength": 43488,
      "target": 34962,
      "byteStride": 12
    },
    {
      "buffer": 0,
      "byteOffset": 159600,
      "byteLength": 28992,
      "target": 34962,
      "byteStride": 8
    },
    {
      "buffer": 0,
      "byteOffset": 188592,
      "byteLength": 43488,
      "target": 34962,
      "byteStride": 12
    },
    {
      "buffer": 0,
      "byteOffset": 232080,
      "byteLength": 159840,
      "target": 34962,
      "byteStride": 12
    },
    {
      "buffer": 0,
      "byteOffset": 391920,
      "byteLength": 106560,
      "target": 34962,
      "byteStride": 8
    },
    {
      "buffer": 0,
      "byteOffset": 498480,
      "byteLength": 159840,
      "target": 34962,
      "byteStride": 12
    },
    {
      "buffer": 0,
      "byteOffset": 658320,
      "byteLength": 36216,
      "target": 34962,
      "byteStride": 12
    },
    {
      "buffer": 0,
      "byteOffset": 694536,
      "byteLength": 24144,
      "target": 34962,
      "byteStride": 8
    },
    {
      "buffer": 0,
      "byteOffset": 718680,
      "byteLength": 36216,
      "target": 34962,
      "byteStride": 12
    },
    {
      "buffer": 0,
      "byteOffset": 754896,
      "byteLength": 116208,
      "target": 34962,
      "byteStride": 12
    },
    {
      "buffer": 0,
      "byteOffset": 871104,
      "byteLength": 77472,
      "target": 34962,
      "byteStride": 8
    },
    {
      "buffer": 0,
      "byteOffset": 948576,
      "byteLength": 116208,
      "target": 34962,
      "byteStride": 12
    },
    {
      "buffer": 0,
      "byteOffset": 1064784,
      "byteLength": 101664,
      "target": 34962,
      "byteStride": 12
    },
    {
      "buffer": 0,
      "byteOffset": 1166448,
      "byteLength": 67776,
      "target": 34962,
      "byteStride": 8
    },
    {
      "buffer": 0,
      "byteOffset": 1234224,
      "byteLength": 101664,
      "target": 34962,
      "byteStride": 12
    }
  ],
  "buffers": [
    {
      "byteLength": 1335888,
      "uri": "data:application/octet-stream;base64,"
    }
  ],
  "accessors": [
    {
      "bufferView": 0,
      "componentType": 5126,
      "count": 6,
      "max": [
        200,
        200,
        200
      ],
      "min": [
        0,
        0,
        0
      ],
      "type": "VEC3"
    },
    {
      "bufferView": 1,
      "componentType": 5126,
      "count": 6,
      "max": [
        1,
        1,
        1
      ],
      "min": [
        0,
        0,
        0
      ],
      "type": "VEC3"
    },
    {
      "bufferView": 2,
      "componentType": 5126,
      "count": 3624,
      "max": [
        -85.48759460449219,
        102.41138458251953,
        -186.42483520507812
      ],
      "min": [
        -115.02223205566406,
        -128.26776123046875,
        -213.026123046875
      ],
      "type": "VEC3"
    },
    {
      "bufferView": 3,
      "componentType": 5126,
      "count": 3624,
      "max": [
        29.024808883666992,
        204.82276916503906
      ],
      "min": [
        -30.04446029663086,
        -256.5355224609375
      ],
      "type": "VEC2"
    },
    {
      "bufferView": 4,
      "componentType": 5126,
      "count": 3624,
      "max": [
        0.8913262486457825,
        0.9670748710632324,
        0.999810516834259
      ],
      "min": [
        -0.8913260102272034,
        -0.9440004825592041,
        -0.9998034238815308
      ],
      "type": "VEC3"
    },
    {
      "bufferView": 5,
      "componentType": 5126,
      "count": 3624,
      "max": [
        -86.48981475830078,
        101.83316040039062,
        13.985251426696777
      ],
      "min": [
        -113.38148498535156,
        -127.5190658569336,
        -14.96763801574707
      ],
      "type": "VEC3"
    },
    {
      "bufferView": 6,
      "componentType": 5126,
      "count": 3624,
      "max": [
        203.66632080078125,
        203.66632080078125
      ],
      "min": [
        -255.0381317138672,
        -255.0381317138672
      ],
      "type": "VEC2"
    },
    {
      "bufferView": 7,
      "componentType": 5126,
      "count": 3624,
      "max": [
        0.9986891150474548,
        0.9826487898826599,
        0.92839115858078
      ],
      "min": [
        -0.998688817024231,
        -0.9622187614440918,
        -0.9284036755561829
      ],
      "type": "VEC3"
    },
    {
      "bufferView": 8,
      "componentType": 5126,
      "count": 13320,
      "max": [
        -80.63333892822266,
        102.31583404541016,
        219.177978515625
      ],
      "min": [
        -119.12045288085938,
        -130.21578979492188,
        181.03611755371094
      ],
      "type": "VEC3"
    },
    {
      "bufferView": 9,
      "componentType": 5126,
      "count": 13320,
      "max": [
        204.52096557617188,
        204.6316680908203
      ],
      "min": [
        -257.23126220703125,
        -260.43157958984375
      ],
      "type": "VEC2"
    },
    {
      "bufferView": 10,
      "componentType": 5126,
      "count": 13320,
      "max": [
        0.9998751282691956,
        0.9872438311576843,
        0.9933385252952576
      ],
      "min": [
        -0.9956817626953125,
        -0.9332337975502014,
        -0.999596893787384
      ],
      "type": "VEC3"
    },
    {
      "bufferView": 11,
      "componentType": 5126,
      "count": 3018,
      "max": [
        113.13519287109375,
        103.0829849243164,
        -185.6001434326172
      ],
      "min": [
        85.75286102294922,
        -126.11219024658203,
        -214.5623321533203
      ],
      "type": "VEC3"
    },
    {
      "bufferView": 12,
      "componentType": 5126,
      "count": 3018,
      "max": [
        206.1659698486328,
        206.1659698486328
      ],
      "min": [
        -252.22438049316406,
        -252.22438049316406
      ],
      "type": "VEC2"
    },
    {
      "bufferView": 13,
      "componentType": 5126,
      "count": 3018,
      "max": [
        0.9999200701713562,
        0.950803816318512,
        0.9552609920501709
      ],
      "min": [
        -0.8170369863510132,
        -0.9936615228652954,
        -0.9558566212654114
      ],
      "type": "VEC3"
    },
    {
      "bufferView": 14,
      "componentType": 5126,
      "count": 9684,
      "max": [
        119.6551513671875,
        102.58594512939453,
        18.644771575927734
      ],
      "min": [
        81.78145599365234,
        -127.50971221923828,
        -19.208118438720703
      ],
      "type": "VEC3"
    },
    {
      "bufferView": 15,
      "componentType": 5126,
      "count": 9684,
      "max": [
        151.59999084472656,
        205.17189025878906
      ],
      "min": [
        -145.95436096191406,
        -255.01942443847656
      ],
      "type": "VEC2"
    },
    {
      "bufferView": 16,
      "componentType": 5126,
      "count": 9684,
      "max": [
        0.9967287182807922,
        0.9843706488609314,
        0.9965064525604248
      ],
      "min": [
        -0.9967263340950012,
        -0.9858853220939636,
        -0.9965056777000427
      ],
      "type": "VEC3"
    },
    {
      "bufferView": 17,
      "componentType": 5126,
      "count": 8472,
      "max": [
        119.34444427490234,
        101.19865417480469,
        218.2076873779297
      ],
      "min": [
        82.19910430908203,
        -126.45482635498047,
        180.52210998535156
      ],
      "type": "VEC3"
    },
    {
      "bufferView": 18,
      "componentType": 5126,
      "count": 8472,
      "max": [
        120.16609954833984,
        202.39730834960938
      ],
      "min": [
        -200.5786895751953,
        -252.90965270996094
      ],
      "type": "VEC2"
    },
    {
      "bufferView": 19,
      "componentType": 5126,
      "count": 8472,
      "max": [
        0.9894416928291321,
        0.9966098070144653,
        0.9315073490142822
      ],
      "min": [
        -0.9864751100540161,
        -0.9950203895568848,
        -0.9998767971992493
      ],
      "type": "VEC3"
    }
  ],
  "materials": [
    {
      "pbrMetallicRoughness": {
        "metallicFactor": 0.5,
        "roughnessFactor": 0.5
      }
    },
    {
      "pbrMetallicRoughness": {
        "baseColorFactor": [
          0.3997231494872082,
          0.2716206770905132,
          0.739315583660695,
          1
        ],
        "metallicFactor": 0.5,
        "roughnessFactor": 0.5
      }
    },
    {
      "pbrMetallicRoughness": {
        "baseColorFactor": [
          0.248146403902211,
          0.37362068040590835,
          0.1095512491458801,
          1
        ],
        "metallicFactor": 0.5,
        "roughnessFactor": 0.5
      }
    },
    {
      "pbrMetallicRoughness": {
        "baseColorFactor": [
          0.8927730111573287,
          0.801883863945184,
          0.6290003698135866,
          1
        ],
        "metallicFactor": 0.5,
        "roughnessFactor": 0.5
      }
    },
    {
      "pbrMetallicRoughness": {
        "baseColorFactor": [
          0.05707866732373046,
          0.7817686206967185,
          0.39746172888617104,
          1
        ],
        "metallicFactor": 0.5,
        "roughnessFactor": 0.5
      }
    },
    {
      "pbrMetallicRoughness": {
        "baseColorFactor": [
          0.5109343410707534,
          0.25388022276001054,
          0.14477931295366164,
          1
        ],
        "metallicFactor": 0.5,
        "roughnessFactor": 0.5
      }
    },
    {
      "pbrMetallicRoughness": {
        "baseColorFactor": [
          0.36812885119600547,
          0.5351240771844079,
          0.666968522823117,
          1
        ],
        "metallicFactor": 0.5,
        "roughnessFactor": 0.5
      }
    }
  ],
  "meshes": [
    {
      "primitives": [
        {
          "mode": 1,
          "attributes": {
            "POSITION": 0,
            "COLOR_0": 1
          },
          "material": 0
        }
      ]
    },
    {
      "primitives": [
        {
          "mode": 4,
          "attributes": {
            "POSITION": 2,
            "TEXCOORD_0": 3,
            "NORMAL": 4
          },
          "material": 1
        }
      ]
    },
    {
      "primitives": [
        {
          "mode": 4,
          "attributes": {
            "POSITION": 5,
            "TEXCOORD_0": 6,
            "NORMAL": 7
          },
          "material": 2
        }
      ]
    },
    {
      "primitives": [
        {
          "mode": 4,
          "attributes": {
            "POSITION": 8,
            "TEXCOORD_0": 9,
            "NORMAL": 10
          },
          "material": 3
        }
      ]
    },
    {
      "primitives": [
        {
          "mode": 4,
          "attributes": {
            "POSITION": 11,
            "TEXCOORD_0": 12,
            "NORMAL": 13
          },
          "material": 4
        }
      ]
    },
    {
      "primitives": [
        {
          "mode": 4,
          "attributes": {
            "POSITION": 14,
            "TEXCOORD_0": 15,
            "NORMAL": 16
          },
          "material": 5
        }
      ]
    },
    {
      "primitives": [
        {
          "mode": 4,
          "attributes": {
            "POSITION": 17,
            "TEXCOORD_0": 18,
            "NORMAL": 19
          },
          "material": 6
        }
      ]
    }
  ]
}