{
  "asset": {
    "version": "2.0",
    "generator": "THREE.GLTFExporter"
  },
  "scenes": [
    {
      "nodes": [
        0,
        1,
        2,
        3,
        4,
        5,
        6,
        7,
        8,
        9,
        10,
        11,
        12
      ]
    }
  ],
  "scene": 0,
  "nodes": [
    {
      "mesh": 0
    },
    {
      "mesh": 1
    },
    {
      "mesh": 2
    },
    {
      "mesh": 3
    },
    {
      "mesh": 4
    },
    {
      "mesh": 5
    },
    {
      "mesh": 6
    },
    {
      "mesh": 7
    },
    {
      "mesh": 8
    },
    {
      "mesh": 9
    },
    {
      "mesh": 10
    },
    {
      "mesh": 11
    },
    {
      "mesh": 12
    }
  ],
  "bufferViews": [
    {
      "buffer": 0,
      "byteOffset": 0,
      "byteLength": 72,
      "target": 34962,
      "byteStride": 12
    },
    {
      "buffer": 0,
      "byteOffset": 72,
      "byteLength": 72,
      "target": 34962,
      "byteStride": 12
    },
    {
      "buffer": 0,
      "byteOffset": 144,
      "byteLength": 20016,
      "target": 34962,
      "byteStride": 12
    },
    {
      "buffer": 0,
      "byteOffset": 20160,
      "byteLength": 13344,
      "target": 34962,
      "byteStride": 8
    },
    {
      "buffer": 0,
      "byteOffset": 33504,
      "byteLength": 20016,
      "target": 34962,
      "byteStride": 12
    },
    {
      "buffer": 0,
      "byteOffset": 53520,
      "byteLength": 9936,
      "target": 34962,
      "byteStride": 12
    },
    {
      "buffer": 0,
      "byteOffset": 63456,
      "byteLength": 6624,
      "target": 34962,
      "byteStride": 8
    },
    {
      "buffer": 0,
      "byteOffset": 70080,
      "byteLength": 9936,
      "target": 34962,
      "byteStride": 12
    },
    {
      "buffer": 0,
      "byteOffset": 80016,
      "byteLength": 3888,
      "target": 34962,
      "byteStride": 12
    },
    {
      "buffer": 0,
      "byteOffset": 83904,
      "byteLength": 2592,
      "target": 34962,
      "byteStride": 8
    },
    {
      "buffer": 0,
      "byteOffset": 86496,
      "byteLength": 3888,
      "target": 34962,
      "byteStride": 12
    },
    {
      "buffer": 0,
      "byteOffset": 90384,
      "byteLength": 13968,
      "target": 34962,
      "byteStride": 12
    },
    {
      "buffer": 0,
      "byteOffset": 104352,
      "byteLength": 9312,
      "target": 34962,
      "byteStride": 8
    },
    {
      "buffer": 0,
      "byteOffset": 113664,
      "byteLength": 13968,
      "target": 34962,
      "byteStride": 12
    },
    {
      "buffer": 0,
      "byteOffset": 127632,
      "byteLength": 10944,
      "target": 34962,
      "byteStride": 12
    },
    {
      "buffer": 0,
      "byteOffset": 138576,
      "byteLength": 7296,
      "target": 34962,
      "byteStride": 8
    },
    {
      "buffer": 0,
      "byteOffset": 145872,
      "byteLength": 10944,
      "target": 34962,
      "byteStride": 12
    },
    {
      "buffer": 0,
      "byteOffset": 156816,
      "byteLength": 6912,
      "target": 34962,
      "byteStride": 12
    },
    {
      "buffer": 0,
      "byteOffset": 163728,
      "byteLength": 4608,
      "target": 34962,
      "byteStride": 8
    },
    {
      "buffer": 0,
      "byteOffset": 168336,
      "byteLength": 6912,
      "target": 34962,
      "byteStride": 12
    },
    {
      "buffer": 0,
      "byteOffset": 175248,
      "byteLength": 10944,
      "target": 34962,
      "byteStride": 12
    },
    {
      "buffer": 0,
      "byteOffset": 186192,
      "byteLength": 7296,
      "target": 34962,
      "byteStride": 8
    },
    {
      "buffer": 0,
      "byteOffset": 193488,
      "byteLength": 10944,
      "target": 34962,
      "byteStride": 12
    },
    {
      "buffer": 0,
      "byteOffset": 204432,
      "byteLength": 8928,
      "target": 34962,
      "byteStride": 12
    },
    {
      "buffer": 0,
      "byteOffset": 213360,
      "byteLength": 5952,
      "target": 34962,
      "byteStride": 8
    },
    {
      "buffer": 0,
      "byteOffset": 219312,
      "byteLength": 8928,
      "target": 34962,
      "byteStride": 12
    },
    {
      "buffer": 0,
      "byteOffset": 228240,
      "byteLength": 4896,
      "target": 34962,
      "byteStride": 12
    },
    {
      "buffer": 0,
      "byteOffset": 233136,
      "byteLength": 3264,
      "target": 34962,
      "byteStride": 8
    },
    {
      "buffer": 0,
      "byteOffset": 236400,
      "byteLength": 4896,
      "target": 34962,
      "byteStride": 12
    },
    {
      "buffer": 0,
      "byteOffset": 241296,
      "byteLength": 9936,
      "target": 34962,
      "byteStride": 12
    },
    {
      "buffer": 0,
      "byteOffset": 251232,
      "byteLength": 6624,
      "target": 34962,
      "byteStride": 8
    },
    {
      "buffer": 0,
      "byteOffset": 257856,
      "byteLength": 9936,
      "target": 34962,
      "byteStride": 12
    },
    {
      "buffer": 0,
      "byteOffset": 267792,
      "byteLength": 5904,
      "target": 34962,
      "byteStride": 12
    },
    {
      "buffer": 0,
      "byteOffset": 273696,
      "byteLength": 3936,
      "target": 34962,
      "byteStride": 8
    },
    {
      "buffer": 0,
      "byteOffset": 277632,
      "byteLength": 5904,
      "target": 34962,
      "byteStride": 12
    },
    {
      "buffer": 0,
      "byteOffset": 283536,
      "byteLength": 18000,
      "target": 34962,
      "byteStride": 12
    },
    {
      "buffer": 0,
      "byteOffset": 301536,
      "byteLength": 12000,
      "target": 34962,
      "byteStride": 8
    },
    {
      "buffer": 0,
      "byteOffset": 313536,
      "byteLength": 18000,
      "target": 34962,
      "byteStride": 12
    }
  ],
  "buffers": [
    {
      "byteLength": 331536,
      "uri": "data:application/octet-stream;base64,"
    }
  ],
  "accessors": [
    {
      "bufferView": 0,
      "componentType": 5126,
      "count": 6,
      "max": [
        200,
        200,
        200
      ],
      "min": [
        0,
        0,
        0
      ],
      "type": "VEC3"
    },
    {
      "bufferView": 1,
      "componentType": 5126,
      "count": 6,
      "max": [
        1,
        1,
        1
      ],
      "min": [
        0,
        0,
        0
      ],
      "type": "VEC3"
    },
    {
      "bufferView": 2,
      "componentType": 5126,
      "count": 1668,
      "max": [
        -264.872314453125,
        33.375946044921875,
        -175
      ],
      "min": [
        -335.127685546875,
        -33.375946044921875,
        -205
      ],
      "type": "VEC3"
    },
    {
      "bufferView": 3,
      "componentType": 5126,
      "count": 1668,
      "max": [
        33.375946044921875,
        28.5
      ],
      "min": [
        -33.375946044921875,
        -28.5
      ],
      "type": "VEC2"
    },
    {
      "bufferView": 4,
      "componentType": 5126,
      "count": 1668,
      "max": [
        0.998719334602356,
        0.965226411819458,
        1
      ],
      "min": [
        -0.998719334602356,
        -0.965226411819458,
        -1
      ],
      "type": "VEC3"
    },
    {
      "bufferView": 5,
      "componentType": 5126,
      "count": 828,
      "max": [
        -275.7976989746094,
        23,
        25
      ],
      "min": [
        -324.2023010253906,
        -23,
        -5
      ],
      "type": "VEC3"
    },
    {
      "bufferView": 6,
      "componentType": 5126,
      "count": 828,
      "max": [
        20,
        19
      ],
      "min": [
        -20,
        -24
      ],
      "type": "VEC2"
    },
    {
      "bufferView": 7,
      "componentType": 5126,
      "count": 828,
      "max": [
        0.9518606066703796,
        1,
        1
      ],
      "min": [
        -0.9518606066703796,
        -1,
        -1
      ],
      "type": "VEC3"
    },
    {
      "bufferView": 8,
      "componentType": 5126,
      "count": 324,
      "max": [
        -274.3431396484375,
        25.6568546295166,
        225
      ],
      "min": [
        -325.6568603515625,
        -25.6568546295166,
        195
      ],
      "type": "VEC3"
    },
    {
      "bufferView": 9,
      "componentType": 5126,
      "count": 324,
      "max": [
        25.6568546295166,
        20
      ],
      "min": [
        -25.6568546295166,
        -24
      ],
      "type": "VEC2"
    },
    {
      "bufferView": 10,
      "componentType": 5126,
      "count": 324,
      "max": [
        0.7071067690849304,
        0.7071067690849304,
        1
      ],
      "min": [
        -0.7071067690849304,
        -0.7071067690849304,
        -1
      ],
      "type": "VEC3"
    },
    {
      "bufferView": 11,
      "componentType": 5126,
      "count": 1164,
      "max": [
        -65.13008880615234,
        33.924034118652344,
        -175
      ],
      "min": [
        -131.3719482421875,
        -33.924034118652344,
        -205
      ],
      "type": "VEC3"
    },
    {
      "bufferView": 12,
      "componentType": 5126,
      "count": 1164,
      "max": [
        33.924034118652344,
        29.200000762939453
      ],
      "min": [
        -33.924034118652344,
        -29.200000762939453
      ],
      "type": "VEC2"
    },
    {
      "bufferView": 13,
      "componentType": 5126,
      "count": 1164,
      "max": [
        0.9580336809158325,
        0.9976625442504883,
        1
      ],
      "min": [
        -0.9883716702461243,
        -0.9976625442504883,
        -1
      ],
      "type": "VEC3"
    },
    {
      "bufferView": 14,
      "componentType": 5126,
      "count": 912,
      "max": [
        -75.82810974121094,
        23.926546096801758,
        25
      ],
      "min": [
        -123.19999694824219,
        -23.926546096801758,
        -5
      ],
      "type": "VEC3"
    },
    {
      "bufferView": 15,
      "componentType": 5126,
      "count": 912,
      "max": [
        20.304838180541992,
        19.799999237060547
      ],
      "min": [
        -19.200000762939453,
        -24
      ],
      "type": "VEC2"
    },
    {
      "bufferView": 16,
      "componentType": 5126,
      "count": 912,
      "max": [
        0.9587981104850769,
        0.9898784160614014,
        1
      ],
      "min": [
        -1,
        -0.9898784160614014,
        -1
      ],
      "type": "VEC3"
    },
    {
      "bufferView": 17,
      "componentType": 5126,
      "count": 576,
      "max": [
        -75.56172943115234,
        23.831401824951172,
        225
      ],
      "min": [
        -122,
        -23.831401824951172,
        195
      ],
      "type": "VEC3"
    },
    {
      "bufferView": 18,
      "componentType": 5126,
      "count": 576,
      "max": [
        20,
        19.5
      ],
      "min": [
        -22,
        -24
      ],
      "type": "VEC2"
    },
    {
      "bufferView": 19,
      "componentType": 5126,
      "count": 576,
      "max": [
        0.9012524485588074,
        0.9745363593101501,
        1
      ],
      "min": [
        -1,
        -0.9745363593101501,
        -1
      ],
      "type": "VEC3"
    },
    {
      "bufferView": 20,
      "componentType": 5126,
      "count": 912,
      "max": [
        124.17189025878906,
        23.926546096801758,
        -175
      ],
      "min": [
        76.80000305175781,
        -23.926546096801758,
        -205
      ],
      "type": "VEC3"
    },
    {
      "bufferView": 21,
      "componentType": 5126,
      "count": 912,
      "max": [
        20.304838180541992,
        19.799999237060547
      ],
      "min": [
        -19.200000762939453,
        -24
      ],
      "type": "VEC2"
    },
    {
      "bufferView": 22,
      "componentType": 5126,
      "count": 912,
      "max": [
        0.9587981104850769,
        0.9898784160614014,
        1
      ],
      "min": [
        -1,
        -0.9898784160614014,
        -1
      ],
      "type": "VEC3"
    },
    {
      "bufferView": 23,
      "componentType": 5126,
      "count": 744,
      "max": [
        124.25721740722656,
        23.893312454223633,
        25
      ],
      "min": [
        77.19999694824219,
        -23.893312454223633,
        -5
      ],
      "type": "VEC3"
    },
    {
      "bufferView": 24,
      "componentType": 5126,
      "count": 744,
      "max": [
        20.98382568359375,
        19.700000762939453
      ],
      "min": [
        -20.98382568359375,
        -24
      ],
      "type": "VEC2"
    },
    {
      "bufferView": 25,
      "componentType": 5126,
      "count": 744,
      "max": [
        0.9395805597305298,
        0.9844952821731567,
        1
      ],
      "min": [
        -1,
        -0.9844952821731567,
        -1
      ],
      "type": "VEC3"
    },
    {
      "bufferView": 26,
      "componentType": 5126,
      "count": 408,
      "max": [
        124.94621276855469,
        23.69461441040039,
        225
      ],
      "min": [
        79.80000305175781,
        -23.69461441040039,
        195
      ],
      "type": "VEC3"
    },
    {
      "bufferView": 27,
      "componentType": 5126,
      "count": 408,
      "max": [
        23.69461441040039,
        19
      ],
      "min": [
        -23.69461441040039,
        -24
      ],
      "type": "VEC2"
    },
    {
      "bufferView": 28,
      "componentType": 5126,
      "count": 408,
      "max": [
        0.8086992502212524,
        0.951948881149292,
        1
      ],
      "min": [
        -1,
        -0.951948881149292,
        -1
      ],
      "type": "VEC3"
    },
    {
      "bufferView": 29,
      "componentType": 5126,
      "count": 828,
      "max": [
        324.2023010253906,
        23,
        -175
      ],
      "min": [
        275.7976989746094,
        -23,
        -205
      ],
      "type": "VEC3"
    },
    {
      "bufferView": 30,
      "componentType": 5126,
      "count": 828,
      "max": [
        20,
        19
      ],
      "min": [
        -20,
        -24
      ],
      "type": "VEC2"
    },
    {
      "bufferView": 31,
      "componentType": 5126,
      "count": 828,
      "max": [
        0.9518606066703796,
        1,
        1
      ],
      "min": [
        -0.9518606066703796,
        -1,
        -1
      ],
      "type": "VEC3"
    },
    {
      "bufferView": 32,
      "componentType": 5126,
      "count": 492,
      "max": [
        324.62017822265625,
        21.299999237060547,
        25
      ],
      "min": [
        275.37982177734375,
        -21.299999237060547,
        -5
      ],
      "type": "VEC3"
    },
    {
      "bufferView": 33,
      "componentType": 5126,
      "count": 492,
      "max": [
        21.299999237060547,
        17.299999237060547
      ],
      "min": [
        -21.299999237060547,
        -24
      ],
      "type": "VEC2"
    },
    {
      "bufferView": 34,
      "componentType": 5126,
      "count": 492,
      "max": [
        0.8657686710357666,
        1,
        1
      ],
      "min": [
        -0.8657686710357666,
        -1,
        -1
      ],
      "type": "VEC3"
    },
    {
      "bufferView": 35,
      "componentType": 5126,
      "count": 1500,
      "max": [
        335.024658203125,
        34.43732833862305,
        225
      ],
      "min": [
        267.0783386230469,
        -34.43732833862305,
        195
      ],
      "type": "VEC3"
    },
    {
      "bufferView": 36,
      "componentType": 5126,
      "count": 1500,
      "max": [
        34.43732833862305,
        29.5
      ],
      "min": [
        -34.43732833862305,
        -29.5
      ],
      "type": "VEC2"
    },
    {
      "bufferView": 37,
      "componentType": 5126,
      "count": 1500,
      "max": [
        0.9989200830459595,
        0.9914858937263489,
        1
      ],
      "min": [
        -0.9549736380577087,
        -0.9914858937263489,
        -1
      ],
      "type": "VEC3"
    }
  ],
  "materials": [
    {
      "pbrMetallicRoughness": {
        "metallicFactor": 0.5,
        "roughnessFactor": 0.5
      }
    },
    {
      "pbrMetallicRoughness": {
        "baseColorFactor": [
          0.3183831998390869,
          0.8616324739420125,
          0.7838793125673336,
          0.3747939295091426
        ],
        "metallicFactor": 0.5,
        "roughnessFactor": 0.5
      },
      "alphaMode": "BLEND",
      "doubleSided": true,
      "name": "Lambert_Flat_Transparent_1"
    },
    {
      "pbrMetallicRoughness": {
        "baseColorFactor": [
          0.5178260608242602,
          0.04085214301507811,
          0.603662977192654,
          0.3597012423748192
        ],
        "metallicFactor": 0.5,
        "roughnessFactor": 0.5
      },
      "alphaMode": "BLEND",
      "doubleSided": true,
      "name": "Lambert_Flat_Transparent_2"
    },
    {
      "pbrMetallicRoughness": {
        "baseColorFactor": [
          0.885224571641333,
          0.1662813719649041,
          0.661193296918863,
          0.3341700683679122
        ],
        "metallicFactor": 0.5,
        "roughnessFactor": 0.5
      },
      "alphaMode": "BLEND",
      "doubleSided": true,
      "name": "Lambert_Flat_Transparent_3"
    },
    {
      "pbrMetallicRoughness": {
        "baseColorFactor": [
          0.5003517847504033,
          0.9380091954465699,
          0.5289212424850891,
          0.47887100618171574
        ],
        "metallicFactor": 0.5,
        "roughnessFactor": 0.5
      },
      "alphaMode": "BLEND",
      "doubleSided": true,
      "name": "Lambert_Flat_Transparent_4"
    },
    {
      "pbrMetallicRoughness": {
        "baseColorFactor": [
          0.8099720801066321,
          0.590981658153245,
          0.8869602359467963,
          0.3104188825941653
        ],
        "metallicFactor": 0.5,
        "roughnessFactor": 0.5
      },
      "alphaMode": "BLEND",
      "doubleSided": true,
      "name": "Lambert_Flat_Transparent_5"
    },
    {
      "pbrMetallicRoughness": {
        "baseColorFactor": [
          0.6033880032358667,
          0.1844218139423961,
          0.001184786226257728,
          0.29216602495143507
        ],
        "metallicFactor": 0.5,
        "roughnessFactor": 0.5
      },
      "alphaMode": "BLEND",
      "doubleSided": true,
      "name": "Lambert_Flat_Transparent_6"
    },
    {
      "pbrMetallicRoughness": {
        "baseColorFactor": [
          0.37425919104252015,
          0.9783094530524898,
          0.7503003355503948,
          0.436947003595733
        ],
        "metallicFactor": 0.5,
        "roughnessFactor": 0.5
      },
      "alphaMode": "BLEND",
      "doubleSided": true,
      "name": "Lambert_Flat_Transparent_7"
    },
    {
      "pbrMetallicRoughness": {
        "baseColorFactor": [
          0.32677855349599727,
          0.9199366826592257,
          0.7547890511900506,
          0.4788034484892102
        ],
        "metallicFactor": 0.5,
        "roughnessFactor": 0.5
      },
      "alphaMode": "BLEND",
      "doubleSided": true,
      "name": "Lambert_Flat_Transparent_8"
    },
    {
      "pbrMetallicRoughness": {
        "baseColorFactor": [
          0.6965231050801086,
          0.5285830009421946,
          0.11197771583995042,
          0.4018378854382485
        ],
        "metallicFactor": 0.5,
        "roughnessFactor": 0.5
      },
      "alphaMode": "BLEND",
      "doubleSided": true,
      "name": "Lambert_Flat_Transparent_9"
    },
    {
      "pbrMetallicRoughness": {
        "baseColorFactor": [
          0.2357062975905222,
          0.05298704863846382,
          0.09296717031084922,
          0.30998772839000566
        ],
        "metallicFactor": 0.5,
        "roughnessFactor": 0.5
      },
      "alphaMode": "BLEND",
      "doubleSided": true,
      "name": "Lambert_Flat_Transparent_10"
    },
    {
      "pbrMetallicRoughness": {
        "baseColorFactor": [
          0.3935479512508444,
          0.9325374947149343,
          0.0018741537348756498,
          0.4371254538844805
        ],
        "metallicFactor": 0.5,
        "roughnessFactor": 0.5
      },
      "alphaMode": "BLEND",
      "doubleSided": true,
      "name": "Lambert_Flat_Transparent_11"
    },
    {
      "pbrMetallicRoughness": {
        "baseColorFactor": [
          0.9371885786473588,
          0.9719093857370253,
          0.6961720758641006,
          0.3375488244133101
        ],
        "metallicFactor": 0.5,
        "roughnessFactor": 0.5
      },
      "alphaMode": "BLEND",
      "doubleSided": true,
      "name": "Lambert_Flat_Transparent_12"
    }
  ],
  "meshes": [
    {
      "primitives": [
        {
          "mode": 1,
          "attributes": {
            "POSITION": 0,
            "COLOR_0": 1
          },
          "material": 0
        }
      ]
    },
    {
      "primitives": [
        {
          "mode": 4,
          "attributes": {
            "POSITION": 2,
            "TEXCOORD_0": 3,
            "NORMAL": 4
          },
          "material": 1
        }
      ]
    },
    {
      "primitives": [
        {
          "mode": 4,
          "attributes": {
            "POSITION": 5,
            "TEXCOORD_0": 6,
            "NORMAL": 7
          },
          "material": 2
        }
      ]
    },
    {
      "primitives": [
        {
          "mode": 4,
          "attributes": {
            "POSITION": 8,
            "TEXCOORD_0": 9,
            "NORMAL": 10
          },
          "material": 3
        }
      ]
    },
    {
      "primitives": [
        {
          "mode": 4,
          "attributes": {
            "POSITION": 11,
            "TEXCOORD_0": 12,
            "NORMAL": 13
          },
          "material": 4
        }
      ]
    },
    {
      "primitives": [
        {
          "mode": 4,
          "attributes": {
            "POSITION": 14,
            "TEXCOORD_0": 15,
            "NORMAL": 16
          },
          "material": 5
        }
      ]
    },
    {
      "primitives": [
        {
          "mode": 4,
          "attributes": {
            "POSITION": 17,
            "TEXCOORD_0": 18,
            "NORMAL": 19
          },
          "material": 6
        }
      ]
    },
    {
      "primitives": [
        {
          "mode": 4,
          "attributes": {
            "POSITION": 20,
            "TEXCOORD_0": 21,
            "NORMAL": 22
          },
          "material": 7
        }
      ]
    },
    {
      "primitives": [
        {
          "mode": 4,
          "attributes": {
            "POSITION": 23,
            "TEXCOORD_0": 24,
            "NORMAL": 25
          },
          "material": 8
        }
      ]
    },
    {
      "primitives": [
        {
          "mode": 4,
          "attributes": {
            "POSITION": 26,
            "TEXCOORD_0": 27,
            "NORMAL": 28
          },
          "material": 9
        }
      ]
    },
    {
      "primitives": [
        {
          "mode": 4,
          "attributes": {
            "POSITION": 29,
            "TEXCOORD_0": 30,
            "NORMAL": 31
          },
          "material": 10
        }
      ]
    },
    {
      "primitives": [
        {
          "mode": 4,
          "attributes": {
            "POSITION": 32,
            "TEXCOORD_0": 33,
            "NORMAL": 34
          },
          "material": 11
        }
      ]
    },
    {
      "primitives": [
        {
          "mode": 4,
          "attributes": {
            "POSITION": 35,
            "TEXCOORD_0": 36,
            "NORMAL": 37
          },
          "material": 12
        }
      ]
    }
  ]
}