{
  "asset": {
    "version": "2.0",
    "generator": "THREE.GLTFExporter"
  },
  "scenes": [
    {
      "nodes": [
        0,
        1,
        2,
        3,
        4,
        5,
        6,
        7,
        8
      ]
    }
  ],
  "scene": 0,
  "nodes": [
    {
      "mesh": 0
    },
    {
      "mesh": 1
    },
    {
      "mesh": 2
    },
    {
      "mesh": 3
    },
    {
      "mesh": 4
    },
    {
      "mesh": 5
    },
    {
      "mesh": 6
    },
    {
      "mesh": 7
    },
    {
      "mesh": 8
    }
  ],
  "bufferViews": [
    {
      "buffer": 0,
      "byteOffset": 0,
      "byteLength": 72,
      "target": 34962,
      "byteStride": 12
    },
    {
      "buffer": 0,
      "byteOffset": 72,
      "byteLength": 72,
      "target": 34962,
      "byteStride": 12
    },
    {
      "buffer": 0,
      "byteOffset": 144,
      "byteLength": 101664,
      "target": 34962,
      "byteStride": 12
    },
    {
      "buffer": 0,
      "byteOffset": 101808,
      "byteLength": 67776,
      "target": 34962,
      "byteStride": 8
    },
    {
      "buffer": 0,
      "byteOffset": 169584,
      "byteLength": 101664,
      "target": 34962,
      "byteStride": 12
    },
    {
      "buffer": 0,
      "byteOffset": 271248,
      "byteLength": 21672,
      "target": 34962,
      "byteStride": 12
    },
    {
      "buffer": 0,
      "byteOffset": 292920,
      "byteLength": 14448,
      "target": 34962,
      "byteStride": 8
    },
    {
      "buffer": 0,
      "byteOffset": 307368,
      "byteLength": 21672,
      "target": 34962,
      "byteStride": 12
    },
    {
      "buffer": 0,
      "byteOffset": 329040,
      "byteLength": 145296,
      "target": 34962,
      "byteStride": 12
    },
    {
      "buffer": 0,
      "byteOffset": 474336,
      "byteLength": 96864,
      "target": 34962,
      "byteStride": 8
    },
    {
      "buffer": 0,
      "byteOffset": 571200,
      "byteLength": 145296,
      "target": 34962,
      "byteStride": 12
    },
    {
      "buffer": 0,
      "byteOffset": 716496,
      "byteLength": 58032,
      "target": 34962,
      "byteStride": 12
    },
    {
      "buffer": 0,
      "byteOffset": 774528,
      "byteLength": 38688,
      "target": 34962,
      "byteStride": 8
    },
    {
      "buffer": 0,
      "byteOffset": 813216,
      "byteLength": 58032,
      "target": 34962,
      "byteStride": 12
    },
    {
      "buffer": 0,
      "byteOffset": 871248,
      "byteLength": 79848,
      "target": 34962,
      "byteStride": 12
    },
    {
      "buffer": 0,
      "byteOffset": 951096,
      "byteLength": 53232,
      "target": 34962,
      "byteStride": 8
    },
    {
      "buffer": 0,
      "byteOffset": 1004328,
      "byteLength": 79848,
      "target": 34962,
      "byteStride": 12
    },
    {
      "buffer": 0,
      "byteOffset": 1084176,
      "byteLength": 72576,
      "target": 34962,
      "byteStride": 12
    },
    {
      "buffer": 0,
      "byteOffset": 1156752,
      "byteLength": 48384,
      "target": 34962,
      "byteStride": 8
    },
    {
      "buffer": 0,
      "byteOffset": 1205136,
      "byteLength": 72576,
      "target": 34962,
      "byteStride": 12
    },
    {
      "buffer": 0,
      "byteOffset": 1277712,
      "byteLength": 101664,
      "target": 34962,
      "byteStride": 12
    },
    {
      "buffer": 0,
      "byteOffset": 1379376,
      "byteLength": 67776,
      "target": 34962,
      "byteStride": 8
    },
    {
      "buffer": 0,
      "byteOffset": 1447152,
      "byteLength": 101664,
      "target": 34962,
      "byteStride": 12
    },
    {
      "buffer": 0,
      "byteOffset": 1548816,
      "byteLength": 87120,
      "target": 34962,
      "byteStride": 12
    },
    {
      "buffer": 0,
      "byteOffset": 1635936,
      "byteLength": 58080,
      "target": 34962,
      "byteStride": 8
    },
    {
      "buffer": 0,
      "byteOffset": 1694016,
      "byteLength": 87120,
      "target": 34962,
      "byteStride": 12
    }
  ],
  "buffers": [
    {
      "byteLength": 1781136,
      "uri": "data:application/octet-stream;base64,"
    }
  ],
  "accessors": [
    {
      "bufferView": 0,
      "componentType": 5126,
      "count": 6,
      "max": [
        200,
        200,
        200
      ],
      "min": [
        0,
        0,
        0
      ],
      "type": "VEC3"
    },
    {
      "bufferView": 1,
      "componentType": 5126,
      "count": 6,
      "max": [
        1,
        1,
        1
      ],
      "min": [
        0,
        0,
        0
      ],
      "type": "VEC3"
    },
    {
      "bufferView": 2,
      "componentType": 5126,
      "count": 8472,
      "max": [
        -282.4591979980469,
        104.3197250366211,
        -80.90274047851562
      ],
      "min": [
        -320.1064453125,
        -128.6759490966797,
        -118.95421600341797
      ],
      "type": "VEC3"
    },
    {
      "bufferView": 3,
      "componentType": 5126,
      "count": 8472,
      "max": [
        208.6394500732422,
        208.6394500732422
      ],
      "min": [
        -253.27452087402344,
        -257.3518981933594
      ],
      "type": "VEC2"
    },
    {
      "bufferView": 4,
      "componentType": 5126,
      "count": 8472,
      "max": [
        0.993644118309021,
        0.9563747644424438,
        0.9973997473716736
      ],
      "min": [
        -0.9687300324440002,
        -0.9677891731262207,
        -0.9989981651306152
      ],
      "type": "VEC3"
    },
    {
      "bufferView": 5,
      "componentType": 5126,
      "count": 1806,
      "max": [
        -289.3381652832031,
        101.90667724609375,
        113.06405639648438
      ],
      "min": [
        -313.27374267578125,
        -126.9200668334961,
        87.69688415527344
      ],
      "type": "VEC3"
    },
    {
      "bufferView": 6,
      "componentType": 5126,
      "count": 1806,
      "max": [
        203.8133544921875,
        203.8133544921875
      ],
      "min": [
        -253.8401336669922,
        -253.8401336669922
      ],
      "type": "VEC2"
    },
    {
      "bufferView": 7,
      "componentType": 5126,
      "count": 1806,
      "max": [
        0.9997835755348206,
        0.967772364616394,
        0.8928703665733337
      ],
      "min": [
        -0.5908644199371338,
        -0.981117308139801,
        -0.9002088904380798
      ],
      "type": "VEC3"
    },
    {
      "bufferView": 8,
      "componentType": 5126,
      "count": 12108,
      "max": [
        -81.39712524414062,
        103.02153015136719,
        -81.7652587890625
      ],
      "min": [
        -118.9029769897461,
        -129.84652709960938,
        -118.76130676269531
      ],
      "type": "VEC3"
    },
    {
      "bufferView": 9,
      "componentType": 5126,
      "count": 12108,
      "max": [
        201.92501831054688,
        206.04306030273438
      ],
      "min": [
        -257.9947509765625,
        -259.69305419921875
      ],
      "type": "VEC2"
    },
    {
      "bufferView": 10,
      "componentType": 5126,
      "count": 12108,
      "max": [
        0.9999305605888367,
        0.9781184792518616,
        0.987328290939331
      ],
      "min": [
        -0.9999305605888367,
        -0.946214497089386,
        -0.9872930645942688
      ],
      "type": "VEC3"
    },
    {
      "bufferView": 11,
      "componentType": 5126,
      "count": 4836,
      "max": [
        -81.4630126953125,
        101.21495056152344,
        115.50507354736328
      ],
      "min": [
        -120.35134887695312,
        -129.04710388183594,
        80.03233337402344
      ],
      "type": "VEC3"
    },
    {
      "bufferView": 12,
      "componentType": 5126,
      "count": 4836,
      "max": [
        37.07396697998047,
        202.42990112304688
      ],
      "min": [
        -40.70269012451172,
        -258.0942077636719
      ],
      "type": "VEC2"
    },
    {
      "bufferView": 13,
      "componentType": 5126,
      "count": 4836,
      "max": [
        0.8577030301094055,
        0.9966110587120056,
        0.8598142862319946
      ],
      "min": [
        -0.8577030897140503,
        -0.9627360105514526,
        -0.8598353862762451
      ],
      "type": "VEC3"
    },
    {
      "bufferView": 14,
      "componentType": 5126,
      "count": 6654,
      "max": [
        113.66935729980469,
        101.098876953125,
        -85.40742492675781
      ],
      "min": [
        84.52962493896484,
        -126.77342224121094,
        -115.018798828125
      ],
      "type": "VEC3"
    },
    {
      "bufferView": 15,
      "componentType": 5126,
      "count": 6654,
      "max": [
        198.9176025390625,
        202.19775390625
      ],
      "min": [
        -156.22232055664062,
        -253.54684448242188
      ],
      "type": "VEC2"
    },
    {
      "bufferView": 16,
      "componentType": 5126,
      "count": 6654,
      "max": [
        0.9998148679733276,
        0.9936681985855103,
        0.9999949932098389
      ],
      "min": [
        -0.9912645816802979,
        -0.9834118485450745,
        -0.987910807132721
      ],
      "type": "VEC3"
    },
    {
      "bufferView": 17,
      "componentType": 5126,
      "count": 6048,
      "max": [
        112.73899841308594,
        102.54304504394531,
        114.68606567382812
      ],
      "min": [
        85.54983520507812,
        -126.68302917480469,
        86.46844482421875
      ],
      "type": "VEC3"
    },
    {
      "bufferView": 18,
      "componentType": 5126,
      "count": 6048,
      "max": [
        201.63504028320312,
        205.08609008789062
      ],
      "min": [
        -28.90033721923828,
        -253.36605834960938
      ],
      "type": "VEC2"
    },
    {
      "bufferView": 19,
      "componentType": 5126,
      "count": 6048,
      "max": [
        0.9881443381309509,
        0.9670525193214417,
        0.9999760389328003
      ],
      "min": [
        -0.9881442785263062,
        -0.9856841564178467,
        -0.9999760985374451
      ],
      "type": "VEC3"
    },
    {
      "bufferView": 20,
      "componentType": 5126,
      "count": 8472,
      "max": [
        317.1532897949219,
        103.99624633789062,
        -81.1722412109375
      ],
      "min": [
        280.9277038574219,
        -126.16455841064453,
        -118.6489028930664
      ],
      "type": "VEC3"
    },
    {
      "bufferView": 21,
      "componentType": 5126,
      "count": 8472,
      "max": [
        203.941162109375,
        207.99249267578125
      ],
      "min": [
        -145.04994201660156,
        -252.32911682128906
      ],
      "type": "VEC2"
    },
    {
      "bufferView": 22,
      "componentType": 5126,
      "count": 8472,
      "max": [
        0.9975882172584534,
        0.9561973214149475,
        0.996909499168396
      ],
      "min": [
        -0.982261061668396,
        -0.9968146085739136,
        -0.9996131062507629
      ],
      "type": "VEC3"
    },
    {
      "bufferView": 23,
      "componentType": 5126,
      "count": 7260,
      "max": [
        318.0032653808594,
        102.91120910644531,
        117.06857299804688
      ],
      "min": [
        281.0024719238281,
        -127.30378723144531,
        82.43368530273438
      ],
      "type": "VEC3"
    },
    {
      "bufferView": 24,
      "componentType": 5126,
      "count": 7260,
      "max": [
        36.006526947021484,
        205.82241821289062
      ],
      "min": [
        -37.99504852294922,
        -254.60757446289062
      ],
      "type": "VEC2"
    },
    {
      "bufferView": 25,
      "componentType": 5126,
      "count": 7260,
      "max": [
        0.9065524339675903,
        0.9775412082672119,
        0.9986689686775208
      ],
      "min": [
        -0.9065725207328796,
        -0.9841741919517517,
        -0.9986692667007446
      ],
      "type": "VEC3"
    }
  ],
  "materials": [
    {
      "pbrMetallicRoughness": {
        "metallicFactor": 0.5,
        "roughnessFactor": 0.5
      }
    },
    {
      "pbrMetallicRoughness": {
        "baseColorFactor": [
          0.3015609788799487,
          0.4613928191486849,
          0.2008813658069697,
          1
        ],
        "metallicFactor": 0.5,
        "roughnessFactor": 0.5
      },
      "name": "Lambert_1"
    },
    {
      "pbrMetallicRoughness": {
        "baseColorFactor": [
          0.34712042665312026,
          0.9606090544468506,
          0.3552074394393876,
          1
        ],
        "metallicFactor": 0.5,
        "roughnessFactor": 0.5
      },
      "name": "Lambert_2"
    },
    {
      "pbrMetallicRoughness": {
        "baseColorFactor": [
          0.6882168238366113,
          0.7909817690487977,
          0.33740772875054104,
          1
        ],
        "metallicFactor": 0.5,
        "roughnessFactor": 0.5
      },
      "name": "Lambert_3"
    },
    {
      "pbrMetallicRoughness": {
        "baseColorFactor": [
          0.6095888787917432,
          0.8042271898375828,
          0.6681108450988391,
          1
        ],
        "metallicFactor": 0.5,
        "roughnessFactor": 0.5
      },
      "name": "Lambert_4"
    },
    {
      "pbrMetallicRoughness": {
        "baseColorFactor": [
          0.3664406497431092,
          0.3344233295192425,
          0.8457554359058583,
          1
        ],
        "metallicFactor": 0.5,
        "roughnessFactor": 0.5
      },
      "name": "Lambert_5"
    },
    {
      "pbrMetallicRoughness": {
        "baseColorFactor": [
          0.7557906891910873,
          0.32021061991243904,
          0.9614582539657412,
          1
        ],
        "metallicFactor": 0.5,
        "roughnessFactor": 0.5
      },
      "name": "Lambert_6"
    },
    {
      "pbrMetallicRoughness": {
        "baseColorFactor": [
          0.8056978195999451,
          0.5787436680829496,
          0.6126891107771915,
          1
        ],
        "metallicFactor": 0.5,
        "roughnessFactor": 0.5
      },
      "name": "Lambert_7"
    },
    {
      "pbrMetallicRoughness": {
        "baseColorFactor": [
          0.19431377903232683,
          0.23439315197585953,
          0.8122763346453743,
          1
        ],
        "metallicFactor": 0.5,
        "roughnessFactor": 0.5
      },
      "name": "Lambert_8"
    }
  ],
  "meshes": [
    {
      "primitives": [
        {
          "mode": 1,
          "attributes": {
            "POSITION": 0,
            "COLOR_0": 1
          },
          "material": 0
        }
      ]
    },
    {
      "primitives": [
        {
          "mode": 4,
          "attributes": {
            "POSITION": 2,
            "TEXCOORD_0": 3,
            "NORMAL": 4
          },
          "material": 1
        }
      ]
    },
    {
      "primitives": [
        {
          "mode": 4,
          "attributes": {
            "POSITION": 5,
            "TEXCOORD_0": 6,
            "NORMAL": 7
          },
          "material": 2
        }
      ]
    },
    {
      "primitives": [
        {
          "mode": 4,
          "attributes": {
            "POSITION": 8,
            "TEXCOORD_0": 9,
            "NORMAL": 10
          },
          "material": 3
        }
      ]
    },
    {
      "primitives": [
        {
          "mode": 4,
          "attributes": {
            "POSITION": 11,
            "TEXCOORD_0": 12,
            "NORMAL": 13
          },
          "material": 4
        }
      ]
    },
    {
      "primitives": [
        {
          "mode": 4,
          "attributes": {
            "POSITION": 14,
            "TEXCOORD_0": 15,
            "NORMAL": 16
          },
          "material": 5
        }
      ]
    },
    {
      "primitives": [
        {
          "mode": 4,
          "attributes": {
            "POSITION": 17,
            "TEXCOORD_0": 18,
            "NORMAL": 19
          },
          "material": 6
        }
      ]
    },
    {
      "primitives": [
        {
          "mode": 4,
          "attributes": {
            "POSITION": 20,
            "TEXCOORD_0": 21,
            "NORMAL": 22
          },
          "material": 7
        }
      ]
    },
    {
      "primitives": [
        {
          "mode": 4,
          "attributes": {
            "POSITION": 23,
            "TEXCOORD_0": 24,
            "NORMAL": 25
          },
          "material": 8
        }
      ]
    }
  ]
}