{
  "asset": {
    "version": "2.0",
    "generator": "THREE.GLTFExporter"
  },
  "scenes": [
    {
      "nodes": [
        0,
        1,
        2,
        3,
        4,
        5,
        6
      ]
    }
  ],
  "scene": 0,
  "nodes": [
    {
      "mesh": 0
    },
    {
      "mesh": 1
    },
    {
      "mesh": 2
    },
    {
      "mesh": 3
    },
    {
      "mesh": 4
    },
    {
      "mesh": 5
    },
    {
      "mesh": 6
    }
  ],
  "bufferViews": [
    {
      "buffer": 0,
      "byteOffset": 0,
      "byteLength": 72,
      "target": 34962,
      "byteStride": 12
    },
    {
      "buffer": 0,
      "byteOffset": 72,
      "byteLength": 72,
      "target": 34962,
      "byteStride": 12
    },
    {
      "buffer": 0,
      "byteOffset": 144,
      "byteLength": 144576,
      "target": 34962,
      "byteStride": 12
    },
    {
      "buffer": 0,
      "byteOffset": 144720,
      "byteLength": 96384,
      "target": 34962,
      "byteStride": 8
    },
    {
      "buffer": 0,
      "byteOffset": 241104,
      "byteLength": 144576,
      "target": 34962,
      "byteStride": 12
    },
    {
      "buffer": 0,
      "byteOffset": 385680,
      "byteLength": 238248,
      "target": 34962,
      "byteStride": 12
    },
    {
      "buffer": 0,
      "byteOffset": 623928,
      "byteLength": 158832,
      "target": 34962,
      "byteStride": 8
    },
    {
      "buffer": 0,
      "byteOffset": 782760,
      "byteLength": 238248,
      "target": 34962,
      "byteStride": 12
    },
    {
      "buffer": 0,
      "byteOffset": 1021008,
      "byteLength": 151560,
      "target": 34962,
      "byteStride": 12
    },
    {
      "buffer": 0,
      "byteOffset": 1172568,
      "byteLength": 101040,
      "target": 34962,
      "byteStride": 8
    },
    {
      "buffer": 0,
      "byteOffset": 1273608,
      "byteLength": 151560,
      "target": 34962,
      "byteStride": 12
    },
    {
      "buffer": 0,
      "byteOffset": 1425168,
      "byteLength": 190728,
      "target": 34962,
      "byteStride": 12
    },
    {
      "buffer": 0,
      "byteOffset": 1615896,
      "byteLength": 127152,
      "target": 34962,
      "byteStride": 8
    },
    {
      "buffer": 0,
      "byteOffset": 1743048,
      "byteLength": 190728,
      "target": 34962,
      "byteStride": 12
    },
    {
      "buffer": 0,
      "byteOffset": 1933776,
      "byteLength": 138960,
      "target": 34962,
      "byteStride": 12
    },
    {
      "buffer": 0,
      "byteOffset": 2072736,
      "byteLength": 92640,
      "target": 34962,
      "byteStride": 8
    },
    {
      "buffer": 0,
      "byteOffset": 2165376,
      "byteLength": 138960,
      "target": 34962,
      "byteStride": 12
    },
    {
      "buffer": 0,
      "byteOffset": 2304336,
      "byteLength": 75024,
      "target": 34962,
      "byteStride": 12
    },
    {
      "buffer": 0,
      "byteOffset": 2379360,
      "byteLength": 50016,
      "target": 34962,
      "byteStride": 8
    },
    {
      "buffer": 0,
      "byteOffset": 2429376,
      "byteLength": 75024,
      "target": 34962,
      "byteStride": 12
    }
  ],
  "buffers": [
    {
      "byteLength": 2504400,
      "uri": "data:application/octet-stream;base64,"
    }
  ],
  "accessors": [
    {
      "bufferView": 0,
      "componentType": 5126,
      "count": 6,
      "max": [
        200,
        200,
        200
      ],
      "min": [
        0,
        0,
        0
      ],
      "type": "VEC3"
    },
    {
      "bufferView": 1,
      "componentType": 5126,
      "count": 6,
      "max": [
        1,
        1,
        1
      ],
      "min": [
        0,
        0,
        0
      ],
      "type": "VEC3"
    },
    {
      "bufferView": 2,
      "componentType": 5126,
      "count": 12048,
      "max": [
        -138.76168823242188,
        64.19197845458984,
        -80.95504760742188
      ],
      "min": [
        -261.89715576171875,
        -64.07479858398438,
        -121.00776672363281
      ],
      "type": "VEC3"
    },
    {
      "bufferView": 3,
      "componentType": 5126,
      "count": 12048,
      "max": [
        128.3839569091797,
        43.01552963256836
      ],
      "min": [
        -128.14959716796875,
        -37.08991241455078
      ],
      "type": "VEC2"
    },
    {
      "bufferView": 4,
      "componentType": 5126,
      "count": 12048,
      "max": [
        0.9998689293861389,
        0.9994260668754578,
        0.9996545314788818
      ],
      "min": [
        -0.9991528987884521,
        -0.9989842772483826,
        -0.9987561106681824
      ],
      "type": "VEC3"
    },
    {
      "bufferView": 5,
      "componentType": 5126,
      "count": 19854,
      "max": [
        -133.6370086669922,
        65.80924987792969,
        114.94327545166016
      ],
      "min": [
        -264.89154052734375,
        -65.843505859375,
        83.69438171386719
      ],
      "type": "VEC3"
    },
    {
      "bufferView": 6,
      "componentType": 5126,
      "count": 19854,
      "max": [
        131.63211059570312,
        33.611236572265625
      ],
      "min": [
        -131.68701171875,
        -28.88654899597168
      ],
      "type": "VEC2"
    },
    {
      "bufferView": 7,
      "componentType": 5126,
      "count": 19854,
      "max": [
        0.9967728853225708,
        0.9998024702072144,
        0.999981164932251
      ],
      "min": [
        -0.9966766238212585,
        -0.9972594976425171,
        -0.9991186857223511
      ],
      "type": "VEC3"
    },
    {
      "bufferView": 8,
      "componentType": 5126,
      "count": 12630,
      "max": [
        65.89295959472656,
        65.77133178710938,
        -84.47958374023438
      ],
      "min": [
        -64.21466827392578,
        -65.00296783447266,
        -115.12886047363281
      ],
      "type": "VEC3"
    },
    {
      "bufferView": 9,
      "componentType": 5126,
      "count": 12630,
      "max": [
        131.78591918945312,
        31.25772476196289
      ],
      "min": [
        -130.0059356689453,
        -30.04082489013672
      ],
      "type": "VEC2"
    },
    {
      "bufferView": 10,
      "componentType": 5126,
      "count": 12630,
      "max": [
        0.9966129660606384,
        0.9992055296897888,
        0.9994691610336304
      ],
      "min": [
        -0.9974960088729858,
        -0.9976600408554077,
        -0.9994274377822876
      ],
      "type": "VEC3"
    },
    {
      "bufferView": 11,
      "componentType": 5126,
      "count": 15894,
      "max": [
        58.47477722167969,
        58.472572326660156,
        116.39395141601562
      ],
      "min": [
        -58.63028335571289,
        -58.533782958984375,
        84.45832061767578
      ],
      "type": "VEC3"
    },
    {
      "bufferView": 12,
      "componentType": 5126,
      "count": 15894,
      "max": [
        116.94955444335938,
        34.34296798706055
      ],
      "min": [
        -117.26056671142578,
        -31.787899017333984
      ],
      "type": "VEC2"
    },
    {
      "bufferView": 13,
      "componentType": 5126,
      "count": 15894,
      "max": [
        0.9982754588127136,
        0.9976608753204346,
        0.9991524815559387
      ],
      "min": [
        -0.9986461400985718,
        -0.9967756867408752,
        -0.9995699524879456
      ],
      "type": "VEC3"
    },
    {
      "bufferView": 14,
      "componentType": 5126,
      "count": 11580,
      "max": [
        258.3478088378906,
        59.37875747680664,
        -79.43207550048828
      ],
      "min": [
        140.96737670898438,
        -58.95256805419922,
        -119.94194030761719
      ],
      "type": "VEC3"
    },
    {
      "bufferView": 15,
      "componentType": 5126,
      "count": 11580,
      "max": [
        118.75751495361328,
        48.75531005859375
      ],
      "min": [
        -118.06523895263672,
        -40.13584899902344
      ],
      "type": "VEC2"
    },
    {
      "bufferView": 16,
      "componentType": 5126,
      "count": 11580,
      "max": [
        0.9992581009864807,
        0.9992138743400574,
        0.9998621940612793
      ],
      "min": [
        -0.9996175169944763,
        -0.999550461769104,
        -0.9998970627784729
      ],
      "type": "VEC3"
    },
    {
      "bufferView": 17,
      "componentType": 5126,
      "count": 6252,
      "max": [
        259.10797119140625,
        59.56122589111328,
        115.6663818359375
      ],
      "min": [
        140.0319061279297,
        -59.56848907470703,
        83.91975402832031
      ],
      "type": "VEC3"
    },
    {
      "bufferView": 18,
      "componentType": 5126,
      "count": 6252,
      "max": [
        119.12245178222656,
        33.16049575805664
      ],
      "min": [
        -119.93619537353516,
        -30.332765579223633
      ],
      "type": "VEC2"
    },
    {
      "bufferView": 19,
      "componentType": 5126,
      "count": 6252,
      "max": [
        0.8901665210723877,
        0.9245095252990723,
        0.8346635103225708
      ],
      "min": [
        -0.8901313543319702,
        -0.925451934337616,
        -0.8314790725708008
      ],
      "type": "VEC3"
    }
  ],
  "materials": [
    {
      "pbrMetallicRoughness": {
        "metallicFactor": 0.5,
        "roughnessFactor": 0.5
      }
    },
    {
      "pbrMetallicRoughness": {
        "baseColorFactor": [
          0.3015609788799487,
          0.4613928191486849,
          0.2008813658069697,
          1
        ],
        "metallicFactor": 0.5,
        "roughnessFactor": 0.5
      },
      "name": "Lambert_1"
    },
    {
      "pbrMetallicRoughness": {
        "baseColorFactor": [
          0.34712042665312026,
          0.9606090544468506,
          0.3552074394393876,
          1
        ],
        "metallicFactor": 0.5,
        "roughnessFactor": 0.5
      },
      "name": "Lambert_2"
    },
    {
      "pbrMetallicRoughness": {
        "baseColorFactor": [
          0.6882168238366113,
          0.7909817690487977,
          0.33740772875054104,
          1
        ],
        "metallicFactor": 0.5,
        "roughnessFactor": 0.5
      },
      "name": "Lambert_3"
    },
    {
      "pbrMetallicRoughness": {
        "baseColorFactor": [
          0.6095888787917432,
          0.8042271898375828,
          0.6681108450988391,
          1
        ],
        "metallicFactor": 0.5,
        "roughnessFactor": 0.5
      },
      "name": "Lambert_4"
    },
    {
      "pbrMetallicRoughness": {
        "baseColorFactor": [
          0.3664406497431092,
          0.3344233295192425,
          0.8457554359058583,
          1
        ],
        "metallicFactor": 0.5,
        "roughnessFactor": 0.5
      },
      "name": "Lambert_5"
    },
    {
      "pbrMetallicRoughness": {
        "baseColorFactor": [
          0.7557906891910873,
          0.32021061991243904,
          0.9614582539657412,
          1
        ],
        "metallicFactor": 0.5,
        "roughnessFactor": 0.5
      },
      "name": "Lambert_6"
    }
  ],
  "meshes": [
    {
      "primitives": [
        {
          "mode": 1,
          "attributes": {
            "POSITION": 0,
            "COLOR_0": 1
          },
          "material": 0
        }
      ]
    },
    {
      "primitives": [
        {
          "mode": 4,
          "attributes": {
            "POSITION": 2,
            "TEXCOORD_0": 3,
            "NORMAL": 4
          },
          "material": 1
        }
      ]
    },
    {
      "primitives": [
        {
          "mode": 4,
          "attributes": {
            "POSITION": 5,
            "TEXCOORD_0": 6,
            "NORMAL": 7
          },
          "material": 2
        }
      ]
    },
    {
      "primitives": [
        {
          "mode": 4,
          "attributes": {
            "POSITION": 8,
            "TEXCOORD_0": 9,
            "NORMAL": 10
          },
          "material": 3
        }
      ]
    },
    {
      "primitives": [
        {
          "mode": 4,
          "attributes": {
            "POSITION": 11,
            "TEXCOORD_0": 12,
            "NORMAL": 13
          },
          "material": 4
        }
      ]
    },
    {
      "primitives": [
        {
          "mode": 4,
          "attributes": {
            "POSITION": 14,
            "TEXCOORD_0": 15,
            "NORMAL": 16
          },
          "material": 5
        }
      ]
    },
    {
      "primitives": [
        {
          "mode": 4,
          "attributes": {
            "POSITION": 17,
            "TEXCOORD_0": 18,
            "NORMAL": 19
          },
          "material": 6
        }
      ]
    }
  ]
}