{
  "asset": {
    "version": "2.0",
    "generator": "THREE.GLTFExporter"
  },
  "scenes": [
    {
      "nodes": [
        0,
        1,
        2,
        3,
        4,
        5,
        6
      ]
    }
  ],
  "scene": 0,
  "nodes": [
    {
      "mesh": 0
    },
    {
      "mesh": 1
    },
    {
      "mesh": 2
    },
    {
      "mesh": 3
    },
    {
      "mesh": 4
    },
    {
      "mesh": 5
    },
    {
      "mesh": 6
    }
  ],
  "bufferViews": [
    {
      "buffer": 0,
      "byteOffset": 0,
      "byteLength": 72,
      "target": 34962,
      "byteStride": 12
    },
    {
      "buffer": 0,
      "byteOffset": 72,
      "byteLength": 72,
      "target": 34962,
      "byteStride": 12
    },
    {
      "buffer": 0,
      "byteOffset": 144,
      "byteLength": 15984,
      "target": 34962,
      "byteStride": 12
    },
    {
      "buffer": 0,
      "byteOffset": 16128,
      "byteLength": 10656,
      "target": 34962,
      "byteStride": 8
    },
    {
      "buffer": 0,
      "byteOffset": 26784,
      "byteLength": 15984,
      "target": 34962,
      "byteStride": 12
    },
    {
      "buffer": 0,
      "byteOffset": 42768,
      "byteLength": 13968,
      "target": 34962,
      "byteStride": 12
    },
    {
      "buffer": 0,
      "byteOffset": 56736,
      "byteLength": 9312,
      "target": 34962,
      "byteStride": 8
    },
    {
      "buffer": 0,
      "byteOffset": 66048,
      "byteLength": 13968,
      "target": 34962,
      "byteStride": 12
    },
    {
      "buffer": 0,
      "byteOffset": 80016,
      "byteLength": 5904,
      "target": 34962,
      "byteStride": 12
    },
    {
      "buffer": 0,
      "byteOffset": 85920,
      "byteLength": 3936,
      "target": 34962,
      "byteStride": 8
    },
    {
      "buffer": 0,
      "byteOffset": 89856,
      "byteLength": 5904,
      "target": 34962,
      "byteStride": 12
    },
    {
      "buffer": 0,
      "byteOffset": 95760,
      "byteLength": 11952,
      "target": 34962,
      "byteStride": 12
    },
    {
      "buffer": 0,
      "byteOffset": 107712,
      "byteLength": 7968,
      "target": 34962,
      "byteStride": 8
    },
    {
      "buffer": 0,
      "byteOffset": 115680,
      "byteLength": 11952,
      "target": 34962,
      "byteStride": 12
    },
    {
      "buffer": 0,
      "byteOffset": 127632,
      "byteLength": 10944,
      "target": 34962,
      "byteStride": 12
    },
    {
      "buffer": 0,
      "byteOffset": 138576,
      "byteLength": 7296,
      "target": 34962,
      "byteStride": 8
    },
    {
      "buffer": 0,
      "byteOffset": 145872,
      "byteLength": 10944,
      "target": 34962,
      "byteStride": 12
    },
    {
      "buffer": 0,
      "byteOffset": 156816,
      "byteLength": 9936,
      "target": 34962,
      "byteStride": 12
    },
    {
      "buffer": 0,
      "byteOffset": 166752,
      "byteLength": 6624,
      "target": 34962,
      "byteStride": 8
    },
    {
      "buffer": 0,
      "byteOffset": 173376,
      "byteLength": 9936,
      "target": 34962,
      "byteStride": 12
    }
  ],
  "buffers": [
    {
      "byteLength": 183312,
      "uri": "data:application/octet-stream;base64,"
    }
  ],
  "accessors": [
    {
      "bufferView": 0,
      "componentType": 5126,
      "count": 6,
      "max": [
        200,
        200,
        200
      ],
      "min": [
        0,
        0,
        0
      ],
      "type": "VEC3"
    },
    {
      "bufferView": 1,
      "componentType": 5126,
      "count": 6,
      "max": [
        1,
        1,
        1
      ],
      "min": [
        0,
        0,
        0
      ],
      "type": "VEC3"
    },
    {
      "bufferView": 2,
      "componentType": 5126,
      "count": 1332,
      "max": [
        -65.06871795654297,
        34.93128204345703,
        -175
      ],
      "min": [
        -134.9312744140625,
        -34.93128204345703,
        -205
      ],
      "type": "VEC3"
    },
    {
      "bufferView": 3,
      "componentType": 5126,
      "count": 1332,
      "max": [
        30,
        30
      ],
      "min": [
        -30,
        -30
      ],
      "type": "VEC2"
    },
    {
      "bufferView": 4,
      "componentType": 5126,
      "count": 1332,
      "max": [
        0.9869163632392883,
        0.9869163632392883,
        1
      ],
      "min": [
        -0.9869163632392883,
        -0.9869163632392883,
        -1
      ],
      "type": "VEC3"
    },
    {
      "bufferView": 5,
      "componentType": 5126,
      "count": 1164,
      "max": [
        -65.13008880615234,
        33.924034118652344,
        25
      ],
      "min": [
        -131.3719482421875,
        -33.924034118652344,
        -5
      ],
      "type": "VEC3"
    },
    {
      "bufferView": 6,
      "componentType": 5126,
      "count": 1164,
      "max": [
        33.924034118652344,
        29.200000762939453
      ],
      "min": [
        -33.924034118652344,
        -29.200000762939453
      ],
      "type": "VEC2"
    },
    {
      "bufferView": 7,
      "componentType": 5126,
      "count": 1164,
      "max": [
        0.9580336809158325,
        0.9976625442504883,
        1
      ],
      "min": [
        -0.9883716702461243,
        -0.9976625442504883,
        -1
      ],
      "type": "VEC3"
    },
    {
      "bufferView": 8,
      "componentType": 5126,
      "count": 492,
      "max": [
        -75.37982940673828,
        21.299999237060547,
        225
      ],
      "min": [
        -124.62017059326172,
        -21.299999237060547,
        195
      ],
      "type": "VEC3"
    },
    {
      "bufferView": 9,
      "componentType": 5126,
      "count": 492,
      "max": [
        21.299999237060547,
        17.299999237060547
      ],
      "min": [
        -21.299999237060547,
        -24
      ],
      "type": "VEC2"
    },
    {
      "bufferView": 10,
      "componentType": 5126,
      "count": 492,
      "max": [
        0.8657686710357666,
        1,
        1
      ],
      "min": [
        -0.8657686710357666,
        -1,
        -1
      ],
      "type": "VEC3"
    },
    {
      "bufferView": 11,
      "componentType": 5126,
      "count": 996,
      "max": [
        134.80149841308594,
        30.168655395507812,
        -175
      ],
      "min": [
        65.19850158691406,
        -30.168655395507812,
        -205
      ],
      "type": "VEC3"
    },
    {
      "bufferView": 12,
      "componentType": 5126,
      "count": 996,
      "max": [
        30.168655395507812,
        26
      ],
      "min": [
        -30.168655395507812,
        -26
      ],
      "type": "VEC2"
    },
    {
      "bufferView": 13,
      "componentType": 5126,
      "count": 996,
      "max": [
        0.8957503437995911,
        0.9977851510047913,
        1
      ],
      "min": [
        -0.8957503437995911,
        -0.9977851510047913,
        -1
      ],
      "type": "VEC3"
    },
    {
      "bufferView": 14,
      "componentType": 5126,
      "count": 912,
      "max": [
        124.17189025878906,
        23.926546096801758,
        25
      ],
      "min": [
        76.80000305175781,
        -23.926546096801758,
        -5
      ],
      "type": "VEC3"
    },
    {
      "bufferView": 15,
      "componentType": 5126,
      "count": 912,
      "max": [
        20.304838180541992,
        19.799999237060547
      ],
      "min": [
        -19.200000762939453,
        -24
      ],
      "type": "VEC2"
    },
    {
      "bufferView": 16,
      "componentType": 5126,
      "count": 912,
      "max": [
        0.9587981104850769,
        0.9898784160614014,
        1
      ],
      "min": [
        -1,
        -0.9898784160614014,
        -1
      ],
      "type": "VEC3"
    },
    {
      "bufferView": 17,
      "componentType": 5126,
      "count": 828,
      "max": [
        124.2022933959961,
        23,
        225
      ],
      "min": [
        75.7977066040039,
        -23,
        195
      ],
      "type": "VEC3"
    },
    {
      "bufferView": 18,
      "componentType": 5126,
      "count": 828,
      "max": [
        20,
        19
      ],
      "min": [
        -20,
        -24
      ],
      "type": "VEC2"
    },
    {
      "bufferView": 19,
      "componentType": 5126,
      "count": 828,
      "max": [
        0.9518606066703796,
        1,
        1
      ],
      "min": [
        -0.9518606066703796,
        -1,
        -1
      ],
      "type": "VEC3"
    }
  ],
  "materials": [
    {
      "pbrMetallicRoughness": {
        "metallicFactor": 0.5,
        "roughnessFactor": 0.5
      }
    },
    {
      "pbrMetallicRoughness": {
        "baseColorFactor": [
          0.8811640584169489,
          0.7839130443004585,
          0.44286553207126533,
          1
        ],
        "metallicFactor": 0.5,
        "roughnessFactor": 0.5
      },
      "name": "Lambert_Flat_1"
    },
    {
      "pbrMetallicRoughness": {
        "baseColorFactor": [
          0.28417508939073066,
          0.9891279426516262,
          0.04742094579582412,
          1
        ],
        "metallicFactor": 0.5,
        "roughnessFactor": 0.5
      },
      "name": "Lambert_Flat_2"
    },
    {
      "pbrMetallicRoughness": {
        "baseColorFactor": [
          0.7349761414332534,
          0.4026074736516112,
          0.014513593402467606,
          1
        ],
        "metallicFactor": 0.5,
        "roughnessFactor": 0.5
      },
      "name": "Lambert_Flat_3"
    },
    {
      "pbrMetallicRoughness": {
        "baseColorFactor": [
          0.44587461929333205,
          0.2886601461172993,
          0.2338877916944897,
          1
        ],
        "metallicFactor": 0.5,
        "roughnessFactor": 0.5
      },
      "name": "Lambert_Flat_4"
    },
    {
      "pbrMetallicRoughness": {
        "baseColorFactor": [
          0.7071016942980173,
          0.7237241696409538,
          0.28636947509748656,
          1
        ],
        "metallicFactor": 0.5,
        "roughnessFactor": 0.5
      },
      "name": "Lambert_Flat_5"
    },
    {
      "pbrMetallicRoughness": {
        "baseColorFactor": [
          0.6465049050684255,
          0.36117389895850005,
          0.6905448777602925,
          1
        ],
        "metallicFactor": 0.5,
        "roughnessFactor": 0.5
      },
      "name": "Lambert_Flat_6"
    }
  ],
  "meshes": [
    {
      "primitives": [
        {
          "mode": 1,
          "attributes": {
            "POSITION": 0,
            "COLOR_0": 1
          },
          "material": 0
        }
      ]
    },
    {
      "primitives": [
        {
          "mode": 4,
          "attributes": {
            "POSITION": 2,
            "TEXCOORD_0": 3,
            "NORMAL": 4
          },
          "material": 1
        }
      ]
    },
    {
      "primitives": [
        {
          "mode": 4,
          "attributes": {
            "POSITION": 5,
            "TEXCOORD_0": 6,
            "NORMAL": 7
          },
          "material": 2
        }
      ]
    },
    {
      "primitives": [
        {
          "mode": 4,
          "attributes": {
            "POSITION": 8,
            "TEXCOORD_0": 9,
            "NORMAL": 10
          },
          "material": 3
        }
      ]
    },
    {
      "primitives": [
        {
          "mode": 4,
          "attributes": {
            "POSITION": 11,
            "TEXCOORD_0": 12,
            "NORMAL": 13
          },
          "material": 4
        }
      ]
    },
    {
      "primitives": [
        {
          "mode": 4,
          "attributes": {
            "POSITION": 14,
            "TEXCOORD_0": 15,
            "NORMAL": 16
          },
          "material": 5
        }
      ]
    },
    {
      "primitives": [
        {
          "mode": 4,
          "attributes": {
            "POSITION": 17,
            "TEXCOORD_0": 18,
            "NORMAL": 19
          },
          "material": 6
        }
      ]
    }
  ]
}