{
  "asset": {
    "version": "2.0",
    "generator": "THREE.GLTFExporter"
  },
  "scenes": [
    {
      "nodes": [
        0,
        1,
        2,
        3,
        4,
        5,
        6,
        7,
        8
      ]
    }
  ],
  "scene": 0,
  "nodes": [
    {
      "mesh": 0
    },
    {
      "mesh": 1
    },
    {
      "mesh": 2
    },
    {
      "mesh": 3
    },
    {
      "mesh": 4
    },
    {
      "mesh": 5
    },
    {
      "mesh": 6
    },
    {
      "mesh": 7
    },
    {
      "mesh": 8
    }
  ],
  "bufferViews": [
    {
      "buffer": 0,
      "byteOffset": 0,
      "byteLength": 72,
      "target": 34962,
      "byteStride": 12
    },
    {
      "buffer": 0,
      "byteOffset": 72,
      "byteLength": 72,
      "target": 34962,
      "byteStride": 12
    },
    {
      "buffer": 0,
      "byteOffset": 144,
      "byteLength": 72576,
      "target": 34962,
      "byteStride": 12
    },
    {
      "buffer": 0,
      "byteOffset": 72720,
      "byteLength": 48384,
      "target": 34962,
      "byteStride": 8
    },
    {
      "buffer": 0,
      "byteOffset": 121104,
      "byteLength": 72576,
      "target": 34962,
      "byteStride": 12
    },
    {
      "buffer": 0,
      "byteOffset": 193680,
      "byteLength": 101664,
      "target": 34962,
      "byteStride": 12
    },
    {
      "buffer": 0,
      "byteOffset": 295344,
      "byteLength": 67776,
      "target": 34962,
      "byteStride": 8
    },
    {
      "buffer": 0,
      "byteOffset": 363120,
      "byteLength": 101664,
      "target": 34962,
      "byteStride": 12
    },
    {
      "buffer": 0,
      "byteOffset": 464784,
      "byteLength": 79848,
      "target": 34962,
      "byteStride": 12
    },
    {
      "buffer": 0,
      "byteOffset": 544632,
      "byteLength": 53232,
      "target": 34962,
      "byteStride": 8
    },
    {
      "buffer": 0,
      "byteOffset": 597864,
      "byteLength": 79848,
      "target": 34962,
      "byteStride": 12
    },
    {
      "buffer": 0,
      "byteOffset": 677712,
      "byteLength": 145296,
      "target": 34962,
      "byteStride": 12
    },
    {
      "buffer": 0,
      "byteOffset": 823008,
      "byteLength": 96864,
      "target": 34962,
      "byteStride": 8
    },
    {
      "buffer": 0,
      "byteOffset": 919872,
      "byteLength": 145296,
      "target": 34962,
      "byteStride": 12
    },
    {
      "buffer": 0,
      "byteOffset": 1065168,
      "byteLength": 58032,
      "target": 34962,
      "byteStride": 12
    },
    {
      "buffer": 0,
      "byteOffset": 1123200,
      "byteLength": 38688,
      "target": 34962,
      "byteStride": 8
    },
    {
      "buffer": 0,
      "byteOffset": 1161888,
      "byteLength": 58032,
      "target": 34962,
      "byteStride": 12
    },
    {
      "buffer": 0,
      "byteOffset": 1219920,
      "byteLength": 116208,
      "target": 34962,
      "byteStride": 12
    },
    {
      "buffer": 0,
      "byteOffset": 1336128,
      "byteLength": 77472,
      "target": 34962,
      "byteStride": 8
    },
    {
      "buffer": 0,
      "byteOffset": 1413600,
      "byteLength": 116208,
      "target": 34962,
      "byteStride": 12
    },
    {
      "buffer": 0,
      "byteOffset": 1529808,
      "byteLength": 36216,
      "target": 34962,
      "byteStride": 12
    },
    {
      "buffer": 0,
      "byteOffset": 1566024,
      "byteLength": 24144,
      "target": 34962,
      "byteStride": 8
    },
    {
      "buffer": 0,
      "byteOffset": 1590168,
      "byteLength": 36216,
      "target": 34962,
      "byteStride": 12
    },
    {
      "buffer": 0,
      "byteOffset": 1626384,
      "byteLength": 28944,
      "target": 34962,
      "byteStride": 12
    },
    {
      "buffer": 0,
      "byteOffset": 1655328,
      "byteLength": 19296,
      "target": 34962,
      "byteStride": 8
    },
    {
      "buffer": 0,
      "byteOffset": 1674624,
      "byteLength": 28944,
      "target": 34962,
      "byteStride": 12
    }
  ],
  "buffers": [
    {
      "byteLength": 1703568,
      "uri": "data:application/octet-stream;base64,"
    }
  ],
  "accessors": [
    {
      "bufferView": 0,
      "componentType": 5126,
      "count": 6,
      "max": [
        200,
        200,
        200
      ],
      "min": [
        0,
        0,
        0
      ],
      "type": "VEC3"
    },
    {
      "bufferView": 1,
      "componentType": 5126,
      "count": 6,
      "max": [
        1,
        1,
        1
      ],
      "min": [
        0,
        0,
        0
      ],
      "type": "VEC3"
    },
    {
      "bufferView": 2,
      "componentType": 5126,
      "count": 6048,
      "max": [
        -281.3174133300781,
        101.6664047241211,
        -82.50267791748047
      ],
      "min": [
        -318.4490661621094,
        -125.59478759765625,
        -119.58901977539062
      ],
      "type": "VEC3"
    },
    {
      "bufferView": 3,
      "componentType": 5126,
      "count": 6048,
      "max": [
        155.2672119140625,
        203.3328094482422
      ],
      "min": [
        -95.9603500366211,
        -251.1895751953125
      ],
      "type": "VEC2"
    },
    {
      "bufferView": 4,
      "componentType": 5126,
      "count": 6048,
      "max": [
        0.9636482000350952,
        0.991123616695404,
        0.9995775818824768
      ],
      "min": [
        -0.9888960719108582,
        -0.9989996552467346,
        -0.9991435408592224
      ],
      "type": "VEC3"
    },
    {
      "bufferView": 5,
      "componentType": 5126,
      "count": 8472,
      "max": [
        -281.83782958984375,
        103.50332641601562,
        119.19062805175781
      ],
      "min": [
        -319.08209228515625,
        -126.45490264892578,
        81.01166534423828
      ],
      "type": "VEC3"
    },
    {
      "bufferView": 6,
      "componentType": 5126,
      "count": 8472,
      "max": [
        199.95166015625,
        207.00665283203125
      ],
      "min": [
        -202.35845947265625,
        -252.90980529785156
      ],
      "type": "VEC2"
    },
    {
      "bufferView": 7,
      "componentType": 5126,
      "count": 8472,
      "max": [
        0.9972922801971436,
        0.9707008004188538,
        0.995853841304779
      ],
      "min": [
        -0.999859094619751,
        -0.9950239658355713,
        -0.9771572351455688
      ],
      "type": "VEC3"
    },
    {
      "bufferView": 8,
      "componentType": 5126,
      "count": 6654,
      "max": [
        -85.92980194091797,
        103.37068939208984,
        -85.55607604980469
      ],
      "min": [
        -113.14501190185547,
        -126.76237487792969,
        -114.359375
      ],
      "type": "VEC3"
    },
    {
      "bufferView": 9,
      "componentType": 5126,
      "count": 6654,
      "max": [
        204.89527893066406,
        206.7413787841797
      ],
      "min": [
        -249.39791870117188,
        -253.52474975585938
      ],
      "type": "VEC2"
    },
    {
      "bufferView": 10,
      "componentType": 5126,
      "count": 6654,
      "max": [
        0.99998939037323,
        0.9386425018310547,
        0.9907251596450806
      ],
      "min": [
        -0.9680994153022766,
        -0.9843466281890869,
        -0.9942145943641663
      ],
      "type": "VEC3"
    },
    {
      "bufferView": 11,
      "componentType": 5126,
      "count": 12108,
      "max": [
        -81.15966033935547,
        104.38555908203125,
        120.02275848388672
      ],
      "min": [
        -118.34954071044922,
        -127.70375061035156,
        82.57261657714844
      ],
      "type": "VEC3"
    },
    {
      "bufferView": 12,
      "componentType": 5126,
      "count": 12108,
      "max": [
        37.68068313598633,
        208.7711181640625
      ],
      "min": [
        -36.69907760620117,
        -255.40750122070312
      ],
      "type": "VEC2"
    },
    {
      "bufferView": 13,
      "componentType": 5126,
      "count": 12108,
      "max": [
        0.9836629629135132,
        0.9561951160430908,
        0.9998322129249573
      ],
      "min": [
        -0.9836751222610474,
        -0.9826315641403198,
        -0.9998320937156677
      ],
      "type": "VEC3"
    },
    {
      "bufferView": 14,
      "componentType": 5126,
      "count": 4836,
      "max": [
        112.46550750732422,
        102.12689971923828,
        -84.81535339355469
      ],
      "min": [
        85.45470428466797,
        -128.22169494628906,
        -114.97247314453125
      ],
      "type": "VEC3"
    },
    {
      "bufferView": 15,
      "componentType": 5126,
      "count": 4836,
      "max": [
        24.931015014648438,
        204.25379943847656
      ],
      "min": [
        -249.01284790039062,
        -256.4433898925781
      ],
      "type": "VEC2"
    },
    {
      "bufferView": 16,
      "componentType": 5126,
      "count": 4836,
      "max": [
        0.9603676199913025,
        0.9764438271522522,
        0.9603632688522339
      ],
      "min": [
        -0.9603654146194458,
        -0.9384737014770508,
        -0.9603782892227173
      ],
      "type": "VEC3"
    },
    {
      "bufferView": 17,
      "componentType": 5126,
      "count": 9684,
      "max": [
        120.0311050415039,
        103.50788879394531,
        116.48397064208984
      ],
      "min": [
        79.75608825683594,
        -127.9425048828125,
        79.88433074951172
      ],
      "type": "VEC3"
    },
    {
      "bufferView": 18,
      "componentType": 5126,
      "count": 9684,
      "max": [
        205.25579833984375,
        207.01577758789062
      ],
      "min": [
        -183.46438598632812,
        -255.885009765625
      ],
      "type": "VEC2"
    },
    {
      "bufferView": 19,
      "componentType": 5126,
      "count": 9684,
      "max": [
        0.9937935471534729,
        0.9721691012382507,
        0.9941667914390564
      ],
      "min": [
        -0.9935597777366638,
        -0.9805706143379211,
        -0.9941666126251221
      ],
      "type": "VEC3"
    },
    {
      "bufferView": 20,
      "componentType": 5126,
      "count": 3018,
      "max": [
        314.0868835449219,
        101.57305145263672,
        -87.5252456665039
      ],
      "min": [
        287.8014831542969,
        -127.84845733642578,
        -114.52716064453125
      ],
      "type": "VEC3"
    },
    {
      "bufferView": 21,
      "componentType": 5126,
      "count": 3018,
      "max": [
        28.173782348632812,
        203.14610290527344
      ],
      "min": [
        -134.30917358398438,
        -255.69691467285156
      ],
      "type": "VEC2"
    },
    {
      "bufferView": 22,
      "componentType": 5126,
      "count": 3018,
      "max": [
        0.9701470136642456,
        0.9854958653450012,
        0.9999499917030334
      ],
      "min": [
        -0.9570123553276062,
        -0.9584776759147644,
        -0.8461376428604126
      ],
      "type": "VEC3"
    },
    {
      "bufferView": 23,
      "componentType": 5126,
      "count": 2412,
      "max": [
        312.9308776855469,
        101.89099884033203,
        115.47346496582031
      ],
      "min": [
        284.9879455566406,
        -126.77333068847656,
        85.41989135742188
      ],
      "type": "VEC3"
    },
    {
      "bufferView": 24,
      "componentType": 5126,
      "count": 2412,
      "max": [
        25.861764907836914,
        203.78199768066406
      ],
      "min": [
        -30.02408790588379,
        -253.54666137695312
      ],
      "type": "VEC2"
    },
    {
      "bufferView": 25,
      "componentType": 5126,
      "count": 2412,
      "max": [
        0.8190122842788696,
        0.9699645042419434,
        0.8271994590759277
      ],
      "min": [
        -0.8190112709999084,
        -0.9773486852645874,
        -0.8272000551223755
      ],
      "type": "VEC3"
    }
  ],
  "materials": [
    {
      "pbrMetallicRoughness": {
        "metallicFactor": 0.5,
        "roughnessFactor": 0.5
      }
    },
    {
      "pbrMetallicRoughness": {
        "baseColorFactor": [
          0.3183831998390869,
          0.8616324739420125,
          0.7838793125673336,
          0.3747939295091426
        ],
        "metallicFactor": 0.5,
        "roughnessFactor": 0.5
      },
      "alphaMode": "BLEND",
      "doubleSided": true,
      "name": "Lambert_Flat_Transparent_1"
    },
    {
      "pbrMetallicRoughness": {
        "baseColorFactor": [
          0.5178260608242602,
          0.04085214301507811,
          0.603662977192654,
          0.3597012423748192
        ],
        "metallicFactor": 0.5,
        "roughnessFactor": 0.5
      },
      "alphaMode": "BLEND",
      "doubleSided": true,
      "name": "Lambert_Flat_Transparent_2"
    },
    {
      "pbrMetallicRoughness": {
        "baseColorFactor": [
          0.885224571641333,
          0.1662813719649041,
          0.661193296918863,
          0.3341700683679122
        ],
        "metallicFactor": 0.5,
        "roughnessFactor": 0.5
      },
      "alphaMode": "BLEND",
      "doubleSided": true,
      "name": "Lambert_Flat_Transparent_3"
    },
    {
      "pbrMetallicRoughness": {
        "baseColorFactor": [
          0.5003517847504033,
          0.9380091954465699,
          0.5289212424850891,
          0.47887100618171574
        ],
        "metallicFactor": 0.5,
        "roughnessFactor": 0.5
      },
      "alphaMode": "BLEND",
      "doubleSided": true,
      "name": "Lambert_Flat_Transparent_4"
    },
    {
      "pbrMetallicRoughness": {
        "baseColorFactor": [
          0.8099720801066321,
          0.590981658153245,
          0.8869602359467963,
          0.3104188825941653
        ],
        "metallicFactor": 0.5,
        "roughnessFactor": 0.5
      },
      "alphaMode": "BLEND",
      "doubleSided": true,
      "name": "Lambert_Flat_Transparent_5"
    },
    {
      "pbrMetallicRoughness": {
        "baseColorFactor": [
          0.6033880032358667,
          0.1844218139423961,
          0.001184786226257728,
          0.29216602495143507
        ],
        "metallicFactor": 0.5,
        "roughnessFactor": 0.5
      },
      "alphaMode": "BLEND",
      "doubleSided": true,
      "name": "Lambert_Flat_Transparent_6"
    },
    {
      "pbrMetallicRoughness": {
        "baseColorFactor": [
          0.37425919104252015,
          0.9783094530524898,
          0.7503003355503948,
          0.436947003595733
        ],
        "metallicFactor": 0.5,
        "roughnessFactor": 0.5
      },
      "alphaMode": "BLEND",
      "doubleSided": true,
      "name": "Lambert_Flat_Transparent_7"
    },
    {
      "pbrMetallicRoughness": {
        "baseColorFactor": [
          0.32677855349599727,
          0.9199366826592257,
          0.7547890511900506,
          0.4788034484892102
        ],
        "metallicFactor": 0.5,
        "roughnessFactor": 0.5
      },
      "alphaMode": "BLEND",
      "doubleSided": true,
      "name": "Lambert_Flat_Transparent_8"
    }
  ],
  "meshes": [
    {
      "primitives": [
        {
          "mode": 1,
          "attributes": {
            "POSITION": 0,
            "COLOR_0": 1
          },
          "material": 0
        }
      ]
    },
    {
      "primitives": [
        {
          "mode": 4,
          "attributes": {
            "POSITION": 2,
            "TEXCOORD_0": 3,
            "NORMAL": 4
          },
          "material": 1
        }
      ]
    },
    {
      "primitives": [
        {
          "mode": 4,
          "attributes": {
            "POSITION": 5,
            "TEXCOORD_0": 6,
            "NORMAL": 7
          },
          "material": 2
        }
      ]
    },
    {
      "primitives": [
        {
          "mode": 4,
          "attributes": {
            "POSITION": 8,
            "TEXCOORD_0": 9,
            "NORMAL": 10
          },
          "material": 3
        }
      ]
    },
    {
      "primitives": [
        {
          "mode": 4,
          "attributes": {
            "POSITION": 11,
            "TEXCOORD_0": 12,
            "NORMAL": 13
          },
          "material": 4
        }
      ]
    },
    {
      "primitives": [
        {
          "mode": 4,
          "attributes": {
            "POSITION": 14,
            "TEXCOORD_0": 15,
            "NORMAL": 16
          },
          "material": 5
        }
      ]
    },
    {
      "primitives": [
        {
          "mode": 4,
          "attributes": {
            "POSITION": 17,
            "TEXCOORD_0": 18,
            "NORMAL": 19
          },
          "material": 6
        }
      ]
    },
    {
      "primitives": [
        {
          "mode": 4,
          "attributes": {
            "POSITION": 20,
            "TEXCOORD_0": 21,
            "NORMAL": 22
          },
          "material": 7
        }
      ]
    },
    {
      "primitives": [
        {
          "mode": 4,
          "attributes": {
            "POSITION": 23,
            "TEXCOORD_0": 24,
            "NORMAL": 25
          },
          "material": 8
        }
      ]
    }
  ]
}