{
  "asset": {
    "version": "2.0",
    "generator": "THREE.GLTFExporter"
  },
  "scenes": [
    {
      "nodes": [
        0,
        1,
        2,
        3,
        4
      ]
    }
  ],
  "scene": 0,
  "nodes": [
    {
      "mesh": 0
    },
    {
      "mesh": 1
    },
    {
      "mesh": 2
    },
    {
      "mesh": 3
    },
    {
      "mesh": 4
    }
  ],
  "bufferViews": [
    {
      "buffer": 0,
      "byteOffset": 0,
      "byteLength": 72,
      "target": 34962,
      "byteStride": 12
    },
    {
      "buffer": 0,
      "byteOffset": 72,
      "byteLength": 72,
      "target": 34962,
      "byteStride": 12
    },
    {
      "buffer": 0,
      "byteOffset": 144,
      "byteLength": 104400,
      "target": 34962,
      "byteStride": 12
    },
    {
      "buffer": 0,
      "byteOffset": 104544,
      "byteLength": 69600,
      "target": 34962,
      "byteStride": 8
    },
    {
      "buffer": 0,
      "byteOffset": 174144,
      "byteLength": 104400,
      "target": 34962,
      "byteStride": 12
    },
    {
      "buffer": 0,
      "byteOffset": 278544,
      "byteLength": 93816,
      "target": 34962,
      "byteStride": 12
    },
    {
      "buffer": 0,
      "byteOffset": 372360,
      "byteLength": 62544,
      "target": 34962,
      "byteStride": 8
    },
    {
      "buffer": 0,
      "byteOffset": 434904,
      "byteLength": 93816,
      "target": 34962,
      "byteStride": 12
    },
    {
      "buffer": 0,
      "byteOffset": 528720,
      "byteLength": 46224,
      "target": 34962,
      "byteStride": 12
    },
    {
      "buffer": 0,
      "byteOffset": 574944,
      "byteLength": 30816,
      "target": 34962,
      "byteStride": 8
    },
    {
      "buffer": 0,
      "byteOffset": 605760,
      "byteLength": 46224,
      "target": 34962,
      "byteStride": 12
    },
    {
      "buffer": 0,
      "byteOffset": 651984,
      "byteLength": 127152,
      "target": 34962,
      "byteStride": 12
    },
    {
      "buffer": 0,
      "byteOffset": 779136,
      "byteLength": 84768,
      "target": 34962,
      "byteStride": 8
    },
    {
      "buffer": 0,
      "byteOffset": 863904,
      "byteLength": 127152,
      "target": 34962,
      "byteStride": 12
    }
  ],
  "buffers": [
    {
      "byteLength": 991056,
      "uri": "data:application/octet-stream;base64,"
    }
  ],
  "accessors": [
    {
      "bufferView": 0,
      "componentType": 5126,
      "count": 6,
      "max": [
        200,
        200,
        200
      ],
      "min": [
        0,
        0,
        0
      ],
      "type": "VEC3"
    },
    {
      "bufferView": 1,
      "componentType": 5126,
      "count": 6,
      "max": [
        1,
        1,
        1
      ],
      "min": [
        0,
        0,
        0
      ],
      "type": "VEC3"
    },
    {
      "bufferView": 2,
      "componentType": 5126,
      "count": 8700,
      "max": [
        -46.80945587158203,
        59.84870147705078,
        -86.53900146484375
      ],
      "min": [
        -153.11236572265625,
        -59.633995056152344,
        -115.80126190185547
      ],
      "type": "VEC3"
    },
    {
      "bufferView": 3,
      "componentType": 5126,
      "count": 8700,
      "max": [
        119.69740295410156,
        59.97350311279297
      ],
      "min": [
        -119.26799011230469,
        -25.9219913482666
      ],
      "type": "VEC2"
    },
    {
      "bufferView": 4,
      "componentType": 5126,
      "count": 8700,
      "max": [
        0.9934459328651428,
        0.9974693059921265,
        0.9999616742134094
      ],
      "min": [
        -0.9995816349983215,
        -0.997907817363739,
        -0.9999616742134094
      ],
      "type": "VEC3"
    },
    {
      "bufferView": 5,
      "componentType": 5126,
      "count": 7818,
      "max": [
        -41.41795349121094,
        59.05195999145508,
        114.47283172607422
      ],
      "min": [
        -159.63827514648438,
        -58.89915466308594,
        84.05724334716797
      ],
      "type": "VEC3"
    },
    {
      "bufferView": 6,
      "componentType": 5126,
      "count": 7818,
      "max": [
        118.10391998291016,
        32.88551330566406
      ],
      "min": [
        -119.27654266357422,
        -27.945669174194336
      ],
      "type": "VEC2"
    },
    {
      "bufferView": 7,
      "componentType": 5126,
      "count": 7818,
      "max": [
        0.9910432696342468,
        0.9852299094200134,
        0.9999170303344727
      ],
      "min": [
        -0.9484544992446899,
        -0.977126955986023,
        -0.9981024861335754
      ],
      "type": "VEC3"
    },
    {
      "bufferView": 8,
      "componentType": 5126,
      "count": 3852,
      "max": [
        155.1583251953125,
        54.5975227355957,
        -84.82572937011719
      ],
      "min": [
        44.16508865356445,
        -55.07101821899414,
        -115.4957046508789
      ],
      "type": "VEC3"
    },
    {
      "bufferView": 9,
      "componentType": 5126,
      "count": 3852,
      "max": [
        110.31664276123047,
        46.352298736572266
      ],
      "min": [
        -111.6698226928711,
        -29.34853744506836
      ],
      "type": "VEC2"
    },
    {
      "bufferView": 10,
      "componentType": 5126,
      "count": 3852,
      "max": [
        0.9994808435440063,
        0.9823853373527527,
        0.9836221933364868
      ],
      "min": [
        -0.9995009303092957,
        -0.9754176735877991,
        -0.9836859703063965
      ],
      "type": "VEC3"
    },
    {
      "bufferView": 11,
      "componentType": 5126,
      "count": 10596,
      "max": [
        163.00758361816406,
        63.16896057128906,
        121.2113037109375
      ],
      "min": [
        35.95525360107422,
        -64.04185485839844,
        79.18431854248047
      ],
      "type": "VEC3"
    },
    {
      "bufferView": 12,
      "componentType": 5126,
      "count": 10596,
      "max": [
        126.33792114257812,
        42.63136672973633
      ],
      "min": [
        -128.08949279785156,
        -41.422611236572266
      ],
      "type": "VEC2"
    },
    {
      "bufferView": 13,
      "componentType": 5126,
      "count": 10596,
      "max": [
        0.9991634488105774,
        0.9797748923301697,
        0.985974133014679
      ],
      "min": [
        -0.9987475872039795,
        -0.9863519072532654,
        -0.986019492149353
      ],
      "type": "VEC3"
    }
  ],
  "materials": [
    {
      "pbrMetallicRoughness": {
        "metallicFactor": 0.5,
        "roughnessFactor": 0.5
      }
    },
    {
      "pbrMetallicRoughness": {
        "baseColorFactor": [
          0.8811640584169489,
          0.7839130443004585,
          0.44286553207126533,
          1
        ],
        "metallicFactor": 0.5,
        "roughnessFactor": 0.5
      },
      "name": "Lambert_Flat_1"
    },
    {
      "pbrMetallicRoughness": {
        "baseColorFactor": [
          0.28417508939073066,
          0.9891279426516262,
          0.04742094579582412,
          1
        ],
        "metallicFactor": 0.5,
        "roughnessFactor": 0.5
      },
      "name": "Lambert_Flat_2"
    },
    {
      "pbrMetallicRoughness": {
        "baseColorFactor": [
          0.7349761414332534,
          0.4026074736516112,
          0.014513593402467606,
          1
        ],
        "metallicFactor": 0.5,
        "roughnessFactor": 0.5
      },
      "name": "Lambert_Flat_3"
    },
    {
      "pbrMetallicRoughness": {
        "baseColorFactor": [
          0.44587461929333205,
          0.2886601461172993,
          0.2338877916944897,
          1
        ],
        "metallicFactor": 0.5,
        "roughnessFactor": 0.5
      },
      "name": "Lambert_Flat_4"
    }
  ],
  "meshes": [
    {
      "primitives": [
        {
          "mode": 1,
          "attributes": {
            "POSITION": 0,
            "COLOR_0": 1
          },
          "material": 0
        }
      ]
    },
    {
      "primitives": [
        {
          "mode": 4,
          "attributes": {
            "POSITION": 2,
            "TEXCOORD_0": 3,
            "NORMAL": 4
          },
          "material": 1
        }
      ]
    },
    {
      "primitives": [
        {
          "mode": 4,
          "attributes": {
            "POSITION": 5,
            "TEXCOORD_0": 6,
            "NORMAL": 7
          },
          "material": 2
        }
      ]
    },
    {
      "primitives": [
        {
          "mode": 4,
          "attributes": {
            "POSITION": 8,
            "TEXCOORD_0": 9,
            "NORMAL": 10
          },
          "material": 3
        }
      ]
    },
    {
      "primitives": [
        {
          "mode": 4,
          "attributes": {
            "POSITION": 11,
            "TEXCOORD_0": 12,
            "NORMAL": 13
          },
          "material": 4
        }
      ]
    }
  ]
}