{
  "asset": {
    "version": "2.0",
    "generator": "THREE.GLTFExporter"
  },
  "scenes": [
    {
      "nodes": [
        0,
        1,
        2,
        3,
        4,
        5,
        6,
        7,
        8,
        9,
        10,
        11,
        12
      ]
    }
  ],
  "scene": 0,
  "nodes": [
    {
      "mesh": 0
    },
    {
      "mesh": 1
    },
    {
      "mesh": 2
    },
    {
      "mesh": 3
    },
    {
      "mesh": 4
    },
    {
      "mesh": 5
    },
    {
      "mesh": 6
    },
    {
      "mesh": 7
    },
    {
      "mesh": 8
    },
    {
      "mesh": 9
    },
    {
      "mesh": 10
    },
    {
      "mesh": 11
    },
    {
      "mesh": 12
    }
  ],
  "bufferViews": [
    {
      "buffer": 0,
      "byteOffset": 0,
      "byteLength": 72,
      "target": 34962,
      "byteStride": 12
    },
    {
      "buffer": 0,
      "byteOffset": 72,
      "byteLength": 72,
      "target": 34962,
      "byteStride": 12
    },
    {
      "buffer": 0,
      "byteOffset": 144,
      "byteLength": 101664,
      "target": 34962,
      "byteStride": 12
    },
    {
      "buffer": 0,
      "byteOffset": 101808,
      "byteLength": 67776,
      "target": 34962,
      "byteStride": 8
    },
    {
      "buffer": 0,
      "byteOffset": 169584,
      "byteLength": 101664,
      "target": 34962,
      "byteStride": 12
    },
    {
      "buffer": 0,
      "byteOffset": 271248,
      "byteLength": 101664,
      "target": 34962,
      "byteStride": 12
    },
    {
      "buffer": 0,
      "byteOffset": 372912,
      "byteLength": 67776,
      "target": 34962,
      "byteStride": 8
    },
    {
      "buffer": 0,
      "byteOffset": 440688,
      "byteLength": 101664,
      "target": 34962,
      "byteStride": 12
    },
    {
      "buffer": 0,
      "byteOffset": 542352,
      "byteLength": 159840,
      "target": 34962,
      "byteStride": 12
    },
    {
      "buffer": 0,
      "byteOffset": 702192,
      "byteLength": 106560,
      "target": 34962,
      "byteStride": 8
    },
    {
      "buffer": 0,
      "byteOffset": 808752,
      "byteLength": 159840,
      "target": 34962,
      "byteStride": 12
    },
    {
      "buffer": 0,
      "byteOffset": 968592,
      "byteLength": 159840,
      "target": 34962,
      "byteStride": 12
    },
    {
      "buffer": 0,
      "byteOffset": 1128432,
      "byteLength": 106560,
      "target": 34962,
      "byteStride": 8
    },
    {
      "buffer": 0,
      "byteOffset": 1234992,
      "byteLength": 159840,
      "target": 34962,
      "byteStride": 12
    },
    {
      "buffer": 0,
      "byteOffset": 1394832,
      "byteLength": 43488,
      "target": 34962,
      "byteStride": 12
    },
    {
      "buffer": 0,
      "byteOffset": 1438320,
      "byteLength": 28992,
      "target": 34962,
      "byteStride": 8
    },
    {
      "buffer": 0,
      "byteOffset": 1467312,
      "byteLength": 43488,
      "target": 34962,
      "byteStride": 12
    },
    {
      "buffer": 0,
      "byteOffset": 1510800,
      "byteLength": 58032,
      "target": 34962,
      "byteStride": 12
    },
    {
      "buffer": 0,
      "byteOffset": 1568832,
      "byteLength": 38688,
      "target": 34962,
      "byteStride": 8
    },
    {
      "buffer": 0,
      "byteOffset": 1607520,
      "byteLength": 58032,
      "target": 34962,
      "byteStride": 12
    },
    {
      "buffer": 0,
      "byteOffset": 1665552,
      "byteLength": 43488,
      "target": 34962,
      "byteStride": 12
    },
    {
      "buffer": 0,
      "byteOffset": 1709040,
      "byteLength": 28992,
      "target": 34962,
      "byteStride": 8
    },
    {
      "buffer": 0,
      "byteOffset": 1738032,
      "byteLength": 43488,
      "target": 34962,
      "byteStride": 12
    },
    {
      "buffer": 0,
      "byteOffset": 1781520,
      "byteLength": 116208,
      "target": 34962,
      "byteStride": 12
    },
    {
      "buffer": 0,
      "byteOffset": 1897728,
      "byteLength": 77472,
      "target": 34962,
      "byteStride": 8
    },
    {
      "buffer": 0,
      "byteOffset": 1975200,
      "byteLength": 116208,
      "target": 34962,
      "byteStride": 12
    },
    {
      "buffer": 0,
      "byteOffset": 2091408,
      "byteLength": 36216,
      "target": 34962,
      "byteStride": 12
    },
    {
      "buffer": 0,
      "byteOffset": 2127624,
      "byteLength": 24144,
      "target": 34962,
      "byteStride": 8
    },
    {
      "buffer": 0,
      "byteOffset": 2151768,
      "byteLength": 36216,
      "target": 34962,
      "byteStride": 12
    },
    {
      "buffer": 0,
      "byteOffset": 2187984,
      "byteLength": 101664,
      "target": 34962,
      "byteStride": 12
    },
    {
      "buffer": 0,
      "byteOffset": 2289648,
      "byteLength": 67776,
      "target": 34962,
      "byteStride": 8
    },
    {
      "buffer": 0,
      "byteOffset": 2357424,
      "byteLength": 101664,
      "target": 34962,
      "byteStride": 12
    },
    {
      "buffer": 0,
      "byteOffset": 2459088,
      "byteLength": 116208,
      "target": 34962,
      "byteStride": 12
    },
    {
      "buffer": 0,
      "byteOffset": 2575296,
      "byteLength": 77472,
      "target": 34962,
      "byteStride": 8
    },
    {
      "buffer": 0,
      "byteOffset": 2652768,
      "byteLength": 116208,
      "target": 34962,
      "byteStride": 12
    },
    {
      "buffer": 0,
      "byteOffset": 2768976,
      "byteLength": 43488,
      "target": 34962,
      "byteStride": 12
    },
    {
      "buffer": 0,
      "byteOffset": 2812464,
      "byteLength": 28992,
      "target": 34962,
      "byteStride": 8
    },
    {
      "buffer": 0,
      "byteOffset": 2841456,
      "byteLength": 43488,
      "target": 34962,
      "byteStride": 12
    }
  ],
  "buffers": [
    {
      "byteLength": 2884944,
      "uri": "data:application/octet-stream;base64,"
    }
  ],
  "accessors": [
    {
      "bufferView": 0,
      "componentType": 5126,
      "count": 6,
      "max": [
        200,
        200,
        200
      ],
      "min": [
        0,
        0,
        0
      ],
      "type": "VEC3"
    },
    {
      "bufferView": 1,
      "componentType": 5126,
      "count": 6,
      "max": [
        1,
        1,
        1
      ],
      "min": [
        0,
        0,
        0
      ],
      "type": "VEC3"
    },
    {
      "bufferView": 2,
      "componentType": 5126,
      "count": 8472,
      "max": [
        -182.36026000976562,
        102.63121032714844,
        -281.45733642578125
      ],
      "min": [
        -219.62515258789062,
        -127.3619384765625,
        -319.4623718261719
      ],
      "type": "VEC3"
    },
    {
      "bufferView": 3,
      "componentType": 5126,
      "count": 8472,
      "max": [
        205.19302368164062,
        205.26242065429688
      ],
      "min": [
        -248.2033233642578,
        -254.723876953125
      ],
      "type": "VEC2"
    },
    {
      "bufferView": 4,
      "componentType": 5126,
      "count": 8472,
      "max": [
        0.9981498718261719,
        0.9811244606971741,
        0.9905068278312683
      ],
      "min": [
        -0.9990081191062927,
        -0.987231969833374,
        -0.9630688428878784
      ],
      "type": "VEC3"
    },
    {
      "bufferView": 5,
      "componentType": 5126,
      "count": 8472,
      "max": [
        -182.14732360839844,
        101.49311065673828,
        -79.99250030517578
      ],
      "min": [
        -218.6366729736328,
        -125.42095947265625,
        -118.75495910644531
      ],
      "type": "VEC3"
    },
    {
      "bufferView": 6,
      "componentType": 5126,
      "count": 8472,
      "max": [
        83.04301452636719,
        202.98622131347656
      ],
      "min": [
        -185.3174285888672,
        -250.8419189453125
      ],
      "type": "VEC2"
    },
    {
      "bufferView": 7,
      "componentType": 5126,
      "count": 8472,
      "max": [
        0.9991723895072937,
        0.9950194954872131,
        0.9975762367248535
      ],
      "min": [
        -0.9840303659439087,
        -0.9996020793914795,
        -0.9998831748962402
      ],
      "type": "VEC3"
    },
    {
      "bufferView": 8,
      "componentType": 5126,
      "count": 13320,
      "max": [
        -182.04132080078125,
        103.51409149169922,
        118.2357177734375
      ],
      "min": [
        -218.21376037597656,
        -127.78392028808594,
        80.61312866210938
      ],
      "type": "VEC3"
    },
    {
      "bufferView": 9,
      "componentType": 5126,
      "count": 13320,
      "max": [
        205.56700134277344,
        207.02818298339844
      ],
      "min": [
        -254.3380584716797,
        -255.56784057617188
      ],
      "type": "VEC2"
    },
    {
      "bufferView": 10,
      "componentType": 5126,
      "count": 13320,
      "max": [
        0.9971466064453125,
        0.9719966650009155,
        0.9998513460159302
      ],
      "min": [
        -0.9984503984451294,
        -0.9824331402778625,
        -0.9998370409011841
      ],
      "type": "VEC3"
    },
    {
      "bufferView": 11,
      "componentType": 5126,
      "count": 13320,
      "max": [
        -181.40545654296875,
        100.59928894042969,
        319.43939208984375
      ],
      "min": [
        -219.52499389648438,
        -129.80690002441406,
        281.7746276855469
      ],
      "type": "VEC3"
    },
    {
      "bufferView": 12,
      "componentType": 5126,
      "count": 13320,
      "max": [
        194.80377197265625,
        201.19857788085938
      ],
      "min": [
        -259.60247802734375,
        -259.6138000488281
      ],
      "type": "VEC2"
    },
    {
      "bufferView": 13,
      "componentType": 5126,
      "count": 13320,
      "max": [
        0.9961178302764893,
        0.9991963505744934,
        0.9997676014900208
      ],
      "min": [
        -0.9977260231971741,
        -0.9426342844963074,
        -0.9997755885124207
      ],
      "type": "VEC3"
    },
    {
      "bufferView": 14,
      "componentType": 5126,
      "count": 3624,
      "max": [
        18.246278762817383,
        102.0391845703125,
        -284.0486145019531
      ],
      "min": [
        -18.144794464111328,
        -127.14160919189453,
        -318.9529113769531
      ],
      "type": "VEC3"
    },
    {
      "bufferView": 15,
      "componentType": 5126,
      "count": 3624,
      "max": [
        200.96250915527344,
        204.078369140625
      ],
      "min": [
        -148.9281463623047,
        -254.28321838378906
      ],
      "type": "VEC2"
    },
    {
      "bufferView": 16,
      "componentType": 5126,
      "count": 3624,
      "max": [
        0.9866461753845215,
        0.9901342988014221,
        0.9690669775009155
      ],
      "min": [
        -0.9991400241851807,
        -0.9897305965423584,
        -0.8473411798477173
      ],
      "type": "VEC3"
    },
    {
      "bufferView": 17,
      "componentType": 5126,
      "count": 4836,
      "max": [
        19.53310203552246,
        104.03567504882812,
        -80.49365997314453
      ],
      "min": [
        -19.538578033447266,
        -128.50270080566406,
        -117.88980102539062
      ],
      "type": "VEC3"
    },
    {
      "bufferView": 18,
      "componentType": 5126,
      "count": 4836,
      "max": [
        39.06620407104492,
        208.07135009765625
      ],
      "min": [
        -39.07715606689453,
        -257.0054016113281
      ],
      "type": "VEC2"
    },
    {
      "bufferView": 19,
      "componentType": 5126,
      "count": 4836,
      "max": [
        0.8610721826553345,
        0.946528971195221,
        0.8618382811546326
      ],
      "min": [
        -0.8610015511512756,
        -0.963455080986023,
        -0.8618528246879578
      ],
      "type": "VEC3"
    },
    {
      "bufferView": 20,
      "componentType": 5126,
      "count": 3624,
      "max": [
        12.989763259887695,
        102.1490249633789,
        111.43070983886719
      ],
      "min": [
        -14.55617618560791,
        -126.63043975830078,
        88.27122497558594
      ],
      "type": "VEC3"
    },
    {
      "bufferView": 21,
      "componentType": 5126,
      "count": 3624,
      "max": [
        25.97952651977539,
        204.2980499267578
      ],
      "min": [
        -29.11235237121582,
        -253.26087951660156
      ],
      "type": "VEC2"
    },
    {
      "bufferView": 22,
      "componentType": 5126,
      "count": 3624,
      "max": [
        0.8900140523910522,
        0.9764216542243958,
        0.9999254941940308
      ],
      "min": [
        -0.8900071382522583,
        -0.9839717745780945,
        -0.9999269843101501
      ],
      "type": "VEC3"
    },
    {
      "bufferView": 23,
      "componentType": 5126,
      "count": 9684,
      "max": [
        18.498672485351562,
        101.52960968017578,
        319.4756774902344
      ],
      "min": [
        -20.219614028930664,
        -128.22543334960938,
        280.4381103515625
      ],
      "type": "VEC3"
    },
    {
      "bufferView": 24,
      "componentType": 5126,
      "count": 9684,
      "max": [
        200.98272705078125,
        203.05921936035156
      ],
      "min": [
        -185.3758087158203,
        -256.45086669921875
      ],
      "type": "VEC2"
    },
    {
      "bufferView": 25,
      "componentType": 5126,
      "count": 9684,
      "max": [
        0.9978870153427124,
        0.9942404627799988,
        0.9972437620162964
      ],
      "min": [
        -0.9978870749473572,
        -0.9758610129356384,
        -0.9972527623176575
      ],
      "type": "VEC3"
    },
    {
      "bufferView": 26,
      "componentType": 5126,
      "count": 3018,
      "max": [
        213.94273376464844,
        104.05364227294922,
        -286.5254821777344
      ],
      "min": [
        185.71435546875,
        -127.16028594970703,
        -314.3565979003906
      ],
      "type": "VEC3"
    },
    {
      "bufferView": 27,
      "componentType": 5126,
      "count": 3018,
      "max": [
        208.10728454589844,
        208.10728454589844
      ],
      "min": [
        -251.9176788330078,
        -254.32057189941406
      ],
      "type": "VEC2"
    },
    {
      "bufferView": 28,
      "componentType": 5126,
      "count": 3018,
      "max": [
        0.99994957447052,
        0.9120334386825562,
        0.9489044547080994
      ],
      "min": [
        -0.8454791903495789,
        -0.9758729338645935,
        -0.9737306833267212
      ],
      "type": "VEC3"
    },
    {
      "bufferView": 29,
      "componentType": 5126,
      "count": 8472,
      "max": [
        217.87806701660156,
        103.37653350830078,
        -80.24308013916016
      ],
      "min": [
        180.41592407226562,
        -128.1855926513672,
        -119.21674346923828
      ],
      "type": "VEC3"
    },
    {
      "bufferView": 30,
      "componentType": 5126,
      "count": 8472,
      "max": [
        190.28985595703125,
        206.75306701660156
      ],
      "min": [
        -255.13526916503906,
        -256.3711853027344
      ],
      "type": "VEC2"
    },
    {
      "bufferView": 31,
      "componentType": 5126,
      "count": 8472,
      "max": [
        0.9990097880363464,
        0.9694225192070007,
        0.99575275182724
      ],
      "min": [
        -0.9836399555206299,
        -0.9758643507957458,
        -0.9997918009757996
      ],
      "type": "VEC3"
    },
    {
      "bufferView": 32,
      "componentType": 5126,
      "count": 9684,
      "max": [
        218.4926300048828,
        102.07218170166016,
        119.98255920410156
      ],
      "min": [
        182.94618225097656,
        -128.77792358398438,
        80.48939514160156
      ],
      "type": "VEC3"
    },
    {
      "bufferView": 33,
      "componentType": 5126,
      "count": 9684,
      "max": [
        202.4234161376953,
        204.1443634033203
      ],
      "min": [
        -256.5287780761719,
        -257.55584716796875
      ],
      "type": "VEC2"
    },
    {
      "bufferView": 34,
      "componentType": 5126,
      "count": 9684,
      "max": [
        0.9912727475166321,
        0.990125298500061,
        0.991087794303894
      ],
      "min": [
        -0.9912729263305664,
        -0.9661363959312439,
        -0.9910798072814941
      ],
      "type": "VEC3"
    },
    {
      "bufferView": 35,
      "componentType": 5126,
      "count": 3624,
      "max": [
        213.5846710205078,
        100.97673797607422,
        312.9939270019531
      ],
      "min": [
        188.20123291015625,
        -125.2724380493164,
        286.3721008300781
      ],
      "type": "VEC3"
    },
    {
      "bufferView": 36,
      "componentType": 5126,
      "count": 3624,
      "max": [
        201.4530487060547,
        201.95347595214844
      ],
      "min": [
        -250.5448760986328,
        -250.5448760986328
      ],
      "type": "VEC2"
    },
    {
      "bufferView": 37,
      "componentType": 5126,
      "count": 3624,
      "max": [
        0.9999644160270691,
        0.9948375821113586,
        0.8974797129631042
      ],
      "min": [
        -0.9999639391899109,
        -0.9996019005775452,
        -0.8974812030792236
      ],
      "type": "VEC3"
    }
  ],
  "materials": [
    {
      "pbrMetallicRoughness": {
        "metallicFactor": 0.5,
        "roughnessFactor": 0.5
      }
    },
    {
      "pbrMetallicRoughness": {
        "baseColorFactor": [
          0.8811640584169489,
          0.7839130443004585,
          0.44286553207126533,
          1
        ],
        "metallicFactor": 0.5,
        "roughnessFactor": 0.5
      },
      "name": "Lambert_Flat_1"
    },
    {
      "pbrMetallicRoughness": {
        "baseColorFactor": [
          0.28417508939073066,
          0.9891279426516262,
          0.04742094579582412,
          1
        ],
        "metallicFactor": 0.5,
        "roughnessFactor": 0.5
      },
      "name": "Lambert_Flat_2"
    },
    {
      "pbrMetallicRoughness": {
        "baseColorFactor": [
          0.7349761414332534,
          0.4026074736516112,
          0.014513593402467606,
          1
        ],
        "metallicFactor": 0.5,
        "roughnessFactor": 0.5
      },
      "name": "Lambert_Flat_3"
    },
    {
      "pbrMetallicRoughness": {
        "baseColorFactor": [
          0.44587461929333205,
          0.2886601461172993,
          0.2338877916944897,
          1
        ],
        "metallicFactor": 0.5,
        "roughnessFactor": 0.5
      },
      "name": "Lambert_Flat_4"
    },
    {
      "pbrMetallicRoughness": {
        "baseColorFactor": [
          0.7071016942980173,
          0.7237241696409538,
          0.28636947509748656,
          1
        ],
        "metallicFactor": 0.5,
        "roughnessFactor": 0.5
      },
      "name": "Lambert_Flat_5"
    },
    {
      "pbrMetallicRoughness": {
        "baseColorFactor": [
          0.6465049050684255,
          0.36117389895850005,
          0.6905448777602925,
          1
        ],
        "metallicFactor": 0.5,
        "roughnessFactor": 0.5
      },
      "name": "Lambert_Flat_6"
    },
    {
      "pbrMetallicRoughness": {
        "baseColorFactor": [
          0.6280965569555224,
          0.2363991256263409,
          0.06287342884479297,
          1
        ],
        "metallicFactor": 0.5,
        "roughnessFactor": 0.5
      },
      "name": "Lambert_Flat_7"
    },
    {
      "pbrMetallicRoughness": {
        "baseColorFactor": [
          0.8382272398146495,
          0.5561986992400056,
          0.9703471216444217,
          1
        ],
        "metallicFactor": 0.5,
        "roughnessFactor": 0.5
      },
      "name": "Lambert_Flat_8"
    },
    {
      "pbrMetallicRoughness": {
        "baseColorFactor": [
          0.0014989776290734724,
          0.8532306815629151,
          0.06364438416128926,
          1
        ],
        "metallicFactor": 0.5,
        "roughnessFactor": 0.5
      },
      "name": "Lambert_Flat_9"
    },
    {
      "pbrMetallicRoughness": {
        "baseColorFactor": [
          0.3989072772332465,
          0.8059656291100352,
          0.8134256720379276,
          1
        ],
        "metallicFactor": 0.5,
        "roughnessFactor": 0.5
      },
      "name": "Lambert_Flat_10"
    },
    {
      "pbrMetallicRoughness": {
        "baseColorFactor": [
          0.0029295192135949666,
          0.02233953267724642,
          0.9606264759430116,
          1
        ],
        "metallicFactor": 0.5,
        "roughnessFactor": 0.5
      },
      "name": "Lambert_Flat_11"
    },
    {
      "pbrMetallicRoughness": {
        "baseColorFactor": [
          0.5477803637528387,
          0.4570390736015657,
          0.6565652271656439,
          1
        ],
        "metallicFactor": 0.5,
        "roughnessFactor": 0.5
      },
      "name": "Lambert_Flat_12"
    }
  ],
  "meshes": [
    {
      "primitives": [
        {
          "mode": 1,
          "attributes": {
            "POSITION": 0,
            "COLOR_0": 1
          },
          "material": 0
        }
      ]
    },
    {
      "primitives": [
        {
          "mode": 4,
          "attributes": {
            "POSITION": 2,
            "TEXCOORD_0": 3,
            "NORMAL": 4
          },
          "material": 1
        }
      ]
    },
    {
      "primitives": [
        {
          "mode": 4,
          "attributes": {
            "POSITION": 5,
            "TEXCOORD_0": 6,
            "NORMAL": 7
          },
          "material": 2
        }
      ]
    },
    {
      "primitives": [
        {
          "mode": 4,
          "attributes": {
            "POSITION": 8,
            "TEXCOORD_0": 9,
            "NORMAL": 10
          },
          "material": 3
        }
      ]
    },
    {
      "primitives": [
        {
          "mode": 4,
          "attributes": {
            "POSITION": 11,
            "TEXCOORD_0": 12,
            "NORMAL": 13
          },
          "material": 4
        }
      ]
    },
    {
      "primitives": [
        {
          "mode": 4,
          "attributes": {
            "POSITION": 14,
            "TEXCOORD_0": 15,
            "NORMAL": 16
          },
          "material": 5
        }
      ]
    },
    {
      "primitives": [
        {
          "mode": 4,
          "attributes": {
            "POSITION": 17,
            "TEXCOORD_0": 18,
            "NORMAL": 19
          },
          "material": 6
        }
      ]
    },
    {
      "primitives": [
        {
          "mode": 4,
          "attributes": {
            "POSITION": 20,
            "TEXCOORD_0": 21,
            "NORMAL": 22
          },
          "material": 7
        }
      ]
    },
    {
      "primitives": [
        {
          "mode": 4,
          "attributes": {
            "POSITION": 23,
            "TEXCOORD_0": 24,
            "NORMAL": 25
          },
          "material": 8
        }
      ]
    },
    {
      "primitives": [
        {
          "mode": 4,
          "attributes": {
            "POSITION": 26,
            "TEXCOORD_0": 27,
            "NORMAL": 28
          },
          "material": 9
        }
      ]
    },
    {
      "primitives": [
        {
          "mode": 4,
          "attributes": {
            "POSITION": 29,
            "TEXCOORD_0": 30,
            "NORMAL": 31
          },
          "material": 10
        }
      ]
    },
    {
      "primitives": [
        {
          "mode": 4,
          "attributes": {
            "POSITION": 32,
            "TEXCOORD_0": 33,
            "NORMAL": 34
          },
          "material": 11
        }
      ]
    },
    {
      "primitives": [
        {
          "mode": 4,
          "attributes": {
            "POSITION": 35,
            "TEXCOORD_0": 36,
            "NORMAL": 37
          },
          "material": 12
        }
      ]
    }
  ]
}