{
  "asset": {
    "version": "2.0",
    "generator": "THREE.GLTFExporter"
  },
  "scenes": [
    {
      "nodes": [
        0,
        1,
        2,
        3,
        4,
        5,
        6,
        7,
        8,
        9,
        10,
        11,
        12
      ]
    }
  ],
  "scene": 0,
  "nodes": [
    {
      "mesh": 0
    },
    {
      "mesh": 1
    },
    {
      "mesh": 2
    },
    {
      "mesh": 3
    },
    {
      "mesh": 4
    },
    {
      "mesh": 5
    },
    {
      "mesh": 6
    },
    {
      "mesh": 7
    },
    {
      "mesh": 8
    },
    {
      "mesh": 9
    },
    {
      "mesh": 10
    },
    {
      "mesh": 11
    },
    {
      "mesh": 12
    }
  ],
  "bufferViews": [
    {
      "buffer": 0,
      "byteOffset": 0,
      "byteLength": 72,
      "target": 34962,
      "byteStride": 12
    },
    {
      "buffer": 0,
      "byteOffset": 72,
      "byteLength": 72,
      "target": 34962,
      "byteStride": 12
    },
    {
      "buffer": 0,
      "byteOffset": 144,
      "byteLength": 58032,
      "target": 34962,
      "byteStride": 12
    },
    {
      "buffer": 0,
      "byteOffset": 58176,
      "byteLength": 38688,
      "target": 34962,
      "byteStride": 8
    },
    {
      "buffer": 0,
      "byteOffset": 96864,
      "byteLength": 58032,
      "target": 34962,
      "byteStride": 12
    },
    {
      "buffer": 0,
      "byteOffset": 154896,
      "byteLength": 145296,
      "target": 34962,
      "byteStride": 12
    },
    {
      "buffer": 0,
      "byteOffset": 300192,
      "byteLength": 96864,
      "target": 34962,
      "byteStride": 8
    },
    {
      "buffer": 0,
      "byteOffset": 397056,
      "byteLength": 145296,
      "target": 34962,
      "byteStride": 12
    },
    {
      "buffer": 0,
      "byteOffset": 542352,
      "byteLength": 58032,
      "target": 34962,
      "byteStride": 12
    },
    {
      "buffer": 0,
      "byteOffset": 600384,
      "byteLength": 38688,
      "target": 34962,
      "byteStride": 8
    },
    {
      "buffer": 0,
      "byteOffset": 639072,
      "byteLength": 58032,
      "target": 34962,
      "byteStride": 12
    },
    {
      "buffer": 0,
      "byteOffset": 697104,
      "byteLength": 116208,
      "target": 34962,
      "byteStride": 12
    },
    {
      "buffer": 0,
      "byteOffset": 813312,
      "byteLength": 77472,
      "target": 34962,
      "byteStride": 8
    },
    {
      "buffer": 0,
      "byteOffset": 890784,
      "byteLength": 116208,
      "target": 34962,
      "byteStride": 12
    },
    {
      "buffer": 0,
      "byteOffset": 1006992,
      "byteLength": 72576,
      "target": 34962,
      "byteStride": 12
    },
    {
      "buffer": 0,
      "byteOffset": 1079568,
      "byteLength": 48384,
      "target": 34962,
      "byteStride": 8
    },
    {
      "buffer": 0,
      "byteOffset": 1127952,
      "byteLength": 72576,
      "target": 34962,
      "byteStride": 12
    },
    {
      "buffer": 0,
      "byteOffset": 1200528,
      "byteLength": 87120,
      "target": 34962,
      "byteStride": 12
    },
    {
      "buffer": 0,
      "byteOffset": 1287648,
      "byteLength": 58080,
      "target": 34962,
      "byteStride": 8
    },
    {
      "buffer": 0,
      "byteOffset": 1345728,
      "byteLength": 87120,
      "target": 34962,
      "byteStride": 12
    },
    {
      "buffer": 0,
      "byteOffset": 1432848,
      "byteLength": 159840,
      "target": 34962,
      "byteStride": 12
    },
    {
      "buffer": 0,
      "byteOffset": 1592688,
      "byteLength": 106560,
      "target": 34962,
      "byteStride": 8
    },
    {
      "buffer": 0,
      "byteOffset": 1699248,
      "byteLength": 159840,
      "target": 34962,
      "byteStride": 12
    },
    {
      "buffer": 0,
      "byteOffset": 1859088,
      "byteLength": 58032,
      "target": 34962,
      "byteStride": 12
    },
    {
      "buffer": 0,
      "byteOffset": 1917120,
      "byteLength": 38688,
      "target": 34962,
      "byteStride": 8
    },
    {
      "buffer": 0,
      "byteOffset": 1955808,
      "byteLength": 58032,
      "target": 34962,
      "byteStride": 12
    },
    {
      "buffer": 0,
      "byteOffset": 2013840,
      "byteLength": 58032,
      "target": 34962,
      "byteStride": 12
    },
    {
      "buffer": 0,
      "byteOffset": 2071872,
      "byteLength": 38688,
      "target": 34962,
      "byteStride": 8
    },
    {
      "buffer": 0,
      "byteOffset": 2110560,
      "byteLength": 58032,
      "target": 34962,
      "byteStride": 12
    },
    {
      "buffer": 0,
      "byteOffset": 2168592,
      "byteLength": 79848,
      "target": 34962,
      "byteStride": 12
    },
    {
      "buffer": 0,
      "byteOffset": 2248440,
      "byteLength": 53232,
      "target": 34962,
      "byteStride": 8
    },
    {
      "buffer": 0,
      "byteOffset": 2301672,
      "byteLength": 79848,
      "target": 34962,
      "byteStride": 12
    },
    {
      "buffer": 0,
      "byteOffset": 2381520,
      "byteLength": 116208,
      "target": 34962,
      "byteStride": 12
    },
    {
      "buffer": 0,
      "byteOffset": 2497728,
      "byteLength": 77472,
      "target": 34962,
      "byteStride": 8
    },
    {
      "buffer": 0,
      "byteOffset": 2575200,
      "byteLength": 116208,
      "target": 34962,
      "byteStride": 12
    },
    {
      "buffer": 0,
      "byteOffset": 2691408,
      "byteLength": 65304,
      "target": 34962,
      "byteStride": 12
    },
    {
      "buffer": 0,
      "byteOffset": 2756712,
      "byteLength": 43536,
      "target": 34962,
      "byteStride": 8
    },
    {
      "buffer": 0,
      "byteOffset": 2800248,
      "byteLength": 65304,
      "target": 34962,
      "byteStride": 12
    }
  ],
  "buffers": [
    {
      "byteLength": 2865552,
      "uri": "data:application/octet-stream;base64,"
    }
  ],
  "accessors": [
    {
      "bufferView": 0,
      "componentType": 5126,
      "count": 6,
      "max": [
        200,
        200,
        200
      ],
      "min": [
        0,
        0,
        0
      ],
      "type": "VEC3"
    },
    {
      "bufferView": 1,
      "componentType": 5126,
      "count": 6,
      "max": [
        1,
        1,
        1
      ],
      "min": [
        0,
        0,
        0
      ],
      "type": "VEC3"
    },
    {
      "bufferView": 2,
      "componentType": 5126,
      "count": 4836,
      "max": [
        -285.51031494140625,
        102.87913513183594,
        -184.7911376953125
      ],
      "min": [
        -314.17462158203125,
        -125.70319366455078,
        -213.46707153320312
      ],
      "type": "VEC3"
    },
    {
      "bufferView": 3,
      "componentType": 5126,
      "count": 4836,
      "max": [
        146.5214385986328,
        205.75827026367188
      ],
      "min": [
        -37.541934967041016,
        -251.40638732910156
      ],
      "type": "VEC2"
    },
    {
      "bufferView": 4,
      "componentType": 5126,
      "count": 4836,
      "max": [
        0.9482347369194031,
        0.9570545554161072,
        0.9506072998046875
      ],
      "min": [
        -0.9486433863639832,
        -0.9974090456962585,
        -0.9506354928016663
      ],
      "type": "VEC3"
    },
    {
      "bufferView": 5,
      "componentType": 5126,
      "count": 12108,
      "max": [
        -280.34417724609375,
        103.6010513305664,
        16.729825973510742
      ],
      "min": [
        -318.590576171875,
        -127.97579193115234,
        -19.480010986328125
      ],
      "type": "VEC3"
    },
    {
      "bufferView": 6,
      "componentType": 5126,
      "count": 12108,
      "max": [
        205.88101196289062,
        207.2021026611328
      ],
      "min": [
        -252.4468231201172,
        -255.9515838623047
      ],
      "type": "VEC2"
    },
    {
      "bufferView": 7,
      "componentType": 5126,
      "count": 12108,
      "max": [
        0.9903977513313293,
        0.9706904888153076,
        0.9993959665298462
      ],
      "min": [
        -0.9903978705406189,
        -0.9797873497009277,
        -0.999396026134491
      ],
      "type": "VEC3"
    },
    {
      "bufferView": 8,
      "componentType": 5126,
      "count": 4836,
      "max": [
        -281.0271301269531,
        104.22980499267578,
        218.46728515625
      ],
      "min": [
        -318.4983825683594,
        -127.37193298339844,
        180.1529083251953
      ],
      "type": "VEC3"
    },
    {
      "bufferView": 9,
      "componentType": 5126,
      "count": 4836,
      "max": [
        37.945735931396484,
        208.45960998535156
      ],
      "min": [
        -36.99678039550781,
        -254.74386596679688
      ],
      "type": "VEC2"
    },
    {
      "bufferView": 10,
      "componentType": 5126,
      "count": 4836,
      "max": [
        0.8361923694610596,
        0.9542507529258728,
        0.8356603384017944
      ],
      "min": [
        -0.8362352252006531,
        -0.987418532371521,
        -0.8356850743293762
      ],
      "type": "VEC3"
    },
    {
      "bufferView": 11,
      "componentType": 5126,
      "count": 9684,
      "max": [
        -80.50010681152344,
        101.49700927734375,
        -182.30844116210938
      ],
      "min": [
        -119.42242431640625,
        -126.78797149658203,
        -219.3658905029297
      ],
      "type": "VEC3"
    },
    {
      "bufferView": 12,
      "componentType": 5126,
      "count": 9684,
      "max": [
        156.04800415039062,
        202.9940185546875
      ],
      "min": [
        -38.84484100341797,
        -253.57594299316406
      ],
      "type": "VEC2"
    },
    {
      "bufferView": 13,
      "componentType": 5126,
      "count": 9684,
      "max": [
        0.9842309951782227,
        0.9948439598083496,
        0.9841369390487671
      ],
      "min": [
        -0.984223484992981,
        -0.9920877814292908,
        -0.9841341376304626
      ],
      "type": "VEC3"
    },
    {
      "bufferView": 14,
      "componentType": 5126,
      "count": 6048,
      "max": [
        -82.04299926757812,
        104.07566833496094,
        19.751380920410156
      ],
      "min": [
        -119.12635803222656,
        -125.5689926147461,
        -18.39652442932129
      ],
      "type": "VEC3"
    },
    {
      "bufferView": 15,
      "componentType": 5126,
      "count": 6048,
      "max": [
        202.11463928222656,
        208.15133666992188
      ],
      "min": [
        -38.252716064453125,
        -251.1379852294922
      ],
      "type": "VEC2"
    },
    {
      "bufferView": 16,
      "componentType": 5126,
      "count": 6048,
      "max": [
        0.9927654266357422,
        0.9426595568656921,
        0.9966632127761841
      ],
      "min": [
        -0.96269291639328,
        -0.9992024302482605,
        -0.9997832179069519
      ],
      "type": "VEC3"
    },
    {
      "bufferView": 17,
      "componentType": 5126,
      "count": 7260,
      "max": [
        -81.86280059814453,
        103.98737335205078,
        219.62628173828125
      ],
      "min": [
        -116.4757080078125,
        -128.6923065185547,
        180.3807373046875
      ],
      "type": "VEC3"
    },
    {
      "bufferView": 18,
      "componentType": 5126,
      "count": 7260,
      "max": [
        36.27439498901367,
        207.97474670410156
      ],
      "min": [
        -189.65879821777344,
        -257.3846130371094
      ],
      "type": "VEC2"
    },
    {
      "bufferView": 19,
      "componentType": 5126,
      "count": 7260,
      "max": [
        0.9596970677375793,
        0.952182948589325,
        0.998875617980957
      ],
      "min": [
        -0.9596883654594421,
        -0.9686769843101501,
        -0.9988763928413391
      ],
      "type": "VEC3"
    },
    {
      "bufferView": 20,
      "componentType": 5126,
      "count": 13320,
      "max": [
        119.3089599609375,
        104.11548614501953,
        -180.96778869628906
      ],
      "min": [
        80.62377166748047,
        -128.9672393798828,
        -219.43565368652344
      ],
      "type": "VEC3"
    },
    {
      "bufferView": 21,
      "componentType": 5126,
      "count": 13320,
      "max": [
        149.28897094726562,
        208.23097229003906
      ],
      "min": [
        -257.5963439941406,
        -257.9344787597656
      ],
      "type": "VEC2"
    },
    {
      "bufferView": 22,
      "componentType": 5126,
      "count": 13320,
      "max": [
        0.9952579140663147,
        0.9612966179847717,
        0.9932878017425537
      ],
      "min": [
        -0.9988027215003967,
        -0.9627385139465332,
        -0.9998350143432617
      ],
      "type": "VEC3"
    },
    {
      "bufferView": 23,
      "componentType": 5126,
      "count": 4836,
      "max": [
        114.50382995605469,
        100.79837799072266,
        14.47994327545166
      ],
      "min": [
        85.43880462646484,
        -126.5797348022461,
        -15.112276077270508
      ],
      "type": "VEC3"
    },
    {
      "bufferView": 24,
      "componentType": 5126,
      "count": 4836,
      "max": [
        29.00766372680664,
        201.5967559814453
      ],
      "min": [
        -140.0812530517578,
        -253.1594696044922
      ],
      "type": "VEC2"
    },
    {
      "bufferView": 25,
      "componentType": 5126,
      "count": 4836,
      "max": [
        0.9470000863075256,
        0.996803879737854,
        0.9462034702301025
      ],
      "min": [
        -0.9470002055168152,
        -0.9872522950172424,
        -0.9462713003158569
      ],
      "type": "VEC3"
    },
    {
      "bufferView": 26,
      "componentType": 5126,
      "count": 4836,
      "max": [
        119.35797119140625,
        102.2940673828125,
        219.5300750732422
      ],
      "min": [
        81.98454284667969,
        -127.3718032836914,
        181.55203247070312
      ],
      "type": "VEC3"
    },
    {
      "bufferView": 27,
      "componentType": 5126,
      "count": 4836,
      "max": [
        44.507625579833984,
        204.588134765625
      ],
      "min": [
        -42.22175979614258,
        -254.7436065673828
      ],
      "type": "VEC2"
    },
    {
      "bufferView": 28,
      "componentType": 5126,
      "count": 4836,
      "max": [
        0.8306177258491516,
        0.9834054708480835,
        0.8318117260932922
      ],
      "min": [
        -0.8306257128715515,
        -0.9856858253479004,
        -0.8318117260932922
      ],
      "type": "VEC3"
    },
    {
      "bufferView": 29,
      "componentType": 5126,
      "count": 6654,
      "max": [
        312.9696350097656,
        102.15079498291016,
        -185.3699951171875
      ],
      "min": [
        285.6246032714844,
        -126.68856048583984,
        -213.57058715820312
      ],
      "type": "VEC3"
    },
    {
      "bufferView": 30,
      "componentType": 5126,
      "count": 6654,
      "max": [
        201.7880859375,
        204.3015899658203
      ],
      "min": [
        -249.15936279296875,
        -253.3771209716797
      ],
      "type": "VEC2"
    },
    {
      "bufferView": 31,
      "componentType": 5126,
      "count": 6654,
      "max": [
        0.9911656975746155,
        0.9765971899032593,
        0.9999815821647644
      ],
      "min": [
        -0.9920876622200012,
        -0.985478401184082,
        -0.9626471996307373
      ],
      "type": "VEC3"
    },
    {
      "bufferView": 32,
      "componentType": 5126,
      "count": 9684,
      "max": [
        318.10296630859375,
        102.10816192626953,
        18.464040756225586
      ],
      "min": [
        280.6910095214844,
        -127.50640106201172,
        -18.502832412719727
      ],
      "type": "VEC3"
    },
    {
      "bufferView": 33,
      "componentType": 5126,
      "count": 9684,
      "max": [
        101.37203216552734,
        204.21632385253906
      ],
      "min": [
        -247.2115020751953,
        -255.01280212402344
      ],
      "type": "VEC2"
    },
    {
      "bufferView": 34,
      "componentType": 5126,
      "count": 9684,
      "max": [
        0.9868177175521851,
        0.9897522330284119,
        0.9884166121482849
      ],
      "min": [
        -0.9868175387382507,
        -0.9854931831359863,
        -0.988385021686554
      ],
      "type": "VEC3"
    },
    {
      "bufferView": 35,
      "componentType": 5126,
      "count": 5442,
      "max": [
        312.4422912597656,
        100.79883575439453,
        211.677734375
      ],
      "min": [
        284.86212158203125,
        -125.96141815185547,
        185.3783416748047
      ],
      "type": "VEC3"
    },
    {
      "bufferView": 36,
      "componentType": 5126,
      "count": 5442,
      "max": [
        146.00425720214844,
        201.59767150878906
      ],
      "min": [
        -192.7192840576172,
        -251.92283630371094
      ],
      "type": "VEC2"
    },
    {
      "bufferView": 37,
      "componentType": 5126,
      "count": 5442,
      "max": [
        0.9874370098114014,
        0.9968040585517883,
        0.9999961256980896
      ],
      "min": [
        -0.9845962524414062,
        -0.9948223829269409,
        -0.9467180967330933
      ],
      "type": "VEC3"
    }
  ],
  "materials": [
    {
      "pbrMetallicRoughness": {
        "metallicFactor": 0.5,
        "roughnessFactor": 0.5
      }
    },
    {
      "pbrMetallicRoughness": {
        "baseColorFactor": [
          0.8678566294143073,
          0.5817257136815166,
          0.8495150300329306,
          1
        ],
        "metallicFactor": 0.5,
        "roughnessFactor": 0.5
      }
    },
    {
      "pbrMetallicRoughness": {
        "baseColorFactor": [
          0.9593155719968658,
          0.2229681530131733,
          0.3634052954321527,
          1
        ],
        "metallicFactor": 0.5,
        "roughnessFactor": 0.5
      }
    },
    {
      "pbrMetallicRoughness": {
        "baseColorFactor": [
          0.7958682728842847,
          0.06171610702602681,
          0.7624253068871216,
          1
        ],
        "metallicFactor": 0.5,
        "roughnessFactor": 0.5
      }
    },
    {
      "pbrMetallicRoughness": {
        "baseColorFactor": [
          0.6712784734978718,
          0.14802398141866546,
          0.1451742253673698,
          1
        ],
        "metallicFactor": 0.5,
        "roughnessFactor": 0.5
      }
    },
    {
      "pbrMetallicRoughness": {
        "baseColorFactor": [
          0.786734728452436,
          0.6056757752391795,
          0.5859222149378358,
          1
        ],
        "metallicFactor": 0.5,
        "roughnessFactor": 0.5
      }
    },
    {
      "pbrMetallicRoughness": {
        "baseColorFactor": [
          0.21609102519219392,
          0.2340749773614219,
          0.04309201599603707,
          1
        ],
        "metallicFactor": 0.5,
        "roughnessFactor": 0.5
      }
    },
    {
      "pbrMetallicRoughness": {
        "baseColorFactor": [
          0.6479662388537348,
          0.4601296077704664,
          0.8199218519950926,
          1
        ],
        "metallicFactor": 0.5,
        "roughnessFactor": 0.5
      }
    },
    {
      "pbrMetallicRoughness": {
        "baseColorFactor": [
          0.09025802384003434,
          0.2685251266834592,
          0.11109725378219815,
          1
        ],
        "metallicFactor": 0.5,
        "roughnessFactor": 0.5
      }
    },
    {
      "pbrMetallicRoughness": {
        "baseColorFactor": [
          0.05404389620928396,
          0.9693618042448537,
          0.6770089085580664,
          1
        ],
        "metallicFactor": 0.5,
        "roughnessFactor": 0.5
      }
    }
  ],
  "meshes": [
    {
      "primitives": [
        {
          "mode": 1,
          "attributes": {
            "POSITION": 0,
            "COLOR_0": 1
          },
          "material": 0
        }
      ]
    },
    {
      "primitives": [
        {
          "mode": 4,
          "attributes": {
            "POSITION": 2,
            "TEXCOORD_0": 3,
            "NORMAL": 4
          },
          "material": 1
        }
      ]
    },
    {
      "primitives": [
        {
          "mode": 4,
          "attributes": {
            "POSITION": 5,
            "TEXCOORD_0": 6,
            "NORMAL": 7
          },
          "material": 2
        }
      ]
    },
    {
      "primitives": [
        {
          "mode": 4,
          "attributes": {
            "POSITION": 8,
            "TEXCOORD_0": 9,
            "NORMAL": 10
          },
          "material": 3
        }
      ]
    },
    {
      "primitives": [
        {
          "mode": 4,
          "attributes": {
            "POSITION": 11,
            "TEXCOORD_0": 12,
            "NORMAL": 13
          },
          "material": 4
        }
      ]
    },
    {
      "primitives": [
        {
          "mode": 4,
          "attributes": {
            "POSITION": 14,
            "TEXCOORD_0": 15,
            "NORMAL": 16
          },
          "material": 5
        }
      ]
    },
    {
      "primitives": [
        {
          "mode": 4,
          "attributes": {
            "POSITION": 17,
            "TEXCOORD_0": 18,
            "NORMAL": 19
          },
          "material": 6
        }
      ]
    },
    {
      "primitives": [
        {
          "mode": 4,
          "attributes": {
            "POSITION": 20,
            "TEXCOORD_0": 21,
            "NORMAL": 22
          },
          "material": 7
        }
      ]
    },
    {
      "primitives": [
        {
          "mode": 4,
          "attributes": {
            "POSITION": 23,
            "TEXCOORD_0": 24,
            "NORMAL": 25
          },
          "material": 8
        }
      ]
    },
    {
      "primitives": [
        {
          "mode": 4,
          "attributes": {
            "POSITION": 26,
            "TEXCOORD_0": 27,
            "NORMAL": 28
          },
          "material": 9
        }
      ]
    },
    {
      "primitives": [
        {
          "mode": 4,
          "attributes": {
            "POSITION": 29,
            "TEXCOORD_0": 30,
            "NORMAL": 31
          },
          "material": 1
        }
      ]
    },
    {
      "primitives": [
        {
          "mode": 4,
          "attributes": {
            "POSITION": 32,
            "TEXCOORD_0": 33,
            "NORMAL": 34
          },
          "material": 2
        }
      ]
    },
    {
      "primitives": [
        {
          "mode": 4,
          "attributes": {
            "POSITION": 35,
            "TEXCOORD_0": 36,
            "NORMAL": 37
          },
          "material": 3
        }
      ]
    }
  ]
}