{
  "asset": {
    "version": "2.0",
    "generator": "THREE.GLTFExporter"
  },
  "scenes": [
    {
      "nodes": [
        0,
        1,
        2,
        3,
        4,
        5,
        6
      ]
    }
  ],
  "scene": 0,
  "nodes": [
    {
      "mesh": 0
    },
    {
      "mesh": 1
    },
    {
      "mesh": 2
    },
    {
      "mesh": 3
    },
    {
      "mesh": 4
    },
    {
      "mesh": 5
    },
    {
      "mesh": 6
    }
  ],
  "bufferViews": [
    {
      "buffer": 0,
      "byteOffset": 0,
      "byteLength": 72,
      "target": 34962,
      "byteStride": 12
    },
    {
      "buffer": 0,
      "byteOffset": 72,
      "byteLength": 72,
      "target": 34962,
      "byteStride": 12
    },
    {
      "buffer": 0,
      "byteOffset": 144,
      "byteLength": 187776,
      "target": 34962,
      "byteStride": 12
    },
    {
      "buffer": 0,
      "byteOffset": 187920,
      "byteLength": 125184,
      "target": 34962,
      "byteStride": 8
    },
    {
      "buffer": 0,
      "byteOffset": 313104,
      "byteLength": 187776,
      "target": 34962,
      "byteStride": 12
    },
    {
      "buffer": 0,
      "byteOffset": 500880,
      "byteLength": 208368,
      "target": 34962,
      "byteStride": 12
    },
    {
      "buffer": 0,
      "byteOffset": 709248,
      "byteLength": 138912,
      "target": 34962,
      "byteStride": 8
    },
    {
      "buffer": 0,
      "byteOffset": 848160,
      "byteLength": 208368,
      "target": 34962,
      "byteStride": 12
    },
    {
      "buffer": 0,
      "byteOffset": 1056528,
      "byteLength": 121680,
      "target": 34962,
      "byteStride": 12
    },
    {
      "buffer": 0,
      "byteOffset": 1178208,
      "byteLength": 81120,
      "target": 34962,
      "byteStride": 8
    },
    {
      "buffer": 0,
      "byteOffset": 1259328,
      "byteLength": 121680,
      "target": 34962,
      "byteStride": 12
    },
    {
      "buffer": 0,
      "byteOffset": 1381008,
      "byteLength": 103968,
      "target": 34962,
      "byteStride": 12
    },
    {
      "buffer": 0,
      "byteOffset": 1484976,
      "byteLength": 69312,
      "target": 34962,
      "byteStride": 8
    },
    {
      "buffer": 0,
      "byteOffset": 1554288,
      "byteLength": 103968,
      "target": 34962,
      "byteStride": 12
    },
    {
      "buffer": 0,
      "byteOffset": 1658256,
      "byteLength": 130176,
      "target": 34962,
      "byteStride": 12
    },
    {
      "buffer": 0,
      "byteOffset": 1788432,
      "byteLength": 86784,
      "target": 34962,
      "byteStride": 8
    },
    {
      "buffer": 0,
      "byteOffset": 1875216,
      "byteLength": 130176,
      "target": 34962,
      "byteStride": 12
    },
    {
      "buffer": 0,
      "byteOffset": 2005392,
      "byteLength": 168984,
      "target": 34962,
      "byteStride": 12
    },
    {
      "buffer": 0,
      "byteOffset": 2174376,
      "byteLength": 112656,
      "target": 34962,
      "byteStride": 8
    },
    {
      "buffer": 0,
      "byteOffset": 2287032,
      "byteLength": 168984,
      "target": 34962,
      "byteStride": 12
    }
  ],
  "buffers": [
    {
      "byteLength": 2456016,
      "uri": "data:application/octet-stream;base64,"
    }
  ],
  "accessors": [
    {
      "bufferView": 0,
      "componentType": 5126,
      "count": 6,
      "max": [
        200,
        200,
        200
      ],
      "min": [
        0,
        0,
        0
      ],
      "type": "VEC3"
    },
    {
      "bufferView": 1,
      "componentType": 5126,
      "count": 6,
      "max": [
        1,
        1,
        1
      ],
      "min": [
        0,
        0,
        0
      ],
      "type": "VEC3"
    },
    {
      "bufferView": 2,
      "componentType": 5126,
      "count": 15648,
      "max": [
        -41.1844596862793,
        59.1370964050293,
        -183.40786743164062
      ],
      "min": [
        -159.60519409179688,
        -59.25328826904297,
        -215.04307556152344
      ],
      "type": "VEC3"
    },
    {
      "bufferView": 3,
      "componentType": 5126,
      "count": 15648,
      "max": [
        118.2741928100586,
        31.086145401000977
      ],
      "min": [
        -119.21038818359375,
        -32.18428039550781
      ],
      "type": "VEC2"
    },
    {
      "bufferView": 4,
      "componentType": 5126,
      "count": 15648,
      "max": [
        0.9990463256835938,
        0.9998778104782104,
        0.9750432968139648
      ],
      "min": [
        -0.9990519881248474,
        -0.9998679757118225,
        -0.9729512929916382
      ],
      "type": "VEC3"
    },
    {
      "bufferView": 5,
      "componentType": 5126,
      "count": 17364,
      "max": [
        -38.89815139770508,
        62.7657470703125,
        19.591995239257812
      ],
      "min": [
        -162.8380126953125,
        -62.2051887512207,
        -20.964887619018555
      ],
      "type": "VEC3"
    },
    {
      "bufferView": 6,
      "componentType": 5126,
      "count": 17364,
      "max": [
        125.531494140625,
        44.676265716552734
      ],
      "min": [
        -125.67601013183594,
        -38.183990478515625
      ],
      "type": "VEC2"
    },
    {
      "bufferView": 7,
      "componentType": 5126,
      "count": 17364,
      "max": [
        0.9990071654319763,
        0.99928218126297,
        0.9995846152305603
      ],
      "min": [
        -0.9989902377128601,
        -0.9992779493331909,
        -0.9995938539505005
      ],
      "type": "VEC3"
    },
    {
      "bufferView": 8,
      "componentType": 5126,
      "count": 10140,
      "max": [
        -45.81232452392578,
        57.518455505371094,
        216.74465942382812
      ],
      "min": [
        -157.631591796875,
        -55.11104965209961,
        182.86427307128906
      ],
      "type": "VEC3"
    },
    {
      "bufferView": 9,
      "componentType": 5126,
      "count": 10140,
      "max": [
        115.03691101074219,
        55.16413116455078
      ],
      "min": [
        -115.26316833496094,
        -32.48932647705078
      ],
      "type": "VEC2"
    },
    {
      "bufferView": 10,
      "componentType": 5126,
      "count": 10140,
      "max": [
        0.9973867535591125,
        0.9889644384384155,
        0.9980063438415527
      ],
      "min": [
        -0.9985445141792297,
        -0.9918469786643982,
        -0.9980062246322632
      ],
      "type": "VEC3"
    },
    {
      "bufferView": 11,
      "componentType": 5126,
      "count": 8664,
      "max": [
        158.6239013671875,
        58.55784606933594,
        -184.14454650878906
      ],
      "min": [
        41.50420379638672,
        -58.56331253051758,
        -215.08473205566406
      ],
      "type": "VEC3"
    },
    {
      "bufferView": 12,
      "componentType": 5126,
      "count": 8664,
      "max": [
        117.24781799316406,
        33.218326568603516
      ],
      "min": [
        -117.12662506103516,
        -30.71091651916504
      ],
      "type": "VEC2"
    },
    {
      "bufferView": 13,
      "componentType": 5126,
      "count": 8664,
      "max": [
        0.9924615025520325,
        0.9871011972427368,
        0.9986198544502258
      ],
      "min": [
        -0.992476761341095,
        -0.9870719909667969,
        -0.9986247420310974
      ],
      "type": "VEC3"
    },
    {
      "bufferView": 14,
      "componentType": 5126,
      "count": 10848,
      "max": [
        161.679931640625,
        63.76169204711914,
        21.293432235717773
      ],
      "min": [
        35.618263244628906,
        -60.79065704345703,
        -20.7126407623291
      ],
      "type": "VEC3"
    },
    {
      "bufferView": 15,
      "componentType": 5126,
      "count": 10848,
      "max": [
        127.52338409423828,
        45.08029556274414
      ],
      "min": [
        -128.7634735107422,
        -41.58686447143555
      ],
      "type": "VEC2"
    },
    {
      "bufferView": 16,
      "componentType": 5126,
      "count": 10848,
      "max": [
        0.9723249077796936,
        0.9983522295951843,
        0.9995877146720886
      ],
      "min": [
        -0.998948335647583,
        -0.9926974773406982,
        -0.999560534954071
      ],
      "type": "VEC3"
    },
    {
      "bufferView": 17,
      "componentType": 5126,
      "count": 14082,
      "max": [
        158.58059692382812,
        59.411983489990234,
        215.3658447265625
      ],
      "min": [
        40.48151397705078,
        -59.3583869934082,
        184.70535278320312
      ],
      "type": "VEC3"
    },
    {
      "bufferView": 18,
      "componentType": 5126,
      "count": 14082,
      "max": [
        118.82396697998047,
        32.397735595703125
      ],
      "min": [
        -119.03697204589844,
        -29.73170280456543
      ],
      "type": "VEC2"
    },
    {
      "bufferView": 19,
      "componentType": 5126,
      "count": 14082,
      "max": [
        0.9998411536216736,
        0.9914829730987549,
        0.9998492002487183
      ],
      "min": [
        -0.9991199970245361,
        -0.993137001991272,
        -0.9980659484863281
      ],
      "type": "VEC3"
    }
  ],
  "materials": [
    {
      "pbrMetallicRoughness": {
        "metallicFactor": 0.5,
        "roughnessFactor": 0.5
      }
    },
    {
      "pbrMetallicRoughness": {
        "baseColorFactor": [
          0.5150151488656396,
          0.7302141184917439,
          0.6860399947455136,
          1
        ],
        "metallicFactor": 0.5,
        "roughnessFactor": 0.5
      }
    },
    {
      "pbrMetallicRoughness": {
        "baseColorFactor": [
          0.7520654338792134,
          0.7573548136249617,
          0.9243166969580072,
          1
        ],
        "metallicFactor": 0.5,
        "roughnessFactor": 0.5
      }
    },
    {
      "pbrMetallicRoughness": {
        "baseColorFactor": [
          0.026192171108744944,
          0.5139060231556734,
          0.19868704299502027,
          1
        ],
        "metallicFactor": 0.5,
        "roughnessFactor": 0.5
      }
    },
    {
      "pbrMetallicRoughness": {
        "baseColorFactor": [
          0.9064326959134621,
          0.12896045824924518,
          0.9929714460075778,
          1
        ],
        "metallicFactor": 0.5,
        "roughnessFactor": 0.5
      }
    },
    {
      "pbrMetallicRoughness": {
        "baseColorFactor": [
          0.4071425648056368,
          0.5787137799343234,
          0.8074330327498884,
          1
        ],
        "metallicFactor": 0.5,
        "roughnessFactor": 0.5
      }
    },
    {
      "pbrMetallicRoughness": {
        "baseColorFactor": [
          0.489586442607965,
          0.49424577793710656,
          0.11412264355073343,
          1
        ],
        "metallicFactor": 0.5,
        "roughnessFactor": 0.5
      }
    }
  ],
  "meshes": [
    {
      "primitives": [
        {
          "mode": 1,
          "attributes": {
            "POSITION": 0,
            "COLOR_0": 1
          },
          "material": 0
        }
      ]
    },
    {
      "primitives": [
        {
          "mode": 4,
          "attributes": {
            "POSITION": 2,
            "TEXCOORD_0": 3,
            "NORMAL": 4
          },
          "material": 1
        }
      ]
    },
    {
      "primitives": [
        {
          "mode": 4,
          "attributes": {
            "POSITION": 5,
            "TEXCOORD_0": 6,
            "NORMAL": 7
          },
          "material": 2
        }
      ]
    },
    {
      "primitives": [
        {
          "mode": 4,
          "attributes": {
            "POSITION": 8,
            "TEXCOORD_0": 9,
            "NORMAL": 10
          },
          "material": 3
        }
      ]
    },
    {
      "primitives": [
        {
          "mode": 4,
          "attributes": {
            "POSITION": 11,
            "TEXCOORD_0": 12,
            "NORMAL": 13
          },
          "material": 4
        }
      ]
    },
    {
      "primitives": [
        {
          "mode": 4,
          "attributes": {
            "POSITION": 14,
            "TEXCOORD_0": 15,
            "NORMAL": 16
          },
          "material": 5
        }
      ]
    },
    {
      "primitives": [
        {
          "mode": 4,
          "attributes": {
            "POSITION": 17,
            "TEXCOORD_0": 18,
            "NORMAL": 19
          },
          "material": 6
        }
      ]
    }
  ]
}