{
  "asset": {
    "version": "2.0",
    "generator": "THREE.GLTFExporter"
  },
  "scenes": [
    {
      "nodes": [
        0,
        1,
        2,
        3,
        4,
        5,
        6,
        7,
        8,
        9,
        10,
        11,
        12
      ]
    }
  ],
  "scene": 0,
  "nodes": [
    {
      "mesh": 0
    },
    {
      "mesh": 1
    },
    {
      "mesh": 2
    },
    {
      "mesh": 3
    },
    {
      "mesh": 4
    },
    {
      "mesh": 5
    },
    {
      "mesh": 6
    },
    {
      "mesh": 7
    },
    {
      "mesh": 8
    },
    {
      "mesh": 9
    },
    {
      "mesh": 10
    },
    {
      "mesh": 11
    },
    {
      "mesh": 12
    }
  ],
  "bufferViews": [
    {
      "buffer": 0,
      "byteOffset": 0,
      "byteLength": 72,
      "target": 34962,
      "byteStride": 12
    },
    {
      "buffer": 0,
      "byteOffset": 72,
      "byteLength": 72,
      "target": 34962,
      "byteStride": 12
    },
    {
      "buffer": 0,
      "byteOffset": 144,
      "byteLength": 79848,
      "target": 34962,
      "byteStride": 12
    },
    {
      "buffer": 0,
      "byteOffset": 79992,
      "byteLength": 53232,
      "target": 34962,
      "byteStride": 8
    },
    {
      "buffer": 0,
      "byteOffset": 133224,
      "byteLength": 79848,
      "target": 34962,
      "byteStride": 12
    },
    {
      "buffer": 0,
      "byteOffset": 213072,
      "byteLength": 43488,
      "target": 34962,
      "byteStride": 12
    },
    {
      "buffer": 0,
      "byteOffset": 256560,
      "byteLength": 28992,
      "target": 34962,
      "byteStride": 8
    },
    {
      "buffer": 0,
      "byteOffset": 285552,
      "byteLength": 43488,
      "target": 34962,
      "byteStride": 12
    },
    {
      "buffer": 0,
      "byteOffset": 329040,
      "byteLength": 87120,
      "target": 34962,
      "byteStride": 12
    },
    {
      "buffer": 0,
      "byteOffset": 416160,
      "byteLength": 58080,
      "target": 34962,
      "byteStride": 8
    },
    {
      "buffer": 0,
      "byteOffset": 474240,
      "byteLength": 87120,
      "target": 34962,
      "byteStride": 12
    },
    {
      "buffer": 0,
      "byteOffset": 561360,
      "byteLength": 79848,
      "target": 34962,
      "byteStride": 12
    },
    {
      "buffer": 0,
      "byteOffset": 641208,
      "byteLength": 53232,
      "target": 34962,
      "byteStride": 8
    },
    {
      "buffer": 0,
      "byteOffset": 694440,
      "byteLength": 79848,
      "target": 34962,
      "byteStride": 12
    },
    {
      "buffer": 0,
      "byteOffset": 774288,
      "byteLength": 130752,
      "target": 34962,
      "byteStride": 12
    },
    {
      "buffer": 0,
      "byteOffset": 905040,
      "byteLength": 87168,
      "target": 34962,
      "byteStride": 8
    },
    {
      "buffer": 0,
      "byteOffset": 992208,
      "byteLength": 130752,
      "target": 34962,
      "byteStride": 12
    },
    {
      "buffer": 0,
      "byteOffset": 1122960,
      "byteLength": 58032,
      "target": 34962,
      "byteStride": 12
    },
    {
      "buffer": 0,
      "byteOffset": 1180992,
      "byteLength": 38688,
      "target": 34962,
      "byteStride": 8
    },
    {
      "buffer": 0,
      "byteOffset": 1219680,
      "byteLength": 58032,
      "target": 34962,
      "byteStride": 12
    },
    {
      "buffer": 0,
      "byteOffset": 1277712,
      "byteLength": 43488,
      "target": 34962,
      "byteStride": 12
    },
    {
      "buffer": 0,
      "byteOffset": 1321200,
      "byteLength": 28992,
      "target": 34962,
      "byteStride": 8
    },
    {
      "buffer": 0,
      "byteOffset": 1350192,
      "byteLength": 43488,
      "target": 34962,
      "byteStride": 12
    },
    {
      "buffer": 0,
      "byteOffset": 1393680,
      "byteLength": 65304,
      "target": 34962,
      "byteStride": 12
    },
    {
      "buffer": 0,
      "byteOffset": 1458984,
      "byteLength": 43536,
      "target": 34962,
      "byteStride": 8
    },
    {
      "buffer": 0,
      "byteOffset": 1502520,
      "byteLength": 65304,
      "target": 34962,
      "byteStride": 12
    },
    {
      "buffer": 0,
      "byteOffset": 1567824,
      "byteLength": 21672,
      "target": 34962,
      "byteStride": 12
    },
    {
      "buffer": 0,
      "byteOffset": 1589496,
      "byteLength": 14448,
      "target": 34962,
      "byteStride": 8
    },
    {
      "buffer": 0,
      "byteOffset": 1603944,
      "byteLength": 21672,
      "target": 34962,
      "byteStride": 12
    },
    {
      "buffer": 0,
      "byteOffset": 1625616,
      "byteLength": 145296,
      "target": 34962,
      "byteStride": 12
    },
    {
      "buffer": 0,
      "byteOffset": 1770912,
      "byteLength": 96864,
      "target": 34962,
      "byteStride": 8
    },
    {
      "buffer": 0,
      "byteOffset": 1867776,
      "byteLength": 145296,
      "target": 34962,
      "byteStride": 12
    },
    {
      "buffer": 0,
      "byteOffset": 2013072,
      "byteLength": 130752,
      "target": 34962,
      "byteStride": 12
    },
    {
      "buffer": 0,
      "byteOffset": 2143824,
      "byteLength": 87168,
      "target": 34962,
      "byteStride": 8
    },
    {
      "buffer": 0,
      "byteOffset": 2230992,
      "byteLength": 130752,
      "target": 34962,
      "byteStride": 12
    },
    {
      "buffer": 0,
      "byteOffset": 2361744,
      "byteLength": 79848,
      "target": 34962,
      "byteStride": 12
    },
    {
      "buffer": 0,
      "byteOffset": 2441592,
      "byteLength": 53232,
      "target": 34962,
      "byteStride": 8
    },
    {
      "buffer": 0,
      "byteOffset": 2494824,
      "byteLength": 79848,
      "target": 34962,
      "byteStride": 12
    }
  ],
  "buffers": [
    {
      "byteLength": 2574672,
      "uri": "data:application/octet-stream;base64,"
    }
  ],
  "accessors": [
    {
      "bufferView": 0,
      "componentType": 5126,
      "count": 6,
      "max": [
        200,
        200,
        200
      ],
      "min": [
        0,
        0,
        0
      ],
      "type": "VEC3"
    },
    {
      "bufferView": 1,
      "componentType": 5126,
      "count": 6,
      "max": [
        1,
        1,
        1
      ],
      "min": [
        0,
        0,
        0
      ],
      "type": "VEC3"
    },
    {
      "bufferView": 2,
      "componentType": 5126,
      "count": 6654,
      "max": [
        -186.92974853515625,
        101.76838684082031,
        -286.81072998046875
      ],
      "min": [
        -214.94384765625,
        -126.37335205078125,
        -314.0569152832031
      ],
      "type": "VEC3"
    },
    {
      "bufferView": 3,
      "componentType": 5126,
      "count": 6654,
      "max": [
        198.30526733398438,
        203.53677368164062
      ],
      "min": [
        -196.08221435546875,
        -252.7467041015625
      ],
      "type": "VEC2"
    },
    {
      "bufferView": 4,
      "componentType": 5126,
      "count": 6654,
      "max": [
        0.9953227043151855,
        0.9833921790122986,
        0.9999945163726807
      ],
      "min": [
        -0.9911190271377563,
        -0.9903297424316406,
        -0.9713694453239441
      ],
      "type": "VEC3"
    },
    {
      "bufferView": 5,
      "componentType": 5126,
      "count": 3624,
      "max": [
        -184.21755981445312,
        100.70950317382812,
        -88.68594360351562
      ],
      "min": [
        -215.15025329589844,
        -125.8181381225586,
        -113.87620544433594
      ],
      "type": "VEC3"
    },
    {
      "bufferView": 6,
      "componentType": 5126,
      "count": 3624,
      "max": [
        31.56489372253418,
        201.41900634765625
      ],
      "min": [
        -30.30050277709961,
        -251.6362762451172
      ],
      "type": "VEC2"
    },
    {
      "bufferView": 7,
      "componentType": 5126,
      "count": 3624,
      "max": [
        0.890694260597229,
        0.996810257434845,
        0.9999763369560242
      ],
      "min": [
        -0.8906916379928589,
        -0.9964054822921753,
        -0.9999766945838928
      ],
      "type": "VEC3"
    },
    {
      "bufferView": 8,
      "componentType": 5126,
      "count": 7260,
      "max": [
        -186.89871215820312,
        100.98124694824219,
        113.02379608154297
      ],
      "min": [
        -214.24063110351562,
        -128.78257751464844,
        84.9844970703125
      ],
      "type": "VEC3"
    },
    {
      "bufferView": 9,
      "componentType": 5126,
      "count": 7260,
      "max": [
        51.62910079956055,
        201.96249389648438
      ],
      "min": [
        -254.5802001953125,
        -257.5651550292969
      ],
      "type": "VEC2"
    },
    {
      "bufferView": 10,
      "componentType": 5126,
      "count": 7260,
      "max": [
        0.9880911111831665,
        0.9950265288352966,
        0.987448513507843
      ],
      "min": [
        -0.9880925416946411,
        -0.9244376420974731,
        -0.9874560832977295
      ],
      "type": "VEC3"
    },
    {
      "bufferView": 11,
      "componentType": 5126,
      "count": 6654,
      "max": [
        -186.36087036132812,
        100.19979095458984,
        314.015625
      ],
      "min": [
        -212.8857421875,
        -127.3658676147461,
        284.8675537109375
      ],
      "type": "VEC3"
    },
    {
      "bufferView": 12,
      "componentType": 5126,
      "count": 6654,
      "max": [
        37.668365478515625,
        200.3995819091797
      ],
      "min": [
        -195.9667510986328,
        -254.7317352294922
      ],
      "type": "VEC2"
    },
    {
      "bufferView": 13,
      "componentType": 5126,
      "count": 6654,
      "max": [
        0.9930961728096008,
        0.9998002648353577,
        0.9999139904975891
      ],
      "min": [
        -0.9935702085494995,
        -0.9716138243675232,
        -0.9662639498710632
      ],
      "type": "VEC3"
    },
    {
      "bufferView": 14,
      "componentType": 5126,
      "count": 10896,
      "max": [
        17.854995727539062,
        102.3862075805664,
        -282.708251953125
      ],
      "min": [
        -19.718111038208008,
        -126.33611297607422,
        -318.25244140625
      ],
      "type": "VEC3"
    },
    {
      "bufferView": 15,
      "componentType": 5126,
      "count": 10896,
      "max": [
        199.18002319335938,
        204.7724151611328
      ],
      "min": [
        -252.67222595214844,
        -252.67222595214844
      ],
      "type": "VEC2"
    },
    {
      "bufferView": 16,
      "componentType": 5126,
      "count": 10896,
      "max": [
        0.9999964833259583,
        0.985707700252533,
        0.9890171885490417
      ],
      "min": [
        -0.9547984600067139,
        -0.9960147142410278,
        -0.9916477799415588
      ],
      "type": "VEC3"
    },
    {
      "bufferView": 17,
      "componentType": 5126,
      "count": 4836,
      "max": [
        18.9814510345459,
        102.36296081542969,
        -81.56556701660156
      ],
      "min": [
        -19.93819236755371,
        -129.04624938964844,
        -120.04622650146484
      ],
      "type": "VEC3"
    },
    {
      "bufferView": 18,
      "componentType": 5126,
      "count": 4836,
      "max": [
        37.9629020690918,
        204.72592163085938
      ],
      "min": [
        -39.87638473510742,
        -258.0924987792969
      ],
      "type": "VEC2"
    },
    {
      "bufferView": 19,
      "componentType": 5126,
      "count": 4836,
      "max": [
        0.8096018433570862,
        0.9874281287193298,
        0.8102259635925293
      ],
      "min": [
        -0.8095611333847046,
        -0.9487481713294983,
        -0.8102266788482666
      ],
      "type": "VEC3"
    },
    {
      "bufferView": 20,
      "componentType": 5126,
      "count": 3624,
      "max": [
        18.715614318847656,
        102.80314636230469,
        113.90210723876953
      ],
      "min": [
        -16.58168601989746,
        -128.9642791748047,
        80.63420867919922
      ],
      "type": "VEC3"
    },
    {
      "bufferView": 21,
      "componentType": 5126,
      "count": 3624,
      "max": [
        200.42800903320312,
        205.60629272460938
      ],
      "min": [
        -33.16337203979492,
        -257.9285583496094
      ],
      "type": "VEC2"
    },
    {
      "bufferView": 22,
      "componentType": 5126,
      "count": 3624,
      "max": [
        0.9283687472343445,
        0.9788473844528198,
        0.9989296793937683
      ],
      "min": [
        -0.9823799133300781,
        -0.9523871541023254,
        -0.7572786808013916
      ],
      "type": "VEC3"
    },
    {
      "bufferView": 23,
      "componentType": 5126,
      "count": 5442,
      "max": [
        14.69139289855957,
        102.14427947998047,
        313.90826416015625
      ],
      "min": [
        -14.577865600585938,
        -125.39454650878906,
        286.1806640625
      ],
      "type": "VEC3"
    },
    {
      "bufferView": 24,
      "componentType": 5126,
      "count": 5442,
      "max": [
        197.12982177734375,
        204.28855895996094
      ],
      "min": [
        -250.27523803710938,
        -250.78909301757812
      ],
      "type": "VEC2"
    },
    {
      "bufferView": 25,
      "componentType": 5126,
      "count": 5442,
      "max": [
        0.9999895095825195,
        0.9758504033088684,
        0.9900368452072144
      ],
      "min": [
        -0.954331636428833,
        -0.9991970062255859,
        -0.9907428026199341
      ],
      "type": "VEC3"
    },
    {
      "bufferView": 26,
      "componentType": 5126,
      "count": 1806,
      "max": [
        213.50173950195312,
        102.21632385253906,
        -289.57818603515625
      ],
      "min": [
        186.6116485595703,
        -126.20008087158203,
        -312.17413330078125
      ],
      "type": "VEC3"
    },
    {
      "bufferView": 27,
      "componentType": 5126,
      "count": 1806,
      "max": [
        27.003475189208984,
        204.43264770507812
      ],
      "min": [
        -26.776695251464844,
        -252.40016174316406
      ],
      "type": "VEC2"
    },
    {
      "bufferView": 28,
      "componentType": 5126,
      "count": 1806,
      "max": [
        0.8929534554481506,
        0.9622135758399963,
        0.9999990463256836
      ],
      "min": [
        -0.8651584386825562,
        -0.9903320074081421,
        -0.5502957701683044
      ],
      "type": "VEC3"
    },
    {
      "bufferView": 29,
      "componentType": 5126,
      "count": 12108,
      "max": [
        219.45416259765625,
        101.50648498535156,
        -81.54859924316406
      ],
      "min": [
        180.471923828125,
        -128.1500701904297,
        -118.54421997070312
      ],
      "type": "VEC3"
    },
    {
      "bufferView": 30,
      "componentType": 5126,
      "count": 12108,
      "max": [
        99.65198516845703,
        203.01296997070312
      ],
      "min": [
        -254.87994384765625,
        -256.3001403808594
      ],
      "type": "VEC2"
    },
    {
      "bufferView": 31,
      "componentType": 5126,
      "count": 12108,
      "max": [
        0.9856820702552795,
        0.9948359131813049,
        0.9970167279243469
      ],
      "min": [
        -0.9856988787651062,
        -0.9775792360305786,
        -0.9970224499702454
      ],
      "type": "VEC3"
    },
    {
      "bufferView": 32,
      "componentType": 5126,
      "count": 10896,
      "max": [
        219.0762176513672,
        100.89436340332031,
        119.29129028320312
      ],
      "min": [
        180.1742706298828,
        -127.84412384033203,
        79.77847290039062
      ],
      "type": "VEC3"
    },
    {
      "bufferView": 33,
      "componentType": 5126,
      "count": 10896,
      "max": [
        201.48475646972656,
        201.78872680664062
      ],
      "min": [
        -255.38819885253906,
        -255.68824768066406
      ],
      "type": "VEC2"
    },
    {
      "bufferView": 34,
      "componentType": 5126,
      "count": 10896,
      "max": [
        0.9997347593307495,
        0.9981989860534668,
        0.9997667670249939
      ],
      "min": [
        -0.9977872371673584,
        -0.9803772568702698,
        -0.9824953675270081
      ],
      "type": "VEC3"
    },
    {
      "bufferView": 35,
      "componentType": 5126,
      "count": 6654,
      "max": [
        212.39434814453125,
        102.74990844726562,
        313.2928771972656
      ],
      "min": [
        185.0052490234375,
        -125.56292724609375,
        285.0312194824219
      ],
      "type": "VEC3"
    },
    {
      "bufferView": 36,
      "componentType": 5126,
      "count": 6654,
      "max": [
        202.12513732910156,
        205.49981689453125
      ],
      "min": [
        -195.47952270507812,
        -251.1258544921875
      ],
      "type": "VEC2"
    },
    {
      "bufferView": 37,
      "componentType": 5126,
      "count": 6654,
      "max": [
        0.9979361295700073,
        0.9612947106361389,
        0.9999749660491943
      ],
      "min": [
        -0.9902574419975281,
        -0.9984053373336792,
        -0.9808586835861206
      ],
      "type": "VEC3"
    }
  ],
  "materials": [
    {
      "pbrMetallicRoughness": {
        "metallicFactor": 0.5,
        "roughnessFactor": 0.5
      }
    },
    {
      "pbrMetallicRoughness": {
        "baseColorFactor": [
          0.718752134949316,
          0.513752901628499,
          0.8996368487349351,
          1
        ],
        "metallicFactor": 0.5,
        "roughnessFactor": 0.5
      }
    },
    {
      "pbrMetallicRoughness": {
        "baseColorFactor": [
          0.1848081955534877,
          0.0641438411204549,
          0.6056994964222666,
          1
        ],
        "metallicFactor": 0.5,
        "roughnessFactor": 0.5
      }
    },
    {
      "pbrMetallicRoughness": {
        "baseColorFactor": [
          0.03504736971486766,
          0.6072606482982175,
          0.8649037251737974,
          1
        ],
        "metallicFactor": 0.5,
        "roughnessFactor": 0.5
      }
    },
    {
      "pbrMetallicRoughness": {
        "baseColorFactor": [
          0.04839331899311006,
          0.0012591407154789458,
          0.5351713323943759,
          1
        ],
        "metallicFactor": 0.5,
        "roughnessFactor": 0.5
      }
    },
    {
      "pbrMetallicRoughness": {
        "baseColorFactor": [
          0.25423157146781117,
          0.6788130171856124,
          0.430666149862561,
          1
        ],
        "metallicFactor": 0.5,
        "roughnessFactor": 0.5
      }
    },
    {
      "pbrMetallicRoughness": {
        "baseColorFactor": [
          0.11757327793707728,
          0.12699953862289415,
          0.3573351380765464,
          1
        ],
        "metallicFactor": 0.5,
        "roughnessFactor": 0.5
      }
    },
    {
      "pbrMetallicRoughness": {
        "baseColorFactor": [
          0.08571386216447374,
          0.5953418076799073,
          0.01474208308968672,
          1
        ],
        "metallicFactor": 0.5,
        "roughnessFactor": 0.5
      }
    },
    {
      "pbrMetallicRoughness": {
        "baseColorFactor": [
          0.9340666298973277,
          0.579201740265112,
          0.07253255810746118,
          1
        ],
        "metallicFactor": 0.5,
        "roughnessFactor": 0.5
      }
    },
    {
      "pbrMetallicRoughness": {
        "baseColorFactor": [
          0.8704075845034338,
          0.7015582406875778,
          0.272004981016742,
          1
        ],
        "metallicFactor": 0.5,
        "roughnessFactor": 0.5
      }
    }
  ],
  "meshes": [
    {
      "primitives": [
        {
          "mode": 1,
          "attributes": {
            "POSITION": 0,
            "COLOR_0": 1
          },
          "material": 0
        }
      ]
    },
    {
      "primitives": [
        {
          "mode": 4,
          "attributes": {
            "POSITION": 2,
            "TEXCOORD_0": 3,
            "NORMAL": 4
          },
          "material": 1
        }
      ]
    },
    {
      "primitives": [
        {
          "mode": 4,
          "attributes": {
            "POSITION": 5,
            "TEXCOORD_0": 6,
            "NORMAL": 7
          },
          "material": 2
        }
      ]
    },
    {
      "primitives": [
        {
          "mode": 4,
          "attributes": {
            "POSITION": 8,
            "TEXCOORD_0": 9,
            "NORMAL": 10
          },
          "material": 3
        }
      ]
    },
    {
      "primitives": [
        {
          "mode": 4,
          "attributes": {
            "POSITION": 11,
            "TEXCOORD_0": 12,
            "NORMAL": 13
          },
          "material": 4
        }
      ]
    },
    {
      "primitives": [
        {
          "mode": 4,
          "attributes": {
            "POSITION": 14,
            "TEXCOORD_0": 15,
            "NORMAL": 16
          },
          "material": 5
        }
      ]
    },
    {
      "primitives": [
        {
          "mode": 4,
          "attributes": {
            "POSITION": 17,
            "TEXCOORD_0": 18,
            "NORMAL": 19
          },
          "material": 6
        }
      ]
    },
    {
      "primitives": [
        {
          "mode": 4,
          "attributes": {
            "POSITION": 20,
            "TEXCOORD_0": 21,
            "NORMAL": 22
          },
          "material": 7
        }
      ]
    },
    {
      "primitives": [
        {
          "mode": 4,
          "attributes": {
            "POSITION": 23,
            "TEXCOORD_0": 24,
            "NORMAL": 25
          },
          "material": 8
        }
      ]
    },
    {
      "primitives": [
        {
          "mode": 4,
          "attributes": {
            "POSITION": 26,
            "TEXCOORD_0": 27,
            "NORMAL": 28
          },
          "material": 9
        }
      ]
    },
    {
      "primitives": [
        {
          "mode": 4,
          "attributes": {
            "POSITION": 29,
            "TEXCOORD_0": 30,
            "NORMAL": 31
          },
          "material": 1
        }
      ]
    },
    {
      "primitives": [
        {
          "mode": 4,
          "attributes": {
            "POSITION": 32,
            "TEXCOORD_0": 33,
            "NORMAL": 34
          },
          "material": 2
        }
      ]
    },
    {
      "primitives": [
        {
          "mode": 4,
          "attributes": {
            "POSITION": 35,
            "TEXCOORD_0": 36,
            "NORMAL": 37
          },
          "material": 3
        }
      ]
    }
  ]
}