{
  "asset": {
    "version": "2.0",
    "generator": "THREE.GLTFExporter"
  },
  "scenes": [
    {
      "nodes": [
        0,
        1,
        2,
        3,
        4
      ]
    }
  ],
  "scene": 0,
  "nodes": [
    {
      "mesh": 0
    },
    {
      "mesh": 1
    },
    {
      "mesh": 2
    },
    {
      "mesh": 3
    },
    {
      "mesh": 4
    }
  ],
  "bufferViews": [
    {
      "buffer": 0,
      "byteOffset": 0,
      "byteLength": 72,
      "target": 34962,
      "byteStride": 12
    },
    {
      "buffer": 0,
      "byteOffset": 72,
      "byteLength": 72,
      "target": 34962,
      "byteStride": 12
    },
    {
      "buffer": 0,
      "byteOffset": 144,
      "byteLength": 116208,
      "target": 34962,
      "byteStride": 12
    },
    {
      "buffer": 0,
      "byteOffset": 116352,
      "byteLength": 77472,
      "target": 34962,
      "byteStride": 8
    },
    {
      "buffer": 0,
      "byteOffset": 193824,
      "byteLength": 116208,
      "target": 34962,
      "byteStride": 12
    },
    {
      "buffer": 0,
      "byteOffset": 310032,
      "byteLength": 36216,
      "target": 34962,
      "byteStride": 12
    },
    {
      "buffer": 0,
      "byteOffset": 346248,
      "byteLength": 24144,
      "target": 34962,
      "byteStride": 8
    },
    {
      "buffer": 0,
      "byteOffset": 370392,
      "byteLength": 36216,
      "target": 34962,
      "byteStride": 12
    },
    {
      "buffer": 0,
      "byteOffset": 406608,
      "byteLength": 174384,
      "target": 34962,
      "byteStride": 12
    },
    {
      "buffer": 0,
      "byteOffset": 580992,
      "byteLength": 116256,
      "target": 34962,
      "byteStride": 8
    },
    {
      "buffer": 0,
      "byteOffset": 697248,
      "byteLength": 174384,
      "target": 34962,
      "byteStride": 12
    },
    {
      "buffer": 0,
      "byteOffset": 871632,
      "byteLength": 116208,
      "target": 34962,
      "byteStride": 12
    },
    {
      "buffer": 0,
      "byteOffset": 987840,
      "byteLength": 77472,
      "target": 34962,
      "byteStride": 8
    },
    {
      "buffer": 0,
      "byteOffset": 1065312,
      "byteLength": 116208,
      "target": 34962,
      "byteStride": 12
    }
  ],
  "buffers": [
    {
      "byteLength": 1181520,
      "uri": "data:application/octet-stream;base64,"
    }
  ],
  "accessors": [
    {
      "bufferView": 0,
      "componentType": 5126,
      "count": 6,
      "max": [
        200,
        200,
        200
      ],
      "min": [
        0,
        0,
        0
      ],
      "type": "VEC3"
    },
    {
      "bufferView": 1,
      "componentType": 5126,
      "count": 6,
      "max": [
        1,
        1,
        1
      ],
      "min": [
        0,
        0,
        0
      ],
      "type": "VEC3"
    },
    {
      "bufferView": 2,
      "componentType": 5126,
      "count": 9684,
      "max": [
        -80.05347442626953,
        104.01907348632812,
        -80.48825073242188
      ],
      "min": [
        -119.49688720703125,
        -125.84626770019531,
        -119.98806762695312
      ],
      "type": "VEC3"
    },
    {
      "bufferView": 3,
      "componentType": 5126,
      "count": 9684,
      "max": [
        206.44810485839844,
        208.03814697265625
      ],
      "min": [
        -186.11656188964844,
        -251.69253540039062
      ],
      "type": "VEC2"
    },
    {
      "bufferView": 4,
      "componentType": 5126,
      "count": 9684,
      "max": [
        0.9915103912353516,
        0.9627553820610046,
        0.9872323870658875
      ],
      "min": [
        -0.9915103912353516,
        -0.9984052777290344,
        -0.987232506275177
      ],
      "type": "VEC3"
    },
    {
      "bufferView": 5,
      "componentType": 5126,
      "count": 3018,
      "max": [
        -86.59745788574219,
        102.15107727050781,
        114.12194061279297
      ],
      "min": [
        -113.58207702636719,
        -127.21743774414062,
        85.79073333740234
      ],
      "type": "VEC3"
    },
    {
      "bufferView": 6,
      "componentType": 5126,
      "count": 3018,
      "max": [
        198.92922973632812,
        204.30215454101562
      ],
      "min": [
        -252.75531005859375,
        -254.43487548828125
      ],
      "type": "VEC2"
    },
    {
      "bufferView": 7,
      "componentType": 5126,
      "count": 3018,
      "max": [
        0.9999991059303284,
        0.9716091156005859,
        0.9989832639694214
      ],
      "min": [
        -0.937808096408844,
        -0.9723734259605408,
        -0.9439131021499634
      ],
      "type": "VEC3"
    },
    {
      "bufferView": 8,
      "componentType": 5126,
      "count": 14532,
      "max": [
        118.94688415527344,
        101.88863372802734,
        -82.37677764892578
      ],
      "min": [
        79.96263122558594,
        -126.88572692871094,
        -118.47393798828125
      ],
      "type": "VEC3"
    },
    {
      "bufferView": 9,
      "componentType": 5126,
      "count": 14532,
      "max": [
        203.5433349609375,
        203.7772674560547
      ],
      "min": [
        -253.77145385742188,
        -253.77145385742188
      ],
      "type": "VEC2"
    },
    {
      "bufferView": 10,
      "componentType": 5126,
      "count": 14532,
      "max": [
        0.9997648000717163,
        0.9918842911720276,
        0.9998685717582703
      ],
      "min": [
        -0.9998451471328735,
        -0.9919010400772095,
        -0.9998718500137329
      ],
      "type": "VEC3"
    },
    {
      "bufferView": 11,
      "componentType": 5126,
      "count": 9684,
      "max": [
        118.77735900878906,
        101.5147476196289,
        119.70716857910156
      ],
      "min": [
        80.49803161621094,
        -126.88990783691406,
        81.0337905883789
      ],
      "type": "VEC3"
    },
    {
      "bufferView": 12,
      "componentType": 5126,
      "count": 9684,
      "max": [
        173.85826110839844,
        203.0294952392578
      ],
      "min": [
        -39.00394058227539,
        -253.77981567382812
      ],
      "type": "VEC2"
    },
    {
      "bufferView": 13,
      "componentType": 5126,
      "count": 9684,
      "max": [
        0.9958530068397522,
        0.9948450326919556,
        0.9933256506919861
      ],
      "min": [
        -0.9958531856536865,
        -0.991109311580658,
        -0.9933257102966309
      ],
      "type": "VEC3"
    }
  ],
  "materials": [
    {
      "pbrMetallicRoughness": {
        "metallicFactor": 0.5,
        "roughnessFactor": 0.5
      }
    },
    {
      "pbrMetallicRoughness": {
        "baseColorFactor": [
          0.28042741865421816,
          0.7927444338438681,
          0.26640937152929745,
          1
        ],
        "metallicFactor": 0.5,
        "roughnessFactor": 0.5
      },
      "name": "Bumped_1"
    },
    {
      "pbrMetallicRoughness": {
        "baseColorFactor": [
          0.965400945523043,
          0.18573859793024794,
          0.35133510890842934,
          1
        ],
        "metallicFactor": 0.5,
        "roughnessFactor": 0.5
      },
      "name": "Bumped_2"
    },
    {
      "pbrMetallicRoughness": {
        "baseColorFactor": [
          0.19506511270082294,
          0.5634164428905113,
          0.1621024052949238,
          1
        ],
        "metallicFactor": 0.5,
        "roughnessFactor": 0.5
      },
      "name": "Bumped_3"
    },
    {
      "pbrMetallicRoughness": {
        "baseColorFactor": [
          0.3023196503236818,
          0.7945479148848171,
          0.5517344527135377,
          1
        ],
        "metallicFactor": 0.5,
        "roughnessFactor": 0.5
      },
      "name": "Bumped_4"
    }
  ],
  "meshes": [
    {
      "primitives": [
        {
          "mode": 1,
          "attributes": {
            "POSITION": 0,
            "COLOR_0": 1
          },
          "material": 0
        }
      ]
    },
    {
      "primitives": [
        {
          "mode": 4,
          "attributes": {
            "POSITION": 2,
            "TEXCOORD_0": 3,
            "NORMAL": 4
          },
          "material": 1
        }
      ]
    },
    {
      "primitives": [
        {
          "mode": 4,
          "attributes": {
            "POSITION": 5,
            "TEXCOORD_0": 6,
            "NORMAL": 7
          },
          "material": 2
        }
      ]
    },
    {
      "primitives": [
        {
          "mode": 4,
          "attributes": {
            "POSITION": 8,
            "TEXCOORD_0": 9,
            "NORMAL": 10
          },
          "material": 3
        }
      ]
    },
    {
      "primitives": [
        {
          "mode": 4,
          "attributes": {
            "POSITION": 11,
            "TEXCOORD_0": 12,
            "NORMAL": 13
          },
          "material": 4
        }
      ]
    }
  ]
}