{
  "asset": {
    "version": "2.0",
    "generator": "THREE.GLTFExporter"
  },
  "scenes": [
    {
      "nodes": [
        0,
        1,
        2,
        3,
        4,
        5,
        6,
        7,
        8,
        9,
        10,
        11,
        12
      ]
    }
  ],
  "scene": 0,
  "nodes": [
    {
      "mesh": 0
    },
    {
      "mesh": 1
    },
    {
      "mesh": 2
    },
    {
      "mesh": 3
    },
    {
      "mesh": 4
    },
    {
      "mesh": 5
    },
    {
      "mesh": 6
    },
    {
      "mesh": 7
    },
    {
      "mesh": 8
    },
    {
      "mesh": 9
    },
    {
      "mesh": 10
    },
    {
      "mesh": 11
    },
    {
      "mesh": 12
    }
  ],
  "bufferViews": [
    {
      "buffer": 0,
      "byteOffset": 0,
      "byteLength": 72,
      "target": 34962,
      "byteStride": 12
    },
    {
      "buffer": 0,
      "byteOffset": 72,
      "byteLength": 72,
      "target": 34962,
      "byteStride": 12
    },
    {
      "buffer": 0,
      "byteOffset": 144,
      "byteLength": 6192,
      "target": 34962,
      "byteStride": 12
    },
    {
      "buffer": 0,
      "byteOffset": 6336,
      "byteLength": 4128,
      "target": 34962,
      "byteStride": 8
    },
    {
      "buffer": 0,
      "byteOffset": 10464,
      "byteLength": 6192,
      "target": 34962,
      "byteStride": 12
    },
    {
      "buffer": 0,
      "byteOffset": 16656,
      "byteLength": 10224,
      "target": 34962,
      "byteStride": 12
    },
    {
      "buffer": 0,
      "byteOffset": 26880,
      "byteLength": 6816,
      "target": 34962,
      "byteStride": 8
    },
    {
      "buffer": 0,
      "byteOffset": 33696,
      "byteLength": 10224,
      "target": 34962,
      "byteStride": 12
    },
    {
      "buffer": 0,
      "byteOffset": 43920,
      "byteLength": 7920,
      "target": 34962,
      "byteStride": 12
    },
    {
      "buffer": 0,
      "byteOffset": 51840,
      "byteLength": 5280,
      "target": 34962,
      "byteStride": 8
    },
    {
      "buffer": 0,
      "byteOffset": 57120,
      "byteLength": 7920,
      "target": 34962,
      "byteStride": 12
    },
    {
      "buffer": 0,
      "byteOffset": 65040,
      "byteLength": 3312,
      "target": 34962,
      "byteStride": 12
    },
    {
      "buffer": 0,
      "byteOffset": 68352,
      "byteLength": 2208,
      "target": 34962,
      "byteStride": 8
    },
    {
      "buffer": 0,
      "byteOffset": 70560,
      "byteLength": 3312,
      "target": 34962,
      "byteStride": 12
    },
    {
      "buffer": 0,
      "byteOffset": 73872,
      "byteLength": 9072,
      "target": 34962,
      "byteStride": 12
    },
    {
      "buffer": 0,
      "byteOffset": 82944,
      "byteLength": 6048,
      "target": 34962,
      "byteStride": 8
    },
    {
      "buffer": 0,
      "byteOffset": 88992,
      "byteLength": 9072,
      "target": 34962,
      "byteStride": 12
    },
    {
      "buffer": 0,
      "byteOffset": 98064,
      "byteLength": 5616,
      "target": 34962,
      "byteStride": 12
    },
    {
      "buffer": 0,
      "byteOffset": 103680,
      "byteLength": 3744,
      "target": 34962,
      "byteStride": 8
    },
    {
      "buffer": 0,
      "byteOffset": 107424,
      "byteLength": 5616,
      "target": 34962,
      "byteStride": 12
    },
    {
      "buffer": 0,
      "byteOffset": 113040,
      "byteLength": 4464,
      "target": 34962,
      "byteStride": 12
    },
    {
      "buffer": 0,
      "byteOffset": 117504,
      "byteLength": 2976,
      "target": 34962,
      "byteStride": 8
    },
    {
      "buffer": 0,
      "byteOffset": 120480,
      "byteLength": 4464,
      "target": 34962,
      "byteStride": 12
    },
    {
      "buffer": 0,
      "byteOffset": 124944,
      "byteLength": 6768,
      "target": 34962,
      "byteStride": 12
    },
    {
      "buffer": 0,
      "byteOffset": 131712,
      "byteLength": 4512,
      "target": 34962,
      "byteStride": 8
    },
    {
      "buffer": 0,
      "byteOffset": 136224,
      "byteLength": 6768,
      "target": 34962,
      "byteStride": 12
    },
    {
      "buffer": 0,
      "byteOffset": 142992,
      "byteLength": 12528,
      "target": 34962,
      "byteStride": 12
    },
    {
      "buffer": 0,
      "byteOffset": 155520,
      "byteLength": 8352,
      "target": 34962,
      "byteStride": 8
    },
    {
      "buffer": 0,
      "byteOffset": 163872,
      "byteLength": 12528,
      "target": 34962,
      "byteStride": 12
    },
    {
      "buffer": 0,
      "byteOffset": 176400,
      "byteLength": 9072,
      "target": 34962,
      "byteStride": 12
    },
    {
      "buffer": 0,
      "byteOffset": 185472,
      "byteLength": 6048,
      "target": 34962,
      "byteStride": 8
    },
    {
      "buffer": 0,
      "byteOffset": 191520,
      "byteLength": 9072,
      "target": 34962,
      "byteStride": 12
    },
    {
      "buffer": 0,
      "byteOffset": 200592,
      "byteLength": 6768,
      "target": 34962,
      "byteStride": 12
    },
    {
      "buffer": 0,
      "byteOffset": 207360,
      "byteLength": 4512,
      "target": 34962,
      "byteStride": 8
    },
    {
      "buffer": 0,
      "byteOffset": 211872,
      "byteLength": 6768,
      "target": 34962,
      "byteStride": 12
    },
    {
      "buffer": 0,
      "byteOffset": 218640,
      "byteLength": 9072,
      "target": 34962,
      "byteStride": 12
    },
    {
      "buffer": 0,
      "byteOffset": 227712,
      "byteLength": 6048,
      "target": 34962,
      "byteStride": 8
    },
    {
      "buffer": 0,
      "byteOffset": 233760,
      "byteLength": 9072,
      "target": 34962,
      "byteStride": 12
    }
  ],
  "buffers": [
    {
      "byteLength": 242832,
      "uri": "data:application/octet-stream;base64,"
    }
  ],
  "accessors": [
    {
      "bufferView": 0,
      "componentType": 5126,
      "count": 6,
      "max": [
        200,
        200,
        200
      ],
      "min": [
        0,
        0,
        0
      ],
      "type": "VEC3"
    },
    {
      "bufferView": 1,
      "componentType": 5126,
      "count": 6,
      "max": [
        1,
        1,
        1
      ],
      "min": [
        0,
        0,
        0
      ],
      "type": "VEC3"
    },
    {
      "bufferView": 2,
      "componentType": 5126,
      "count": 516,
      "max": [
        -275.828125,
        23.926546096801758,
        -175
      ],
      "min": [
        -323.20001220703125,
        -23.926546096801758,
        -205
      ],
      "type": "VEC3"
    },
    {
      "bufferView": 3,
      "componentType": 5126,
      "count": 516,
      "max": [
        20.304838180541992,
        19.799999237060547
      ],
      "min": [
        -19.200000762939453,
        -24
      ],
      "type": "VEC2"
    },
    {
      "bufferView": 4,
      "componentType": 5126,
      "count": 516,
      "max": [
        0.9587984681129456,
        0.9898784160614014,
        1
      ],
      "min": [
        -1,
        -0.9898784160614014,
        -1
      ],
      "type": "VEC3"
    },
    {
      "bufferView": 5,
      "componentType": 5126,
      "count": 852,
      "max": [
        -264.3431396484375,
        35.070438385009766,
        25
      ],
      "min": [
        -333.5126953125,
        -35.070438385009766,
        -5
      ],
      "type": "VEC3"
    },
    {
      "bufferView": 6,
      "componentType": 5126,
      "count": 852,
      "max": [
        35.65685272216797,
        29.5
      ],
      "min": [
        -35.070438385009766,
        -29.5
      ],
      "type": "VEC2"
    },
    {
      "bufferView": 7,
      "componentType": 5126,
      "count": 852,
      "max": [
        0.9971310496330261,
        0.9949436187744141,
        1
      ],
      "min": [
        -0.962916910648346,
        -0.9949436187744141,
        -1
      ],
      "type": "VEC3"
    },
    {
      "bufferView": 8,
      "componentType": 5126,
      "count": 660,
      "max": [
        -264.3431396484375,
        34.71388244628906,
        225
      ],
      "min": [
        -332.0970764160156,
        -34.71388244628906,
        195
      ],
      "type": "VEC3"
    },
    {
      "bufferView": 9,
      "componentType": 5126,
      "count": 660,
      "max": [
        35.65685272216797,
        29.200000762939453
      ],
      "min": [
        -34.71388244628906,
        -29.200000762939453
      ],
      "type": "VEC2"
    },
    {
      "bufferView": 10,
      "componentType": 5126,
      "count": 660,
      "max": [
        0.9335264563560486,
        0.989815354347229,
        1
      ],
      "min": [
        -0.9967526197433472,
        -0.989815354347229,
        -1
      ],
      "type": "VEC3"
    },
    {
      "bufferView": 11,
      "componentType": 5126,
      "count": 276,
      "max": [
        -64.34314727783203,
        30.899961471557617,
        -175
      ],
      "min": [
        -117.82672882080078,
        -30.899961471557617,
        -205
      ],
      "type": "VEC3"
    },
    {
      "bufferView": 12,
      "componentType": 5126,
      "count": 276,
      "max": [
        35.65685272216797,
        26
      ],
      "min": [
        -30.899961471557617,
        -26
      ],
      "type": "VEC2"
    },
    {
      "bufferView": 13,
      "componentType": 5126,
      "count": 276,
      "max": [
        0.6143484711647034,
        0.9200506806373596,
        1
      ],
      "min": [
        -0.9927031397819519,
        -0.9200506806373596,
        -1
      ],
      "type": "VEC3"
    },
    {
      "bufferView": 14,
      "componentType": 5126,
      "count": 756,
      "max": [
        -64.34314727783203,
        35.65685272216797,
        25
      ],
      "min": [
        -135.6568603515625,
        -35.65685272216797,
        -5
      ],
      "type": "VEC3"
    },
    {
      "bufferView": 15,
      "componentType": 5126,
      "count": 756,
      "max": [
        35.65685272216797,
        30
      ],
      "min": [
        -35.65685272216797,
        -30
      ],
      "type": "VEC2"
    },
    {
      "bufferView": 16,
      "componentType": 5126,
      "count": 756,
      "max": [
        0.9633200764656067,
        0.9633201360702515,
        1
      ],
      "min": [
        -0.9633200764656067,
        -0.9633201360702515,
        -1
      ],
      "type": "VEC3"
    },
    {
      "bufferView": 17,
      "componentType": 5126,
      "count": 468,
      "max": [
        -75.7977066040039,
        23,
        225
      ],
      "min": [
        -124.2022933959961,
        -23,
        195
      ],
      "type": "VEC3"
    },
    {
      "bufferView": 18,
      "componentType": 5126,
      "count": 468,
      "max": [
        20,
        19
      ],
      "min": [
        -20,
        -24
      ],
      "type": "VEC2"
    },
    {
      "bufferView": 19,
      "componentType": 5126,
      "count": 468,
      "max": [
        0.9518606662750244,
        1,
        1
      ],
      "min": [
        -0.9518606662750244,
        -1,
        -1
      ],
      "type": "VEC3"
    },
    {
      "bufferView": 20,
      "componentType": 5126,
      "count": 372,
      "max": [
        124.33606719970703,
        24.3360652923584,
        -175
      ],
      "min": [
        75.66393280029297,
        -24.3360652923584,
        -205
      ],
      "type": "VEC3"
    },
    {
      "bufferView": 21,
      "componentType": 5126,
      "count": 372,
      "max": [
        20,
        20
      ],
      "min": [
        -20,
        -24
      ],
      "type": "VEC2"
    },
    {
      "bufferView": 22,
      "componentType": 5126,
      "count": 372,
      "max": [
        0.9224951863288879,
        0.9224952459335327,
        1
      ],
      "min": [
        -0.9224951863288879,
        -0.9224952459335327,
        -1
      ],
      "type": "VEC3"
    },
    {
      "bufferView": 23,
      "componentType": 5126,
      "count": 564,
      "max": [
        124.14323425292969,
        24.14323616027832,
        25
      ],
      "min": [
        75.85676574707031,
        -24.14323616027832,
        -5
      ],
      "type": "VEC3"
    },
    {
      "bufferView": 24,
      "componentType": 5126,
      "count": 564,
      "max": [
        20.883403778076172,
        20
      ],
      "min": [
        -20.883403778076172,
        -24
      ],
      "type": "VEC2"
    },
    {
      "bufferView": 25,
      "componentType": 5126,
      "count": 564,
      "max": [
        0.9654291868209839,
        0.9654290676116943,
        1
      ],
      "min": [
        -0.9654291868209839,
        -0.9654290676116943,
        -1
      ],
      "type": "VEC3"
    },
    {
      "bufferView": 26,
      "componentType": 5126,
      "count": 1044,
      "max": [
        135.6568603515625,
        35.299251556396484,
        225
      ],
      "min": [
        65.77166748046875,
        -35.299251556396484,
        195
      ],
      "type": "VEC3"
    },
    {
      "bufferView": 27,
      "componentType": 5126,
      "count": 1044,
      "max": [
        35.65685272216797,
        29.700000762939453
      ],
      "min": [
        -35.299251556396484,
        -29.700000762939453
      ],
      "type": "VEC2"
    },
    {
      "bufferView": 28,
      "componentType": 5126,
      "count": 1044,
      "max": [
        0.9759916067123413,
        0.9972386956214905,
        1
      ],
      "min": [
        -0.9977338314056396,
        -0.9972386956214905,
        -1
      ],
      "type": "VEC3"
    },
    {
      "bufferView": 29,
      "componentType": 5126,
      "count": 756,
      "max": [
        335.6568603515625,
        35.65685272216797,
        -175
      ],
      "min": [
        264.3431396484375,
        -35.65685272216797,
        -205
      ],
      "type": "VEC3"
    },
    {
      "bufferView": 30,
      "componentType": 5126,
      "count": 756,
      "max": [
        35.65685272216797,
        30
      ],
      "min": [
        -35.65685272216797,
        -30
      ],
      "type": "VEC2"
    },
    {
      "bufferView": 31,
      "componentType": 5126,
      "count": 756,
      "max": [
        0.9633203744888306,
        0.9633201360702515,
        1
      ],
      "min": [
        -0.9633203744888306,
        -0.9633201360702515,
        -1
      ],
      "type": "VEC3"
    },
    {
      "bufferView": 32,
      "componentType": 5126,
      "count": 564,
      "max": [
        324.14324951171875,
        24.14323616027832,
        25
      ],
      "min": [
        275.85675048828125,
        -24.14323616027832,
        -5
      ],
      "type": "VEC3"
    },
    {
      "bufferView": 33,
      "componentType": 5126,
      "count": 564,
      "max": [
        20.883403778076172,
        20
      ],
      "min": [
        -20.883403778076172,
        -24
      ],
      "type": "VEC2"
    },
    {
      "bufferView": 34,
      "componentType": 5126,
      "count": 564,
      "max": [
        0.9654285907745361,
        0.9654290676116943,
        1
      ],
      "min": [
        -0.9654285907745361,
        -0.9654290676116943,
        -1
      ],
      "type": "VEC3"
    },
    {
      "bufferView": 35,
      "componentType": 5126,
      "count": 756,
      "max": [
        335.6568603515625,
        35.65685272216797,
        225
      ],
      "min": [
        264.3431396484375,
        -35.65685272216797,
        195
      ],
      "type": "VEC3"
    },
    {
      "bufferView": 36,
      "componentType": 5126,
      "count": 756,
      "max": [
        35.65685272216797,
        30
      ],
      "min": [
        -35.65685272216797,
        -30
      ],
      "type": "VEC2"
    },
    {
      "bufferView": 37,
      "componentType": 5126,
      "count": 756,
      "max": [
        0.9633203744888306,
        0.9633201360702515,
        1
      ],
      "min": [
        -0.9633203744888306,
        -0.9633201360702515,
        -1
      ],
      "type": "VEC3"
    }
  ],
  "materials": [
    {
      "pbrMetallicRoughness": {
        "metallicFactor": 0.5,
        "roughnessFactor": 0.5
      }
    },
    {
      "pbrMetallicRoughness": {
        "baseColorFactor": [
          0.718752134949316,
          0.513752901628499,
          0.8996368487349351,
          1
        ],
        "metallicFactor": 0.5,
        "roughnessFactor": 0.5
      }
    },
    {
      "pbrMetallicRoughness": {
        "baseColorFactor": [
          0.1848081955534877,
          0.0641438411204549,
          0.6056994964222666,
          1
        ],
        "metallicFactor": 0.5,
        "roughnessFactor": 0.5
      }
    },
    {
      "pbrMetallicRoughness": {
        "baseColorFactor": [
          0.03504736971486766,
          0.6072606482982175,
          0.8649037251737974,
          1
        ],
        "metallicFactor": 0.5,
        "roughnessFactor": 0.5
      }
    },
    {
      "pbrMetallicRoughness": {
        "baseColorFactor": [
          0.04839331899311006,
          0.0012591407154789458,
          0.5351713323943759,
          1
        ],
        "metallicFactor": 0.5,
        "roughnessFactor": 0.5
      }
    },
    {
      "pbrMetallicRoughness": {
        "baseColorFactor": [
          0.25423157146781117,
          0.6788130171856124,
          0.430666149862561,
          1
        ],
        "metallicFactor": 0.5,
        "roughnessFactor": 0.5
      }
    },
    {
      "pbrMetallicRoughness": {
        "baseColorFactor": [
          0.11757327793707728,
          0.12699953862289415,
          0.3573351380765464,
          1
        ],
        "metallicFactor": 0.5,
        "roughnessFactor": 0.5
      }
    },
    {
      "pbrMetallicRoughness": {
        "baseColorFactor": [
          0.08571386216447374,
          0.5953418076799073,
          0.01474208308968672,
          1
        ],
        "metallicFactor": 0.5,
        "roughnessFactor": 0.5
      }
    },
    {
      "pbrMetallicRoughness": {
        "baseColorFactor": [
          0.9340666298973277,
          0.579201740265112,
          0.07253255810746118,
          1
        ],
        "metallicFactor": 0.5,
        "roughnessFactor": 0.5
      }
    },
    {
      "pbrMetallicRoughness": {
        "baseColorFactor": [
          0.8704075845034338,
          0.7015582406875778,
          0.272004981016742,
          1
        ],
        "metallicFactor": 0.5,
        "roughnessFactor": 0.5
      }
    }
  ],
  "meshes": [
    {
      "primitives": [
        {
          "mode": 1,
          "attributes": {
            "POSITION": 0,
            "COLOR_0": 1
          },
          "material": 0
        }
      ]
    },
    {
      "primitives": [
        {
          "mode": 4,
          "attributes": {
            "POSITION": 2,
            "TEXCOORD_0": 3,
            "NORMAL": 4
          },
          "material": 1
        }
      ]
    },
    {
      "primitives": [
        {
          "mode": 4,
          "attributes": {
            "POSITION": 5,
            "TEXCOORD_0": 6,
            "NORMAL": 7
          },
          "material": 2
        }
      ]
    },
    {
      "primitives": [
        {
          "mode": 4,
          "attributes": {
            "POSITION": 8,
            "TEXCOORD_0": 9,
            "NORMAL": 10
          },
          "material": 3
        }
      ]
    },
    {
      "primitives": [
        {
          "mode": 4,
          "attributes": {
            "POSITION": 11,
            "TEXCOORD_0": 12,
            "NORMAL": 13
          },
          "material": 4
        }
      ]
    },
    {
      "primitives": [
        {
          "mode": 4,
          "attributes": {
            "POSITION": 14,
            "TEXCOORD_0": 15,
            "NORMAL": 16
          },
          "material": 5
        }
      ]
    },
    {
      "primitives": [
        {
          "mode": 4,
          "attributes": {
            "POSITION": 17,
            "TEXCOORD_0": 18,
            "NORMAL": 19
          },
          "material": 6
        }
      ]
    },
    {
      "primitives": [
        {
          "mode": 4,
          "attributes": {
            "POSITION": 20,
            "TEXCOORD_0": 21,
            "NORMAL": 22
          },
          "material": 7
        }
      ]
    },
    {
      "primitives": [
        {
          "mode": 4,
          "attributes": {
            "POSITION": 23,
            "TEXCOORD_0": 24,
            "NORMAL": 25
          },
          "material": 8
        }
      ]
    },
    {
      "primitives": [
        {
          "mode": 4,
          "attributes": {
            "POSITION": 26,
            "TEXCOORD_0": 27,
            "NORMAL": 28
          },
          "material": 9
        }
      ]
    },
    {
      "primitives": [
        {
          "mode": 4,
          "attributes": {
            "POSITION": 29,
            "TEXCOORD_0": 30,
            "NORMAL": 31
          },
          "material": 1
        }
      ]
    },
    {
      "primitives": [
        {
          "mode": 4,
          "attributes": {
            "POSITION": 32,
            "TEXCOORD_0": 33,
            "NORMAL": 34
          },
          "material": 2
        }
      ]
    },
    {
      "primitives": [
        {
          "mode": 4,
          "attributes": {
            "POSITION": 35,
            "TEXCOORD_0": 36,
            "NORMAL": 37
          },
          "material": 3
        }
      ]
    }
  ]
}