{
  "asset": {
    "version": "2.0",
    "generator": "THREE.GLTFExporter"
  },
  "scenes": [
    {
      "nodes": [
        0,
        1,
        2,
        3,
        4,
        5,
        6
      ]
    }
  ],
  "scene": 0,
  "nodes": [
    {
      "mesh": 0
    },
    {
      "mesh": 1
    },
    {
      "mesh": 2
    },
    {
      "mesh": 3
    },
    {
      "mesh": 4
    },
    {
      "mesh": 5
    },
    {
      "mesh": 6
    }
  ],
  "bufferViews": [
    {
      "buffer": 0,
      "byteOffset": 0,
      "byteLength": 72,
      "target": 34962,
      "byteStride": 12
    },
    {
      "buffer": 0,
      "byteOffset": 72,
      "byteLength": 72,
      "target": 34962,
      "byteStride": 12
    },
    {
      "buffer": 0,
      "byteOffset": 144,
      "byteLength": 159048,
      "target": 34962,
      "byteStride": 12
    },
    {
      "buffer": 0,
      "byteOffset": 159192,
      "byteLength": 106032,
      "target": 34962,
      "byteStride": 8
    },
    {
      "buffer": 0,
      "byteOffset": 265224,
      "byteLength": 159048,
      "target": 34962,
      "byteStride": 12
    },
    {
      "buffer": 0,
      "byteOffset": 424272,
      "byteLength": 174888,
      "target": 34962,
      "byteStride": 12
    },
    {
      "buffer": 0,
      "byteOffset": 599160,
      "byteLength": 116592,
      "target": 34962,
      "byteStride": 8
    },
    {
      "buffer": 0,
      "byteOffset": 715752,
      "byteLength": 174888,
      "target": 34962,
      "byteStride": 12
    },
    {
      "buffer": 0,
      "byteOffset": 890640,
      "byteLength": 91224,
      "target": 34962,
      "byteStride": 12
    },
    {
      "buffer": 0,
      "byteOffset": 981864,
      "byteLength": 60816,
      "target": 34962,
      "byteStride": 8
    },
    {
      "buffer": 0,
      "byteOffset": 1042680,
      "byteLength": 91224,
      "target": 34962,
      "byteStride": 12
    },
    {
      "buffer": 0,
      "byteOffset": 1133904,
      "byteLength": 50616,
      "target": 34962,
      "byteStride": 12
    },
    {
      "buffer": 0,
      "byteOffset": 1184520,
      "byteLength": 33744,
      "target": 34962,
      "byteStride": 8
    },
    {
      "buffer": 0,
      "byteOffset": 1218264,
      "byteLength": 50616,
      "target": 34962,
      "byteStride": 12
    },
    {
      "buffer": 0,
      "byteOffset": 1268880,
      "byteLength": 254448,
      "target": 34962,
      "byteStride": 12
    },
    {
      "buffer": 0,
      "byteOffset": 1523328,
      "byteLength": 169632,
      "target": 34962,
      "byteStride": 8
    },
    {
      "buffer": 0,
      "byteOffset": 1692960,
      "byteLength": 254448,
      "target": 34962,
      "byteStride": 12
    },
    {
      "buffer": 0,
      "byteOffset": 1947408,
      "byteLength": 121248,
      "target": 34962,
      "byteStride": 12
    },
    {
      "buffer": 0,
      "byteOffset": 2068656,
      "byteLength": 80832,
      "target": 34962,
      "byteStride": 8
    },
    {
      "buffer": 0,
      "byteOffset": 2149488,
      "byteLength": 121248,
      "target": 34962,
      "byteStride": 12
    }
  ],
  "buffers": [
    {
      "byteLength": 2270736,
      "uri": "data:application/octet-stream;base64,"
    }
  ],
  "accessors": [
    {
      "bufferView": 0,
      "componentType": 5126,
      "count": 6,
      "max": [
        200,
        200,
        200
      ],
      "min": [
        0,
        0,
        0
      ],
      "type": "VEC3"
    },
    {
      "bufferView": 1,
      "componentType": 5126,
      "count": 6,
      "max": [
        1,
        1,
        1
      ],
      "min": [
        0,
        0,
        0
      ],
      "type": "VEC3"
    },
    {
      "bufferView": 2,
      "componentType": 5126,
      "count": 13254,
      "max": [
        -43.0568733215332,
        58.46941375732422,
        -184.25025939941406
      ],
      "min": [
        -157.4091796875,
        -59.207313537597656,
        -216.4575653076172
      ],
      "type": "VEC3"
    },
    {
      "bufferView": 3,
      "componentType": 5126,
      "count": 13254,
      "max": [
        116.93882751464844,
        37.152809143066406
      ],
      "min": [
        -118.41462707519531,
        -30.499473571777344
      ],
      "type": "VEC2"
    },
    {
      "bufferView": 4,
      "componentType": 5126,
      "count": 13254,
      "max": [
        0.9982331991195679,
        0.9974285364151001,
        0.9999743700027466
      ],
      "min": [
        -0.9973899126052856,
        -0.9986968636512756,
        -0.999661922454834
      ],
      "type": "VEC3"
    },
    {
      "bufferView": 5,
      "componentType": 5126,
      "count": 14574,
      "max": [
        -42.00259780883789,
        59.277740478515625,
        15.903268814086914
      ],
      "min": [
        -159.26541137695312,
        -59.15023422241211,
        -15.913138389587402
      ],
      "type": "VEC3"
    },
    {
      "bufferView": 6,
      "componentType": 5126,
      "count": 14574,
      "max": [
        118.55548095703125,
        37.88358688354492
      ],
      "min": [
        -118.53081512451172,
        -30.806537628173828
      ],
      "type": "VEC2"
    },
    {
      "bufferView": 7,
      "componentType": 5126,
      "count": 14574,
      "max": [
        0.9999661445617676,
        0.997576892375946,
        0.999828577041626
      ],
      "min": [
        -0.9998092651367188,
        -0.999306857585907,
        -0.9984443187713623
      ],
      "type": "VEC3"
    },
    {
      "bufferView": 8,
      "componentType": 5126,
      "count": 7602,
      "max": [
        -46.00154495239258,
        58.12605667114258,
        216.1253662109375
      ],
      "min": [
        -159.65219116210938,
        -55.72322082519531,
        184.7655029296875
      ],
      "type": "VEC3"
    },
    {
      "bufferView": 9,
      "componentType": 5126,
      "count": 7602,
      "max": [
        116.25211334228516,
        52.825233459472656
      ],
      "min": [
        -119.30437469482422,
        -31.250728607177734
      ],
      "type": "VEC2"
    },
    {
      "bufferView": 10,
      "componentType": 5126,
      "count": 7602,
      "max": [
        0.9988001585006714,
        0.9940459132194519,
        0.9978384971618652
      ],
      "min": [
        -0.9953048825263977,
        -0.9960814118385315,
        -0.998892605304718
      ],
      "type": "VEC3"
    },
    {
      "bufferView": 11,
      "componentType": 5126,
      "count": 4218,
      "max": [
        154.0157928466797,
        57.25634765625,
        -185.4056854248047
      ],
      "min": [
        42.85731887817383,
        -56.387393951416016,
        -214.38340759277344
      ],
      "type": "VEC3"
    },
    {
      "bufferView": 12,
      "componentType": 5126,
      "count": 4218,
      "max": [
        114.5126953125,
        52.24463653564453
      ],
      "min": [
        -114.28536224365234,
        -28.188629150390625
      ],
      "type": "VEC2"
    },
    {
      "bufferView": 13,
      "componentType": 5126,
      "count": 4218,
      "max": [
        0.9972599148750305,
        0.9979974031448364,
        0.9985628724098206
      ],
      "min": [
        -0.999580442905426,
        -0.9787803888320923,
        -0.9962911009788513
      ],
      "type": "VEC3"
    },
    {
      "bufferView": 14,
      "componentType": 5126,
      "count": 21204,
      "max": [
        162.92909240722656,
        63.9694709777832,
        20.747285842895508
      ],
      "min": [
        35.245849609375,
        -64.31390380859375,
        -20.211345672607422
      ],
      "type": "VEC3"
    },
    {
      "bufferView": 15,
      "componentType": 5126,
      "count": 21204,
      "max": [
        127.9389419555664,
        41.422691345214844
      ],
      "min": [
        -129.50830078125,
        -40.494571685791016
      ],
      "type": "VEC2"
    },
    {
      "bufferView": 16,
      "componentType": 5126,
      "count": 21204,
      "max": [
        0.9999305009841919,
        0.9995739459991455,
        0.9999288320541382
      ],
      "min": [
        -0.9993141889572144,
        -0.9965143203735352,
        -0.9999824166297913
      ],
      "type": "VEC3"
    },
    {
      "bufferView": 17,
      "componentType": 5126,
      "count": 10104,
      "max": [
        162.1693878173828,
        61.084590911865234,
        216.3356170654297
      ],
      "min": [
        37.578250885009766,
        -60.801658630371094,
        184.50074768066406
      ],
      "type": "VEC3"
    },
    {
      "bufferView": 18,
      "componentType": 5126,
      "count": 10104,
      "max": [
        124.33878326416016,
        31.998498916625977
      ],
      "min": [
        -124.84349822998047,
        -31.671222686767578
      ],
      "type": "VEC2"
    },
    {
      "bufferView": 19,
      "componentType": 5126,
      "count": 10104,
      "max": [
        0.9862778782844543,
        0.9828745126724243,
        0.9992280602455139
      ],
      "min": [
        -0.9862744212150574,
        -0.9827409982681274,
        -0.9992271065711975
      ],
      "type": "VEC3"
    }
  ],
  "materials": [
    {
      "pbrMetallicRoughness": {
        "metallicFactor": 0.5,
        "roughnessFactor": 0.5
      }
    },
    {
      "pbrMetallicRoughness": {
        "baseColorFactor": [
          0.7454691066300663,
          0.6067695115283158,
          0.11213770192844308,
          1
        ],
        "metallicFactor": 0.5,
        "roughnessFactor": 0.5
      }
    },
    {
      "pbrMetallicRoughness": {
        "baseColorFactor": [
          0.5101196717153056,
          0.018993249290421232,
          0.3242064908397633,
          1
        ],
        "metallicFactor": 0.5,
        "roughnessFactor": 0.5
      }
    },
    {
      "pbrMetallicRoughness": {
        "baseColorFactor": [
          0.8063671579969618,
          0.27526955009346143,
          0.7728621129864293,
          1
        ],
        "metallicFactor": 0.5,
        "roughnessFactor": 0.5
      }
    },
    {
      "pbrMetallicRoughness": {
        "baseColorFactor": [
          0.6615887522319455,
          0.08979214528411217,
          0.4444439180191686,
          1
        ],
        "metallicFactor": 0.5,
        "roughnessFactor": 0.5
      }
    },
    {
      "pbrMetallicRoughness": {
        "baseColorFactor": [
          0.8273297563582831,
          0.26514944055287537,
          0.9026969034391321,
          1
        ],
        "metallicFactor": 0.5,
        "roughnessFactor": 0.5
      }
    },
    {
      "pbrMetallicRoughness": {
        "baseColorFactor": [
          0.19128803511768044,
          0.47450422096756206,
          0.7615706377968412,
          1
        ],
        "metallicFactor": 0.5,
        "roughnessFactor": 0.5
      }
    }
  ],
  "meshes": [
    {
      "primitives": [
        {
          "mode": 1,
          "attributes": {
            "POSITION": 0,
            "COLOR_0": 1
          },
          "material": 0
        }
      ]
    },
    {
      "primitives": [
        {
          "mode": 4,
          "attributes": {
            "POSITION": 2,
            "TEXCOORD_0": 3,
            "NORMAL": 4
          },
          "material": 1
        }
      ]
    },
    {
      "primitives": [
        {
          "mode": 4,
          "attributes": {
            "POSITION": 5,
            "TEXCOORD_0": 6,
            "NORMAL": 7
          },
          "material": 2
        }
      ]
    },
    {
      "primitives": [
        {
          "mode": 4,
          "attributes": {
            "POSITION": 8,
            "TEXCOORD_0": 9,
            "NORMAL": 10
          },
          "material": 3
        }
      ]
    },
    {
      "primitives": [
        {
          "mode": 4,
          "attributes": {
            "POSITION": 11,
            "TEXCOORD_0": 12,
            "NORMAL": 13
          },
          "material": 4
        }
      ]
    },
    {
      "primitives": [
        {
          "mode": 4,
          "attributes": {
            "POSITION": 14,
            "TEXCOORD_0": 15,
            "NORMAL": 16
          },
          "material": 5
        }
      ]
    },
    {
      "primitives": [
        {
          "mode": 4,
          "attributes": {
            "POSITION": 17,
            "TEXCOORD_0": 18,
            "NORMAL": 19
          },
          "material": 6
        }
      ]
    }
  ]
}