{
  "asset": {
    "version": "2.0",
    "generator": "THREE.GLTFExporter"
  },
  "scenes": [
    {
      "nodes": [
        0,
        1,
        2,
        3,
        4,
        5,
        6,
        7,
        8
      ]
    }
  ],
  "scene": 0,
  "nodes": [
    {
      "mesh": 0
    },
    {
      "mesh": 1
    },
    {
      "mesh": 2
    },
    {
      "mesh": 3
    },
    {
      "mesh": 4
    },
    {
      "mesh": 5
    },
    {
      "mesh": 6
    },
    {
      "mesh": 7
    },
    {
      "mesh": 8
    }
  ],
  "bufferViews": [
    {
      "buffer": 0,
      "byteOffset": 0,
      "byteLength": 72,
      "target": 34962,
      "byteStride": 12
    },
    {
      "buffer": 0,
      "byteOffset": 72,
      "byteLength": 72,
      "target": 34962,
      "byteStride": 12
    },
    {
      "buffer": 0,
      "byteOffset": 144,
      "byteLength": 87120,
      "target": 34962,
      "byteStride": 12
    },
    {
      "buffer": 0,
      "byteOffset": 87264,
      "byteLength": 58080,
      "target": 34962,
      "byteStride": 8
    },
    {
      "buffer": 0,
      "byteOffset": 145344,
      "byteLength": 87120,
      "target": 34962,
      "byteStride": 12
    },
    {
      "buffer": 0,
      "byteOffset": 232464,
      "byteLength": 87120,
      "target": 34962,
      "byteStride": 12
    },
    {
      "buffer": 0,
      "byteOffset": 319584,
      "byteLength": 58080,
      "target": 34962,
      "byteStride": 8
    },
    {
      "buffer": 0,
      "byteOffset": 377664,
      "byteLength": 87120,
      "target": 34962,
      "byteStride": 12
    },
    {
      "buffer": 0,
      "byteOffset": 464784,
      "byteLength": 116208,
      "target": 34962,
      "byteStride": 12
    },
    {
      "buffer": 0,
      "byteOffset": 580992,
      "byteLength": 77472,
      "target": 34962,
      "byteStride": 8
    },
    {
      "buffer": 0,
      "byteOffset": 658464,
      "byteLength": 116208,
      "target": 34962,
      "byteStride": 12
    },
    {
      "buffer": 0,
      "byteOffset": 774672,
      "byteLength": 65304,
      "target": 34962,
      "byteStride": 12
    },
    {
      "buffer": 0,
      "byteOffset": 839976,
      "byteLength": 43536,
      "target": 34962,
      "byteStride": 8
    },
    {
      "buffer": 0,
      "byteOffset": 883512,
      "byteLength": 65304,
      "target": 34962,
      "byteStride": 12
    },
    {
      "buffer": 0,
      "byteOffset": 948816,
      "byteLength": 43488,
      "target": 34962,
      "byteStride": 12
    },
    {
      "buffer": 0,
      "byteOffset": 992304,
      "byteLength": 28992,
      "target": 34962,
      "byteStride": 8
    },
    {
      "buffer": 0,
      "byteOffset": 1021296,
      "byteLength": 43488,
      "target": 34962,
      "byteStride": 12
    },
    {
      "buffer": 0,
      "byteOffset": 1064784,
      "byteLength": 21672,
      "target": 34962,
      "byteStride": 12
    },
    {
      "buffer": 0,
      "byteOffset": 1086456,
      "byteLength": 14448,
      "target": 34962,
      "byteStride": 8
    },
    {
      "buffer": 0,
      "byteOffset": 1100904,
      "byteLength": 21672,
      "target": 34962,
      "byteStride": 12
    },
    {
      "buffer": 0,
      "byteOffset": 1122576,
      "byteLength": 36216,
      "target": 34962,
      "byteStride": 12
    },
    {
      "buffer": 0,
      "byteOffset": 1158792,
      "byteLength": 24144,
      "target": 34962,
      "byteStride": 8
    },
    {
      "buffer": 0,
      "byteOffset": 1182936,
      "byteLength": 36216,
      "target": 34962,
      "byteStride": 12
    },
    {
      "buffer": 0,
      "byteOffset": 1219152,
      "byteLength": 65304,
      "target": 34962,
      "byteStride": 12
    },
    {
      "buffer": 0,
      "byteOffset": 1284456,
      "byteLength": 43536,
      "target": 34962,
      "byteStride": 8
    },
    {
      "buffer": 0,
      "byteOffset": 1327992,
      "byteLength": 65304,
      "target": 34962,
      "byteStride": 12
    }
  ],
  "buffers": [
    {
      "byteLength": 1393296,
      "uri": "data:application/octet-stream;base64,"
    }
  ],
  "accessors": [
    {
      "bufferView": 0,
      "componentType": 5126,
      "count": 6,
      "max": [
        200,
        200,
        200
      ],
      "min": [
        0,
        0,
        0
      ],
      "type": "VEC3"
    },
    {
      "bufferView": 1,
      "componentType": 5126,
      "count": 6,
      "max": [
        1,
        1,
        1
      ],
      "min": [
        0,
        0,
        0
      ],
      "type": "VEC3"
    },
    {
      "bufferView": 2,
      "componentType": 5126,
      "count": 7260,
      "max": [
        -285.515625,
        101.92988586425781,
        -85.14978790283203
      ],
      "min": [
        -313.50885009765625,
        -127.8589859008789,
        -114.68181610107422
      ],
      "type": "VEC3"
    },
    {
      "bufferView": 3,
      "componentType": 5126,
      "count": 7260,
      "max": [
        201.78924560546875,
        203.85977172851562
      ],
      "min": [
        -254.67208862304688,
        -255.7179718017578
      ],
      "type": "VEC2"
    },
    {
      "bufferView": 4,
      "componentType": 5126,
      "count": 7260,
      "max": [
        0.9799801111221313,
        0.9811320304870605,
        0.9816502332687378
      ],
      "min": [
        -0.9799799919128418,
        -0.9577681422233582,
        -0.981647253036499
      ],
      "type": "VEC3"
    },
    {
      "bufferView": 5,
      "componentType": 5126,
      "count": 7260,
      "max": [
        -282.7430114746094,
        102.09446716308594,
        119.2375717163086
      ],
      "min": [
        -317.26220703125,
        -127.5379409790039,
        79.88813018798828
      ],
      "type": "VEC3"
    },
    {
      "bufferView": 6,
      "componentType": 5126,
      "count": 7260,
      "max": [
        34.51397705078125,
        204.18893432617188
      ],
      "min": [
        -198.14085388183594,
        -255.0758819580078
      ],
      "type": "VEC2"
    },
    {
      "bufferView": 7,
      "componentType": 5126,
      "count": 7260,
      "max": [
        0.9418047070503235,
        0.9895580410957336,
        0.9943675398826599
      ],
      "min": [
        -0.9418047070503235,
        -0.9854799509048462,
        -0.9943674802780151
      ],
      "type": "VEC3"
    },
    {
      "bufferView": 8,
      "componentType": 5126,
      "count": 9684,
      "max": [
        -81.49861145019531,
        105.13924407958984,
        -80.21572875976562
      ],
      "min": [
        -119.87774658203125,
        -128.69252014160156,
        -119.49916076660156
      ],
      "type": "VEC3"
    },
    {
      "bufferView": 9,
      "componentType": 5126,
      "count": 9684,
      "max": [
        207.6187744140625,
        210.2784881591797
      ],
      "min": [
        -257.3850402832031,
        -257.3850402832031
      ],
      "type": "VEC2"
    },
    {
      "bufferView": 10,
      "componentType": 5126,
      "count": 9684,
      "max": [
        0.9900358319282532,
        0.9393261075019836,
        0.9958468675613403
      ],
      "min": [
        -0.990042507648468,
        -0.9686889052391052,
        -0.995844841003418
      ],
      "type": "VEC3"
    },
    {
      "bufferView": 11,
      "componentType": 5126,
      "count": 5442,
      "max": [
        -85.42958068847656,
        102.10895538330078,
        112.45021057128906
      ],
      "min": [
        -114.64420318603516,
        -126.27727508544922,
        85.08562469482422
      ],
      "type": "VEC3"
    },
    {
      "bufferView": 12,
      "componentType": 5126,
      "count": 5442,
      "max": [
        201.85260009765625,
        204.21791076660156
      ],
      "min": [
        -249.70530700683594,
        -252.55455017089844
      ],
      "type": "VEC2"
    },
    {
      "bufferView": 13,
      "componentType": 5126,
      "count": 5442,
      "max": [
        0.9999171495437622,
        0.9758625030517578,
        0.999500572681427
      ],
      "min": [
        -0.9803882837295532,
        -0.99110347032547,
        -0.9834839105606079
      ],
      "type": "VEC3"
    },
    {
      "bufferView": 14,
      "componentType": 5126,
      "count": 3624,
      "max": [
        115.21348571777344,
        102.34563446044922,
        -88.12210083007812
      ],
      "min": [
        85.99730682373047,
        -126.32758331298828,
        -112.39739990234375
      ],
      "type": "VEC3"
    },
    {
      "bufferView": 15,
      "componentType": 5126,
      "count": 3624,
      "max": [
        30.42696762084961,
        204.69126892089844
      ],
      "min": [
        -42.67253875732422,
        -252.65516662597656
      ],
      "type": "VEC2"
    },
    {
      "bufferView": 16,
      "componentType": 5126,
      "count": 3624,
      "max": [
        0.8894357085227966,
        0.9677592515945435,
        0.9999940395355225
      ],
      "min": [
        -0.8893243074417114,
        -0.9910966157913208,
        -0.9999966025352478
      ],
      "type": "VEC3"
    },
    {
      "bufferView": 17,
      "componentType": 5126,
      "count": 1806,
      "max": [
        112.12498474121094,
        101.13694763183594,
        108.56385803222656
      ],
      "min": [
        86.8404541015625,
        -125.39823150634766,
        85.99543762207031
      ],
      "type": "VEC3"
    },
    {
      "bufferView": 18,
      "componentType": 5126,
      "count": 1806,
      "max": [
        24.24996566772461,
        202.27389526367188
      ],
      "min": [
        -26.3190860748291,
        -250.7964630126953
      ],
      "type": "VEC2"
    },
    {
      "bufferView": 19,
      "componentType": 5126,
      "count": 1806,
      "max": [
        0.8708466291427612,
        0.9811064004898071,
        0.9999974966049194
      ],
      "min": [
        -0.8719935417175293,
        -0.9984027743339539,
        -0.5208842158317566
      ],
      "type": "VEC3"
    },
    {
      "bufferView": 20,
      "componentType": 5126,
      "count": 3018,
      "max": [
        314.4779357910156,
        102.18639373779297,
        -87.65766143798828
      ],
      "min": [
        285.4918212890625,
        -126.00772094726562,
        -114.68895721435547
      ],
      "type": "VEC3"
    },
    {
      "bufferView": 21,
      "componentType": 5126,
      "count": 3018,
      "max": [
        43.80026626586914,
        204.37278747558594
      ],
      "min": [
        -29.01633644104004,
        -252.01544189453125
      ],
      "type": "VEC2"
    },
    {
      "bufferView": 22,
      "componentType": 5126,
      "count": 3018,
      "max": [
        0.9524487257003784,
        0.9661338329315186,
        0.9999988675117493
      ],
      "min": [
        -0.9625251889228821,
        -0.9948279857635498,
        -0.8336037993431091
      ],
      "type": "VEC3"
    },
    {
      "bufferView": 23,
      "componentType": 5126,
      "count": 5442,
      "max": [
        314.0850830078125,
        100.272216796875,
        112.91488647460938
      ],
      "min": [
        287.54901123046875,
        -126.24535369873047,
        85.50800323486328
      ],
      "type": "VEC3"
    },
    {
      "bufferView": 24,
      "componentType": 5126,
      "count": 5442,
      "max": [
        145.46987915039062,
        200.54443359375
      ],
      "min": [
        -202.38980102539062,
        -252.49070739746094
      ],
      "type": "VEC2"
    },
    {
      "bufferView": 25,
      "componentType": 5126,
      "count": 5442,
      "max": [
        0.9860706329345703,
        0.9996011257171631,
        0.9999979734420776
      ],
      "min": [
        -0.9868612289428711,
        -0.9919045567512512,
        -0.9437395334243774
      ],
      "type": "VEC3"
    }
  ],
  "materials": [
    {
      "pbrMetallicRoughness": {
        "metallicFactor": 0.5,
        "roughnessFactor": 0.5
      }
    },
    {
      "pbrMetallicRoughness": {
        "baseColorFactor": [
          0.7454691066300663,
          0.6067695115283158,
          0.11213770192844308,
          1
        ],
        "metallicFactor": 0.5,
        "roughnessFactor": 0.5
      }
    },
    {
      "pbrMetallicRoughness": {
        "baseColorFactor": [
          0.5101196717153056,
          0.018993249290421232,
          0.3242064908397633,
          1
        ],
        "metallicFactor": 0.5,
        "roughnessFactor": 0.5
      }
    },
    {
      "pbrMetallicRoughness": {
        "baseColorFactor": [
          0.8063671579969618,
          0.27526955009346143,
          0.7728621129864293,
          1
        ],
        "metallicFactor": 0.5,
        "roughnessFactor": 0.5
      }
    },
    {
      "pbrMetallicRoughness": {
        "baseColorFactor": [
          0.6615887522319455,
          0.08979214528411217,
          0.4444439180191686,
          1
        ],
        "metallicFactor": 0.5,
        "roughnessFactor": 0.5
      }
    },
    {
      "pbrMetallicRoughness": {
        "baseColorFactor": [
          0.8273297563582831,
          0.26514944055287537,
          0.9026969034391321,
          1
        ],
        "metallicFactor": 0.5,
        "roughnessFactor": 0.5
      }
    },
    {
      "pbrMetallicRoughness": {
        "baseColorFactor": [
          0.19128803511768044,
          0.47450422096756206,
          0.7615706377968412,
          1
        ],
        "metallicFactor": 0.5,
        "roughnessFactor": 0.5
      }
    },
    {
      "pbrMetallicRoughness": {
        "baseColorFactor": [
          0.348122429514802,
          0.8140268835884936,
          0.44023847290678875,
          1
        ],
        "metallicFactor": 0.5,
        "roughnessFactor": 0.5
      }
    },
    {
      "pbrMetallicRoughness": {
        "baseColorFactor": [
          0.9633767722292446,
          0.8156080322361665,
          0.9231024729161745,
          1
        ],
        "metallicFactor": 0.5,
        "roughnessFactor": 0.5
      }
    }
  ],
  "meshes": [
    {
      "primitives": [
        {
          "mode": 1,
          "attributes": {
            "POSITION": 0,
            "COLOR_0": 1
          },
          "material": 0
        }
      ]
    },
    {
      "primitives": [
        {
          "mode": 4,
          "attributes": {
            "POSITION": 2,
            "TEXCOORD_0": 3,
            "NORMAL": 4
          },
          "material": 1
        }
      ]
    },
    {
      "primitives": [
        {
          "mode": 4,
          "attributes": {
            "POSITION": 5,
            "TEXCOORD_0": 6,
            "NORMAL": 7
          },
          "material": 2
        }
      ]
    },
    {
      "primitives": [
        {
          "mode": 4,
          "attributes": {
            "POSITION": 8,
            "TEXCOORD_0": 9,
            "NORMAL": 10
          },
          "material": 3
        }
      ]
    },
    {
      "primitives": [
        {
          "mode": 4,
          "attributes": {
            "POSITION": 11,
            "TEXCOORD_0": 12,
            "NORMAL": 13
          },
          "material": 4
        }
      ]
    },
    {
      "primitives": [
        {
          "mode": 4,
          "attributes": {
            "POSITION": 14,
            "TEXCOORD_0": 15,
            "NORMAL": 16
          },
          "material": 5
        }
      ]
    },
    {
      "primitives": [
        {
          "mode": 4,
          "attributes": {
            "POSITION": 17,
            "TEXCOORD_0": 18,
            "NORMAL": 19
          },
          "material": 6
        }
      ]
    },
    {
      "primitives": [
        {
          "mode": 4,
          "attributes": {
            "POSITION": 20,
            "TEXCOORD_0": 21,
            "NORMAL": 22
          },
          "material": 7
        }
      ]
    },
    {
      "primitives": [
        {
          "mode": 4,
          "attributes": {
            "POSITION": 23,
            "TEXCOORD_0": 24,
            "NORMAL": 25
          },
          "material": 8
        }
      ]
    }
  ]
}