{
  "asset": {
    "version": "2.0",
    "generator": "THREE.GLTFExporter"
  },
  "scenes": [
    {
      "nodes": [
        0,
        1,
        2,
        3,
        4
      ]
    }
  ],
  "scene": 0,
  "nodes": [
    {
      "mesh": 0
    },
    {
      "mesh": 1
    },
    {
      "mesh": 2
    },
    {
      "mesh": 3
    },
    {
      "mesh": 4
    }
  ],
  "bufferViews": [
    {
      "buffer": 0,
      "byteOffset": 0,
      "byteLength": 72,
      "target": 34962,
      "byteStride": 12
    },
    {
      "buffer": 0,
      "byteOffset": 72,
      "byteLength": 72,
      "target": 34962,
      "byteStride": 12
    },
    {
      "buffer": 0,
      "byteOffset": 144,
      "byteLength": 3888,
      "target": 34962,
      "byteStride": 12
    },
    {
      "buffer": 0,
      "byteOffset": 4032,
      "byteLength": 2592,
      "target": 34962,
      "byteStride": 8
    },
    {
      "buffer": 0,
      "byteOffset": 6624,
      "byteLength": 3888,
      "target": 34962,
      "byteStride": 12
    },
    {
      "buffer": 0,
      "byteOffset": 10512,
      "byteLength": 7920,
      "target": 34962,
      "byteStride": 12
    },
    {
      "buffer": 0,
      "byteOffset": 18432,
      "byteLength": 5280,
      "target": 34962,
      "byteStride": 8
    },
    {
      "buffer": 0,
      "byteOffset": 23712,
      "byteLength": 7920,
      "target": 34962,
      "byteStride": 12
    },
    {
      "buffer": 0,
      "byteOffset": 31632,
      "byteLength": 18000,
      "target": 34962,
      "byteStride": 12
    },
    {
      "buffer": 0,
      "byteOffset": 49632,
      "byteLength": 12000,
      "target": 34962,
      "byteStride": 8
    },
    {
      "buffer": 0,
      "byteOffset": 61632,
      "byteLength": 18000,
      "target": 34962,
      "byteStride": 12
    },
    {
      "buffer": 0,
      "byteOffset": 79632,
      "byteLength": 18000,
      "target": 34962,
      "byteStride": 12
    },
    {
      "buffer": 0,
      "byteOffset": 97632,
      "byteLength": 12000,
      "target": 34962,
      "byteStride": 8
    },
    {
      "buffer": 0,
      "byteOffset": 109632,
      "byteLength": 18000,
      "target": 34962,
      "byteStride": 12
    }
  ],
  "buffers": [
    {
      "byteLength": 127632,
      "uri": "data:application/octet-stream;base64,"
    }
  ],
  "accessors": [
    {
      "bufferView": 0,
      "componentType": 5126,
      "count": 6,
      "max": [
        200,
        200,
        200
      ],
      "min": [
        0,
        0,
        0
      ],
      "type": "VEC3"
    },
    {
      "bufferView": 1,
      "componentType": 5126,
      "count": 6,
      "max": [
        1,
        1,
        1
      ],
      "min": [
        0,
        0,
        0
      ],
      "type": "VEC3"
    },
    {
      "bufferView": 2,
      "componentType": 5126,
      "count": 324,
      "max": [
        -74.34314727783203,
        25.6568546295166,
        -75
      ],
      "min": [
        -125.65685272216797,
        -25.6568546295166,
        -105
      ],
      "type": "VEC3"
    },
    {
      "bufferView": 3,
      "componentType": 5126,
      "count": 324,
      "max": [
        25.6568546295166,
        20
      ],
      "min": [
        -25.6568546295166,
        -24
      ],
      "type": "VEC2"
    },
    {
      "bufferView": 4,
      "componentType": 5126,
      "count": 324,
      "max": [
        0.7071067690849304,
        0.7071067690849304,
        1
      ],
      "min": [
        -0.7071067690849304,
        -0.7071067690849304,
        -1
      ],
      "type": "VEC3"
    },
    {
      "bufferView": 5,
      "componentType": 5126,
      "count": 660,
      "max": [
        -65.12901306152344,
        34.87098693847656,
        125
      ],
      "min": [
        -134.87098693847656,
        -34.87098693847656,
        95
      ],
      "type": "VEC3"
    },
    {
      "bufferView": 6,
      "componentType": 5126,
      "count": 660,
      "max": [
        30,
        30
      ],
      "min": [
        -30,
        -30
      ],
      "type": "VEC2"
    },
    {
      "bufferView": 7,
      "componentType": 5126,
      "count": 660,
      "max": [
        0.8211888074874878,
        0.8211888074874878,
        1
      ],
      "min": [
        -0.8211888074874878,
        -0.8211888074874878,
        -1
      ],
      "type": "VEC3"
    },
    {
      "bufferView": 8,
      "componentType": 5126,
      "count": 1500,
      "max": [
        135.02467346191406,
        34.43732833862305,
        -75
      ],
      "min": [
        67.07833862304688,
        -34.43732833862305,
        -105
      ],
      "type": "VEC3"
    },
    {
      "bufferView": 9,
      "componentType": 5126,
      "count": 1500,
      "max": [
        34.43732833862305,
        29.5
      ],
      "min": [
        -34.43732833862305,
        -29.5
      ],
      "type": "VEC2"
    },
    {
      "bufferView": 10,
      "componentType": 5126,
      "count": 1500,
      "max": [
        0.9989200830459595,
        0.9914858937263489,
        1
      ],
      "min": [
        -0.9549736380577087,
        -0.9914858937263489,
        -1
      ],
      "type": "VEC3"
    },
    {
      "bufferView": 11,
      "componentType": 5126,
      "count": 1500,
      "max": [
        135.02467346191406,
        34.43732833862305,
        125
      ],
      "min": [
        67.07833862304688,
        -34.43732833862305,
        95
      ],
      "type": "VEC3"
    },
    {
      "bufferView": 12,
      "componentType": 5126,
      "count": 1500,
      "max": [
        34.43732833862305,
        29.5
      ],
      "min": [
        -34.43732833862305,
        -29.5
      ],
      "type": "VEC2"
    },
    {
      "bufferView": 13,
      "componentType": 5126,
      "count": 1500,
      "max": [
        0.9989200830459595,
        0.9914858937263489,
        1
      ],
      "min": [
        -0.9549736380577087,
        -0.9914858937263489,
        -1
      ],
      "type": "VEC3"
    }
  ],
  "materials": [
    {
      "pbrMetallicRoughness": {
        "metallicFactor": 0.5,
        "roughnessFactor": 0.5
      }
    },
    {
      "pbrMetallicRoughness": {
        "baseColorFactor": [
          0.3396832379582817,
          0.28948718578471255,
          0.7807183094328694,
          1
        ],
        "metallicFactor": 0.5,
        "roughnessFactor": 0.5
      },
      "name": "Phong_1"
    },
    {
      "pbrMetallicRoughness": {
        "baseColorFactor": [
          0.5539491684561109,
          0.2732404754650801,
          0.3446006253567584,
          1
        ],
        "metallicFactor": 0.5,
        "roughnessFactor": 0.5
      },
      "name": "Phong_2"
    },
    {
      "pbrMetallicRoughness": {
        "baseColorFactor": [
          0.08530909117079921,
          0.923987946273632,
          0.9569598499938852,
          1
        ],
        "metallicFactor": 0.5,
        "roughnessFactor": 0.5
      },
      "name": "Phong_3"
    },
    {
      "pbrMetallicRoughness": {
        "baseColorFactor": [
          0.9931657998494909,
          0.25239855805819333,
          0.870109602988945,
          1
        ],
        "metallicFactor": 0.5,
        "roughnessFactor": 0.5
      },
      "name": "Phong_4"
    }
  ],
  "meshes": [
    {
      "primitives": [
        {
          "mode": 1,
          "attributes": {
            "POSITION": 0,
            "COLOR_0": 1
          },
          "material": 0
        }
      ]
    },
    {
      "primitives": [
        {
          "mode": 4,
          "attributes": {
            "POSITION": 2,
            "TEXCOORD_0": 3,
            "NORMAL": 4
          },
          "material": 1
        }
      ]
    },
    {
      "primitives": [
        {
          "mode": 4,
          "attributes": {
            "POSITION": 5,
            "TEXCOORD_0": 6,
            "NORMAL": 7
          },
          "material": 2
        }
      ]
    },
    {
      "primitives": [
        {
          "mode": 4,
          "attributes": {
            "POSITION": 8,
            "TEXCOORD_0": 9,
            "NORMAL": 10
          },
          "material": 3
        }
      ]
    },
    {
      "primitives": [
        {
          "mode": 4,
          "attributes": {
            "POSITION": 11,
            "TEXCOORD_0": 12,
            "NORMAL": 13
          },
          "material": 4
        }
      ]
    }
  ]
}