{
  "asset": {
    "version": "2.0",
    "generator": "THREE.GLTFExporter"
  },
  "scenes": [
    {
      "nodes": [
        0,
        1,
        2,
        3,
        4
      ]
    }
  ],
  "scene": 0,
  "nodes": [
    {
      "mesh": 0
    },
    {
      "mesh": 1
    },
    {
      "mesh": 2
    },
    {
      "mesh": 3
    },
    {
      "mesh": 4
    }
  ],
  "bufferViews": [
    {
      "buffer": 0,
      "byteOffset": 0,
      "byteLength": 72,
      "target": 34962,
      "byteStride": 12
    },
    {
      "buffer": 0,
      "byteOffset": 72,
      "byteLength": 72,
      "target": 34962,
      "byteStride": 12
    },
    {
      "buffer": 0,
      "byteOffset": 144,
      "byteLength": 404496,
      "target": 34962,
      "byteStride": 12
    },
    {
      "buffer": 0,
      "byteOffset": 404640,
      "byteLength": 269664,
      "target": 34962,
      "byteStride": 8
    },
    {
      "buffer": 0,
      "byteOffset": 674304,
      "byteLength": 404496,
      "target": 34962,
      "byteStride": 12
    },
    {
      "buffer": 0,
      "byteOffset": 1078800,
      "byteLength": 69408,
      "target": 34962,
      "byteStride": 12
    },
    {
      "buffer": 0,
      "byteOffset": 1148208,
      "byteLength": 46272,
      "target": 34962,
      "byteStride": 8
    },
    {
      "buffer": 0,
      "byteOffset": 1194480,
      "byteLength": 69408,
      "target": 34962,
      "byteStride": 12
    },
    {
      "buffer": 0,
      "byteOffset": 1263888,
      "byteLength": 202896,
      "target": 34962,
      "byteStride": 12
    },
    {
      "buffer": 0,
      "byteOffset": 1466784,
      "byteLength": 135264,
      "target": 34962,
      "byteStride": 8
    },
    {
      "buffer": 0,
      "byteOffset": 1602048,
      "byteLength": 202896,
      "target": 34962,
      "byteStride": 12
    },
    {
      "buffer": 0,
      "byteOffset": 1804944,
      "byteLength": 238248,
      "target": 34962,
      "byteStride": 12
    },
    {
      "buffer": 0,
      "byteOffset": 2043192,
      "byteLength": 158832,
      "target": 34962,
      "byteStride": 8
    },
    {
      "buffer": 0,
      "byteOffset": 2202024,
      "byteLength": 238248,
      "target": 34962,
      "byteStride": 12
    }
  ],
  "buffers": [
    {
      "byteLength": 2440272,
      "uri": "data:application/octet-stream;base64,"
    }
  ],
  "accessors": [
    {
      "bufferView": 0,
      "componentType": 5126,
      "count": 6,
      "max": [
        200,
        200,
        200
      ],
      "min": [
        0,
        0,
        0
      ],
      "type": "VEC3"
    },
    {
      "bufferView": 1,
      "componentType": 5126,
      "count": 6,
      "max": [
        1,
        1,
        1
      ],
      "min": [
        0,
        0,
        0
      ],
      "type": "VEC3"
    },
    {
      "bufferView": 2,
      "componentType": 5126,
      "count": 33708,
      "max": [
        -32.630340576171875,
        66.14541625976562,
        -79.76057434082031
      ],
      "min": [
        -167.4817352294922,
        -66.0934066772461,
        -121.44670867919922
      ],
      "type": "VEC3"
    },
    {
      "bufferView": 3,
      "componentType": 5126,
      "count": 33708,
      "max": [
        134.73931884765625,
        43.8934211730957
      ],
      "min": [
        -134.96347045898438,
        -39.47884750366211
      ],
      "type": "VEC2"
    },
    {
      "bufferView": 4,
      "componentType": 5126,
      "count": 33708,
      "max": [
        0.9991934299468994,
        0.9995043873786926,
        0.999811053276062
      ],
      "min": [
        -0.9991779327392578,
        -0.9997832179069519,
        -0.9994212985038757
      ],
      "type": "VEC3"
    },
    {
      "bufferView": 5,
      "componentType": 5126,
      "count": 5784,
      "max": [
        -45.252410888671875,
        54.7149658203125,
        115.70453643798828
      ],
      "min": [
        -155.3177032470703,
        -55.35087966918945,
        88.01250457763672
      ],
      "type": "VEC3"
    },
    {
      "bufferView": 6,
      "componentType": 5126,
      "count": 5784,
      "max": [
        109.49517822265625,
        47.27656555175781
      ],
      "min": [
        -110.7017593383789,
        -30.409072875976562
      ],
      "type": "VEC2"
    },
    {
      "bufferView": 7,
      "componentType": 5126,
      "count": 5784,
      "max": [
        0.9943027496337891,
        0.9995291829109192,
        0.984526515007019
      ],
      "min": [
        -0.9961796402931213,
        -0.9995571374893188,
        -0.9837165474891663
      ],
      "type": "VEC3"
    },
    {
      "bufferView": 8,
      "componentType": 5126,
      "count": 16908,
      "max": [
        158.17884826660156,
        62.240234375,
        -81.58577728271484
      ],
      "min": [
        35.714744567871094,
        -62.0823974609375,
        -120.49266052246094
      ],
      "type": "VEC3"
    },
    {
      "bufferView": 9,
      "componentType": 5126,
      "count": 16908,
      "max": [
        124.48046875,
        56.80455017089844
      ],
      "min": [
        -128.5705108642578,
        -35.82844924926758
      ],
      "type": "VEC2"
    },
    {
      "bufferView": 10,
      "componentType": 5126,
      "count": 16908,
      "max": [
        0.9992021918296814,
        0.9981930255889893,
        0.9999960660934448
      ],
      "min": [
        -0.9991998672485352,
        -0.9991222620010376,
        -0.9999956488609314
      ],
      "type": "VEC3"
    },
    {
      "bufferView": 11,
      "componentType": 5126,
      "count": 19854,
      "max": [
        166.42495727539062,
        65.6912612915039,
        116.61358642578125
      ],
      "min": [
        35.072593688964844,
        -65.73977661132812,
        84.2878646850586
      ],
      "type": "VEC3"
    },
    {
      "bufferView": 12,
      "componentType": 5126,
      "count": 19854,
      "max": [
        132.8499298095703,
        32.42426681518555
      ],
      "min": [
        -131.47955322265625,
        -32.2271728515625
      ],
      "type": "VEC2"
    },
    {
      "bufferView": 13,
      "componentType": 5126,
      "count": 19854,
      "max": [
        0.9996992349624634,
        0.9997286796569824,
        0.9999542236328125
      ],
      "min": [
        -0.9999513030052185,
        -0.9984980225563049,
        -0.9998291730880737
      ],
      "type": "VEC3"
    }
  ],
  "materials": [
    {
      "pbrMetallicRoughness": {
        "metallicFactor": 0.5,
        "roughnessFactor": 0.5
      }
    },
    {
      "pbrMetallicRoughness": {
        "baseColorFactor": [
          0.028423037033189935,
          0.817914789087435,
          0.1062748194979033,
          1
        ],
        "metallicFactor": 0.5,
        "roughnessFactor": 0.5
      },
      "name": "Phong_BumpMapped_1"
    },
    {
      "pbrMetallicRoughness": {
        "baseColorFactor": [
          0.04618867004095284,
          0.4086474613810511,
          0.4739236953268635,
          1
        ],
        "metallicFactor": 0.5,
        "roughnessFactor": 0.5
      },
      "name": "Phong_BumpMapped_2"
    },
    {
      "pbrMetallicRoughness": {
        "baseColorFactor": [
          0.15771357604500125,
          0.07442061463101024,
          0.9844405387239457,
          1
        ],
        "metallicFactor": 0.5,
        "roughnessFactor": 0.5
      },
      "name": "Phong_BumpMapped_3"
    },
    {
      "pbrMetallicRoughness": {
        "baseColorFactor": [
          0.17321236665718942,
          0.21781519890573375,
          0.02954901569604873,
          1
        ],
        "metallicFactor": 0.5,
        "roughnessFactor": 0.5
      },
      "name": "Phong_BumpMapped_4"
    }
  ],
  "meshes": [
    {
      "primitives": [
        {
          "mode": 1,
          "attributes": {
            "POSITION": 0,
            "COLOR_0": 1
          },
          "material": 0
        }
      ]
    },
    {
      "primitives": [
        {
          "mode": 4,
          "attributes": {
            "POSITION": 2,
            "TEXCOORD_0": 3,
            "NORMAL": 4
          },
          "material": 1
        }
      ]
    },
    {
      "primitives": [
        {
          "mode": 4,
          "attributes": {
            "POSITION": 5,
            "TEXCOORD_0": 6,
            "NORMAL": 7
          },
          "material": 2
        }
      ]
    },
    {
      "primitives": [
        {
          "mode": 4,
          "attributes": {
            "POSITION": 8,
            "TEXCOORD_0": 9,
            "NORMAL": 10
          },
          "material": 3
        }
      ]
    },
    {
      "primitives": [
        {
          "mode": 4,
          "attributes": {
            "POSITION": 11,
            "TEXCOORD_0": 12,
            "NORMAL": 13
          },
          "material": 4
        }
      ]
    }
  ]
}