{
  "asset": {
    "version": "2.0",
    "generator": "THREE.GLTFExporter"
  },
  "scenes": [
    {
      "nodes": [
        0,
        1,
        2,
        3,
        4,
        5,
        6
      ]
    }
  ],
  "scene": 0,
  "nodes": [
    {
      "mesh": 0
    },
    {
      "mesh": 1
    },
    {
      "mesh": 2
    },
    {
      "mesh": 3
    },
    {
      "mesh": 4
    },
    {
      "mesh": 5
    },
    {
      "mesh": 6
    }
  ],
  "bufferViews": [
    {
      "buffer": 0,
      "byteOffset": 0,
      "byteLength": 72,
      "target": 34962,
      "byteStride": 12
    },
    {
      "buffer": 0,
      "byteOffset": 72,
      "byteLength": 72,
      "target": 34962,
      "byteStride": 12
    },
    {
      "buffer": 0,
      "byteOffset": 144,
      "byteLength": 43488,
      "target": 34962,
      "byteStride": 12
    },
    {
      "buffer": 0,
      "byteOffset": 43632,
      "byteLength": 28992,
      "target": 34962,
      "byteStride": 8
    },
    {
      "buffer": 0,
      "byteOffset": 72624,
      "byteLength": 43488,
      "target": 34962,
      "byteStride": 12
    },
    {
      "buffer": 0,
      "byteOffset": 116112,
      "byteLength": 79848,
      "target": 34962,
      "byteStride": 12
    },
    {
      "buffer": 0,
      "byteOffset": 195960,
      "byteLength": 53232,
      "target": 34962,
      "byteStride": 8
    },
    {
      "buffer": 0,
      "byteOffset": 249192,
      "byteLength": 79848,
      "target": 34962,
      "byteStride": 12
    },
    {
      "buffer": 0,
      "byteOffset": 329040,
      "byteLength": 145296,
      "target": 34962,
      "byteStride": 12
    },
    {
      "buffer": 0,
      "byteOffset": 474336,
      "byteLength": 96864,
      "target": 34962,
      "byteStride": 8
    },
    {
      "buffer": 0,
      "byteOffset": 571200,
      "byteLength": 145296,
      "target": 34962,
      "byteStride": 12
    },
    {
      "buffer": 0,
      "byteOffset": 716496,
      "byteLength": 159840,
      "target": 34962,
      "byteStride": 12
    },
    {
      "buffer": 0,
      "byteOffset": 876336,
      "byteLength": 106560,
      "target": 34962,
      "byteStride": 8
    },
    {
      "buffer": 0,
      "byteOffset": 982896,
      "byteLength": 159840,
      "target": 34962,
      "byteStride": 12
    },
    {
      "buffer": 0,
      "byteOffset": 1142736,
      "byteLength": 65304,
      "target": 34962,
      "byteStride": 12
    },
    {
      "buffer": 0,
      "byteOffset": 1208040,
      "byteLength": 43536,
      "target": 34962,
      "byteStride": 8
    },
    {
      "buffer": 0,
      "byteOffset": 1251576,
      "byteLength": 65304,
      "target": 34962,
      "byteStride": 12
    },
    {
      "buffer": 0,
      "byteOffset": 1316880,
      "byteLength": 28944,
      "target": 34962,
      "byteStride": 12
    },
    {
      "buffer": 0,
      "byteOffset": 1345824,
      "byteLength": 19296,
      "target": 34962,
      "byteStride": 8
    },
    {
      "buffer": 0,
      "byteOffset": 1365120,
      "byteLength": 28944,
      "target": 34962,
      "byteStride": 12
    }
  ],
  "buffers": [
    {
      "byteLength": 1394064,
      "uri": "data:application/octet-stream;base64,"
    }
  ],
  "accessors": [
    {
      "bufferView": 0,
      "componentType": 5126,
      "count": 6,
      "max": [
        200,
        200,
        200
      ],
      "min": [
        0,
        0,
        0
      ],
      "type": "VEC3"
    },
    {
      "bufferView": 1,
      "componentType": 5126,
      "count": 6,
      "max": [
        1,
        1,
        1
      ],
      "min": [
        0,
        0,
        0
      ],
      "type": "VEC3"
    },
    {
      "bufferView": 2,
      "componentType": 5126,
      "count": 3624,
      "max": [
        -86.36325073242188,
        100.64141845703125,
        -185.52786254882812
      ],
      "min": [
        -112.74171447753906,
        -127.11487579345703,
        -212.56442260742188
      ],
      "type": "VEC3"
    },
    {
      "bufferView": 3,
      "componentType": 5126,
      "count": 3624,
      "max": [
        201.2828369140625,
        201.2828369140625
      ],
      "min": [
        -254.22975158691406,
        -254.22975158691406
      ],
      "type": "VEC2"
    },
    {
      "bufferView": 4,
      "componentType": 5126,
      "count": 3624,
      "max": [
        0.9999854564666748,
        0.9974050521850586,
        0.8763079047203064
      ],
      "min": [
        -0.9999870657920837,
        -0.9721611142158508,
        -0.8762619495391846
      ],
      "type": "VEC3"
    },
    {
      "bufferView": 5,
      "componentType": 5126,
      "count": 6654,
      "max": [
        -86.08451080322266,
        101.27881622314453,
        14.382835388183594
      ],
      "min": [
        -114.88423919677734,
        -125.80976867675781,
        -14.87800121307373
      ],
      "type": "VEC3"
    },
    {
      "bufferView": 6,
      "componentType": 5126,
      "count": 6654,
      "max": [
        156.40196228027344,
        202.55763244628906
      ],
      "min": [
        -197.8191680908203,
        -251.61953735351562
      ],
      "type": "VEC2"
    },
    {
      "bufferView": 7,
      "componentType": 5126,
      "count": 6654,
      "max": [
        0.9968445301055908,
        0.9911205172538757,
        0.9999194741249084
      ],
      "min": [
        -0.9903499484062195,
        -0.9966057538986206,
        -0.9723237156867981
      ],
      "type": "VEC3"
    },
    {
      "bufferView": 8,
      "componentType": 5126,
      "count": 12108,
      "max": [
        -79.72206115722656,
        103.23091888427734,
        219.4483184814453
      ],
      "min": [
        -118.80178833007812,
        -128.06239318847656,
        180.51959228515625
      ],
      "type": "VEC3"
    },
    {
      "bufferView": 9,
      "componentType": 5126,
      "count": 12108,
      "max": [
        192.86073303222656,
        206.4618377685547
      ],
      "min": [
        -255.0576934814453,
        -256.1247863769531
      ],
      "type": "VEC2"
    },
    {
      "bufferView": 10,
      "componentType": 5126,
      "count": 12108,
      "max": [
        0.9918397068977356,
        0.9758768081665039,
        0.999298095703125
      ],
      "min": [
        -0.9918389916419983,
        -0.9788767099380493,
        -0.9992973804473877
      ],
      "type": "VEC3"
    },
    {
      "bufferView": 11,
      "componentType": 5126,
      "count": 13320,
      "max": [
        119.94796752929688,
        104.72417449951172,
        -180.9185028076172
      ],
      "min": [
        80.11750793457031,
        -128.410888671875,
        -219.50131225585938
      ],
      "type": "VEC3"
    },
    {
      "bufferView": 12,
      "componentType": 5126,
      "count": 13320,
      "max": [
        209.44834899902344,
        209.44834899902344
      ],
      "min": [
        -255.4022979736328,
        -256.82177734375
      ],
      "type": "VEC2"
    },
    {
      "bufferView": 13,
      "componentType": 5126,
      "count": 13320,
      "max": [
        0.9990249276161194,
        0.9467169642448425,
        0.9834336042404175
      ],
      "min": [
        -0.9961453080177307,
        -0.973638117313385,
        -0.9997226595878601
      ],
      "type": "VEC3"
    },
    {
      "bufferView": 14,
      "componentType": 5126,
      "count": 5442,
      "max": [
        114.10476684570312,
        103.43191528320312,
        14.625797271728516
      ],
      "min": [
        85.298828125,
        -127.30039978027344,
        -14.077634811401367
      ],
      "type": "VEC3"
    },
    {
      "bufferView": 15,
      "componentType": 5126,
      "count": 5442,
      "max": [
        204.63894653320312,
        206.86383056640625
      ],
      "min": [
        -251.596923828125,
        -254.60079956054688
      ],
      "type": "VEC2"
    },
    {
      "bufferView": 16,
      "componentType": 5126,
      "count": 5442,
      "max": [
        1,
        0.9381700158119202,
        0.9836488366127014
      ],
      "min": [
        -0.9497845768928528,
        -0.9723477959632874,
        -0.9894854426383972
      ],
      "type": "VEC3"
    },
    {
      "bufferView": 17,
      "componentType": 5126,
      "count": 2412,
      "max": [
        113.10298156738281,
        102.20922088623047,
        215.12245178222656
      ],
      "min": [
        87.36860656738281,
        -125.9952163696289,
        187.53480529785156
      ],
      "type": "VEC3"
    },
    {
      "bufferView": 18,
      "componentType": 5126,
      "count": 2412,
      "max": [
        26.205965042114258,
        204.41844177246094
      ],
      "min": [
        -25.262794494628906,
        -251.9904327392578
      ],
      "type": "VEC2"
    },
    {
      "bufferView": 19,
      "componentType": 5126,
      "count": 2412,
      "max": [
        0.7650962471961975,
        0.9618527889251709,
        0.7616372108459473
      ],
      "min": [
        -0.7650963068008423,
        -0.9932599067687988,
        -0.7616046667098999
      ],
      "type": "VEC3"
    }
  ],
  "materials": [
    {
      "pbrMetallicRoughness": {
        "metallicFactor": 0.5,
        "roughnessFactor": 0.5
      }
    },
    {
      "pbrMetallicRoughness": {
        "baseColorFactor": [
          0.2399533396758382,
          0.6502235392388196,
          0.9953241822463827,
          1
        ],
        "metallicFactor": 0.5,
        "roughnessFactor": 0.5
      },
      "name": "Textured_1"
    },
    {
      "pbrMetallicRoughness": {
        "baseColorFactor": [
          0.6326206886027146,
          0.3866291017139396,
          0.3607875850675599,
          1
        ],
        "metallicFactor": 0.5,
        "roughnessFactor": 0.5
      },
      "name": "Textured_2"
    },
    {
      "pbrMetallicRoughness": {
        "baseColorFactor": [
          0.26757001468126074,
          0.43505063688822254,
          0.1484705270890101,
          1
        ],
        "metallicFactor": 0.5,
        "roughnessFactor": 0.5
      },
      "name": "Textured_3"
    },
    {
      "pbrMetallicRoughness": {
        "baseColorFactor": [
          0.41798530359066066,
          0.3579737883531151,
          0.8475713619832967,
          1
        ],
        "metallicFactor": 0.5,
        "roughnessFactor": 0.5
      },
      "name": "Textured_4"
    },
    {
      "pbrMetallicRoughness": {
        "baseColorFactor": [
          0.512977657381134,
          0.35861213048674223,
          0.5712733616275405,
          1
        ],
        "metallicFactor": 0.5,
        "roughnessFactor": 0.5
      },
      "name": "Textured_5"
    },
    {
      "pbrMetallicRoughness": {
        "baseColorFactor": [
          0.21182285382686739,
          0.9176027139249809,
          0.8358796877698709,
          1
        ],
        "metallicFactor": 0.5,
        "roughnessFactor": 0.5
      },
      "name": "Textured_6"
    }
  ],
  "meshes": [
    {
      "primitives": [
        {
          "mode": 1,
          "attributes": {
            "POSITION": 0,
            "COLOR_0": 1
          },
          "material": 0
        }
      ]
    },
    {
      "primitives": [
        {
          "mode": 4,
          "attributes": {
            "POSITION": 2,
            "TEXCOORD_0": 3,
            "NORMAL": 4
          },
          "material": 1
        }
      ]
    },
    {
      "primitives": [
        {
          "mode": 4,
          "attributes": {
            "POSITION": 5,
            "TEXCOORD_0": 6,
            "NORMAL": 7
          },
          "material": 2
        }
      ]
    },
    {
      "primitives": [
        {
          "mode": 4,
          "attributes": {
            "POSITION": 8,
            "TEXCOORD_0": 9,
            "NORMAL": 10
          },
          "material": 3
        }
      ]
    },
    {
      "primitives": [
        {
          "mode": 4,
          "attributes": {
            "POSITION": 11,
            "TEXCOORD_0": 12,
            "NORMAL": 13
          },
          "material": 4
        }
      ]
    },
    {
      "primitives": [
        {
          "mode": 4,
          "attributes": {
            "POSITION": 14,
            "TEXCOORD_0": 15,
            "NORMAL": 16
          },
          "material": 5
        }
      ]
    },
    {
      "primitives": [
        {
          "mode": 4,
          "attributes": {
            "POSITION": 17,
            "TEXCOORD_0": 18,
            "NORMAL": 19
          },
          "material": 6
        }
      ]
    }
  ]
}