{
  "asset": {
    "version": "2.0",
    "generator": "THREE.GLTFExporter"
  },
  "scenes": [
    {
      "nodes": [
        0,
        1,
        2,
        3,
        4,
        5,
        6
      ]
    }
  ],
  "scene": 0,
  "nodes": [
    {
      "mesh": 0
    },
    {
      "mesh": 1
    },
    {
      "mesh": 2
    },
    {
      "mesh": 3
    },
    {
      "mesh": 4
    },
    {
      "mesh": 5
    },
    {
      "mesh": 6
    }
  ],
  "bufferViews": [
    {
      "buffer": 0,
      "byteOffset": 0,
      "byteLength": 72,
      "target": 34962,
      "byteStride": 12
    },
    {
      "buffer": 0,
      "byteOffset": 72,
      "byteLength": 72,
      "target": 34962,
      "byteStride": 12
    },
    {
      "buffer": 0,
      "byteOffset": 144,
      "byteLength": 2160,
      "target": 34962,
      "byteStride": 12
    },
    {
      "buffer": 0,
      "byteOffset": 2304,
      "byteLength": 1440,
      "target": 34962,
      "byteStride": 8
    },
    {
      "buffer": 0,
      "byteOffset": 3744,
      "byteLength": 2160,
      "target": 34962,
      "byteStride": 12
    },
    {
      "buffer": 0,
      "byteOffset": 5904,
      "byteLength": 5616,
      "target": 34962,
      "byteStride": 12
    },
    {
      "buffer": 0,
      "byteOffset": 11520,
      "byteLength": 3744,
      "target": 34962,
      "byteStride": 8
    },
    {
      "buffer": 0,
      "byteOffset": 15264,
      "byteLength": 5616,
      "target": 34962,
      "byteStride": 12
    },
    {
      "buffer": 0,
      "byteOffset": 20880,
      "byteLength": 6768,
      "target": 34962,
      "byteStride": 12
    },
    {
      "buffer": 0,
      "byteOffset": 27648,
      "byteLength": 4512,
      "target": 34962,
      "byteStride": 8
    },
    {
      "buffer": 0,
      "byteOffset": 32160,
      "byteLength": 6768,
      "target": 34962,
      "byteStride": 12
    },
    {
      "buffer": 0,
      "byteOffset": 38928,
      "byteLength": 5616,
      "target": 34962,
      "byteStride": 12
    },
    {
      "buffer": 0,
      "byteOffset": 44544,
      "byteLength": 3744,
      "target": 34962,
      "byteStride": 8
    },
    {
      "buffer": 0,
      "byteOffset": 48288,
      "byteLength": 5616,
      "target": 34962,
      "byteStride": 12
    },
    {
      "buffer": 0,
      "byteOffset": 53904,
      "byteLength": 12528,
      "target": 34962,
      "byteStride": 12
    },
    {
      "buffer": 0,
      "byteOffset": 66432,
      "byteLength": 8352,
      "target": 34962,
      "byteStride": 8
    },
    {
      "buffer": 0,
      "byteOffset": 74784,
      "byteLength": 12528,
      "target": 34962,
      "byteStride": 12
    },
    {
      "buffer": 0,
      "byteOffset": 87312,
      "byteLength": 9072,
      "target": 34962,
      "byteStride": 12
    },
    {
      "buffer": 0,
      "byteOffset": 96384,
      "byteLength": 6048,
      "target": 34962,
      "byteStride": 8
    },
    {
      "buffer": 0,
      "byteOffset": 102432,
      "byteLength": 9072,
      "target": 34962,
      "byteStride": 12
    }
  ],
  "buffers": [
    {
      "byteLength": 111504,
      "uri": "data:application/octet-stream;base64,"
    }
  ],
  "accessors": [
    {
      "bufferView": 0,
      "componentType": 5126,
      "count": 6,
      "max": [
        200,
        200,
        200
      ],
      "min": [
        0,
        0,
        0
      ],
      "type": "VEC3"
    },
    {
      "bufferView": 1,
      "componentType": 5126,
      "count": 6,
      "max": [
        1,
        1,
        1
      ],
      "min": [
        0,
        0,
        0
      ],
      "type": "VEC3"
    },
    {
      "bufferView": 2,
      "componentType": 5126,
      "count": 180,
      "max": [
        -74.34314727783203,
        25.6568546295166,
        -175
      ],
      "min": [
        -125.65685272216797,
        -25.6568546295166,
        -205
      ],
      "type": "VEC3"
    },
    {
      "bufferView": 3,
      "componentType": 5126,
      "count": 180,
      "max": [
        25.6568546295166,
        20
      ],
      "min": [
        -25.6568546295166,
        -24
      ],
      "type": "VEC2"
    },
    {
      "bufferView": 4,
      "componentType": 5126,
      "count": 180,
      "max": [
        0.7071067690849304,
        0.7071067690849304,
        1
      ],
      "min": [
        -0.7071067690849304,
        -0.7071067690849304,
        -1
      ],
      "type": "VEC3"
    },
    {
      "bufferView": 5,
      "componentType": 5126,
      "count": 468,
      "max": [
        -64.34314727783203,
        33.87929916381836,
        25
      ],
      "min": [
        -128.88275146484375,
        -33.87929916381836,
        -5
      ],
      "type": "VEC3"
    },
    {
      "bufferView": 6,
      "componentType": 5126,
      "count": 468,
      "max": [
        35.65685272216797,
        28.5
      ],
      "min": [
        -33.87929916381836,
        -28.5
      ],
      "type": "VEC2"
    },
    {
      "bufferView": 7,
      "componentType": 5126,
      "count": 468,
      "max": [
        0.998783528804779,
        0.9655899405479431,
        1
      ],
      "min": [
        -0.8360024094581604,
        -0.9655899405479431,
        -1
      ],
      "type": "VEC3"
    },
    {
      "bufferView": 8,
      "componentType": 5126,
      "count": 564,
      "max": [
        -75.85676574707031,
        24.14323616027832,
        225
      ],
      "min": [
        -124.14323425292969,
        -24.14323616027832,
        195
      ],
      "type": "VEC3"
    },
    {
      "bufferView": 9,
      "componentType": 5126,
      "count": 564,
      "max": [
        20.883403778076172,
        20
      ],
      "min": [
        -20.883403778076172,
        -24
      ],
      "type": "VEC2"
    },
    {
      "bufferView": 10,
      "componentType": 5126,
      "count": 564,
      "max": [
        0.9654290676116943,
        0.9654290676116943,
        1
      ],
      "min": [
        -0.9654290676116943,
        -0.9654290676116943,
        -1
      ],
      "type": "VEC3"
    },
    {
      "bufferView": 11,
      "componentType": 5126,
      "count": 468,
      "max": [
        135.6568603515625,
        33.87929916381836,
        -175
      ],
      "min": [
        71.11725616455078,
        -33.87929916381836,
        -205
      ],
      "type": "VEC3"
    },
    {
      "bufferView": 12,
      "componentType": 5126,
      "count": 468,
      "max": [
        35.65685272216797,
        28.5
      ],
      "min": [
        -33.87929916381836,
        -28.5
      ],
      "type": "VEC2"
    },
    {
      "bufferView": 13,
      "componentType": 5126,
      "count": 468,
      "max": [
        0.998783528804779,
        0.9655899405479431,
        1
      ],
      "min": [
        -0.8360024094581604,
        -0.9655899405479431,
        -1
      ],
      "type": "VEC3"
    },
    {
      "bufferView": 14,
      "componentType": 5126,
      "count": 1044,
      "max": [
        135.6568603515625,
        35.299251556396484,
        25
      ],
      "min": [
        65.77166748046875,
        -35.299251556396484,
        -5
      ],
      "type": "VEC3"
    },
    {
      "bufferView": 15,
      "componentType": 5126,
      "count": 1044,
      "max": [
        35.65685272216797,
        29.700000762939453
      ],
      "min": [
        -35.299251556396484,
        -29.700000762939453
      ],
      "type": "VEC2"
    },
    {
      "bufferView": 16,
      "componentType": 5126,
      "count": 1044,
      "max": [
        0.9759916067123413,
        0.9972386956214905,
        1
      ],
      "min": [
        -0.9977338314056396,
        -0.9972386956214905,
        -1
      ],
      "type": "VEC3"
    },
    {
      "bufferView": 17,
      "componentType": 5126,
      "count": 756,
      "max": [
        135.6568603515625,
        35.65685272216797,
        225
      ],
      "min": [
        64.34314727783203,
        -35.65685272216797,
        195
      ],
      "type": "VEC3"
    },
    {
      "bufferView": 18,
      "componentType": 5126,
      "count": 756,
      "max": [
        35.65685272216797,
        30
      ],
      "min": [
        -35.65685272216797,
        -30
      ],
      "type": "VEC2"
    },
    {
      "bufferView": 19,
      "componentType": 5126,
      "count": 756,
      "max": [
        0.9633201360702515,
        0.9633201360702515,
        1
      ],
      "min": [
        -0.9633201360702515,
        -0.9633201360702515,
        -1
      ],
      "type": "VEC3"
    }
  ],
  "materials": [
    {
      "pbrMetallicRoughness": {
        "metallicFactor": 0.5,
        "roughnessFactor": 0.5
      }
    },
    {
      "pbrMetallicRoughness": {
        "baseColorFactor": [
          0.28042741865421816,
          0.7927444338438681,
          0.26640937152929745,
          1
        ],
        "metallicFactor": 0.5,
        "roughnessFactor": 0.5
      },
      "name": "Bumped_1"
    },
    {
      "pbrMetallicRoughness": {
        "baseColorFactor": [
          0.965400945523043,
          0.18573859793024794,
          0.35133510890842934,
          1
        ],
        "metallicFactor": 0.5,
        "roughnessFactor": 0.5
      },
      "name": "Bumped_2"
    },
    {
      "pbrMetallicRoughness": {
        "baseColorFactor": [
          0.19506511270082294,
          0.5634164428905113,
          0.1621024052949238,
          1
        ],
        "metallicFactor": 0.5,
        "roughnessFactor": 0.5
      },
      "name": "Bumped_3"
    },
    {
      "pbrMetallicRoughness": {
        "baseColorFactor": [
          0.3023196503236818,
          0.7945479148848171,
          0.5517344527135377,
          1
        ],
        "metallicFactor": 0.5,
        "roughnessFactor": 0.5
      },
      "name": "Bumped_4"
    },
    {
      "pbrMetallicRoughness": {
        "baseColorFactor": [
          0.8277073817478549,
          0.27217999050407893,
          0.06602484298944766,
          1
        ],
        "metallicFactor": 0.5,
        "roughnessFactor": 0.5
      },
      "name": "Bumped_5"
    },
    {
      "pbrMetallicRoughness": {
        "baseColorFactor": [
          0.22966392551448722,
          0.18602815124559324,
          0.6402494566057368,
          1
        ],
        "metallicFactor": 0.5,
        "roughnessFactor": 0.5
      },
      "name": "Bumped_6"
    }
  ],
  "meshes": [
    {
      "primitives": [
        {
          "mode": 1,
          "attributes": {
            "POSITION": 0,
            "COLOR_0": 1
          },
          "material": 0
        }
      ]
    },
    {
      "primitives": [
        {
          "mode": 4,
          "attributes": {
            "POSITION": 2,
            "TEXCOORD_0": 3,
            "NORMAL": 4
          },
          "material": 1
        }
      ]
    },
    {
      "primitives": [
        {
          "mode": 4,
          "attributes": {
            "POSITION": 5,
            "TEXCOORD_0": 6,
            "NORMAL": 7
          },
          "material": 2
        }
      ]
    },
    {
      "primitives": [
        {
          "mode": 4,
          "attributes": {
            "POSITION": 8,
            "TEXCOORD_0": 9,
            "NORMAL": 10
          },
          "material": 3
        }
      ]
    },
    {
      "primitives": [
        {
          "mode": 4,
          "attributes": {
            "POSITION": 11,
            "TEXCOORD_0": 12,
            "NORMAL": 13
          },
          "material": 4
        }
      ]
    },
    {
      "primitives": [
        {
          "mode": 4,
          "attributes": {
            "POSITION": 14,
            "TEXCOORD_0": 15,
            "NORMAL": 16
          },
          "material": 5
        }
      ]
    },
    {
      "primitives": [
        {
          "mode": 4,
          "attributes": {
            "POSITION": 17,
            "TEXCOORD_0": 18,
            "NORMAL": 19
          },
          "material": 6
        }
      ]
    }
  ]
}