{
  "asset": {
    "version": "2.0",
    "generator": "THREE.GLTFExporter"
  },
  "scenes": [
    {
      "nodes": [
        0,
        1,
        2,
        3,
        4,
        5,
        6
      ]
    }
  ],
  "scene": 0,
  "nodes": [
    {
      "mesh": 0
    },
    {
      "mesh": 1
    },
    {
      "mesh": 2
    },
    {
      "mesh": 3
    },
    {
      "mesh": 4
    },
    {
      "mesh": 5
    },
    {
      "mesh": 6
    }
  ],
  "bufferViews": [
    {
      "buffer": 0,
      "byteOffset": 0,
      "byteLength": 72,
      "target": 34962,
      "byteStride": 12
    },
    {
      "buffer": 0,
      "byteOffset": 72,
      "byteLength": 72,
      "target": 34962,
      "byteStride": 12
    },
    {
      "buffer": 0,
      "byteOffset": 144,
      "byteLength": 21672,
      "target": 34962,
      "byteStride": 12
    },
    {
      "buffer": 0,
      "byteOffset": 21816,
      "byteLength": 14448,
      "target": 34962,
      "byteStride": 8
    },
    {
      "buffer": 0,
      "byteOffset": 36264,
      "byteLength": 21672,
      "target": 34962,
      "byteStride": 12
    },
    {
      "buffer": 0,
      "byteOffset": 57936,
      "byteLength": 58032,
      "target": 34962,
      "byteStride": 12
    },
    {
      "buffer": 0,
      "byteOffset": 115968,
      "byteLength": 38688,
      "target": 34962,
      "byteStride": 8
    },
    {
      "buffer": 0,
      "byteOffset": 154656,
      "byteLength": 58032,
      "target": 34962,
      "byteStride": 12
    },
    {
      "buffer": 0,
      "byteOffset": 212688,
      "byteLength": 28944,
      "target": 34962,
      "byteStride": 12
    },
    {
      "buffer": 0,
      "byteOffset": 241632,
      "byteLength": 19296,
      "target": 34962,
      "byteStride": 8
    },
    {
      "buffer": 0,
      "byteOffset": 260928,
      "byteLength": 28944,
      "target": 34962,
      "byteStride": 12
    },
    {
      "buffer": 0,
      "byteOffset": 289872,
      "byteLength": 28944,
      "target": 34962,
      "byteStride": 12
    },
    {
      "buffer": 0,
      "byteOffset": 318816,
      "byteLength": 19296,
      "target": 34962,
      "byteStride": 8
    },
    {
      "buffer": 0,
      "byteOffset": 338112,
      "byteLength": 28944,
      "target": 34962,
      "byteStride": 12
    },
    {
      "buffer": 0,
      "byteOffset": 367056,
      "byteLength": 159840,
      "target": 34962,
      "byteStride": 12
    },
    {
      "buffer": 0,
      "byteOffset": 526896,
      "byteLength": 106560,
      "target": 34962,
      "byteStride": 8
    },
    {
      "buffer": 0,
      "byteOffset": 633456,
      "byteLength": 159840,
      "target": 34962,
      "byteStride": 12
    },
    {
      "buffer": 0,
      "byteOffset": 793296,
      "byteLength": 79848,
      "target": 34962,
      "byteStride": 12
    },
    {
      "buffer": 0,
      "byteOffset": 873144,
      "byteLength": 53232,
      "target": 34962,
      "byteStride": 8
    },
    {
      "buffer": 0,
      "byteOffset": 926376,
      "byteLength": 79848,
      "target": 34962,
      "byteStride": 12
    }
  ],
  "buffers": [
    {
      "byteLength": 1006224,
      "uri": "data:application/octet-stream;base64,"
    }
  ],
  "accessors": [
    {
      "bufferView": 0,
      "componentType": 5126,
      "count": 6,
      "max": [
        200,
        200,
        200
      ],
      "min": [
        0,
        0,
        0
      ],
      "type": "VEC3"
    },
    {
      "bufferView": 1,
      "componentType": 5126,
      "count": 6,
      "max": [
        1,
        1,
        1
      ],
      "min": [
        0,
        0,
        0
      ],
      "type": "VEC3"
    },
    {
      "bufferView": 2,
      "componentType": 5126,
      "count": 1806,
      "max": [
        -187.79098510742188,
        100.3371353149414,
        -90.08686828613281
      ],
      "min": [
        -213.00439453125,
        -126.3405532836914,
        -114.26538848876953
      ],
      "type": "VEC3"
    },
    {
      "bufferView": 3,
      "componentType": 5126,
      "count": 1806,
      "max": [
        24.41803550720215,
        200.6742706298828
      ],
      "min": [
        -26.0087890625,
        -252.6811065673828
      ],
      "type": "VEC2"
    },
    {
      "bufferView": 4,
      "componentType": 5126,
      "count": 1806,
      "max": [
        0.9043223261833191,
        0.9981946349143982,
        0.9998064041137695
      ],
      "min": [
        -0.8771029710769653,
        -0.9833928346633911,
        -0.5609234571456909
      ],
      "type": "VEC3"
    },
    {
      "bufferView": 5,
      "componentType": 5126,
      "count": 4836,
      "max": [
        -184.98646545410156,
        101.58889770507812,
        114.4920654296875
      ],
      "min": [
        -215.2014617919922,
        -125.70275115966797,
        85.25623321533203
      ],
      "type": "VEC3"
    },
    {
      "bufferView": 6,
      "componentType": 5126,
      "count": 4836,
      "max": [
        30.027055740356445,
        203.17779541015625
      ],
      "min": [
        -30.402923583984375,
        -251.40550231933594
      ],
      "type": "VEC2"
    },
    {
      "bufferView": 7,
      "componentType": 5126,
      "count": 4836,
      "max": [
        0.9496138095855713,
        0.9872297048568726,
        0.9539906978607178
      ],
      "min": [
        -0.9496144652366638,
        -0.9974110126495361,
        -0.953990638256073
      ],
      "type": "VEC3"
    },
    {
      "bufferView": 8,
      "componentType": 5126,
      "count": 2412,
      "max": [
        13.87080192565918,
        102.3941421508789,
        -84.33540344238281
      ],
      "min": [
        -15.30833911895752,
        -128.04891967773438,
        -114.63955688476562
      ],
      "type": "VEC3"
    },
    {
      "bufferView": 9,
      "componentType": 5126,
      "count": 2412,
      "max": [
        27.74160385131836,
        204.7882843017578
      ],
      "min": [
        -30.61667823791504,
        -256.09783935546875
      ],
      "type": "VEC2"
    },
    {
      "bufferView": 10,
      "componentType": 5126,
      "count": 2412,
      "max": [
        0.7483055591583252,
        0.94652259349823,
        0.7450243234634399
      ],
      "min": [
        -0.7483055591583252,
        -0.9284163117408752,
        -0.7450243234634399
      ],
      "type": "VEC3"
    },
    {
      "bufferView": 11,
      "componentType": 5126,
      "count": 2412,
      "max": [
        14.499835968017578,
        102.03912353515625,
        113.45614624023438
      ],
      "min": [
        -13.850640296936035,
        -126.96294403076172,
        84.51822662353516
      ],
      "type": "VEC3"
    },
    {
      "bufferView": 12,
      "componentType": 5126,
      "count": 2412,
      "max": [
        28.999671936035156,
        204.0782470703125
      ],
      "min": [
        -27.70128059387207,
        -253.92588806152344
      ],
      "type": "VEC2"
    },
    {
      "bufferView": 13,
      "componentType": 5126,
      "count": 2412,
      "max": [
        0.8180868625640869,
        0.9758626222610474,
        0.8293784260749817
      ],
      "min": [
        -0.8180842399597168,
        -0.9803553223609924,
        -0.8293784856796265
      ],
      "type": "VEC3"
    },
    {
      "bufferView": 14,
      "componentType": 5126,
      "count": 13320,
      "max": [
        219.2722930908203,
        103.99332427978516,
        -80.0904312133789
      ],
      "min": [
        180.0567626953125,
        -130.04916381835938,
        -119.08966064453125
      ],
      "type": "VEC3"
    },
    {
      "bufferView": 15,
      "componentType": 5126,
      "count": 13320,
      "max": [
        207.2906494140625,
        207.9866485595703
      ],
      "min": [
        -259.7533874511719,
        -260.09832763671875
      ],
      "type": "VEC2"
    },
    {
      "bufferView": 16,
      "componentType": 5126,
      "count": 13320,
      "max": [
        0.9994808435440063,
        0.9632428884506226,
        0.9996940493583679
      ],
      "min": [
        -0.9995001554489136,
        -0.9384739398956299,
        -0.9989697933197021
      ],
      "type": "VEC3"
    },
    {
      "bufferView": 17,
      "componentType": 5126,
      "count": 6654,
      "max": [
        214.2489776611328,
        101.98174285888672,
        114.87151336669922
      ],
      "min": [
        186.51303100585938,
        -125.84321594238281,
        86.0178451538086
      ],
      "type": "VEC3"
    },
    {
      "bufferView": 18,
      "componentType": 5126,
      "count": 6654,
      "max": [
        201.1433868408203,
        203.96348571777344
      ],
      "min": [
        -200.5792236328125,
        -251.68643188476562
      ],
      "type": "VEC2"
    },
    {
      "bufferView": 19,
      "componentType": 5126,
      "count": 6654,
      "max": [
        0.9979530572891235,
        0.9797956943511963,
        0.9994416832923889
      ],
      "min": [
        -0.9890879988670349,
        -0.9964189529418945,
        -0.9804978966712952
      ],
      "type": "VEC3"
    }
  ],
  "materials": [
    {
      "pbrMetallicRoughness": {
        "metallicFactor": 0.5,
        "roughnessFactor": 0.5
      }
    },
    {
      "pbrMetallicRoughness": {
        "baseColorFactor": [
          0.028423037033189935,
          0.817914789087435,
          0.1062748194979033,
          1
        ],
        "metallicFactor": 0.5,
        "roughnessFactor": 0.5
      },
      "name": "Phong_BumpMapped_1"
    },
    {
      "pbrMetallicRoughness": {
        "baseColorFactor": [
          0.04618867004095284,
          0.4086474613810511,
          0.4739236953268635,
          1
        ],
        "metallicFactor": 0.5,
        "roughnessFactor": 0.5
      },
      "name": "Phong_BumpMapped_2"
    },
    {
      "pbrMetallicRoughness": {
        "baseColorFactor": [
          0.15771357604500125,
          0.07442061463101024,
          0.9844405387239457,
          1
        ],
        "metallicFactor": 0.5,
        "roughnessFactor": 0.5
      },
      "name": "Phong_BumpMapped_3"
    },
    {
      "pbrMetallicRoughness": {
        "baseColorFactor": [
          0.17321236665718942,
          0.21781519890573375,
          0.02954901569604873,
          1
        ],
        "metallicFactor": 0.5,
        "roughnessFactor": 0.5
      },
      "name": "Phong_BumpMapped_4"
    },
    {
      "pbrMetallicRoughness": {
        "baseColorFactor": [
          0.3882573387861348,
          0.007523152894547858,
          0.21565858541824912,
          1
        ],
        "metallicFactor": 0.5,
        "roughnessFactor": 0.5
      },
      "name": "Phong_BumpMapped_5"
    },
    {
      "pbrMetallicRoughness": {
        "baseColorFactor": [
          0.7922157289860092,
          0.47554857354503044,
          0.2357049654899297,
          1
        ],
        "metallicFactor": 0.5,
        "roughnessFactor": 0.5
      },
      "name": "Phong_BumpMapped_6"
    }
  ],
  "meshes": [
    {
      "primitives": [
        {
          "mode": 1,
          "attributes": {
            "POSITION": 0,
            "COLOR_0": 1
          },
          "material": 0
        }
      ]
    },
    {
      "primitives": [
        {
          "mode": 4,
          "attributes": {
            "POSITION": 2,
            "TEXCOORD_0": 3,
            "NORMAL": 4
          },
          "material": 1
        }
      ]
    },
    {
      "primitives": [
        {
          "mode": 4,
          "attributes": {
            "POSITION": 5,
            "TEXCOORD_0": 6,
            "NORMAL": 7
          },
          "material": 2
        }
      ]
    },
    {
      "primitives": [
        {
          "mode": 4,
          "attributes": {
            "POSITION": 8,
            "TEXCOORD_0": 9,
            "NORMAL": 10
          },
          "material": 3
        }
      ]
    },
    {
      "primitives": [
        {
          "mode": 4,
          "attributes": {
            "POSITION": 11,
            "TEXCOORD_0": 12,
            "NORMAL": 13
          },
          "material": 4
        }
      ]
    },
    {
      "primitives": [
        {
          "mode": 4,
          "attributes": {
            "POSITION": 14,
            "TEXCOORD_0": 15,
            "NORMAL": 16
          },
          "material": 5
        }
      ]
    },
    {
      "primitives": [
        {
          "mode": 4,
          "attributes": {
            "POSITION": 17,
            "TEXCOORD_0": 18,
            "NORMAL": 19
          },
          "material": 6
        }
      ]
    }
  ]
}