{
  "asset": {
    "version": "2.0",
    "generator": "THREE.GLTFExporter"
  },
  "scenes": [
    {
      "nodes": [
        0,
        1,
        2,
        3,
        4,
        5,
        6
      ]
    }
  ],
  "scene": 0,
  "nodes": [
    {
      "mesh": 0
    },
    {
      "mesh": 1
    },
    {
      "mesh": 2
    },
    {
      "mesh": 3
    },
    {
      "mesh": 4
    },
    {
      "mesh": 5
    },
    {
      "mesh": 6
    }
  ],
  "bufferViews": [
    {
      "buffer": 0,
      "byteOffset": 0,
      "byteLength": 72,
      "target": 34962,
      "byteStride": 12
    },
    {
      "buffer": 0,
      "byteOffset": 72,
      "byteLength": 72,
      "target": 34962,
      "byteStride": 12
    },
    {
      "buffer": 0,
      "byteOffset": 144,
      "byteLength": 65304,
      "target": 34962,
      "byteStride": 12
    },
    {
      "buffer": 0,
      "byteOffset": 65448,
      "byteLength": 43536,
      "target": 34962,
      "byteStride": 8
    },
    {
      "buffer": 0,
      "byteOffset": 108984,
      "byteLength": 65304,
      "target": 34962,
      "byteStride": 12
    },
    {
      "buffer": 0,
      "byteOffset": 174288,
      "byteLength": 87120,
      "target": 34962,
      "byteStride": 12
    },
    {
      "buffer": 0,
      "byteOffset": 261408,
      "byteLength": 58080,
      "target": 34962,
      "byteStride": 8
    },
    {
      "buffer": 0,
      "byteOffset": 319488,
      "byteLength": 87120,
      "target": 34962,
      "byteStride": 12
    },
    {
      "buffer": 0,
      "byteOffset": 406608,
      "byteLength": 36216,
      "target": 34962,
      "byteStride": 12
    },
    {
      "buffer": 0,
      "byteOffset": 442824,
      "byteLength": 24144,
      "target": 34962,
      "byteStride": 8
    },
    {
      "buffer": 0,
      "byteOffset": 466968,
      "byteLength": 36216,
      "target": 34962,
      "byteStride": 12
    },
    {
      "buffer": 0,
      "byteOffset": 503184,
      "byteLength": 65304,
      "target": 34962,
      "byteStride": 12
    },
    {
      "buffer": 0,
      "byteOffset": 568488,
      "byteLength": 43536,
      "target": 34962,
      "byteStride": 8
    },
    {
      "buffer": 0,
      "byteOffset": 612024,
      "byteLength": 65304,
      "target": 34962,
      "byteStride": 12
    },
    {
      "buffer": 0,
      "byteOffset": 677328,
      "byteLength": 130752,
      "target": 34962,
      "byteStride": 12
    },
    {
      "buffer": 0,
      "byteOffset": 808080,
      "byteLength": 87168,
      "target": 34962,
      "byteStride": 8
    },
    {
      "buffer": 0,
      "byteOffset": 895248,
      "byteLength": 130752,
      "target": 34962,
      "byteStride": 12
    },
    {
      "buffer": 0,
      "byteOffset": 1026000,
      "byteLength": 28944,
      "target": 34962,
      "byteStride": 12
    },
    {
      "buffer": 0,
      "byteOffset": 1054944,
      "byteLength": 19296,
      "target": 34962,
      "byteStride": 8
    },
    {
      "buffer": 0,
      "byteOffset": 1074240,
      "byteLength": 28944,
      "target": 34962,
      "byteStride": 12
    }
  ],
  "buffers": [
    {
      "byteLength": 1103184,
      "uri": "data:application/octet-stream;base64,"
    }
  ],
  "accessors": [
    {
      "bufferView": 0,
      "componentType": 5126,
      "count": 6,
      "max": [
        200,
        200,
        200
      ],
      "min": [
        0,
        0,
        0
      ],
      "type": "VEC3"
    },
    {
      "bufferView": 1,
      "componentType": 5126,
      "count": 6,
      "max": [
        1,
        1,
        1
      ],
      "min": [
        0,
        0,
        0
      ],
      "type": "VEC3"
    },
    {
      "bufferView": 2,
      "componentType": 5126,
      "count": 5442,
      "max": [
        -86.05720520019531,
        103.40519714355469,
        -185.94737243652344
      ],
      "min": [
        -113.95046997070312,
        -128.19178771972656,
        -215.1736602783203
      ],
      "type": "VEC3"
    },
    {
      "bufferView": 3,
      "componentType": 5126,
      "count": 5442,
      "max": [
        195.63821411132812,
        206.81039428710938
      ],
      "min": [
        -256.3835754394531,
        -256.3835754394531
      ],
      "type": "VEC2"
    },
    {
      "bufferView": 4,
      "componentType": 5126,
      "count": 5442,
      "max": [
        0.9872827529907227,
        0.938482940196991,
        0.999948263168335
      ],
      "min": [
        -0.9940035343170166,
        -0.9461885094642639,
        -0.9603073596954346
      ],
      "type": "VEC3"
    },
    {
      "bufferView": 5,
      "componentType": 5126,
      "count": 7260,
      "max": [
        -86.28465270996094,
        100.61528778076172,
        13.598881721496582
      ],
      "min": [
        -113.1336669921875,
        -127.2700424194336,
        -14.96630573272705
      ],
      "type": "VEC3"
    },
    {
      "bufferView": 6,
      "componentType": 5126,
      "count": 7260,
      "max": [
        142.86990356445312,
        201.23057556152344
      ],
      "min": [
        -143.40280151367188,
        -254.5400848388672
      ],
      "type": "VEC2"
    },
    {
      "bufferView": 7,
      "componentType": 5126,
      "count": 7260,
      "max": [
        0.9810363054275513,
        0.9980064034461975,
        0.9805687665939331
      ],
      "min": [
        -0.9810364246368408,
        -0.9738462567329407,
        -0.9809544682502747
      ],
      "type": "VEC3"
    },
    {
      "bufferView": 8,
      "componentType": 5126,
      "count": 3018,
      "max": [
        -86.14471435546875,
        100.39448547363281,
        211.6836700439453
      ],
      "min": [
        -113.97598266601562,
        -127.61863708496094,
        187.0003204345703
      ],
      "type": "VEC3"
    },
    {
      "bufferView": 9,
      "componentType": 5126,
      "count": 3018,
      "max": [
        27.710575103759766,
        200.78897094726562
      ],
      "min": [
        -27.951963424682617,
        -255.23727416992188
      ],
      "type": "VEC2"
    },
    {
      "bufferView": 10,
      "componentType": 5126,
      "count": 3018,
      "max": [
        0.9594082236289978,
        0.9990015029907227,
        0.9999545812606812
      ],
      "min": [
        -0.9520627856254578,
        -0.957048237323761,
        -0.8242911696434021
      ],
      "type": "VEC3"
    },
    {
      "bufferView": 11,
      "componentType": 5126,
      "count": 5442,
      "max": [
        114.16981506347656,
        102.77220916748047,
        -185.14016723632812
      ],
      "min": [
        86.50286102294922,
        -127.23400115966797,
        -212.93698120117188
      ],
      "type": "VEC3"
    },
    {
      "bufferView": 12,
      "componentType": 5126,
      "count": 5442,
      "max": [
        202.81556701660156,
        205.54441833496094
      ],
      "min": [
        -252.30699157714844,
        -254.46800231933594
      ],
      "type": "VEC2"
    },
    {
      "bufferView": 13,
      "componentType": 5126,
      "count": 5442,
      "max": [
        0.9998151063919067,
        0.9562079906463623,
        0.9877012372016907
      ],
      "min": [
        -0.9519584774971008,
        -0.9716337323188782,
        -0.9895520210266113
      ],
      "type": "VEC3"
    },
    {
      "bufferView": 14,
      "componentType": 5126,
      "count": 10896,
      "max": [
        117.35798645019531,
        104.15821075439453,
        18.94233512878418
      ],
      "min": [
        82.50546264648438,
        -129.36203002929688,
        -19.024383544921875
      ],
      "type": "VEC3"
    },
    {
      "bufferView": 15,
      "componentType": 5126,
      "count": 10896,
      "max": [
        208.14405822753906,
        208.31642150878906
      ],
      "min": [
        -258.58251953125,
        -258.72406005859375
      ],
      "type": "VEC2"
    },
    {
      "bufferView": 16,
      "componentType": 5126,
      "count": 10896,
      "max": [
        0.9684067964553833,
        0.9563650488853455,
        0.9959781169891357
      ],
      "min": [
        -0.9998039603233337,
        -0.951665461063385,
        -0.9887774586677551
      ],
      "type": "VEC3"
    },
    {
      "bufferView": 17,
      "componentType": 5126,
      "count": 2412,
      "max": [
        114.1615219116211,
        103.3670425415039,
        215.03204345703125
      ],
      "min": [
        86.06565856933594,
        -126.58163452148438,
        186.58116149902344
      ],
      "type": "VEC3"
    },
    {
      "bufferView": 18,
      "componentType": 5126,
      "count": 2412,
      "max": [
        28.323049545288086,
        206.7340850830078
      ],
      "min": [
        -27.86867904663086,
        -253.16326904296875
      ],
      "type": "VEC2"
    },
    {
      "bufferView": 19,
      "componentType": 5126,
      "count": 2412,
      "max": [
        0.8336268663406372,
        0.9406374096870422,
        0.8230462670326233
      ],
      "min": [
        -0.8336780667304993,
        -0.9866426587104797,
        -0.8231522440910339
      ],
      "type": "VEC3"
    }
  ],
  "materials": [
    {
      "pbrMetallicRoughness": {
        "metallicFactor": 0.5,
        "roughnessFactor": 0.5
      }
    },
    {
      "pbrMetallicRoughness": {
        "baseColorFactor": [
          0.3396832379582817,
          0.28948718578471255,
          0.7807183094328694,
          1
        ],
        "metallicFactor": 0.5,
        "roughnessFactor": 0.5
      },
      "name": "Phong_1"
    },
    {
      "pbrMetallicRoughness": {
        "baseColorFactor": [
          0.5539491684561109,
          0.2732404754650801,
          0.3446006253567584,
          1
        ],
        "metallicFactor": 0.5,
        "roughnessFactor": 0.5
      },
      "name": "Phong_2"
    },
    {
      "pbrMetallicRoughness": {
        "baseColorFactor": [
          0.08530909117079921,
          0.923987946273632,
          0.9569598499938852,
          1
        ],
        "metallicFactor": 0.5,
        "roughnessFactor": 0.5
      },
      "name": "Phong_3"
    },
    {
      "pbrMetallicRoughness": {
        "baseColorFactor": [
          0.9931657998494909,
          0.25239855805819333,
          0.870109602988945,
          1
        ],
        "metallicFactor": 0.5,
        "roughnessFactor": 0.5
      },
      "name": "Phong_4"
    },
    {
      "pbrMetallicRoughness": {
        "baseColorFactor": [
          0.9359466602165634,
          0.7571710089679389,
          0.5586596286366368,
          1
        ],
        "metallicFactor": 0.5,
        "roughnessFactor": 0.5
      },
      "name": "Phong_5"
    },
    {
      "pbrMetallicRoughness": {
        "baseColorFactor": [
          0.7781117603706122,
          0.41271050908192675,
          0.6063978921911501,
          1
        ],
        "metallicFactor": 0.5,
        "roughnessFactor": 0.5
      },
      "name": "Phong_6"
    }
  ],
  "meshes": [
    {
      "primitives": [
        {
          "mode": 1,
          "attributes": {
            "POSITION": 0,
            "COLOR_0": 1
          },
          "material": 0
        }
      ]
    },
    {
      "primitives": [
        {
          "mode": 4,
          "attributes": {
            "POSITION": 2,
            "TEXCOORD_0": 3,
            "NORMAL": 4
          },
          "material": 1
        }
      ]
    },
    {
      "primitives": [
        {
          "mode": 4,
          "attributes": {
            "POSITION": 5,
            "TEXCOORD_0": 6,
            "NORMAL": 7
          },
          "material": 2
        }
      ]
    },
    {
      "primitives": [
        {
          "mode": 4,
          "attributes": {
            "POSITION": 8,
            "TEXCOORD_0": 9,
            "NORMAL": 10
          },
          "material": 3
        }
      ]
    },
    {
      "primitives": [
        {
          "mode": 4,
          "attributes": {
            "POSITION": 11,
            "TEXCOORD_0": 12,
            "NORMAL": 13
          },
          "material": 4
        }
      ]
    },
    {
      "primitives": [
        {
          "mode": 4,
          "attributes": {
            "POSITION": 14,
            "TEXCOORD_0": 15,
            "NORMAL": 16
          },
          "material": 5
        }
      ]
    },
    {
      "primitives": [
        {
          "mode": 4,
          "attributes": {
            "POSITION": 17,
            "TEXCOORD_0": 18,
            "NORMAL": 19
          },
          "material": 6
        }
      ]
    }
  ]
}