{
  "asset": {
    "version": "2.0",
    "generator": "THREE.GLTFExporter"
  },
  "scenes": [
    {
      "nodes": [
        0,
        1,
        2,
        3,
        4,
        5,
        6,
        7,
        8
      ]
    }
  ],
  "scene": 0,
  "nodes": [
    {
      "mesh": 0
    },
    {
      "mesh": 1
    },
    {
      "mesh": 2
    },
    {
      "mesh": 3
    },
    {
      "mesh": 4
    },
    {
      "mesh": 5
    },
    {
      "mesh": 6
    },
    {
      "mesh": 7
    },
    {
      "mesh": 8
    }
  ],
  "bufferViews": [
    {
      "buffer": 0,
      "byteOffset": 0,
      "byteLength": 72,
      "target": 34962,
      "byteStride": 12
    },
    {
      "buffer": 0,
      "byteOffset": 72,
      "byteLength": 72,
      "target": 34962,
      "byteStride": 12
    },
    {
      "buffer": 0,
      "byteOffset": 144,
      "byteLength": 58032,
      "target": 34962,
      "byteStride": 12
    },
    {
      "buffer": 0,
      "byteOffset": 58176,
      "byteLength": 38688,
      "target": 34962,
      "byteStride": 8
    },
    {
      "buffer": 0,
      "byteOffset": 96864,
      "byteLength": 58032,
      "target": 34962,
      "byteStride": 12
    },
    {
      "buffer": 0,
      "byteOffset": 154896,
      "byteLength": 58032,
      "target": 34962,
      "byteStride": 12
    },
    {
      "buffer": 0,
      "byteOffset": 212928,
      "byteLength": 38688,
      "target": 34962,
      "byteStride": 8
    },
    {
      "buffer": 0,
      "byteOffset": 251616,
      "byteLength": 58032,
      "target": 34962,
      "byteStride": 12
    },
    {
      "buffer": 0,
      "byteOffset": 309648,
      "byteLength": 58032,
      "target": 34962,
      "byteStride": 12
    },
    {
      "buffer": 0,
      "byteOffset": 367680,
      "byteLength": 38688,
      "target": 34962,
      "byteStride": 8
    },
    {
      "buffer": 0,
      "byteOffset": 406368,
      "byteLength": 58032,
      "target": 34962,
      "byteStride": 12
    },
    {
      "buffer": 0,
      "byteOffset": 464400,
      "byteLength": 87120,
      "target": 34962,
      "byteStride": 12
    },
    {
      "buffer": 0,
      "byteOffset": 551520,
      "byteLength": 58080,
      "target": 34962,
      "byteStride": 8
    },
    {
      "buffer": 0,
      "byteOffset": 609600,
      "byteLength": 87120,
      "target": 34962,
      "byteStride": 12
    },
    {
      "buffer": 0,
      "byteOffset": 696720,
      "byteLength": 58032,
      "target": 34962,
      "byteStride": 12
    },
    {
      "buffer": 0,
      "byteOffset": 754752,
      "byteLength": 38688,
      "target": 34962,
      "byteStride": 8
    },
    {
      "buffer": 0,
      "byteOffset": 793440,
      "byteLength": 58032,
      "target": 34962,
      "byteStride": 12
    },
    {
      "buffer": 0,
      "byteOffset": 851472,
      "byteLength": 87120,
      "target": 34962,
      "byteStride": 12
    },
    {
      "buffer": 0,
      "byteOffset": 938592,
      "byteLength": 58080,
      "target": 34962,
      "byteStride": 8
    },
    {
      "buffer": 0,
      "byteOffset": 996672,
      "byteLength": 87120,
      "target": 34962,
      "byteStride": 12
    },
    {
      "buffer": 0,
      "byteOffset": 1083792,
      "byteLength": 116208,
      "target": 34962,
      "byteStride": 12
    },
    {
      "buffer": 0,
      "byteOffset": 1200000,
      "byteLength": 77472,
      "target": 34962,
      "byteStride": 8
    },
    {
      "buffer": 0,
      "byteOffset": 1277472,
      "byteLength": 116208,
      "target": 34962,
      "byteStride": 12
    },
    {
      "buffer": 0,
      "byteOffset": 1393680,
      "byteLength": 101664,
      "target": 34962,
      "byteStride": 12
    },
    {
      "buffer": 0,
      "byteOffset": 1495344,
      "byteLength": 67776,
      "target": 34962,
      "byteStride": 8
    },
    {
      "buffer": 0,
      "byteOffset": 1563120,
      "byteLength": 101664,
      "target": 34962,
      "byteStride": 12
    }
  ],
  "buffers": [
    {
      "byteLength": 1664784,
      "uri": "data:application/octet-stream;base64,"
    }
  ],
  "accessors": [
    {
      "bufferView": 0,
      "componentType": 5126,
      "count": 6,
      "max": [
        200,
        200,
        200
      ],
      "min": [
        0,
        0,
        0
      ],
      "type": "VEC3"
    },
    {
      "bufferView": 1,
      "componentType": 5126,
      "count": 6,
      "max": [
        1,
        1,
        1
      ],
      "min": [
        0,
        0,
        0
      ],
      "type": "VEC3"
    },
    {
      "bufferView": 2,
      "componentType": 5126,
      "count": 4836,
      "max": [
        -282.5115661621094,
        105.03562927246094,
        -80.06963348388672
      ],
      "min": [
        -319.51263427734375,
        -127.08220672607422,
        -120.20005798339844
      ],
      "type": "VEC3"
    },
    {
      "bufferView": 3,
      "componentType": 5126,
      "count": 4836,
      "max": [
        34.97688293457031,
        210.07125854492188
      ],
      "min": [
        -39.0252685546875,
        -254.16441345214844
      ],
      "type": "VEC2"
    },
    {
      "bufferView": 4,
      "componentType": 5126,
      "count": 4836,
      "max": [
        0.7797644734382629,
        0.9366458058357239,
        0.77623051404953
      ],
      "min": [
        -0.7797483801841736,
        -0.980930745601654,
        -0.7762584090232849
      ],
      "type": "VEC3"
    },
    {
      "bufferView": 5,
      "componentType": 5126,
      "count": 4836,
      "max": [
        -280.5072326660156,
        101.19656372070312,
        119.88631439208984
      ],
      "min": [
        -319.0887145996094,
        -128.2238006591797,
        81.80970764160156
      ],
      "type": "VEC3"
    },
    {
      "bufferView": 6,
      "componentType": 5126,
      "count": 4836,
      "max": [
        38.985530853271484,
        202.39312744140625
      ],
      "min": [
        -38.177452087402344,
        -256.4476013183594
      ],
      "type": "VEC2"
    },
    {
      "bufferView": 7,
      "componentType": 5126,
      "count": 4836,
      "max": [
        0.7696025967597961,
        0.9968096017837524,
        0.7710948586463928
      ],
      "min": [
        -0.769602358341217,
        -0.9584910869598389,
        -0.7710960507392883
      ],
      "type": "VEC3"
    },
    {
      "bufferView": 8,
      "componentType": 5126,
      "count": 4836,
      "max": [
        -84.94501495361328,
        101.80571746826172,
        -84.71707153320312
      ],
      "min": [
        -114.48360443115234,
        -127.57099914550781,
        -114.55998992919922
      ],
      "type": "VEC3"
    },
    {
      "bufferView": 9,
      "componentType": 5126,
      "count": 4836,
      "max": [
        147.7615509033203,
        203.61143493652344
      ],
      "min": [
        -85.76239776611328,
        -255.14199829101562
      ],
      "type": "VEC2"
    },
    {
      "bufferView": 10,
      "componentType": 5126,
      "count": 4836,
      "max": [
        0.959557056427002,
        0.9833753108978271,
        0.9599794745445251
      ],
      "min": [
        -0.959608256816864,
        -0.9634705185890198,
        -0.959974467754364
      ],
      "type": "VEC3"
    },
    {
      "bufferView": 11,
      "componentType": 5126,
      "count": 7260,
      "max": [
        -81.50083923339844,
        104.07722473144531,
        117.2624282836914
      ],
      "min": [
        -119.61075592041016,
        -126.33540344238281,
        82.01756286621094
      ],
      "type": "VEC3"
    },
    {
      "bufferView": 12,
      "componentType": 5126,
      "count": 7260,
      "max": [
        208.15444946289062,
        208.15444946289062
      ],
      "min": [
        -39.22150802612305,
        -252.67080688476562
      ],
      "type": "VEC2"
    },
    {
      "bufferView": 13,
      "componentType": 5126,
      "count": 7260,
      "max": [
        0.9994297027587891,
        0.9521864652633667,
        0.9621217250823975
      ],
      "min": [
        -0.9994293451309204,
        -0.9960188865661621,
        -0.9618772268295288
      ],
      "type": "VEC3"
    },
    {
      "bufferView": 14,
      "componentType": 5126,
      "count": 4836,
      "max": [
        115.2767105102539,
        102.97156524658203,
        -86.29680633544922
      ],
      "min": [
        86.49876403808594,
        -128.65945434570312,
        -114.59172821044922
      ],
      "type": "VEC3"
    },
    {
      "bufferView": 15,
      "componentType": 5126,
      "count": 4836,
      "max": [
        30.553422927856445,
        205.94313049316406
      ],
      "min": [
        -255.74900817871094,
        -257.31890869140625
      ],
      "type": "VEC2"
    },
    {
      "bufferView": 16,
      "componentType": 5126,
      "count": 4836,
      "max": [
        0.9400708079338074,
        0.9533911347389221,
        0.9395316243171692
      ],
      "min": [
        -0.9400708079338074,
        -0.92936772108078,
        -0.9395318031311035
      ],
      "type": "VEC3"
    },
    {
      "bufferView": 17,
      "componentType": 5126,
      "count": 7260,
      "max": [
        115.7771224975586,
        100.61438751220703,
        113.94574737548828
      ],
      "min": [
        85.59063720703125,
        -128.94766235351562,
        85.2563705444336
      ],
      "type": "VEC3"
    },
    {
      "bufferView": 18,
      "componentType": 5126,
      "count": 7260,
      "max": [
        146.18911743164062,
        201.22877502441406
      ],
      "min": [
        -256.100341796875,
        -257.89532470703125
      ],
      "type": "VEC2"
    },
    {
      "bufferView": 19,
      "componentType": 5126,
      "count": 7260,
      "max": [
        0.9861685037612915,
        0.9980128407478333,
        0.9862381815910339
      ],
      "min": [
        -0.9861685037612915,
        -0.9156410694122314,
        -0.9862381815910339
      ],
      "type": "VEC3"
    },
    {
      "bufferView": 20,
      "componentType": 5126,
      "count": 9684,
      "max": [
        319.93939208984375,
        102.64987182617188,
        -79.91808319091797
      ],
      "min": [
        280.4826965332031,
        -125.59992218017578,
        -118.0362548828125
      ],
      "type": "VEC3"
    },
    {
      "bufferView": 21,
      "componentType": 5126,
      "count": 9684,
      "max": [
        102.87957763671875,
        205.29974365234375
      ],
      "min": [
        -99.24475860595703,
        -251.19984436035156
      ],
      "type": "VEC2"
    },
    {
      "bufferView": 22,
      "componentType": 5126,
      "count": 9684,
      "max": [
        0.9915128946304321,
        0.9833842515945435,
        0.9902327656745911
      ],
      "min": [
        -0.9915204048156738,
        -0.9991999268531799,
        -0.9902237057685852
      ],
      "type": "VEC3"
    },
    {
      "bufferView": 23,
      "componentType": 5126,
      "count": 8472,
      "max": [
        317.4632873535156,
        103.26290130615234,
        119.61553955078125
      ],
      "min": [
        280.80426025390625,
        -127.22222137451172,
        81.78361511230469
      ],
      "type": "VEC3"
    },
    {
      "bufferView": 24,
      "componentType": 5126,
      "count": 8472,
      "max": [
        198.9998779296875,
        206.5258026123047
      ],
      "min": [
        -252.16091918945312,
        -254.44444274902344
      ],
      "type": "VEC2"
    },
    {
      "bufferView": 25,
      "componentType": 5126,
      "count": 8472,
      "max": [
        0.9349895715713501,
        0.9758801460266113,
        0.9860778450965881
      ],
      "min": [
        -0.9998994469642639,
        -0.9885793328285217,
        -0.9900782108306885
      ],
      "type": "VEC3"
    }
  ],
  "materials": [
    {
      "pbrMetallicRoughness": {
        "metallicFactor": 0.5,
        "roughnessFactor": 0.5
      }
    },
    {
      "pbrMetallicRoughness": {
        "baseColorFactor": [
          0.45931164289159354,
          0.14535018470529004,
          0.47259618731346964,
          0.4828545660388825
        ],
        "metallicFactor": 0.5,
        "roughnessFactor": 0.5
      },
      "alphaMode": "BLEND",
      "doubleSided": true
    },
    {
      "pbrMetallicRoughness": {
        "baseColorFactor": [
          0.8408497375858348,
          0.8513650915176803,
          0.4395682207349423,
          0.36684503765125936
        ],
        "metallicFactor": 0.5,
        "roughnessFactor": 0.5
      },
      "alphaMode": "BLEND",
      "doubleSided": true
    },
    {
      "pbrMetallicRoughness": {
        "baseColorFactor": [
          0.018723301069939025,
          0.7776783931055684,
          0.6414473540706329,
          0.27970398930961676
        ],
        "metallicFactor": 0.5,
        "roughnessFactor": 0.5
      },
      "alphaMode": "BLEND",
      "doubleSided": true
    },
    {
      "pbrMetallicRoughness": {
        "baseColorFactor": [
          0.45168673585769104,
          0.9777582745501006,
          0.5420651450611791,
          0.4452322338913049
        ],
        "metallicFactor": 0.5,
        "roughnessFactor": 0.5
      },
      "alphaMode": "BLEND",
      "doubleSided": true
    },
    {
      "pbrMetallicRoughness": {
        "baseColorFactor": [
          0.5020699027944502,
          0.3965665869054642,
          0.6535102437751759,
          0.3611932605371455
        ],
        "metallicFactor": 0.5,
        "roughnessFactor": 0.5
      },
      "alphaMode": "BLEND",
      "doubleSided": true
    },
    {
      "pbrMetallicRoughness": {
        "baseColorFactor": [
          0.878951659625905,
          0.44888402141434947,
          0.5014158579077319,
          0.480744276078712
        ],
        "metallicFactor": 0.5,
        "roughnessFactor": 0.5
      },
      "alphaMode": "BLEND",
      "doubleSided": true
    },
    {
      "pbrMetallicRoughness": {
        "baseColorFactor": [
          0.016256178619725503,
          0.4653287730821367,
          0.5922274462256669,
          0.39991728879994787
        ],
        "metallicFactor": 0.5,
        "roughnessFactor": 0.5
      },
      "alphaMode": "BLEND",
      "doubleSided": true
    },
    {
      "pbrMetallicRoughness": {
        "baseColorFactor": [
          0.609652735263007,
          0.9693084227011757,
          0.2642106002128286,
          0.2540663405882173
        ],
        "metallicFactor": 0.5,
        "roughnessFactor": 0.5
      },
      "alphaMode": "BLEND",
      "doubleSided": true
    }
  ],
  "meshes": [
    {
      "primitives": [
        {
          "mode": 1,
          "attributes": {
            "POSITION": 0,
            "COLOR_0": 1
          },
          "material": 0
        }
      ]
    },
    {
      "primitives": [
        {
          "mode": 4,
          "attributes": {
            "POSITION": 2,
            "TEXCOORD_0": 3,
            "NORMAL": 4
          },
          "material": 1
        }
      ]
    },
    {
      "primitives": [
        {
          "mode": 4,
          "attributes": {
            "POSITION": 5,
            "TEXCOORD_0": 6,
            "NORMAL": 7
          },
          "material": 2
        }
      ]
    },
    {
      "primitives": [
        {
          "mode": 4,
          "attributes": {
            "POSITION": 8,
            "TEXCOORD_0": 9,
            "NORMAL": 10
          },
          "material": 3
        }
      ]
    },
    {
      "primitives": [
        {
          "mode": 4,
          "attributes": {
            "POSITION": 11,
            "TEXCOORD_0": 12,
            "NORMAL": 13
          },
          "material": 4
        }
      ]
    },
    {
      "primitives": [
        {
          "mode": 4,
          "attributes": {
            "POSITION": 14,
            "TEXCOORD_0": 15,
            "NORMAL": 16
          },
          "material": 5
        }
      ]
    },
    {
      "primitives": [
        {
          "mode": 4,
          "attributes": {
            "POSITION": 17,
            "TEXCOORD_0": 18,
            "NORMAL": 19
          },
          "material": 6
        }
      ]
    },
    {
      "primitives": [
        {
          "mode": 4,
          "attributes": {
            "POSITION": 20,
            "TEXCOORD_0": 21,
            "NORMAL": 22
          },
          "material": 7
        }
      ]
    },
    {
      "primitives": [
        {
          "mode": 4,
          "attributes": {
            "POSITION": 23,
            "TEXCOORD_0": 24,
            "NORMAL": 25
          },
          "material": 8
        }
      ]
    }
  ]
}