{
  "asset": {
    "version": "2.0",
    "generator": "THREE.GLTFExporter"
  },
  "scenes": [
    {
      "nodes": [
        0,
        1,
        2,
        3,
        4,
        5,
        6
      ]
    }
  ],
  "scene": 0,
  "nodes": [
    {
      "mesh": 0
    },
    {
      "mesh": 1
    },
    {
      "mesh": 2
    },
    {
      "mesh": 3
    },
    {
      "mesh": 4
    },
    {
      "mesh": 5
    },
    {
      "mesh": 6
    }
  ],
  "bufferViews": [
    {
      "buffer": 0,
      "byteOffset": 0,
      "byteLength": 72,
      "target": 34962,
      "byteStride": 12
    },
    {
      "buffer": 0,
      "byteOffset": 72,
      "byteLength": 72,
      "target": 34962,
      "byteStride": 12
    },
    {
      "buffer": 0,
      "byteOffset": 144,
      "byteLength": 95328,
      "target": 34962,
      "byteStride": 12
    },
    {
      "buffer": 0,
      "byteOffset": 95472,
      "byteLength": 63552,
      "target": 34962,
      "byteStride": 8
    },
    {
      "buffer": 0,
      "byteOffset": 159024,
      "byteLength": 95328,
      "target": 34962,
      "byteStride": 12
    },
    {
      "buffer": 0,
      "byteOffset": 254352,
      "byteLength": 69264,
      "target": 34962,
      "byteStride": 12
    },
    {
      "buffer": 0,
      "byteOffset": 323616,
      "byteLength": 46176,
      "target": 34962,
      "byteStride": 8
    },
    {
      "buffer": 0,
      "byteOffset": 369792,
      "byteLength": 69264,
      "target": 34962,
      "byteStride": 12
    },
    {
      "buffer": 0,
      "byteOffset": 439056,
      "byteLength": 242784,
      "target": 34962,
      "byteStride": 12
    },
    {
      "buffer": 0,
      "byteOffset": 681840,
      "byteLength": 161856,
      "target": 34962,
      "byteStride": 8
    },
    {
      "buffer": 0,
      "byteOffset": 843696,
      "byteLength": 242784,
      "target": 34962,
      "byteStride": 12
    },
    {
      "buffer": 0,
      "byteOffset": 1086480,
      "byteLength": 156240,
      "target": 34962,
      "byteStride": 12
    },
    {
      "buffer": 0,
      "byteOffset": 1242720,
      "byteLength": 104160,
      "target": 34962,
      "byteStride": 8
    },
    {
      "buffer": 0,
      "byteOffset": 1346880,
      "byteLength": 156240,
      "target": 34962,
      "byteStride": 12
    },
    {
      "buffer": 0,
      "byteOffset": 1503120,
      "byteLength": 190728,
      "target": 34962,
      "byteStride": 12
    },
    {
      "buffer": 0,
      "byteOffset": 1693848,
      "byteLength": 127152,
      "target": 34962,
      "byteStride": 8
    },
    {
      "buffer": 0,
      "byteOffset": 1821000,
      "byteLength": 190728,
      "target": 34962,
      "byteStride": 12
    },
    {
      "buffer": 0,
      "byteOffset": 2011728,
      "byteLength": 303264,
      "target": 34962,
      "byteStride": 12
    },
    {
      "buffer": 0,
      "byteOffset": 2314992,
      "byteLength": 202176,
      "target": 34962,
      "byteStride": 8
    },
    {
      "buffer": 0,
      "byteOffset": 2517168,
      "byteLength": 303264,
      "target": 34962,
      "byteStride": 12
    }
  ],
  "buffers": [
    {
      "byteLength": 2820432,
      "uri": "data:application/octet-stream;base64,"
    }
  ],
  "accessors": [
    {
      "bufferView": 0,
      "componentType": 5126,
      "count": 6,
      "max": [
        200,
        200,
        200
      ],
      "min": [
        0,
        0,
        0
      ],
      "type": "VEC3"
    },
    {
      "bufferView": 1,
      "componentType": 5126,
      "count": 6,
      "max": [
        1,
        1,
        1
      ],
      "min": [
        0,
        0,
        0
      ],
      "type": "VEC3"
    },
    {
      "bufferView": 2,
      "componentType": 5126,
      "count": 7944,
      "max": [
        -138.17578125,
        64.2895278930664,
        -81.56375122070312
      ],
      "min": [
        -264.9389343261719,
        -64.52129364013672,
        -120.72283172607422
      ],
      "type": "VEC3"
    },
    {
      "bufferView": 3,
      "componentType": 5126,
      "count": 7944,
      "max": [
        128.5790557861328,
        42.44566345214844
      ],
      "min": [
        -129.87786865234375,
        -35.87250518798828
      ],
      "type": "VEC2"
    },
    {
      "bufferView": 4,
      "componentType": 5126,
      "count": 7944,
      "max": [
        0.9998725056648254,
        0.9988794326782227,
        0.9998371005058289
      ],
      "min": [
        -0.999512791633606,
        -0.9974266886711121,
        -0.9994104504585266
      ],
      "type": "VEC3"
    },
    {
      "bufferView": 5,
      "componentType": 5126,
      "count": 5772,
      "max": [
        -141.39117431640625,
        58.53706359863281,
        114.84758758544922
      ],
      "min": [
        -258.62957763671875,
        -58.57018280029297,
        84.483642578125
      ],
      "type": "VEC3"
    },
    {
      "bufferView": 6,
      "componentType": 5126,
      "count": 5772,
      "max": [
        117.21763610839844,
        32.03271484375
      ],
      "min": [
        -117.2591323852539,
        -28.695178985595703
      ],
      "type": "VEC2"
    },
    {
      "bufferView": 7,
      "componentType": 5126,
      "count": 5772,
      "max": [
        0.9573788046836853,
        0.9628016948699951,
        0.8774562478065491
      ],
      "min": [
        -0.9391225576400757,
        -0.962806224822998,
        -0.8767020106315613
      ],
      "type": "VEC3"
    },
    {
      "bufferView": 8,
      "componentType": 5126,
      "count": 20232,
      "max": [
        63.432621002197266,
        62.879390716552734,
        -78.260009765625
      ],
      "min": [
        -62.96420669555664,
        -62.88077926635742,
        -121.65624237060547
      ],
      "type": "VEC3"
    },
    {
      "bufferView": 9,
      "componentType": 5126,
      "count": 20232,
      "max": [
        126.86524200439453,
        44.3124885559082
      ],
      "min": [
        -125.92841339111328,
        -42.479984283447266
      ],
      "type": "VEC2"
    },
    {
      "bufferView": 10,
      "componentType": 5126,
      "count": 20232,
      "max": [
        0.9980035424232483,
        0.999000608921051,
        0.9998374581336975
      ],
      "min": [
        -0.9996614456176758,
        -0.9979346394538879,
        -0.999763011932373
      ],
      "type": "VEC3"
    },
    {
      "bufferView": 11,
      "componentType": 5126,
      "count": 13020,
      "max": [
        60.24696350097656,
        61.360206604003906,
        120.58580017089844
      ],
      "min": [
        -62.602413177490234,
        -61.236976623535156,
        79.00001525878906
      ],
      "type": "VEC3"
    },
    {
      "bufferView": 12,
      "componentType": 5126,
      "count": 13020,
      "max": [
        122.72041320800781,
        43.27420425415039
      ],
      "min": [
        -125.20482635498047,
        -40.171600341796875
      ],
      "type": "VEC2"
    },
    {
      "bufferView": 13,
      "componentType": 5126,
      "count": 13020,
      "max": [
        0.9999511241912842,
        0.9973580837249756,
        0.9995751976966858
      ],
      "min": [
        -0.9985783696174622,
        -0.998114824295044,
        -0.9995884895324707
      ],
      "type": "VEC3"
    },
    {
      "bufferView": 14,
      "componentType": 5126,
      "count": 15894,
      "max": [
        258.6124267578125,
        58.60577392578125,
        -83.98410034179688
      ],
      "min": [
        141.3965301513672,
        -58.46641159057617,
        -116.0828857421875
      ],
      "type": "VEC3"
    },
    {
      "bufferView": 15,
      "componentType": 5126,
      "count": 15894,
      "max": [
        117.2248764038086,
        33.16576385498047
      ],
      "min": [
        -117.2069320678711,
        -31.031808853149414
      ],
      "type": "VEC2"
    },
    {
      "bufferView": 16,
      "componentType": 5126,
      "count": 15894,
      "max": [
        0.9969778656959534,
        0.9999551773071289,
        0.9996444582939148
      ],
      "min": [
        -0.9980902075767517,
        -0.9999322891235352,
        -0.9989708065986633
      ],
      "type": "VEC3"
    },
    {
      "bufferView": 17,
      "componentType": 5126,
      "count": 25272,
      "max": [
        271.3099365234375,
        70.87240600585938,
        120.23143768310547
      ],
      "min": [
        130.05177307128906,
        -70.94854736328125,
        78.57490539550781
      ],
      "type": "VEC3"
    },
    {
      "bufferView": 18,
      "componentType": 5126,
      "count": 25272,
      "max": [
        142.61984252929688,
        43.85019302368164
      ],
      "min": [
        -141.8970947265625,
        -39.4628791809082
      ],
      "type": "VEC2"
    },
    {
      "bufferView": 19,
      "componentType": 5126,
      "count": 25272,
      "max": [
        0.9999711513519287,
        0.9993030428886414,
        0.9987400770187378
      ],
      "min": [
        -0.9992560148239136,
        -0.9996354579925537,
        -0.9991567730903625
      ],
      "type": "VEC3"
    }
  ],
  "materials": [
    {
      "pbrMetallicRoughness": {
        "metallicFactor": 0.5,
        "roughnessFactor": 0.5
      }
    },
    {
      "pbrMetallicRoughness": {
        "baseColorFactor": [
          0.5014332391250067,
          0.43022946509136295,
          0.38040072430146177,
          1
        ],
        "metallicFactor": 0.5,
        "roughnessFactor": 0.5
      },
      "name": "Phong_Textured_1"
    },
    {
      "pbrMetallicRoughness": {
        "baseColorFactor": [
          0.957109622629619,
          0.9375022940234019,
          0.009563330313028917,
          1
        ],
        "metallicFactor": 0.5,
        "roughnessFactor": 0.5
      },
      "name": "Phong_Textured_2"
    },
    {
      "pbrMetallicRoughness": {
        "baseColorFactor": [
          0.796965058840067,
          0.4061517285635463,
          0.21501238502822728,
          1
        ],
        "metallicFactor": 0.5,
        "roughnessFactor": 0.5
      },
      "name": "Phong_Textured_3"
    },
    {
      "pbrMetallicRoughness": {
        "baseColorFactor": [
          0.7441918778946874,
          0.05845550078595685,
          0.6141277762408852,
          1
        ],
        "metallicFactor": 0.5,
        "roughnessFactor": 0.5
      },
      "name": "Phong_Textured_4"
    },
    {
      "pbrMetallicRoughness": {
        "baseColorFactor": [
          0.6847980117211119,
          0.49775190469071995,
          0.5098866609146293,
          1
        ],
        "metallicFactor": 0.5,
        "roughnessFactor": 0.5
      },
      "name": "Phong_Textured_5"
    },
    {
      "pbrMetallicRoughness": {
        "baseColorFactor": [
          0.0641326288863735,
          0.8722763242964735,
          0.4353531153543908,
          1
        ],
        "metallicFactor": 0.5,
        "roughnessFactor": 0.5
      },
      "name": "Phong_Textured_6"
    }
  ],
  "meshes": [
    {
      "primitives": [
        {
          "mode": 1,
          "attributes": {
            "POSITION": 0,
            "COLOR_0": 1
          },
          "material": 0
        }
      ]
    },
    {
      "primitives": [
        {
          "mode": 4,
          "attributes": {
            "POSITION": 2,
            "TEXCOORD_0": 3,
            "NORMAL": 4
          },
          "material": 1
        }
      ]
    },
    {
      "primitives": [
        {
          "mode": 4,
          "attributes": {
            "POSITION": 5,
            "TEXCOORD_0": 6,
            "NORMAL": 7
          },
          "material": 2
        }
      ]
    },
    {
      "primitives": [
        {
          "mode": 4,
          "attributes": {
            "POSITION": 8,
            "TEXCOORD_0": 9,
            "NORMAL": 10
          },
          "material": 3
        }
      ]
    },
    {
      "primitives": [
        {
          "mode": 4,
          "attributes": {
            "POSITION": 11,
            "TEXCOORD_0": 12,
            "NORMAL": 13
          },
          "material": 4
        }
      ]
    },
    {
      "primitives": [
        {
          "mode": 4,
          "attributes": {
            "POSITION": 14,
            "TEXCOORD_0": 15,
            "NORMAL": 16
          },
          "material": 5
        }
      ]
    },
    {
      "primitives": [
        {
          "mode": 4,
          "attributes": {
            "POSITION": 17,
            "TEXCOORD_0": 18,
            "NORMAL": 19
          },
          "material": 6
        }
      ]
    }
  ]
}