{
  "asset": {
    "version": "2.0",
    "generator": "THREE.GLTFExporter"
  },
  "scenes": [
    {
      "nodes": [
        0,
        1,
        2,
        3,
        4,
        5,
        6
      ]
    }
  ],
  "scene": 0,
  "nodes": [
    {
      "mesh": 0
    },
    {
      "mesh": 1
    },
    {
      "mesh": 2
    },
    {
      "mesh": 3
    },
    {
      "mesh": 4
    },
    {
      "mesh": 5
    },
    {
      "mesh": 6
    }
  ],
  "bufferViews": [
    {
      "buffer": 0,
      "byteOffset": 0,
      "byteLength": 72,
      "target": 34962,
      "byteStride": 12
    },
    {
      "buffer": 0,
      "byteOffset": 72,
      "byteLength": 72,
      "target": 34962,
      "byteStride": 12
    },
    {
      "buffer": 0,
      "byteOffset": 144,
      "byteLength": 145296,
      "target": 34962,
      "byteStride": 12
    },
    {
      "buffer": 0,
      "byteOffset": 145440,
      "byteLength": 96864,
      "target": 34962,
      "byteStride": 8
    },
    {
      "buffer": 0,
      "byteOffset": 242304,
      "byteLength": 145296,
      "target": 34962,
      "byteStride": 12
    },
    {
      "buffer": 0,
      "byteOffset": 387600,
      "byteLength": 58032,
      "target": 34962,
      "byteStride": 12
    },
    {
      "buffer": 0,
      "byteOffset": 445632,
      "byteLength": 38688,
      "target": 34962,
      "byteStride": 8
    },
    {
      "buffer": 0,
      "byteOffset": 484320,
      "byteLength": 58032,
      "target": 34962,
      "byteStride": 12
    },
    {
      "buffer": 0,
      "byteOffset": 542352,
      "byteLength": 159840,
      "target": 34962,
      "byteStride": 12
    },
    {
      "buffer": 0,
      "byteOffset": 702192,
      "byteLength": 106560,
      "target": 34962,
      "byteStride": 8
    },
    {
      "buffer": 0,
      "byteOffset": 808752,
      "byteLength": 159840,
      "target": 34962,
      "byteStride": 12
    },
    {
      "buffer": 0,
      "byteOffset": 968592,
      "byteLength": 28944,
      "target": 34962,
      "byteStride": 12
    },
    {
      "buffer": 0,
      "byteOffset": 997536,
      "byteLength": 19296,
      "target": 34962,
      "byteStride": 8
    },
    {
      "buffer": 0,
      "byteOffset": 1016832,
      "byteLength": 28944,
      "target": 34962,
      "byteStride": 12
    },
    {
      "buffer": 0,
      "byteOffset": 1045776,
      "byteLength": 28944,
      "target": 34962,
      "byteStride": 12
    },
    {
      "buffer": 0,
      "byteOffset": 1074720,
      "byteLength": 19296,
      "target": 34962,
      "byteStride": 8
    },
    {
      "buffer": 0,
      "byteOffset": 1094016,
      "byteLength": 28944,
      "target": 34962,
      "byteStride": 12
    },
    {
      "buffer": 0,
      "byteOffset": 1122960,
      "byteLength": 36216,
      "target": 34962,
      "byteStride": 12
    },
    {
      "buffer": 0,
      "byteOffset": 1159176,
      "byteLength": 24144,
      "target": 34962,
      "byteStride": 8
    },
    {
      "buffer": 0,
      "byteOffset": 1183320,
      "byteLength": 36216,
      "target": 34962,
      "byteStride": 12
    }
  ],
  "buffers": [
    {
      "byteLength": 1219536,
      "uri": "data:application/octet-stream;base64,"
    }
  ],
  "accessors": [
    {
      "bufferView": 0,
      "componentType": 5126,
      "count": 6,
      "max": [
        200,
        200,
        200
      ],
      "min": [
        0,
        0,
        0
      ],
      "type": "VEC3"
    },
    {
      "bufferView": 1,
      "componentType": 5126,
      "count": 6,
      "max": [
        1,
        1,
        1
      ],
      "min": [
        0,
        0,
        0
      ],
      "type": "VEC3"
    },
    {
      "bufferView": 2,
      "componentType": 5126,
      "count": 12108,
      "max": [
        -81.55084991455078,
        103.26092529296875,
        -179.49476623535156
      ],
      "min": [
        -118.68971252441406,
        -127.97422790527344,
        -219.47669982910156
      ],
      "type": "VEC3"
    },
    {
      "bufferView": 3,
      "componentType": 5126,
      "count": 12108,
      "max": [
        100.03334045410156,
        206.5218505859375
      ],
      "min": [
        -182.6327362060547,
        -255.94845581054688
      ],
      "type": "VEC2"
    },
    {
      "bufferView": 4,
      "componentType": 5126,
      "count": 12108,
      "max": [
        0.9826256036758423,
        0.9758877158164978,
        0.9998806118965149
      ],
      "min": [
        -0.9826234579086304,
        -0.9798098206520081,
        -0.9998807311058044
      ],
      "type": "VEC3"
    },
    {
      "bufferView": 5,
      "componentType": 5126,
      "count": 4836,
      "max": [
        -86.85906982421875,
        102.1381607055664,
        14.805789947509766
      ],
      "min": [
        -114.94773864746094,
        -127.19187927246094,
        -14.49085521697998
      ],
      "type": "VEC3"
    },
    {
      "bufferView": 6,
      "componentType": 5126,
      "count": 4836,
      "max": [
        26.281856536865234,
        204.2763214111328
      ],
      "min": [
        -190.30172729492188,
        -254.38375854492188
      ],
      "type": "VEC2"
    },
    {
      "bufferView": 7,
      "componentType": 5126,
      "count": 4836,
      "max": [
        0.9581680297851562,
        0.9738099575042725,
        0.9579454064369202
      ],
      "min": [
        -0.9581681489944458,
        -0.9738382697105408,
        -0.95793616771698
      ],
      "type": "VEC3"
    },
    {
      "bufferView": 8,
      "componentType": 5126,
      "count": 13320,
      "max": [
        -80.0343017578125,
        105.2188949584961,
        218.93165588378906
      ],
      "min": [
        -119.9666976928711,
        -128.4092254638672,
        181.35174560546875
      ],
      "type": "VEC3"
    },
    {
      "bufferView": 9,
      "componentType": 5126,
      "count": 13320,
      "max": [
        210.4377899169922,
        210.4377899169922
      ],
      "min": [
        -254.0873565673828,
        -256.8184509277344
      ],
      "type": "VEC2"
    },
    {
      "bufferView": 10,
      "componentType": 5126,
      "count": 13320,
      "max": [
        0.9999293088912964,
        0.9332535266876221,
        0.9923237562179565
      ],
      "min": [
        -0.9999307990074158,
        -0.9736634492874146,
        -0.9946721196174622
      ],
      "type": "VEC3"
    },
    {
      "bufferView": 11,
      "componentType": 5126,
      "count": 2412,
      "max": [
        114.50824737548828,
        101.36907196044922,
        -185.822021484375
      ],
      "min": [
        87.02168273925781,
        -127.51731872558594,
        -212.9755401611328
      ],
      "type": "VEC3"
    },
    {
      "bufferView": 12,
      "componentType": 5126,
      "count": 2412,
      "max": [
        29.016498565673828,
        202.73814392089844
      ],
      "min": [
        -25.956640243530273,
        -255.03463745117188
      ],
      "type": "VEC2"
    },
    {
      "bufferView": 13,
      "componentType": 5126,
      "count": 2412,
      "max": [
        0.7525888681411743,
        0.9901299476623535,
        0.7588694095611572
      ],
      "min": [
        -0.7525895237922668,
        -0.9590229392051697,
        -0.7588695883750916
      ],
      "type": "VEC3"
    },
    {
      "bufferView": 14,
      "componentType": 5126,
      "count": 2412,
      "max": [
        113.77725219726562,
        102.13904571533203,
        13.604564666748047
      ],
      "min": [
        84.90389251708984,
        -126.96226501464844,
        -15.155052185058594
      ],
      "type": "VEC3"
    },
    {
      "bufferView": 15,
      "componentType": 5126,
      "count": 2412,
      "max": [
        27.55451202392578,
        204.27809143066406
      ],
      "min": [
        -30.192214965820312,
        -253.92453002929688
      ],
      "type": "VEC2"
    },
    {
      "bufferView": 16,
      "componentType": 5126,
      "count": 2412,
      "max": [
        0.7233175039291382,
        0.9758775234222412,
        0.7259616255760193
      ],
      "min": [
        -0.7233179211616516,
        -0.9758615493774414,
        -0.7259616851806641
      ],
      "type": "VEC3"
    },
    {
      "bufferView": 17,
      "componentType": 5126,
      "count": 3018,
      "max": [
        113.88404846191406,
        104.03410339355469,
        212.7176513671875
      ],
      "min": [
        85.21929931640625,
        -126.92395782470703,
        185.46617126464844
      ],
      "type": "VEC3"
    },
    {
      "bufferView": 18,
      "componentType": 5126,
      "count": 3018,
      "max": [
        208.06820678710938,
        208.06820678710938
      ],
      "min": [
        -144.29104614257812,
        -253.84791564941406
      ],
      "type": "VEC2"
    },
    {
      "bufferView": 19,
      "componentType": 5126,
      "count": 3018,
      "max": [
        0.9507832527160645,
        0.9150694012641907,
        0.9999889135360718
      ],
      "min": [
        -0.9769004583358765,
        -0.9803640842437744,
        -0.8539164662361145
      ],
      "type": "VEC3"
    }
  ],
  "materials": [
    {
      "pbrMetallicRoughness": {
        "metallicFactor": 0.5,
        "roughnessFactor": 0.5
      }
    },
    {
      "pbrMetallicRoughness": {
        "baseColorFactor": [
          0.5014332391250067,
          0.43022946509136295,
          0.38040072430146177,
          1
        ],
        "metallicFactor": 0.5,
        "roughnessFactor": 0.5
      },
      "name": "Phong_Textured_1"
    },
    {
      "pbrMetallicRoughness": {
        "baseColorFactor": [
          0.957109622629619,
          0.9375022940234019,
          0.009563330313028917,
          1
        ],
        "metallicFactor": 0.5,
        "roughnessFactor": 0.5
      },
      "name": "Phong_Textured_2"
    },
    {
      "pbrMetallicRoughness": {
        "baseColorFactor": [
          0.796965058840067,
          0.4061517285635463,
          0.21501238502822728,
          1
        ],
        "metallicFactor": 0.5,
        "roughnessFactor": 0.5
      },
      "name": "Phong_Textured_3"
    },
    {
      "pbrMetallicRoughness": {
        "baseColorFactor": [
          0.7441918778946874,
          0.05845550078595685,
          0.6141277762408852,
          1
        ],
        "metallicFactor": 0.5,
        "roughnessFactor": 0.5
      },
      "name": "Phong_Textured_4"
    },
    {
      "pbrMetallicRoughness": {
        "baseColorFactor": [
          0.6847980117211119,
          0.49775190469071995,
          0.5098866609146293,
          1
        ],
        "metallicFactor": 0.5,
        "roughnessFactor": 0.5
      },
      "name": "Phong_Textured_5"
    },
    {
      "pbrMetallicRoughness": {
        "baseColorFactor": [
          0.0641326288863735,
          0.8722763242964735,
          0.4353531153543908,
          1
        ],
        "metallicFactor": 0.5,
        "roughnessFactor": 0.5
      },
      "name": "Phong_Textured_6"
    }
  ],
  "meshes": [
    {
      "primitives": [
        {
          "mode": 1,
          "attributes": {
            "POSITION": 0,
            "COLOR_0": 1
          },
          "material": 0
        }
      ]
    },
    {
      "primitives": [
        {
          "mode": 4,
          "attributes": {
            "POSITION": 2,
            "TEXCOORD_0": 3,
            "NORMAL": 4
          },
          "material": 1
        }
      ]
    },
    {
      "primitives": [
        {
          "mode": 4,
          "attributes": {
            "POSITION": 5,
            "TEXCOORD_0": 6,
            "NORMAL": 7
          },
          "material": 2
        }
      ]
    },
    {
      "primitives": [
        {
          "mode": 4,
          "attributes": {
            "POSITION": 8,
            "TEXCOORD_0": 9,
            "NORMAL": 10
          },
          "material": 3
        }
      ]
    },
    {
      "primitives": [
        {
          "mode": 4,
          "attributes": {
            "POSITION": 11,
            "TEXCOORD_0": 12,
            "NORMAL": 13
          },
          "material": 4
        }
      ]
    },
    {
      "primitives": [
        {
          "mode": 4,
          "attributes": {
            "POSITION": 14,
            "TEXCOORD_0": 15,
            "NORMAL": 16
          },
          "material": 5
        }
      ]
    },
    {
      "primitives": [
        {
          "mode": 4,
          "attributes": {
            "POSITION": 17,
            "TEXCOORD_0": 18,
            "NORMAL": 19
          },
          "material": 6
        }
      ]
    }
  ]
}