{
  "asset": {
    "version": "2.0",
    "generator": "THREE.GLTFExporter"
  },
  "scenes": [
    {
      "nodes": [
        0,
        1,
        2,
        3,
        4,
        5,
        6
      ]
    }
  ],
  "scene": 0,
  "nodes": [
    {
      "mesh": 0
    },
    {
      "mesh": 1
    },
    {
      "mesh": 2
    },
    {
      "mesh": 3
    },
    {
      "mesh": 4
    },
    {
      "mesh": 5
    },
    {
      "mesh": 6
    }
  ],
  "bufferViews": [
    {
      "buffer": 0,
      "byteOffset": 0,
      "byteLength": 72,
      "target": 34962,
      "byteStride": 12
    },
    {
      "buffer": 0,
      "byteOffset": 72,
      "byteLength": 72,
      "target": 34962,
      "byteStride": 12
    },
    {
      "buffer": 0,
      "byteOffset": 144,
      "byteLength": 43488,
      "target": 34962,
      "byteStride": 12
    },
    {
      "buffer": 0,
      "byteOffset": 43632,
      "byteLength": 28992,
      "target": 34962,
      "byteStride": 8
    },
    {
      "buffer": 0,
      "byteOffset": 72624,
      "byteLength": 43488,
      "target": 34962,
      "byteStride": 12
    },
    {
      "buffer": 0,
      "byteOffset": 116112,
      "byteLength": 145296,
      "target": 34962,
      "byteStride": 12
    },
    {
      "buffer": 0,
      "byteOffset": 261408,
      "byteLength": 96864,
      "target": 34962,
      "byteStride": 8
    },
    {
      "buffer": 0,
      "byteOffset": 358272,
      "byteLength": 145296,
      "target": 34962,
      "byteStride": 12
    },
    {
      "buffer": 0,
      "byteOffset": 503568,
      "byteLength": 28944,
      "target": 34962,
      "byteStride": 12
    },
    {
      "buffer": 0,
      "byteOffset": 532512,
      "byteLength": 19296,
      "target": 34962,
      "byteStride": 8
    },
    {
      "buffer": 0,
      "byteOffset": 551808,
      "byteLength": 28944,
      "target": 34962,
      "byteStride": 12
    },
    {
      "buffer": 0,
      "byteOffset": 580752,
      "byteLength": 58032,
      "target": 34962,
      "byteStride": 12
    },
    {
      "buffer": 0,
      "byteOffset": 638784,
      "byteLength": 38688,
      "target": 34962,
      "byteStride": 8
    },
    {
      "buffer": 0,
      "byteOffset": 677472,
      "byteLength": 58032,
      "target": 34962,
      "byteStride": 12
    },
    {
      "buffer": 0,
      "byteOffset": 735504,
      "byteLength": 159840,
      "target": 34962,
      "byteStride": 12
    },
    {
      "buffer": 0,
      "byteOffset": 895344,
      "byteLength": 106560,
      "target": 34962,
      "byteStride": 8
    },
    {
      "buffer": 0,
      "byteOffset": 1001904,
      "byteLength": 159840,
      "target": 34962,
      "byteStride": 12
    },
    {
      "buffer": 0,
      "byteOffset": 1161744,
      "byteLength": 145296,
      "target": 34962,
      "byteStride": 12
    },
    {
      "buffer": 0,
      "byteOffset": 1307040,
      "byteLength": 96864,
      "target": 34962,
      "byteStride": 8
    },
    {
      "buffer": 0,
      "byteOffset": 1403904,
      "byteLength": 145296,
      "target": 34962,
      "byteStride": 12
    }
  ],
  "buffers": [
    {
      "byteLength": 1549200,
      "uri": "data:application/octet-stream;base64,"
    }
  ],
  "accessors": [
    {
      "bufferView": 0,
      "componentType": 5126,
      "count": 6,
      "max": [
        200,
        200,
        200
      ],
      "min": [
        0,
        0,
        0
      ],
      "type": "VEC3"
    },
    {
      "bufferView": 1,
      "componentType": 5126,
      "count": 6,
      "max": [
        1,
        1,
        1
      ],
      "min": [
        0,
        0,
        0
      ],
      "type": "VEC3"
    },
    {
      "bufferView": 2,
      "componentType": 5126,
      "count": 3624,
      "max": [
        -82.07935333251953,
        101.73651123046875,
        -182.9578399658203
      ],
      "min": [
        -115.23868560791016,
        -126.20325469970703,
        -217.55615234375
      ],
      "type": "VEC3"
    },
    {
      "bufferView": 3,
      "componentType": 5126,
      "count": 3624,
      "max": [
        97.6519546508789,
        203.4730224609375
      ],
      "min": [
        -94.21512603759766,
        -252.40650939941406
      ],
      "type": "VEC2"
    },
    {
      "bufferView": 4,
      "componentType": 5126,
      "count": 3624,
      "max": [
        0.9893976449966431,
        0.993269681930542,
        0.9431678056716919
      ],
      "min": [
        -0.9921689033508301,
        -0.9948412179946899,
        -0.796845018863678
      ],
      "type": "VEC3"
    },
    {
      "bufferView": 5,
      "componentType": 5126,
      "count": 12108,
      "max": [
        -82.56086730957031,
        103.71501159667969,
        20.070566177368164
      ],
      "min": [
        -118.80030822753906,
        -126.66504669189453,
        -19.833337783813477
      ],
      "type": "VEC3"
    },
    {
      "bufferView": 6,
      "componentType": 5126,
      "count": 12108,
      "max": [
        34.87826919555664,
        207.43002319335938
      ],
      "min": [
        -143.77708435058594,
        -253.33009338378906
      ],
      "type": "VEC2"
    },
    {
      "bufferView": 7,
      "componentType": 5126,
      "count": 12108,
      "max": [
        0.9762166142463684,
        0.967586100101471,
        0.9999916553497314
      ],
      "min": [
        -0.976249098777771,
        -0.9936566352844238,
        -0.9999914169311523
      ],
      "type": "VEC3"
    },
    {
      "bufferView": 8,
      "componentType": 5126,
      "count": 2412,
      "max": [
        -84.49828338623047,
        102.40198516845703,
        213.99819946289062
      ],
      "min": [
        -113.83516693115234,
        -127.51837921142578,
        184.9993133544922
      ],
      "type": "VEC3"
    },
    {
      "bufferView": 9,
      "componentType": 5126,
      "count": 2412,
      "max": [
        31.003429412841797,
        204.80397033691406
      ],
      "min": [
        -27.670330047607422,
        -255.03675842285156
      ],
      "type": "VEC2"
    },
    {
      "bufferView": 10,
      "componentType": 5126,
      "count": 2412,
      "max": [
        0.8577505946159363,
        0.9706847071647644,
        0.8583117723464966
      ],
      "min": [
        -0.8577459454536438,
        -0.9675878882408142,
        -0.8583155870437622
      ],
      "type": "VEC3"
    },
    {
      "bufferView": 11,
      "componentType": 5126,
      "count": 4836,
      "max": [
        119.47875213623047,
        104.48836517333984,
        -180.965087890625
      ],
      "min": [
        81.47857666015625,
        -125.89797973632812,
        -219.08407592773438
      ],
      "type": "VEC3"
    },
    {
      "bufferView": 12,
      "componentType": 5126,
      "count": 4836,
      "max": [
        38.95750427246094,
        208.9767303466797
      ],
      "min": [
        -37.04283905029297,
        -251.79595947265625
      ],
      "type": "VEC2"
    },
    {
      "bufferView": 13,
      "componentType": 5126,
      "count": 4836,
      "max": [
        0.91578209400177,
        0.9523747563362122,
        0.9045746922492981
      ],
      "min": [
        -0.9157822132110596,
        -0.9974095821380615,
        -0.9045756459236145
      ],
      "type": "VEC3"
    },
    {
      "bufferView": 14,
      "componentType": 5126,
      "count": 13320,
      "max": [
        118.43002319335938,
        101.29571533203125,
        16.816190719604492
      ],
      "min": [
        80.8247299194336,
        -126.26628112792969,
        -19.339792251586914
      ],
      "type": "VEC3"
    },
    {
      "bufferView": 15,
      "componentType": 5126,
      "count": 13320,
      "max": [
        200.46749877929688,
        202.5914306640625
      ],
      "min": [
        -197.5574188232422,
        -252.53256225585938
      ],
      "type": "VEC2"
    },
    {
      "bufferView": 16,
      "componentType": 5126,
      "count": 13320,
      "max": [
        0.9965537190437317,
        0.9960139989852905,
        0.9999809861183167
      ],
      "min": [
        -0.998060405254364,
        -0.9964103698730469,
        -0.9999883770942688
      ],
      "type": "VEC3"
    },
    {
      "bufferView": 17,
      "componentType": 5126,
      "count": 12108,
      "max": [
        119.49906158447266,
        102.79249572753906,
        218.4210205078125
      ],
      "min": [
        81.07035827636719,
        -128.76287841796875,
        181.4097137451172
      ],
      "type": "VEC3"
    },
    {
      "bufferView": 18,
      "componentType": 5126,
      "count": 12108,
      "max": [
        204.6940155029297,
        205.58499145507812
      ],
      "min": [
        -256.3949279785156,
        -257.5257568359375
      ],
      "type": "VEC2"
    },
    {
      "bufferView": 19,
      "componentType": 5126,
      "count": 12108,
      "max": [
        0.999989926815033,
        0.9824332594871521,
        0.9805336594581604
      ],
      "min": [
        -0.9999873638153076,
        -0.9678049683570862,
        -0.9805359840393066
      ],
      "type": "VEC3"
    }
  ],
  "materials": [
    {
      "pbrMetallicRoughness": {
        "metallicFactor": 0.5,
        "roughnessFactor": 0.5
      }
    },
    {
      "pbrMetallicRoughness": {
        "baseColorFactor": [
          0.480297495532757,
          0.07179850089393791,
          0.4179838912485707,
          1
        ],
        "metallicFactor": 0.5,
        "roughnessFactor": 0.5
      },
      "name": "Phong_NormalMapped_1"
    },
    {
      "pbrMetallicRoughness": {
        "baseColorFactor": [
          0.7931217400452975,
          0.8211936872274352,
          0.7687802156387025,
          1
        ],
        "metallicFactor": 0.5,
        "roughnessFactor": 0.5
      },
      "name": "Phong_NormalMapped_2"
    },
    {
      "pbrMetallicRoughness": {
        "baseColorFactor": [
          0.9365082173199923,
          0.6279572412222845,
          0.6608470558779567,
          1
        ],
        "metallicFactor": 0.5,
        "roughnessFactor": 0.5
      },
      "name": "Phong_NormalMapped_3"
    },
    {
      "pbrMetallicRoughness": {
        "baseColorFactor": [
          0.4123863600115647,
          0.6470754448745617,
          0.25271648751909925,
          1
        ],
        "metallicFactor": 0.5,
        "roughnessFactor": 0.5
      },
      "name": "Phong_NormalMapped_4"
    },
    {
      "pbrMetallicRoughness": {
        "baseColorFactor": [
          0.06414843453361674,
          0.622613405596359,
          0.4833174891344496,
          1
        ],
        "metallicFactor": 0.5,
        "roughnessFactor": 0.5
      },
      "name": "Phong_NormalMapped_5"
    },
    {
      "pbrMetallicRoughness": {
        "baseColorFactor": [
          0.44789391304327375,
          0.6739697014346295,
          0.3712741738051446,
          1
        ],
        "metallicFactor": 0.5,
        "roughnessFactor": 0.5
      },
      "name": "Phong_NormalMapped_6"
    }
  ],
  "meshes": [
    {
      "primitives": [
        {
          "mode": 1,
          "attributes": {
            "POSITION": 0,
            "COLOR_0": 1
          },
          "material": 0
        }
      ]
    },
    {
      "primitives": [
        {
          "mode": 4,
          "attributes": {
            "POSITION": 2,
            "TEXCOORD_0": 3,
            "NORMAL": 4
          },
          "material": 1
        }
      ]
    },
    {
      "primitives": [
        {
          "mode": 4,
          "attributes": {
            "POSITION": 5,
            "TEXCOORD_0": 6,
            "NORMAL": 7
          },
          "material": 2
        }
      ]
    },
    {
      "primitives": [
        {
          "mode": 4,
          "attributes": {
            "POSITION": 8,
            "TEXCOORD_0": 9,
            "NORMAL": 10
          },
          "material": 3
        }
      ]
    },
    {
      "primitives": [
        {
          "mode": 4,
          "attributes": {
            "POSITION": 11,
            "TEXCOORD_0": 12,
            "NORMAL": 13
          },
          "material": 4
        }
      ]
    },
    {
      "primitives": [
        {
          "mode": 4,
          "attributes": {
            "POSITION": 14,
            "TEXCOORD_0": 15,
            "NORMAL": 16
          },
          "material": 5
        }
      ]
    },
    {
      "primitives": [
        {
          "mode": 4,
          "attributes": {
            "POSITION": 17,
            "TEXCOORD_0": 18,
            "NORMAL": 19
          },
          "material": 6
        }
      ]
    }
  ]
}