{
  "asset": {
    "version": "2.0",
    "generator": "THREE.GLTFExporter"
  },
  "scenes": [
    {
      "nodes": [
        0,
        1,
        2,
        3,
        4
      ]
    }
  ],
  "scene": 0,
  "nodes": [
    {
      "mesh": 0
    },
    {
      "mesh": 1
    },
    {
      "mesh": 2
    },
    {
      "mesh": 3
    },
    {
      "mesh": 4
    }
  ],
  "bufferViews": [
    {
      "buffer": 0,
      "byteOffset": 0,
      "byteLength": 72,
      "target": 34962,
      "byteStride": 12
    },
    {
      "buffer": 0,
      "byteOffset": 72,
      "byteLength": 72,
      "target": 34962,
      "byteStride": 12
    },
    {
      "buffer": 0,
      "byteOffset": 144,
      "byteLength": 58032,
      "target": 34962,
      "byteStride": 12
    },
    {
      "buffer": 0,
      "byteOffset": 58176,
      "byteLength": 38688,
      "target": 34962,
      "byteStride": 8
    },
    {
      "buffer": 0,
      "byteOffset": 96864,
      "byteLength": 58032,
      "target": 34962,
      "byteStride": 12
    },
    {
      "buffer": 0,
      "byteOffset": 154896,
      "byteLength": 145296,
      "target": 34962,
      "byteStride": 12
    },
    {
      "buffer": 0,
      "byteOffset": 300192,
      "byteLength": 96864,
      "target": 34962,
      "byteStride": 8
    },
    {
      "buffer": 0,
      "byteOffset": 397056,
      "byteLength": 145296,
      "target": 34962,
      "byteStride": 12
    },
    {
      "buffer": 0,
      "byteOffset": 542352,
      "byteLength": 101664,
      "target": 34962,
      "byteStride": 12
    },
    {
      "buffer": 0,
      "byteOffset": 644016,
      "byteLength": 67776,
      "target": 34962,
      "byteStride": 8
    },
    {
      "buffer": 0,
      "byteOffset": 711792,
      "byteLength": 101664,
      "target": 34962,
      "byteStride": 12
    },
    {
      "buffer": 0,
      "byteOffset": 813456,
      "byteLength": 159840,
      "target": 34962,
      "byteStride": 12
    },
    {
      "buffer": 0,
      "byteOffset": 973296,
      "byteLength": 106560,
      "target": 34962,
      "byteStride": 8
    },
    {
      "buffer": 0,
      "byteOffset": 1079856,
      "byteLength": 159840,
      "target": 34962,
      "byteStride": 12
    }
  ],
  "buffers": [
    {
      "byteLength": 1239696,
      "uri": "data:application/octet-stream;base64,"
    }
  ],
  "accessors": [
    {
      "bufferView": 0,
      "componentType": 5126,
      "count": 6,
      "max": [
        200,
        200,
        200
      ],
      "min": [
        0,
        0,
        0
      ],
      "type": "VEC3"
    },
    {
      "bufferView": 1,
      "componentType": 5126,
      "count": 6,
      "max": [
        1,
        1,
        1
      ],
      "min": [
        0,
        0,
        0
      ],
      "type": "VEC3"
    },
    {
      "bufferView": 2,
      "componentType": 5126,
      "count": 4836,
      "max": [
        -87.62576293945312,
        100.9955062866211,
        -85.05210876464844
      ],
      "min": [
        -112.64537811279297,
        -126.58094024658203,
        -114.12273406982422
      ],
      "type": "VEC3"
    },
    {
      "bufferView": 3,
      "componentType": 5126,
      "count": 4836,
      "max": [
        90.34178161621094,
        201.9910125732422
      ],
      "min": [
        -25.29075050354004,
        -253.16188049316406
      ],
      "type": "VEC2"
    },
    {
      "bufferView": 4,
      "componentType": 5126,
      "count": 4836,
      "max": [
        0.934626042842865,
        0.9950301051139832,
        0.9345055222511292
      ],
      "min": [
        -0.9346258640289307,
        -0.9872303605079651,
        -0.9345313906669617
      ],
      "type": "VEC3"
    },
    {
      "bufferView": 5,
      "componentType": 5126,
      "count": 12108,
      "max": [
        -81.06403350830078,
        100.29973602294922,
        117.53102111816406
      ],
      "min": [
        -118.51092529296875,
        -128.57537841796875,
        80.48668670654297
      ],
      "type": "VEC3"
    },
    {
      "bufferView": 6,
      "componentType": 5126,
      "count": 12108,
      "max": [
        97.73017120361328,
        200.59947204589844
      ],
      "min": [
        -247.10806274414062,
        -257.1507568359375
      ],
      "type": "VEC2"
    },
    {
      "bufferView": 7,
      "componentType": 5126,
      "count": 12108,
      "max": [
        0.9799649715423584,
        0.9998000860214233,
        0.9999459385871887
      ],
      "min": [
        -0.9799655079841614,
        -0.9686856269836426,
        -0.9999459981918335
      ],
      "type": "VEC3"
    },
    {
      "bufferView": 8,
      "componentType": 5126,
      "count": 8472,
      "max": [
        118.31741333007812,
        101.21808624267578,
        -82.41413879394531
      ],
      "min": [
        80.64102172851562,
        -128.109619140625,
        -120.04454803466797
      ],
      "type": "VEC3"
    },
    {
      "bufferView": 9,
      "componentType": 5126,
      "count": 8472,
      "max": [
        200.14340209960938,
        202.43617248535156
      ],
      "min": [
        -253.00096130371094,
        -256.21923828125
      ],
      "type": "VEC2"
    },
    {
      "bufferView": 10,
      "componentType": 5126,
      "count": 8472,
      "max": [
        0.9982768893241882,
        0.996609091758728,
        0.994792640209198
      ],
      "min": [
        -0.999778151512146,
        -0.9753032326698303,
        -0.9712997078895569
      ],
      "type": "VEC3"
    },
    {
      "bufferView": 11,
      "componentType": 5126,
      "count": 13320,
      "max": [
        118.8505859375,
        100.41946411132812,
        117.15402221679688
      ],
      "min": [
        80.59856414794922,
        -126.2291259765625,
        80.52362823486328
      ],
      "type": "VEC3"
    },
    {
      "bufferView": 12,
      "componentType": 5126,
      "count": 13320,
      "max": [
        151.040771484375,
        200.83892822265625
      ],
      "min": [
        -252.20330810546875,
        -252.458251953125
      ],
      "type": "VEC2"
    },
    {
      "bufferView": 13,
      "componentType": 5126,
      "count": 13320,
      "max": [
        0.9997604489326477,
        0.9996002912521362,
        0.9967172741889954
      ],
      "min": [
        -0.9997496604919434,
        -0.9966040253639221,
        -0.9981826543807983
      ],
      "type": "VEC3"
    }
  ],
  "materials": [
    {
      "pbrMetallicRoughness": {
        "metallicFactor": 0.5,
        "roughnessFactor": 0.5
      }
    },
    {
      "pbrMetallicRoughness": {
        "baseColorFactor": [
          0.46795580517935975,
          0.02276257121809966,
          0.3570666506142737,
          1
        ],
        "metallicFactor": 0,
        "roughnessFactor": 1
      },
      "name": "Std_Textured_1"
    },
    {
      "pbrMetallicRoughness": {
        "baseColorFactor": [
          0.13989672969605715,
          0.6652762728584127,
          0.6888380319728251,
          1
        ],
        "metallicFactor": 0,
        "roughnessFactor": 1
      },
      "name": "Std_Textured_2"
    },
    {
      "pbrMetallicRoughness": {
        "baseColorFactor": [
          0.055493317507278705,
          0.8962117249542056,
          0.7748701782102154,
          1
        ],
        "metallicFactor": 0,
        "roughnessFactor": 1
      },
      "name": "Std_Textured_3"
    },
    {
      "pbrMetallicRoughness": {
        "baseColorFactor": [
          0.9245208334943404,
          0.5556759310910924,
          0.03665666820557423,
          1
        ],
        "metallicFactor": 0,
        "roughnessFactor": 1
      },
      "name": "Std_Textured_4"
    }
  ],
  "meshes": [
    {
      "primitives": [
        {
          "mode": 1,
          "attributes": {
            "POSITION": 0,
            "COLOR_0": 1
          },
          "material": 0
        }
      ]
    },
    {
      "primitives": [
        {
          "mode": 4,
          "attributes": {
            "POSITION": 2,
            "TEXCOORD_0": 3,
            "NORMAL": 4
          },
          "material": 1
        }
      ]
    },
    {
      "primitives": [
        {
          "mode": 4,
          "attributes": {
            "POSITION": 5,
            "TEXCOORD_0": 6,
            "NORMAL": 7
          },
          "material": 2
        }
      ]
    },
    {
      "primitives": [
        {
          "mode": 4,
          "attributes": {
            "POSITION": 8,
            "TEXCOORD_0": 9,
            "NORMAL": 10
          },
          "material": 3
        }
      ]
    },
    {
      "primitives": [
        {
          "mode": 4,
          "attributes": {
            "POSITION": 11,
            "TEXCOORD_0": 12,
            "NORMAL": 13
          },
          "material": 4
        }
      ]
    }
  ]
}