{
  "asset": {
    "version": "2.0",
    "generator": "THREE.GLTFExporter"
  },
  "scenes": [
    {
      "nodes": [
        0,
        1,
        2,
        3,
        4,
        5,
        6
      ]
    }
  ],
  "scene": 0,
  "nodes": [
    {
      "mesh": 0
    },
    {
      "mesh": 1
    },
    {
      "mesh": 2
    },
    {
      "mesh": 3
    },
    {
      "mesh": 4
    },
    {
      "mesh": 5
    },
    {
      "mesh": 6
    }
  ],
  "bufferViews": [
    {
      "buffer": 0,
      "byteOffset": 0,
      "byteLength": 72,
      "target": 34962,
      "byteStride": 12
    },
    {
      "buffer": 0,
      "byteOffset": 72,
      "byteLength": 72,
      "target": 34962,
      "byteStride": 12
    },
    {
      "buffer": 0,
      "byteOffset": 144,
      "byteLength": 9936,
      "target": 34962,
      "byteStride": 12
    },
    {
      "buffer": 0,
      "byteOffset": 10080,
      "byteLength": 6624,
      "target": 34962,
      "byteStride": 8
    },
    {
      "buffer": 0,
      "byteOffset": 16704,
      "byteLength": 9936,
      "target": 34962,
      "byteStride": 12
    },
    {
      "buffer": 0,
      "byteOffset": 26640,
      "byteLength": 8928,
      "target": 34962,
      "byteStride": 12
    },
    {
      "buffer": 0,
      "byteOffset": 35568,
      "byteLength": 5952,
      "target": 34962,
      "byteStride": 8
    },
    {
      "buffer": 0,
      "byteOffset": 41520,
      "byteLength": 8928,
      "target": 34962,
      "byteStride": 12
    },
    {
      "buffer": 0,
      "byteOffset": 50448,
      "byteLength": 9936,
      "target": 34962,
      "byteStride": 12
    },
    {
      "buffer": 0,
      "byteOffset": 60384,
      "byteLength": 6624,
      "target": 34962,
      "byteStride": 8
    },
    {
      "buffer": 0,
      "byteOffset": 67008,
      "byteLength": 9936,
      "target": 34962,
      "byteStride": 12
    },
    {
      "buffer": 0,
      "byteOffset": 76944,
      "byteLength": 5904,
      "target": 34962,
      "byteStride": 12
    },
    {
      "buffer": 0,
      "byteOffset": 82848,
      "byteLength": 3936,
      "target": 34962,
      "byteStride": 8
    },
    {
      "buffer": 0,
      "byteOffset": 86784,
      "byteLength": 5904,
      "target": 34962,
      "byteStride": 12
    },
    {
      "buffer": 0,
      "byteOffset": 92688,
      "byteLength": 20016,
      "target": 34962,
      "byteStride": 12
    },
    {
      "buffer": 0,
      "byteOffset": 112704,
      "byteLength": 13344,
      "target": 34962,
      "byteStride": 8
    },
    {
      "buffer": 0,
      "byteOffset": 126048,
      "byteLength": 20016,
      "target": 34962,
      "byteStride": 12
    },
    {
      "buffer": 0,
      "byteOffset": 146064,
      "byteLength": 13968,
      "target": 34962,
      "byteStride": 12
    },
    {
      "buffer": 0,
      "byteOffset": 160032,
      "byteLength": 9312,
      "target": 34962,
      "byteStride": 8
    },
    {
      "buffer": 0,
      "byteOffset": 169344,
      "byteLength": 13968,
      "target": 34962,
      "byteStride": 12
    }
  ],
  "buffers": [
    {
      "byteLength": 183312,
      "uri": "data:application/octet-stream;base64,"
    }
  ],
  "accessors": [
    {
      "bufferView": 0,
      "componentType": 5126,
      "count": 6,
      "max": [
        200,
        200,
        200
      ],
      "min": [
        0,
        0,
        0
      ],
      "type": "VEC3"
    },
    {
      "bufferView": 1,
      "componentType": 5126,
      "count": 6,
      "max": [
        1,
        1,
        1
      ],
      "min": [
        0,
        0,
        0
      ],
      "type": "VEC3"
    },
    {
      "bufferView": 2,
      "componentType": 5126,
      "count": 828,
      "max": [
        -175.79769897460938,
        23,
        -75
      ],
      "min": [
        -224.20230102539062,
        -23,
        -105
      ],
      "type": "VEC3"
    },
    {
      "bufferView": 3,
      "componentType": 5126,
      "count": 828,
      "max": [
        20,
        19
      ],
      "min": [
        -20,
        -24
      ],
      "type": "VEC2"
    },
    {
      "bufferView": 4,
      "componentType": 5126,
      "count": 828,
      "max": [
        0.9518606066703796,
        1,
        1
      ],
      "min": [
        -0.9518606066703796,
        -1,
        -1
      ],
      "type": "VEC3"
    },
    {
      "bufferView": 5,
      "componentType": 5126,
      "count": 744,
      "max": [
        -175.74278259277344,
        23.893312454223633,
        125
      ],
      "min": [
        -222.8000030517578,
        -23.893312454223633,
        95
      ],
      "type": "VEC3"
    },
    {
      "bufferView": 6,
      "componentType": 5126,
      "count": 744,
      "max": [
        20.98382568359375,
        19.700000762939453
      ],
      "min": [
        -20.98382568359375,
        -24
      ],
      "type": "VEC2"
    },
    {
      "bufferView": 7,
      "componentType": 5126,
      "count": 744,
      "max": [
        0.9395805597305298,
        0.9844952821731567,
        1
      ],
      "min": [
        -1,
        -0.9844952821731567,
        -1
      ],
      "type": "VEC3"
    },
    {
      "bufferView": 8,
      "componentType": 5126,
      "count": 828,
      "max": [
        24.202295303344727,
        23,
        -75
      ],
      "min": [
        -24.202295303344727,
        -23,
        -105
      ],
      "type": "VEC3"
    },
    {
      "bufferView": 9,
      "componentType": 5126,
      "count": 828,
      "max": [
        20,
        19
      ],
      "min": [
        -20,
        -24
      ],
      "type": "VEC2"
    },
    {
      "bufferView": 10,
      "componentType": 5126,
      "count": 828,
      "max": [
        0.9518606066703796,
        1,
        1
      ],
      "min": [
        -0.9518606066703796,
        -1,
        -1
      ],
      "type": "VEC3"
    },
    {
      "bufferView": 11,
      "componentType": 5126,
      "count": 492,
      "max": [
        35.1386604309082,
        30.451040267944336,
        125
      ],
      "min": [
        -29.28565788269043,
        -30.451040267944336,
        95
      ],
      "type": "VEC3"
    },
    {
      "bufferView": 12,
      "componentType": 5126,
      "count": 492,
      "max": [
        30.451040267944336,
        26
      ],
      "min": [
        -30.451040267944336,
        -26
      ],
      "type": "VEC2"
    },
    {
      "bufferView": 13,
      "componentType": 5126,
      "count": 492,
      "max": [
        0.7784129977226257,
        0.987994909286499,
        1
      ],
      "min": [
        -0.9333456158638,
        -0.987994909286499,
        -1
      ],
      "type": "VEC3"
    },
    {
      "bufferView": 14,
      "componentType": 5126,
      "count": 1668,
      "max": [
        235.12767028808594,
        33.375946044921875,
        -75
      ],
      "min": [
        164.87232971191406,
        -33.375946044921875,
        -105
      ],
      "type": "VEC3"
    },
    {
      "bufferView": 15,
      "componentType": 5126,
      "count": 1668,
      "max": [
        33.375946044921875,
        28.5
      ],
      "min": [
        -33.375946044921875,
        -28.5
      ],
      "type": "VEC2"
    },
    {
      "bufferView": 16,
      "componentType": 5126,
      "count": 1668,
      "max": [
        0.998719334602356,
        0.965226411819458,
        1
      ],
      "min": [
        -0.998719334602356,
        -0.965226411819458,
        -1
      ],
      "type": "VEC3"
    },
    {
      "bufferView": 17,
      "componentType": 5126,
      "count": 1164,
      "max": [
        234.86990356445312,
        33.924034118652344,
        125
      ],
      "min": [
        168.6280517578125,
        -33.924034118652344,
        95
      ],
      "type": "VEC3"
    },
    {
      "bufferView": 18,
      "componentType": 5126,
      "count": 1164,
      "max": [
        33.924034118652344,
        29.200000762939453
      ],
      "min": [
        -33.924034118652344,
        -29.200000762939453
      ],
      "type": "VEC2"
    },
    {
      "bufferView": 19,
      "componentType": 5126,
      "count": 1164,
      "max": [
        0.9580336809158325,
        0.9976625442504883,
        1
      ],
      "min": [
        -0.9883716702461243,
        -0.9976625442504883,
        -1
      ],
      "type": "VEC3"
    }
  ],
  "materials": [
    {
      "pbrMetallicRoughness": {
        "metallicFactor": 0.5,
        "roughnessFactor": 0.5
      }
    },
    {
      "pbrMetallicRoughness": {
        "baseColorFactor": [
          0.46795580517935975,
          0.02276257121809966,
          0.3570666506142737,
          1
        ],
        "metallicFactor": 0,
        "roughnessFactor": 1
      },
      "name": "Std_Textured_1"
    },
    {
      "pbrMetallicRoughness": {
        "baseColorFactor": [
          0.13989672969605715,
          0.6652762728584127,
          0.6888380319728251,
          1
        ],
        "metallicFactor": 0,
        "roughnessFactor": 1
      },
      "name": "Std_Textured_2"
    },
    {
      "pbrMetallicRoughness": {
        "baseColorFactor": [
          0.055493317507278705,
          0.8962117249542056,
          0.7748701782102154,
          1
        ],
        "metallicFactor": 0,
        "roughnessFactor": 1
      },
      "name": "Std_Textured_3"
    },
    {
      "pbrMetallicRoughness": {
        "baseColorFactor": [
          0.9245208334943404,
          0.5556759310910924,
          0.03665666820557423,
          1
        ],
        "metallicFactor": 0,
        "roughnessFactor": 1
      },
      "name": "Std_Textured_4"
    },
    {
      "pbrMetallicRoughness": {
        "baseColorFactor": [
          0.4587112758524561,
          0.3531385000721725,
          0.21906996849746063,
          1
        ],
        "metallicFactor": 0,
        "roughnessFactor": 1
      },
      "name": "Std_Textured_5"
    },
    {
      "pbrMetallicRoughness": {
        "baseColorFactor": [
          0.5362400959987317,
          0.6591613229468041,
          0.3282169653100069,
          1
        ],
        "metallicFactor": 0,
        "roughnessFactor": 1
      },
      "name": "Std_Textured_6"
    }
  ],
  "meshes": [
    {
      "primitives": [
        {
          "mode": 1,
          "attributes": {
            "POSITION": 0,
            "COLOR_0": 1
          },
          "material": 0
        }
      ]
    },
    {
      "primitives": [
        {
          "mode": 4,
          "attributes": {
            "POSITION": 2,
            "TEXCOORD_0": 3,
            "NORMAL": 4
          },
          "material": 1
        }
      ]
    },
    {
      "primitives": [
        {
          "mode": 4,
          "attributes": {
            "POSITION": 5,
            "TEXCOORD_0": 6,
            "NORMAL": 7
          },
          "material": 2
        }
      ]
    },
    {
      "primitives": [
        {
          "mode": 4,
          "attributes": {
            "POSITION": 8,
            "TEXCOORD_0": 9,
            "NORMAL": 10
          },
          "material": 3
        }
      ]
    },
    {
      "primitives": [
        {
          "mode": 4,
          "attributes": {
            "POSITION": 11,
            "TEXCOORD_0": 12,
            "NORMAL": 13
          },
          "material": 4
        }
      ]
    },
    {
      "primitives": [
        {
          "mode": 4,
          "attributes": {
            "POSITION": 14,
            "TEXCOORD_0": 15,
            "NORMAL": 16
          },
          "material": 5
        }
      ]
    },
    {
      "primitives": [
        {
          "mode": 4,
          "attributes": {
            "POSITION": 17,
            "TEXCOORD_0": 18,
            "NORMAL": 19
          },
          "material": 6
        }
      ]
    }
  ]
}