{
  "asset": {
    "version": "2.0",
    "generator": "THREE.GLTFExporter"
  },
  "scenes": [
    {
      "nodes": [
        0,
        1,
        2,
        3,
        4,
        5,
        6
      ]
    }
  ],
  "scene": 0,
  "nodes": [
    {
      "mesh": 0
    },
    {
      "mesh": 1
    },
    {
      "mesh": 2
    },
    {
      "mesh": 3
    },
    {
      "mesh": 4
    },
    {
      "mesh": 5
    },
    {
      "mesh": 6
    }
  ],
  "bufferViews": [
    {
      "buffer": 0,
      "byteOffset": 0,
      "byteLength": 72,
      "target": 34962,
      "byteStride": 12
    },
    {
      "buffer": 0,
      "byteOffset": 72,
      "byteLength": 72,
      "target": 34962,
      "byteStride": 12
    },
    {
      "buffer": 0,
      "byteOffset": 144,
      "byteLength": 43488,
      "target": 34962,
      "byteStride": 12
    },
    {
      "buffer": 0,
      "byteOffset": 43632,
      "byteLength": 28992,
      "target": 34962,
      "byteStride": 8
    },
    {
      "buffer": 0,
      "byteOffset": 72624,
      "byteLength": 43488,
      "target": 34962,
      "byteStride": 12
    },
    {
      "buffer": 0,
      "byteOffset": 116112,
      "byteLength": 28944,
      "target": 34962,
      "byteStride": 12
    },
    {
      "buffer": 0,
      "byteOffset": 145056,
      "byteLength": 19296,
      "target": 34962,
      "byteStride": 8
    },
    {
      "buffer": 0,
      "byteOffset": 164352,
      "byteLength": 28944,
      "target": 34962,
      "byteStride": 12
    },
    {
      "buffer": 0,
      "byteOffset": 193296,
      "byteLength": 130752,
      "target": 34962,
      "byteStride": 12
    },
    {
      "buffer": 0,
      "byteOffset": 324048,
      "byteLength": 87168,
      "target": 34962,
      "byteStride": 8
    },
    {
      "buffer": 0,
      "byteOffset": 411216,
      "byteLength": 130752,
      "target": 34962,
      "byteStride": 12
    },
    {
      "buffer": 0,
      "byteOffset": 541968,
      "byteLength": 87120,
      "target": 34962,
      "byteStride": 12
    },
    {
      "buffer": 0,
      "byteOffset": 629088,
      "byteLength": 58080,
      "target": 34962,
      "byteStride": 8
    },
    {
      "buffer": 0,
      "byteOffset": 687168,
      "byteLength": 87120,
      "target": 34962,
      "byteStride": 12
    },
    {
      "buffer": 0,
      "byteOffset": 774288,
      "byteLength": 36216,
      "target": 34962,
      "byteStride": 12
    },
    {
      "buffer": 0,
      "byteOffset": 810504,
      "byteLength": 24144,
      "target": 34962,
      "byteStride": 8
    },
    {
      "buffer": 0,
      "byteOffset": 834648,
      "byteLength": 36216,
      "target": 34962,
      "byteStride": 12
    },
    {
      "buffer": 0,
      "byteOffset": 870864,
      "byteLength": 130752,
      "target": 34962,
      "byteStride": 12
    },
    {
      "buffer": 0,
      "byteOffset": 1001616,
      "byteLength": 87168,
      "target": 34962,
      "byteStride": 8
    },
    {
      "buffer": 0,
      "byteOffset": 1088784,
      "byteLength": 130752,
      "target": 34962,
      "byteStride": 12
    }
  ],
  "buffers": [
    {
      "byteLength": 1219536,
      "uri": "data:application/octet-stream;base64,"
    }
  ],
  "accessors": [
    {
      "bufferView": 0,
      "componentType": 5126,
      "count": 6,
      "max": [
        200,
        200,
        200
      ],
      "min": [
        0,
        0,
        0
      ],
      "type": "VEC3"
    },
    {
      "bufferView": 1,
      "componentType": 5126,
      "count": 6,
      "max": [
        1,
        1,
        1
      ],
      "min": [
        0,
        0,
        0
      ],
      "type": "VEC3"
    },
    {
      "bufferView": 2,
      "componentType": 5126,
      "count": 3624,
      "max": [
        -187.35159301757812,
        102.98938751220703,
        -84.82290649414062
      ],
      "min": [
        -213.205322265625,
        -127.67633819580078,
        -114.5187759399414
      ],
      "type": "VEC3"
    },
    {
      "bufferView": 3,
      "componentType": 5126,
      "count": 3624,
      "max": [
        204.24424743652344,
        205.97877502441406
      ],
      "min": [
        -255.35267639160156,
        -255.35267639160156
      ],
      "type": "VEC2"
    },
    {
      "bufferView": 4,
      "componentType": 5126,
      "count": 3624,
      "max": [
        0.9989666938781738,
        0.951511800289154,
        0.922098696231842
      ],
      "min": [
        -0.9989666938781738,
        -0.9634498357772827,
        -0.922098696231842
      ],
      "type": "VEC3"
    },
    {
      "bufferView": 5,
      "componentType": 5126,
      "count": 2412,
      "max": [
        -185.74688720703125,
        100.59589385986328,
        114.07781219482422
      ],
      "min": [
        -214.13926696777344,
        -127.8749771118164,
        86.79125213623047
      ],
      "type": "VEC3"
    },
    {
      "bufferView": 6,
      "componentType": 5126,
      "count": 2412,
      "max": [
        28.5062255859375,
        201.19178771972656
      ],
      "min": [
        -28.278522491455078,
        -255.7499542236328
      ],
      "type": "VEC2"
    },
    {
      "bufferView": 7,
      "componentType": 5126,
      "count": 2412,
      "max": [
        0.7843459248542786,
        0.9981989860534668,
        0.7840092182159424
      ],
      "min": [
        -0.7843464016914368,
        -0.9492712616920471,
        -0.7840083837509155
      ],
      "type": "VEC3"
    },
    {
      "bufferView": 8,
      "componentType": 5126,
      "count": 10896,
      "max": [
        18.84048080444336,
        101.52124786376953,
        -82.40280151367188
      ],
      "min": [
        -17.90061378479004,
        -125.42263793945312,
        -119.52832794189453
      ],
      "type": "VEC3"
    },
    {
      "bufferView": 9,
      "componentType": 5126,
      "count": 10896,
      "max": [
        151.2879180908203,
        203.04249572753906
      ],
      "min": [
        -183.78260803222656,
        -250.84527587890625
      ],
      "type": "VEC2"
    },
    {
      "bufferView": 10,
      "componentType": 5126,
      "count": 10896,
      "max": [
        0.9937826991081238,
        0.9948291182518005,
        0.9610433578491211
      ],
      "min": [
        -0.9931851625442505,
        -0.9996004700660706,
        -0.9996797442436218
      ],
      "type": "VEC3"
    },
    {
      "bufferView": 11,
      "componentType": 5126,
      "count": 7260,
      "max": [
        14.066515922546387,
        101.89679718017578,
        114.652587890625
      ],
      "min": [
        -14.49787425994873,
        -126.49380493164062,
        86.00566864013672
      ],
      "type": "VEC3"
    },
    {
      "bufferView": 12,
      "componentType": 5126,
      "count": 7260,
      "max": [
        202.76611328125,
        203.79359436035156
      ],
      "min": [
        -28.99574851989746,
        -252.98760986328125
      ],
      "type": "VEC2"
    },
    {
      "bufferView": 13,
      "componentType": 5126,
      "count": 7260,
      "max": [
        0.9907366633415222,
        0.9805393815040588,
        0.9912148714065552
      ],
      "min": [
        -0.9907366633415222,
        -0.9885863661766052,
        -0.991191029548645
      ],
      "type": "VEC3"
    },
    {
      "bufferView": 14,
      "componentType": 5126,
      "count": 3018,
      "max": [
        210.78079223632812,
        101.62876892089844,
        -85.45167541503906
      ],
      "min": [
        185.51072692871094,
        -128.80926513671875,
        -114.07217407226562
      ],
      "type": "VEC3"
    },
    {
      "bufferView": 15,
      "componentType": 5126,
      "count": 3018,
      "max": [
        200.11849975585938,
        203.25753784179688
      ],
      "min": [
        -250.90774536132812,
        -257.6185302734375
      ],
      "type": "VEC2"
    },
    {
      "bufferView": 16,
      "componentType": 5126,
      "count": 3018,
      "max": [
        0.9999890923500061,
        0.9855029582977295,
        0.9536287784576416
      ],
      "min": [
        -0.8255172967910767,
        -0.9212645888328552,
        -0.9600200653076172
      ],
      "type": "VEC3"
    },
    {
      "bufferView": 17,
      "componentType": 5126,
      "count": 10896,
      "max": [
        218.76193237304688,
        100.00117492675781,
        118.2372817993164
      ],
      "min": [
        180.2667999267578,
        -127.56571960449219,
        80.22529602050781
      ],
      "type": "VEC3"
    },
    {
      "bufferView": 18,
      "componentType": 5126,
      "count": 10896,
      "max": [
        155.20970153808594,
        200.00234985351562
      ],
      "min": [
        -252.97775268554688,
        -255.13143920898438
      ],
      "type": "VEC2"
    },
    {
      "bufferView": 19,
      "componentType": 5126,
      "count": 10896,
      "max": [
        0.9651104211807251,
        1,
        0.9907961487770081
      ],
      "min": [
        -0.9999345541000366,
        -0.9839543700218201,
        -0.995560348033905
      ],
      "type": "VEC3"
    }
  ],
  "materials": [
    {
      "pbrMetallicRoughness": {
        "metallicFactor": 0.5,
        "roughnessFactor": 0.5
      }
    },
    {
      "pbrMetallicRoughness": {
        "baseColorFactor": [
          0.6536059627581048,
          0.4615278768646216,
          0.3855272176543372,
          1
        ],
        "metallicFactor": 0,
        "roughnessFactor": 1
      },
      "name": "Std_NormalMapped_1"
    },
    {
      "pbrMetallicRoughness": {
        "baseColorFactor": [
          0.20099735710491107,
          0.25499002258325043,
          0.9549406200045689,
          1
        ],
        "metallicFactor": 0,
        "roughnessFactor": 1
      },
      "name": "Std_NormalMapped_2"
    },
    {
      "pbrMetallicRoughness": {
        "baseColorFactor": [
          0.512488369180933,
          0.23196613201750882,
          0.3341043957408456,
          1
        ],
        "metallicFactor": 0,
        "roughnessFactor": 1
      },
      "name": "Std_NormalMapped_3"
    },
    {
      "pbrMetallicRoughness": {
        "baseColorFactor": [
          0.7205737310429989,
          0.8963000209919358,
          0.6146013440207061,
          1
        ],
        "metallicFactor": 0,
        "roughnessFactor": 1
      },
      "name": "Std_NormalMapped_4"
    },
    {
      "pbrMetallicRoughness": {
        "baseColorFactor": [
          0.416334534215282,
          0.9267345650309764,
          0.4980244603145503,
          1
        ],
        "metallicFactor": 0,
        "roughnessFactor": 1
      },
      "name": "Std_NormalMapped_5"
    },
    {
      "pbrMetallicRoughness": {
        "baseColorFactor": [
          0.6596907411468405,
          0.4138766847578208,
          0.23050224504730377,
          1
        ],
        "metallicFactor": 0,
        "roughnessFactor": 1
      },
      "name": "Std_NormalMapped_6"
    }
  ],
  "meshes": [
    {
      "primitives": [
        {
          "mode": 1,
          "attributes": {
            "POSITION": 0,
            "COLOR_0": 1
          },
          "material": 0
        }
      ]
    },
    {
      "primitives": [
        {
          "mode": 4,
          "attributes": {
            "POSITION": 2,
            "TEXCOORD_0": 3,
            "NORMAL": 4
          },
          "material": 1
        }
      ]
    },
    {
      "primitives": [
        {
          "mode": 4,
          "attributes": {
            "POSITION": 5,
            "TEXCOORD_0": 6,
            "NORMAL": 7
          },
          "material": 2
        }
      ]
    },
    {
      "primitives": [
        {
          "mode": 4,
          "attributes": {
            "POSITION": 8,
            "TEXCOORD_0": 9,
            "NORMAL": 10
          },
          "material": 3
        }
      ]
    },
    {
      "primitives": [
        {
          "mode": 4,
          "attributes": {
            "POSITION": 11,
            "TEXCOORD_0": 12,
            "NORMAL": 13
          },
          "material": 4
        }
      ]
    },
    {
      "primitives": [
        {
          "mode": 4,
          "attributes": {
            "POSITION": 14,
            "TEXCOORD_0": 15,
            "NORMAL": 16
          },
          "material": 5
        }
      ]
    },
    {
      "primitives": [
        {
          "mode": 4,
          "attributes": {
            "POSITION": 17,
            "TEXCOORD_0": 18,
            "NORMAL": 19
          },
          "material": 6
        }
      ]
    }
  ]
}