{
  "asset": {
    "version": "2.0",
    "generator": "THREE.GLTFExporter"
  },
  "scenes": [
    {
      "nodes": [
        0,
        1,
        2,
        3,
        4,
        5,
        6
      ]
    }
  ],
  "scene": 0,
  "nodes": [
    {
      "mesh": 0
    },
    {
      "mesh": 1
    },
    {
      "mesh": 2
    },
    {
      "mesh": 3
    },
    {
      "mesh": 4
    },
    {
      "mesh": 5
    },
    {
      "mesh": 6
    }
  ],
  "bufferViews": [
    {
      "buffer": 0,
      "byteOffset": 0,
      "byteLength": 72,
      "target": 34962,
      "byteStride": 12
    },
    {
      "buffer": 0,
      "byteOffset": 72,
      "byteLength": 72,
      "target": 34962,
      "byteStride": 12
    },
    {
      "buffer": 0,
      "byteOffset": 144,
      "byteLength": 15984,
      "target": 34962,
      "byteStride": 12
    },
    {
      "buffer": 0,
      "byteOffset": 16128,
      "byteLength": 10656,
      "target": 34962,
      "byteStride": 8
    },
    {
      "buffer": 0,
      "byteOffset": 26784,
      "byteLength": 15984,
      "target": 34962,
      "byteStride": 12
    },
    {
      "buffer": 0,
      "byteOffset": 42768,
      "byteLength": 15984,
      "target": 34962,
      "byteStride": 12
    },
    {
      "buffer": 0,
      "byteOffset": 58752,
      "byteLength": 10656,
      "target": 34962,
      "byteStride": 8
    },
    {
      "buffer": 0,
      "byteOffset": 69408,
      "byteLength": 15984,
      "target": 34962,
      "byteStride": 12
    },
    {
      "buffer": 0,
      "byteOffset": 85392,
      "byteLength": 2880,
      "target": 34962,
      "byteStride": 12
    },
    {
      "buffer": 0,
      "byteOffset": 88272,
      "byteLength": 1920,
      "target": 34962,
      "byteStride": 8
    },
    {
      "buffer": 0,
      "byteOffset": 90192,
      "byteLength": 2880,
      "target": 34962,
      "byteStride": 12
    },
    {
      "buffer": 0,
      "byteOffset": 93072,
      "byteLength": 22032,
      "target": 34962,
      "byteStride": 12
    },
    {
      "buffer": 0,
      "byteOffset": 115104,
      "byteLength": 14688,
      "target": 34962,
      "byteStride": 8
    },
    {
      "buffer": 0,
      "byteOffset": 129792,
      "byteLength": 22032,
      "target": 34962,
      "byteStride": 12
    },
    {
      "buffer": 0,
      "byteOffset": 151824,
      "byteLength": 15984,
      "target": 34962,
      "byteStride": 12
    },
    {
      "buffer": 0,
      "byteOffset": 167808,
      "byteLength": 10656,
      "target": 34962,
      "byteStride": 8
    },
    {
      "buffer": 0,
      "byteOffset": 178464,
      "byteLength": 15984,
      "target": 34962,
      "byteStride": 12
    },
    {
      "buffer": 0,
      "byteOffset": 194448,
      "byteLength": 10944,
      "target": 34962,
      "byteStride": 12
    },
    {
      "buffer": 0,
      "byteOffset": 205392,
      "byteLength": 7296,
      "target": 34962,
      "byteStride": 8
    },
    {
      "buffer": 0,
      "byteOffset": 212688,
      "byteLength": 10944,
      "target": 34962,
      "byteStride": 12
    }
  ],
  "buffers": [
    {
      "byteLength": 223632,
      "uri": "data:application/octet-stream;base64,"
    }
  ],
  "accessors": [
    {
      "bufferView": 0,
      "componentType": 5126,
      "count": 6,
      "max": [
        200,
        200,
        200
      ],
      "min": [
        0,
        0,
        0
      ],
      "type": "VEC3"
    },
    {
      "bufferView": 1,
      "componentType": 5126,
      "count": 6,
      "max": [
        1,
        1,
        1
      ],
      "min": [
        0,
        0,
        0
      ],
      "type": "VEC3"
    },
    {
      "bufferView": 2,
      "componentType": 5126,
      "count": 1332,
      "max": [
        -165.0687255859375,
        34.93128204345703,
        -75
      ],
      "min": [
        -234.9312744140625,
        -34.93128204345703,
        -105
      ],
      "type": "VEC3"
    },
    {
      "bufferView": 3,
      "componentType": 5126,
      "count": 1332,
      "max": [
        30,
        30
      ],
      "min": [
        -30,
        -30
      ],
      "type": "VEC2"
    },
    {
      "bufferView": 4,
      "componentType": 5126,
      "count": 1332,
      "max": [
        0.9869163632392883,
        0.9869163632392883,
        1
      ],
      "min": [
        -0.9869163632392883,
        -0.9869163632392883,
        -1
      ],
      "type": "VEC3"
    },
    {
      "bufferView": 5,
      "componentType": 5126,
      "count": 1332,
      "max": [
        -165.0687255859375,
        34.93128204345703,
        125
      ],
      "min": [
        -234.9312744140625,
        -34.93128204345703,
        95
      ],
      "type": "VEC3"
    },
    {
      "bufferView": 6,
      "componentType": 5126,
      "count": 1332,
      "max": [
        30,
        30
      ],
      "min": [
        -30,
        -30
      ],
      "type": "VEC2"
    },
    {
      "bufferView": 7,
      "componentType": 5126,
      "count": 1332,
      "max": [
        0.9869163632392883,
        0.9869163632392883,
        1
      ],
      "min": [
        -0.9869163632392883,
        -0.9869163632392883,
        -1
      ],
      "type": "VEC3"
    },
    {
      "bufferView": 8,
      "componentType": 5126,
      "count": 240,
      "max": [
        25.6568546295166,
        22.198253631591797,
        -75
      ],
      "min": [
        -12.829683303833008,
        -22.198253631591797,
        -105
      ],
      "type": "VEC3"
    },
    {
      "bufferView": 9,
      "componentType": 5126,
      "count": 240,
      "max": [
        25.6568546295166,
        17.299999237060547
      ],
      "min": [
        -22.198253631591797,
        -24
      ],
      "type": "VEC2"
    },
    {
      "bufferView": 10,
      "componentType": 5126,
      "count": 240,
      "max": [
        0.49962925910949707,
        0.8662393689155579,
        1
      ],
      "min": [
        -1,
        -0.8662393689155579,
        -1
      ],
      "type": "VEC3"
    },
    {
      "bufferView": 11,
      "componentType": 5126,
      "count": 1836,
      "max": [
        35.255653381347656,
        34.9213981628418,
        125
      ],
      "min": [
        -33.856536865234375,
        -34.9213981628418,
        95
      ],
      "type": "VEC3"
    },
    {
      "bufferView": 12,
      "componentType": 5126,
      "count": 1836,
      "max": [
        34.9213981628418,
        29.700000762939453
      ],
      "min": [
        -34.9213981628418,
        -29.700000762939453
      ],
      "type": "VEC2"
    },
    {
      "bufferView": 13,
      "componentType": 5126,
      "count": 1836,
      "max": [
        0.991527795791626,
        1,
        1
      ],
      "min": [
        -0.9886188507080078,
        -1,
        -1
      ],
      "type": "VEC3"
    },
    {
      "bufferView": 14,
      "componentType": 5126,
      "count": 1332,
      "max": [
        234.9312744140625,
        34.93128204345703,
        -75
      ],
      "min": [
        165.0687255859375,
        -34.93128204345703,
        -105
      ],
      "type": "VEC3"
    },
    {
      "bufferView": 15,
      "componentType": 5126,
      "count": 1332,
      "max": [
        30,
        30
      ],
      "min": [
        -30,
        -30
      ],
      "type": "VEC2"
    },
    {
      "bufferView": 16,
      "componentType": 5126,
      "count": 1332,
      "max": [
        0.9869163632392883,
        0.9869163632392883,
        1
      ],
      "min": [
        -0.9869163632392883,
        -0.9869163632392883,
        -1
      ],
      "type": "VEC3"
    },
    {
      "bufferView": 17,
      "componentType": 5126,
      "count": 912,
      "max": [
        224.17189025878906,
        23.926546096801758,
        125
      ],
      "min": [
        176.8000030517578,
        -23.926546096801758,
        95
      ],
      "type": "VEC3"
    },
    {
      "bufferView": 18,
      "componentType": 5126,
      "count": 912,
      "max": [
        20.304838180541992,
        19.799999237060547
      ],
      "min": [
        -19.200000762939453,
        -24
      ],
      "type": "VEC2"
    },
    {
      "bufferView": 19,
      "componentType": 5126,
      "count": 912,
      "max": [
        0.9587981104850769,
        0.9898784160614014,
        1
      ],
      "min": [
        -1,
        -0.9898784160614014,
        -1
      ],
      "type": "VEC3"
    }
  ],
  "materials": [
    {
      "pbrMetallicRoughness": {
        "metallicFactor": 0.5,
        "roughnessFactor": 0.5
      }
    },
    {
      "pbrMetallicRoughness": {
        "baseColorFactor": [
          0.14940305875116322,
          0.011370214989001814,
          0.7700080730887908,
          1
        ],
        "metallicFactor": 0,
        "roughnessFactor": 1
      },
      "name": "Std_NormalMapped_1"
    },
    {
      "pbrMetallicRoughness": {
        "baseColorFactor": [
          0.7166768592022155,
          0.5038128467559879,
          0.7276958887443814,
          1
        ],
        "metallicFactor": 0,
        "roughnessFactor": 1
      },
      "name": "Std_NormalMapped_2"
    },
    {
      "pbrMetallicRoughness": {
        "baseColorFactor": [
          0.15771455878625718,
          0.12691261430034517,
          0.14583971233406,
          1
        ],
        "metallicFactor": 0,
        "roughnessFactor": 1
      },
      "name": "Std_NormalMapped_3"
    },
    {
      "pbrMetallicRoughness": {
        "baseColorFactor": [
          0.8916049063575082,
          0.4888215522635351,
          0.6194393671767704,
          1
        ],
        "metallicFactor": 0,
        "roughnessFactor": 1
      },
      "name": "Std_NormalMapped_4"
    },
    {
      "pbrMetallicRoughness": {
        "baseColorFactor": [
          0.16075428676905723,
          0.540961112680814,
          0.220639062639298,
          1
        ],
        "metallicFactor": 0,
        "roughnessFactor": 1
      },
      "name": "Std_NormalMapped_5"
    },
    {
      "pbrMetallicRoughness": {
        "baseColorFactor": [
          0.9026739953278236,
          0.362481904014504,
          0.4572078952732552,
          1
        ],
        "metallicFactor": 0,
        "roughnessFactor": 1
      },
      "name": "Std_NormalMapped_6"
    }
  ],
  "meshes": [
    {
      "primitives": [
        {
          "mode": 1,
          "attributes": {
            "POSITION": 0,
            "COLOR_0": 1
          },
          "material": 0
        }
      ]
    },
    {
      "primitives": [
        {
          "mode": 4,
          "attributes": {
            "POSITION": 2,
            "TEXCOORD_0": 3,
            "NORMAL": 4
          },
          "material": 1
        }
      ]
    },
    {
      "primitives": [
        {
          "mode": 4,
          "attributes": {
            "POSITION": 5,
            "TEXCOORD_0": 6,
            "NORMAL": 7
          },
          "material": 2
        }
      ]
    },
    {
      "primitives": [
        {
          "mode": 4,
          "attributes": {
            "POSITION": 8,
            "TEXCOORD_0": 9,
            "NORMAL": 10
          },
          "material": 3
        }
      ]
    },
    {
      "primitives": [
        {
          "mode": 4,
          "attributes": {
            "POSITION": 11,
            "TEXCOORD_0": 12,
            "NORMAL": 13
          },
          "material": 4
        }
      ]
    },
    {
      "primitives": [
        {
          "mode": 4,
          "attributes": {
            "POSITION": 14,
            "TEXCOORD_0": 15,
            "NORMAL": 16
          },
          "material": 5
        }
      ]
    },
    {
      "primitives": [
        {
          "mode": 4,
          "attributes": {
            "POSITION": 17,
            "TEXCOORD_0": 18,
            "NORMAL": 19
          },
          "material": 6
        }
      ]
    }
  ]
}