{
  "asset": {
    "version": "2.0",
    "generator": "THREE.GLTFExporter"
  },
  "scenes": [
    {
      "nodes": [
        0,
        1,
        2,
        3,
        4,
        5,
        6
      ]
    }
  ],
  "scene": 0,
  "nodes": [
    {
      "mesh": 0
    },
    {
      "mesh": 1
    },
    {
      "mesh": 2
    },
    {
      "mesh": 3
    },
    {
      "mesh": 4
    },
    {
      "mesh": 5
    },
    {
      "mesh": 6
    }
  ],
  "bufferViews": [
    {
      "buffer": 0,
      "byteOffset": 0,
      "byteLength": 72,
      "target": 34962,
      "byteStride": 12
    },
    {
      "buffer": 0,
      "byteOffset": 72,
      "byteLength": 72,
      "target": 34962,
      "byteStride": 12
    },
    {
      "buffer": 0,
      "byteOffset": 144,
      "byteLength": 24048,
      "target": 34962,
      "byteStride": 12
    },
    {
      "buffer": 0,
      "byteOffset": 24192,
      "byteLength": 16032,
      "target": 34962,
      "byteStride": 8
    },
    {
      "buffer": 0,
      "byteOffset": 40224,
      "byteLength": 24048,
      "target": 34962,
      "byteStride": 12
    },
    {
      "buffer": 0,
      "byteOffset": 64272,
      "byteLength": 8928,
      "target": 34962,
      "byteStride": 12
    },
    {
      "buffer": 0,
      "byteOffset": 73200,
      "byteLength": 5952,
      "target": 34962,
      "byteStride": 8
    },
    {
      "buffer": 0,
      "byteOffset": 79152,
      "byteLength": 8928,
      "target": 34962,
      "byteStride": 12
    },
    {
      "buffer": 0,
      "byteOffset": 88080,
      "byteLength": 4896,
      "target": 34962,
      "byteStride": 12
    },
    {
      "buffer": 0,
      "byteOffset": 92976,
      "byteLength": 3264,
      "target": 34962,
      "byteStride": 8
    },
    {
      "buffer": 0,
      "byteOffset": 96240,
      "byteLength": 4896,
      "target": 34962,
      "byteStride": 12
    },
    {
      "buffer": 0,
      "byteOffset": 101136,
      "byteLength": 13968,
      "target": 34962,
      "byteStride": 12
    },
    {
      "buffer": 0,
      "byteOffset": 115104,
      "byteLength": 9312,
      "target": 34962,
      "byteStride": 8
    },
    {
      "buffer": 0,
      "byteOffset": 124416,
      "byteLength": 13968,
      "target": 34962,
      "byteStride": 12
    },
    {
      "buffer": 0,
      "byteOffset": 138384,
      "byteLength": 9936,
      "target": 34962,
      "byteStride": 12
    },
    {
      "buffer": 0,
      "byteOffset": 148320,
      "byteLength": 6624,
      "target": 34962,
      "byteStride": 8
    },
    {
      "buffer": 0,
      "byteOffset": 154944,
      "byteLength": 9936,
      "target": 34962,
      "byteStride": 12
    },
    {
      "buffer": 0,
      "byteOffset": 164880,
      "byteLength": 6912,
      "target": 34962,
      "byteStride": 12
    },
    {
      "buffer": 0,
      "byteOffset": 171792,
      "byteLength": 4608,
      "target": 34962,
      "byteStride": 8
    },
    {
      "buffer": 0,
      "byteOffset": 176400,
      "byteLength": 6912,
      "target": 34962,
      "byteStride": 12
    }
  ],
  "buffers": [
    {
      "byteLength": 183312,
      "uri": "data:application/octet-stream;base64,"
    }
  ],
  "accessors": [
    {
      "bufferView": 0,
      "componentType": 5126,
      "count": 6,
      "max": [
        200,
        200,
        200
      ],
      "min": [
        0,
        0,
        0
      ],
      "type": "VEC3"
    },
    {
      "bufferView": 1,
      "componentType": 5126,
      "count": 6,
      "max": [
        1,
        1,
        1
      ],
      "min": [
        0,
        0,
        0
      ],
      "type": "VEC3"
    },
    {
      "bufferView": 2,
      "componentType": 5126,
      "count": 2004,
      "max": [
        -164.5865936279297,
        35.41341018676758,
        -75
      ],
      "min": [
        -235.4134063720703,
        -35.41341018676758,
        -105
      ],
      "type": "VEC3"
    },
    {
      "bufferView": 3,
      "componentType": 5126,
      "count": 2004,
      "max": [
        30.694780349731445,
        30
      ],
      "min": [
        -30.694780349731445,
        -30
      ],
      "type": "VEC2"
    },
    {
      "bufferView": 4,
      "componentType": 5126,
      "count": 2004,
      "max": [
        0.9760792851448059,
        0.9760792851448059,
        1
      ],
      "min": [
        -0.9760792851448059,
        -0.9760792851448059,
        -1
      ],
      "type": "VEC3"
    },
    {
      "bufferView": 5,
      "componentType": 5126,
      "count": 744,
      "max": [
        -175.74278259277344,
        23.893312454223633,
        125
      ],
      "min": [
        -222.8000030517578,
        -23.893312454223633,
        95
      ],
      "type": "VEC3"
    },
    {
      "bufferView": 6,
      "componentType": 5126,
      "count": 744,
      "max": [
        20.98382568359375,
        19.700000762939453
      ],
      "min": [
        -20.98382568359375,
        -24
      ],
      "type": "VEC2"
    },
    {
      "bufferView": 7,
      "componentType": 5126,
      "count": 744,
      "max": [
        0.9395805597305298,
        0.9844952821731567,
        1
      ],
      "min": [
        -1,
        -0.9844952821731567,
        -1
      ],
      "type": "VEC3"
    },
    {
      "bufferView": 8,
      "componentType": 5126,
      "count": 408,
      "max": [
        24.94621467590332,
        23.69461441040039,
        -75
      ],
      "min": [
        -20.200000762939453,
        -23.69461441040039,
        -105
      ],
      "type": "VEC3"
    },
    {
      "bufferView": 9,
      "componentType": 5126,
      "count": 408,
      "max": [
        23.69461441040039,
        19
      ],
      "min": [
        -23.69461441040039,
        -24
      ],
      "type": "VEC2"
    },
    {
      "bufferView": 10,
      "componentType": 5126,
      "count": 408,
      "max": [
        0.8086992502212524,
        0.951948881149292,
        1
      ],
      "min": [
        -1,
        -0.951948881149292,
        -1
      ],
      "type": "VEC3"
    },
    {
      "bufferView": 11,
      "componentType": 5126,
      "count": 1164,
      "max": [
        34.869911193847656,
        33.924034118652344,
        125
      ],
      "min": [
        -31.371944427490234,
        -33.924034118652344,
        95
      ],
      "type": "VEC3"
    },
    {
      "bufferView": 12,
      "componentType": 5126,
      "count": 1164,
      "max": [
        33.924034118652344,
        29.200000762939453
      ],
      "min": [
        -33.924034118652344,
        -29.200000762939453
      ],
      "type": "VEC2"
    },
    {
      "bufferView": 13,
      "componentType": 5126,
      "count": 1164,
      "max": [
        0.9580336809158325,
        0.9976625442504883,
        1
      ],
      "min": [
        -0.9883716702461243,
        -0.9976625442504883,
        -1
      ],
      "type": "VEC3"
    },
    {
      "bufferView": 14,
      "componentType": 5126,
      "count": 828,
      "max": [
        234.80740356445312,
        33.06186294555664,
        -75
      ],
      "min": [
        170.99684143066406,
        -33.06186294555664,
        -105
      ],
      "type": "VEC3"
    },
    {
      "bufferView": 15,
      "componentType": 5126,
      "count": 828,
      "max": [
        33.06186294555664,
        28.5
      ],
      "min": [
        -33.06186294555664,
        -28.5
      ],
      "type": "VEC2"
    },
    {
      "bufferView": 16,
      "componentType": 5126,
      "count": 828,
      "max": [
        0.8320502638816833,
        0.9638420939445496,
        1
      ],
      "min": [
        -0.999210000038147,
        -0.9638420939445496,
        -1
      ],
      "type": "VEC3"
    },
    {
      "bufferView": 17,
      "componentType": 5126,
      "count": 576,
      "max": [
        224.43826293945312,
        23.831401824951172,
        125
      ],
      "min": [
        178,
        -23.831401824951172,
        95
      ],
      "type": "VEC3"
    },
    {
      "bufferView": 18,
      "componentType": 5126,
      "count": 576,
      "max": [
        20,
        19.5
      ],
      "min": [
        -22,
        -24
      ],
      "type": "VEC2"
    },
    {
      "bufferView": 19,
      "componentType": 5126,
      "count": 576,
      "max": [
        0.9012524485588074,
        0.9745363593101501,
        1
      ],
      "min": [
        -1,
        -0.9745363593101501,
        -1
      ],
      "type": "VEC3"
    }
  ],
  "materials": [
    {
      "pbrMetallicRoughness": {
        "metallicFactor": 0.5,
        "roughnessFactor": 0.5
      }
    },
    {
      "pbrMetallicRoughness": {
        "baseColorFactor": [
          0.6536059627581048,
          0.4615278768646216,
          0.3855272176543372,
          1
        ],
        "metallicFactor": 0,
        "roughnessFactor": 1
      },
      "name": "Std_NormalMapped_1"
    },
    {
      "pbrMetallicRoughness": {
        "baseColorFactor": [
          0.20099735710491107,
          0.25499002258325043,
          0.9549406200045689,
          1
        ],
        "metallicFactor": 0,
        "roughnessFactor": 1
      },
      "name": "Std_NormalMapped_2"
    },
    {
      "pbrMetallicRoughness": {
        "baseColorFactor": [
          0.512488369180933,
          0.23196613201750882,
          0.3341043957408456,
          1
        ],
        "metallicFactor": 0,
        "roughnessFactor": 1
      },
      "name": "Std_NormalMapped_3"
    },
    {
      "pbrMetallicRoughness": {
        "baseColorFactor": [
          0.7205737310429989,
          0.8963000209919358,
          0.6146013440207061,
          1
        ],
        "metallicFactor": 0,
        "roughnessFactor": 1
      },
      "name": "Std_NormalMapped_4"
    },
    {
      "pbrMetallicRoughness": {
        "baseColorFactor": [
          0.416334534215282,
          0.9267345650309764,
          0.4980244603145503,
          1
        ],
        "metallicFactor": 0,
        "roughnessFactor": 1
      },
      "name": "Std_NormalMapped_5"
    },
    {
      "pbrMetallicRoughness": {
        "baseColorFactor": [
          0.6596907411468405,
          0.4138766847578208,
          0.23050224504730377,
          1
        ],
        "metallicFactor": 0,
        "roughnessFactor": 1
      },
      "name": "Std_NormalMapped_6"
    }
  ],
  "meshes": [
    {
      "primitives": [
        {
          "mode": 1,
          "attributes": {
            "POSITION": 0,
            "COLOR_0": 1
          },
          "material": 0
        }
      ]
    },
    {
      "primitives": [
        {
          "mode": 4,
          "attributes": {
            "POSITION": 2,
            "TEXCOORD_0": 3,
            "NORMAL": 4
          },
          "material": 1
        }
      ]
    },
    {
      "primitives": [
        {
          "mode": 4,
          "attributes": {
            "POSITION": 5,
            "TEXCOORD_0": 6,
            "NORMAL": 7
          },
          "material": 2
        }
      ]
    },
    {
      "primitives": [
        {
          "mode": 4,
          "attributes": {
            "POSITION": 8,
            "TEXCOORD_0": 9,
            "NORMAL": 10
          },
          "material": 3
        }
      ]
    },
    {
      "primitives": [
        {
          "mode": 4,
          "attributes": {
            "POSITION": 11,
            "TEXCOORD_0": 12,
            "NORMAL": 13
          },
          "material": 4
        }
      ]
    },
    {
      "primitives": [
        {
          "mode": 4,
          "attributes": {
            "POSITION": 14,
            "TEXCOORD_0": 15,
            "NORMAL": 16
          },
          "material": 5
        }
      ]
    },
    {
      "primitives": [
        {
          "mode": 4,
          "attributes": {
            "POSITION": 17,
            "TEXCOORD_0": 18,
            "NORMAL": 19
          },
          "material": 6
        }
      ]
    }
  ]
}