{
  "asset": {
    "version": "2.0",
    "generator": "THREE.GLTFExporter"
  },
  "scenes": [
    {
      "nodes": [
        0,
        1,
        2,
        3,
        4,
        5,
        6,
        7,
        8,
        9
      ]
    }
  ],
  "scene": 0,
  "nodes": [
    {
      "mesh": 0
    },
    {
      "mesh": 1
    },
    {
      "mesh": 2
    },
    {
      "mesh": 3
    },
    {
      "mesh": 4
    },
    {
      "mesh": 5
    },
    {
      "mesh": 6
    },
    {
      "mesh": 7
    },
    {
      "mesh": 8
    },
    {
      "mesh": 9
    }
  ],
  "bufferViews": [
    {
      "buffer": 0,
      "byteOffset": 0,
      "byteLength": 72,
      "target": 34962,
      "byteStride": 12
    },
    {
      "buffer": 0,
      "byteOffset": 72,
      "byteLength": 72,
      "target": 34962,
      "byteStride": 12
    },
    {
      "buffer": 0,
      "byteOffset": 144,
      "byteLength": 43488,
      "target": 34962,
      "byteStride": 12
    },
    {
      "buffer": 0,
      "byteOffset": 43632,
      "byteLength": 28992,
      "target": 34962,
      "byteStride": 8
    },
    {
      "buffer": 0,
      "byteOffset": 72624,
      "byteLength": 43488,
      "target": 34962,
      "byteStride": 12
    },
    {
      "buffer": 0,
      "byteOffset": 116112,
      "byteLength": 72576,
      "target": 34962,
      "byteStride": 12
    },
    {
      "buffer": 0,
      "byteOffset": 188688,
      "byteLength": 48384,
      "target": 34962,
      "byteStride": 8
    },
    {
      "buffer": 0,
      "byteOffset": 237072,
      "byteLength": 72576,
      "target": 34962,
      "byteStride": 12
    },
    {
      "buffer": 0,
      "byteOffset": 309648,
      "byteLength": 21672,
      "target": 34962,
      "byteStride": 12
    },
    {
      "buffer": 0,
      "byteOffset": 331320,
      "byteLength": 14448,
      "target": 34962,
      "byteStride": 8
    },
    {
      "buffer": 0,
      "byteOffset": 345768,
      "byteLength": 21672,
      "target": 34962,
      "byteStride": 12
    },
    {
      "buffer": 0,
      "byteOffset": 367440,
      "byteLength": 58032,
      "target": 34962,
      "byteStride": 12
    },
    {
      "buffer": 0,
      "byteOffset": 425472,
      "byteLength": 38688,
      "target": 34962,
      "byteStride": 8
    },
    {
      "buffer": 0,
      "byteOffset": 464160,
      "byteLength": 58032,
      "target": 34962,
      "byteStride": 12
    },
    {
      "buffer": 0,
      "byteOffset": 522192,
      "byteLength": 28944,
      "target": 34962,
      "byteStride": 12
    },
    {
      "buffer": 0,
      "byteOffset": 551136,
      "byteLength": 19296,
      "target": 34962,
      "byteStride": 8
    },
    {
      "buffer": 0,
      "byteOffset": 570432,
      "byteLength": 28944,
      "target": 34962,
      "byteStride": 12
    },
    {
      "buffer": 0,
      "byteOffset": 599376,
      "byteLength": 43488,
      "target": 34962,
      "byteStride": 12
    },
    {
      "buffer": 0,
      "byteOffset": 642864,
      "byteLength": 28992,
      "target": 34962,
      "byteStride": 8
    },
    {
      "buffer": 0,
      "byteOffset": 671856,
      "byteLength": 43488,
      "target": 34962,
      "byteStride": 12
    },
    {
      "buffer": 0,
      "byteOffset": 715344,
      "byteLength": 87120,
      "target": 34962,
      "byteStride": 12
    },
    {
      "buffer": 0,
      "byteOffset": 802464,
      "byteLength": 58080,
      "target": 34962,
      "byteStride": 8
    },
    {
      "buffer": 0,
      "byteOffset": 860544,
      "byteLength": 87120,
      "target": 34962,
      "byteStride": 12
    },
    {
      "buffer": 0,
      "byteOffset": 947664,
      "byteLength": 87120,
      "target": 34962,
      "byteStride": 12
    },
    {
      "buffer": 0,
      "byteOffset": 1034784,
      "byteLength": 58080,
      "target": 34962,
      "byteStride": 8
    },
    {
      "buffer": 0,
      "byteOffset": 1092864,
      "byteLength": 87120,
      "target": 34962,
      "byteStride": 12
    },
    {
      "buffer": 0,
      "byteOffset": 1179984,
      "byteLength": 58032,
      "target": 34962,
      "byteStride": 12
    },
    {
      "buffer": 0,
      "byteOffset": 1238016,
      "byteLength": 38688,
      "target": 34962,
      "byteStride": 8
    },
    {
      "buffer": 0,
      "byteOffset": 1276704,
      "byteLength": 58032,
      "target": 34962,
      "byteStride": 12
    }
  ],
  "buffers": [
    {
      "byteLength": 1334736,
      "uri": "data:application/octet-stream;base64,"
    }
  ],
  "accessors": [
    {
      "bufferView": 0,
      "componentType": 5126,
      "count": 6,
      "max": [
        200,
        200,
        200
      ],
      "min": [
        0,
        0,
        0
      ],
      "type": "VEC3"
    },
    {
      "bufferView": 1,
      "componentType": 5126,
      "count": 6,
      "max": [
        1,
        1,
        1
      ],
      "min": [
        0,
        0,
        0
      ],
      "type": "VEC3"
    },
    {
      "bufferView": 2,
      "componentType": 5126,
      "count": 3624,
      "max": [
        -182.84854125976562,
        102.00364685058594,
        -183.00962829589844
      ],
      "min": [
        -217.76223754882812,
        -127.16556549072266,
        -220.209228515625
      ],
      "type": "VEC3"
    },
    {
      "bufferView": 3,
      "componentType": 5126,
      "count": 3624,
      "max": [
        201.0618438720703,
        204.00729370117188
      ],
      "min": [
        -200.6549072265625,
        -254.3311309814453
      ],
      "type": "VEC2"
    },
    {
      "bufferView": 4,
      "componentType": 5126,
      "count": 3624,
      "max": [
        0.9952664375305176,
        0.9857181906700134,
        0.957613468170166
      ],
      "min": [
        -0.9914882779121399,
        -0.9833911657333374,
        -0.8939644694328308
      ],
      "type": "VEC3"
    },
    {
      "bufferView": 5,
      "componentType": 5126,
      "count": 6048,
      "max": [
        -186.06321716308594,
        101.4927978515625,
        18.34809684753418
      ],
      "min": [
        -219.320068359375,
        -128.72463989257812,
        -18.765121459960938
      ],
      "type": "VEC3"
    },
    {
      "bufferView": 6,
      "componentType": 5126,
      "count": 6048,
      "max": [
        183.37286376953125,
        202.985595703125
      ],
      "min": [
        -257.44927978515625,
        -257.44927978515625
      ],
      "type": "VEC2"
    },
    {
      "bufferView": 7,
      "componentType": 5126,
      "count": 6048,
      "max": [
        0.9999760985374451,
        0.9950347542762756,
        0.9703249931335449
      ],
      "min": [
        -0.8593085408210754,
        -0.9648940563201904,
        -0.9748824834823608
      ],
      "type": "VEC3"
    },
    {
      "bufferView": 8,
      "componentType": 5126,
      "count": 1806,
      "max": [
        -191.154052734375,
        101.89441680908203,
        212.9654998779297
      ],
      "min": [
        -214.58853149414062,
        -127.94892120361328,
        185.90017700195312
      ],
      "type": "VEC3"
    },
    {
      "bufferView": 9,
      "componentType": 5126,
      "count": 1806,
      "max": [
        200.4884490966797,
        203.78883361816406
      ],
      "min": [
        -255.89784240722656,
        -255.89784240722656
      ],
      "type": "VEC2"
    },
    {
      "bufferView": 10,
      "componentType": 5126,
      "count": 1806,
      "max": [
        0.9986515641212463,
        0.9721831679344177,
        0.9194304943084717
      ],
      "min": [
        -0.6171572804450989,
        -0.9544418454170227,
        -0.8479947447776794
      ],
      "type": "VEC3"
    },
    {
      "bufferView": 11,
      "componentType": 5126,
      "count": 4836,
      "max": [
        19.068506240844727,
        102.08283233642578,
        -180.5421142578125
      ],
      "min": [
        -18.898195266723633,
        -129.15435791015625,
        -218.59767150878906
      ],
      "type": "VEC3"
    },
    {
      "bufferView": 12,
      "componentType": 5126,
      "count": 4836,
      "max": [
        38.13701248168945,
        204.16566467285156
      ],
      "min": [
        -37.796390533447266,
        -258.3087158203125
      ],
      "type": "VEC2"
    },
    {
      "bufferView": 13,
      "componentType": 5126,
      "count": 4836,
      "max": [
        0.9332869052886963,
        0.9879940152168274,
        0.9331297874450684
      ],
      "min": [
        -0.933288037776947,
        -0.9419991970062256,
        -0.9331664443016052
      ],
      "type": "VEC3"
    },
    {
      "bufferView": 14,
      "componentType": 5126,
      "count": 2412,
      "max": [
        15.253287315368652,
        103.38426971435547,
        15.07324504852295
      ],
      "min": [
        -14.43587589263916,
        -126.58146667480469,
        -14.182234764099121
      ],
      "type": "VEC3"
    },
    {
      "bufferView": 15,
      "componentType": 5126,
      "count": 2412,
      "max": [
        30.506574630737305,
        206.76853942871094
      ],
      "min": [
        -28.87175178527832,
        -253.16293334960938
      ],
      "type": "VEC2"
    },
    {
      "bufferView": 16,
      "componentType": 5126,
      "count": 2412,
      "max": [
        0.8415802121162415,
        0.9407902956008911,
        0.8370509147644043
      ],
      "min": [
        -0.8415867686271667,
        -0.9856805205345154,
        -0.8370433449745178
      ],
      "type": "VEC3"
    },
    {
      "bufferView": 17,
      "componentType": 5126,
      "count": 3624,
      "max": [
        14.490163803100586,
        102.69702911376953,
        212.17779541015625
      ],
      "min": [
        -14.482123374938965,
        -125.81636810302734,
        187.1934051513672
      ],
      "type": "VEC3"
    },
    {
      "bufferView": 18,
      "componentType": 5126,
      "count": 3624,
      "max": [
        28.980327606201172,
        205.39405822753906
      ],
      "min": [
        -28.96424674987793,
        -251.6327362060547
      ],
      "type": "VEC2"
    },
    {
      "bufferView": 19,
      "componentType": 5126,
      "count": 3624,
      "max": [
        0.8822288513183594,
        0.962738037109375,
        0.9999922513961792
      ],
      "min": [
        -0.8822306394577026,
        -0.9964203834533691,
        -0.999992311000824
      ],
      "type": "VEC3"
    },
    {
      "bufferView": 20,
      "componentType": 5126,
      "count": 7260,
      "max": [
        218.27584838867188,
        101.2247314453125,
        -183.00123596191406
      ],
      "min": [
        184.52757263183594,
        -130.47543334960938,
        -219.6319580078125
      ],
      "type": "VEC3"
    },
    {
      "bufferView": 21,
      "componentType": 5126,
      "count": 7260,
      "max": [
        170.17343139648438,
        202.449462890625
      ],
      "min": [
        -260.95086669921875,
        -260.95086669921875
      ],
      "type": "VEC2"
    },
    {
      "bufferView": 22,
      "componentType": 5126,
      "count": 7260,
      "max": [
        0.9996191263198853,
        0.9964220523834229,
        0.9128732085227966
      ],
      "min": [
        -0.999608039855957,
        -0.9293354749679565,
        -0.9128705859184265
      ],
      "type": "VEC3"
    },
    {
      "bufferView": 23,
      "componentType": 5126,
      "count": 7260,
      "max": [
        218.17364501953125,
        101.83797454833984,
        17.67464256286621
      ],
      "min": [
        180.06112670898438,
        -128.17723083496094,
        -17.99713134765625
      ],
      "type": "VEC3"
    },
    {
      "bufferView": 24,
      "componentType": 5126,
      "count": 7260,
      "max": [
        36.347286224365234,
        203.6759490966797
      ],
      "min": [
        -39.87774658203125,
        -256.3544616699219
      ],
      "type": "VEC2"
    },
    {
      "bufferView": 25,
      "componentType": 5126,
      "count": 7260,
      "max": [
        0.9374666213989258,
        0.9920880794525146,
        0.9997736811637878
      ],
      "min": [
        -0.9374674558639526,
        -0.9721722602844238,
        -0.9997698068618774
      ],
      "type": "VEC3"
    },
    {
      "bufferView": 26,
      "componentType": 5126,
      "count": 4836,
      "max": [
        220.26025390625,
        104.7522201538086,
        219.49722290039062
      ],
      "min": [
        179.97276306152344,
        -127.66089630126953,
        181.01437377929688
      ],
      "type": "VEC3"
    },
    {
      "bufferView": 27,
      "componentType": 5126,
      "count": 4836,
      "max": [
        40.52051544189453,
        209.5044403076172
      ],
      "min": [
        -40.05446243286133,
        -255.32179260253906
      ],
      "type": "VEC2"
    },
    {
      "bufferView": 28,
      "componentType": 5126,
      "count": 4836,
      "max": [
        0.8548706769943237,
        0.9451965093612671,
        0.8637183308601379
      ],
      "min": [
        -0.854871392250061,
        -0.9833793044090271,
        -0.8637183904647827
      ],
      "type": "VEC3"
    }
  ],
  "materials": [
    {
      "pbrMetallicRoughness": {
        "metallicFactor": 0.5,
        "roughnessFactor": 0.5
      }
    },
    {
      "pbrMetallicRoughness": {
        "baseColorFactor": [
          0.14940305875116322,
          0.011370214989001814,
          0.7700080730887908,
          1
        ],
        "metallicFactor": 0,
        "roughnessFactor": 1
      },
      "name": "Std_NormalMapped_1"
    },
    {
      "pbrMetallicRoughness": {
        "baseColorFactor": [
          0.7166768592022155,
          0.5038128467559879,
          0.7276958887443814,
          1
        ],
        "metallicFactor": 0,
        "roughnessFactor": 1
      },
      "name": "Std_NormalMapped_2"
    },
    {
      "pbrMetallicRoughness": {
        "baseColorFactor": [
          0.15771455878625718,
          0.12691261430034517,
          0.14583971233406,
          1
        ],
        "metallicFactor": 0,
        "roughnessFactor": 1
      },
      "name": "Std_NormalMapped_3"
    },
    {
      "pbrMetallicRoughness": {
        "baseColorFactor": [
          0.8916049063575082,
          0.4888215522635351,
          0.6194393671767704,
          1
        ],
        "metallicFactor": 0,
        "roughnessFactor": 1
      },
      "name": "Std_NormalMapped_4"
    },
    {
      "pbrMetallicRoughness": {
        "baseColorFactor": [
          0.16075428676905723,
          0.540961112680814,
          0.220639062639298,
          1
        ],
        "metallicFactor": 0,
        "roughnessFactor": 1
      },
      "name": "Std_NormalMapped_5"
    },
    {
      "pbrMetallicRoughness": {
        "baseColorFactor": [
          0.9026739953278236,
          0.362481904014504,
          0.4572078952732552,
          1
        ],
        "metallicFactor": 0,
        "roughnessFactor": 1
      },
      "name": "Std_NormalMapped_6"
    },
    {
      "pbrMetallicRoughness": {
        "baseColorFactor": [
          0.1037264988336879,
          0.11296215653959818,
          0.4945542183665923,
          1
        ],
        "metallicFactor": 0,
        "roughnessFactor": 1
      },
      "name": "Std_NormalMapped_7"
    },
    {
      "pbrMetallicRoughness": {
        "baseColorFactor": [
          0.5990533051452027,
          0.2177823737346063,
          0.10508450329801233,
          1
        ],
        "metallicFactor": 0,
        "roughnessFactor": 1
      },
      "name": "Std_NormalMapped_8"
    },
    {
      "pbrMetallicRoughness": {
        "baseColorFactor": [
          0.10692153717528985,
          0.6350367376373622,
          0.8300785335280463,
          1
        ],
        "metallicFactor": 0,
        "roughnessFactor": 1
      },
      "name": "Std_NormalMapped_9"
    }
  ],
  "meshes": [
    {
      "primitives": [
        {
          "mode": 1,
          "attributes": {
            "POSITION": 0,
            "COLOR_0": 1
          },
          "material": 0
        }
      ]
    },
    {
      "primitives": [
        {
          "mode": 4,
          "attributes": {
            "POSITION": 2,
            "TEXCOORD_0": 3,
            "NORMAL": 4
          },
          "material": 1
        }
      ]
    },
    {
      "primitives": [
        {
          "mode": 4,
          "attributes": {
            "POSITION": 5,
            "TEXCOORD_0": 6,
            "NORMAL": 7
          },
          "material": 2
        }
      ]
    },
    {
      "primitives": [
        {
          "mode": 4,
          "attributes": {
            "POSITION": 8,
            "TEXCOORD_0": 9,
            "NORMAL": 10
          },
          "material": 3
        }
      ]
    },
    {
      "primitives": [
        {
          "mode": 4,
          "attributes": {
            "POSITION": 11,
            "TEXCOORD_0": 12,
            "NORMAL": 13
          },
          "material": 4
        }
      ]
    },
    {
      "primitives": [
        {
          "mode": 4,
          "attributes": {
            "POSITION": 14,
            "TEXCOORD_0": 15,
            "NORMAL": 16
          },
          "material": 5
        }
      ]
    },
    {
      "primitives": [
        {
          "mode": 4,
          "attributes": {
            "POSITION": 17,
            "TEXCOORD_0": 18,
            "NORMAL": 19
          },
          "material": 6
        }
      ]
    },
    {
      "primitives": [
        {
          "mode": 4,
          "attributes": {
            "POSITION": 20,
            "TEXCOORD_0": 21,
            "NORMAL": 22
          },
          "material": 7
        }
      ]
    },
    {
      "primitives": [
        {
          "mode": 4,
          "attributes": {
            "POSITION": 23,
            "TEXCOORD_0": 24,
            "NORMAL": 25
          },
          "material": 8
        }
      ]
    },
    {
      "primitives": [
        {
          "mode": 4,
          "attributes": {
            "POSITION": 26,
            "TEXCOORD_0": 27,
            "NORMAL": 28
          },
          "material": 9
        }
      ]
    }
  ]
}