{
  "asset": {
    "version": "2.0",
    "generator": "THREE.GLTFExporter"
  },
  "scenes": [
    {
      "nodes": [
        0,
        1,
        2,
        3,
        4,
        5,
        6,
        7,
        8,
        9,
        10,
        11,
        12
      ]
    }
  ],
  "scene": 0,
  "nodes": [
    {
      "mesh": 0
    },
    {
      "mesh": 1
    },
    {
      "mesh": 2
    },
    {
      "mesh": 3
    },
    {
      "mesh": 4
    },
    {
      "mesh": 5
    },
    {
      "mesh": 6
    },
    {
      "mesh": 7
    },
    {
      "mesh": 8
    },
    {
      "mesh": 9
    },
    {
      "mesh": 10
    },
    {
      "mesh": 11
    },
    {
      "mesh": 12
    }
  ],
  "bufferViews": [
    {
      "buffer": 0,
      "byteOffset": 0,
      "byteLength": 72,
      "target": 34962,
      "byteStride": 12
    },
    {
      "buffer": 0,
      "byteOffset": 72,
      "byteLength": 72,
      "target": 34962,
      "byteStride": 12
    },
    {
      "buffer": 0,
      "byteOffset": 144,
      "byteLength": 5616,
      "target": 34962,
      "byteStride": 12
    },
    {
      "buffer": 0,
      "byteOffset": 5760,
      "byteLength": 3744,
      "target": 34962,
      "byteStride": 8
    },
    {
      "buffer": 0,
      "byteOffset": 9504,
      "byteLength": 5616,
      "target": 34962,
      "byteStride": 12
    },
    {
      "buffer": 0,
      "byteOffset": 15120,
      "byteLength": 12528,
      "target": 34962,
      "byteStride": 12
    },
    {
      "buffer": 0,
      "byteOffset": 27648,
      "byteLength": 8352,
      "target": 34962,
      "byteStride": 8
    },
    {
      "buffer": 0,
      "byteOffset": 36000,
      "byteLength": 12528,
      "target": 34962,
      "byteStride": 12
    },
    {
      "buffer": 0,
      "byteOffset": 48528,
      "byteLength": 6768,
      "target": 34962,
      "byteStride": 12
    },
    {
      "buffer": 0,
      "byteOffset": 55296,
      "byteLength": 4512,
      "target": 34962,
      "byteStride": 8
    },
    {
      "buffer": 0,
      "byteOffset": 59808,
      "byteLength": 6768,
      "target": 34962,
      "byteStride": 12
    },
    {
      "buffer": 0,
      "byteOffset": 66576,
      "byteLength": 5040,
      "target": 34962,
      "byteStride": 12
    },
    {
      "buffer": 0,
      "byteOffset": 71616,
      "byteLength": 3360,
      "target": 34962,
      "byteStride": 8
    },
    {
      "buffer": 0,
      "byteOffset": 74976,
      "byteLength": 5040,
      "target": 34962,
      "byteStride": 12
    },
    {
      "buffer": 0,
      "byteOffset": 80016,
      "byteLength": 7920,
      "target": 34962,
      "byteStride": 12
    },
    {
      "buffer": 0,
      "byteOffset": 87936,
      "byteLength": 5280,
      "target": 34962,
      "byteStride": 8
    },
    {
      "buffer": 0,
      "byteOffset": 93216,
      "byteLength": 7920,
      "target": 34962,
      "byteStride": 12
    },
    {
      "buffer": 0,
      "byteOffset": 101136,
      "byteLength": 6768,
      "target": 34962,
      "byteStride": 12
    },
    {
      "buffer": 0,
      "byteOffset": 107904,
      "byteLength": 4512,
      "target": 34962,
      "byteStride": 8
    },
    {
      "buffer": 0,
      "byteOffset": 112416,
      "byteLength": 6768,
      "target": 34962,
      "byteStride": 12
    },
    {
      "buffer": 0,
      "byteOffset": 119184,
      "byteLength": 6768,
      "target": 34962,
      "byteStride": 12
    },
    {
      "buffer": 0,
      "byteOffset": 125952,
      "byteLength": 4512,
      "target": 34962,
      "byteStride": 8
    },
    {
      "buffer": 0,
      "byteOffset": 130464,
      "byteLength": 6768,
      "target": 34962,
      "byteStride": 12
    },
    {
      "buffer": 0,
      "byteOffset": 137232,
      "byteLength": 3888,
      "target": 34962,
      "byteStride": 12
    },
    {
      "buffer": 0,
      "byteOffset": 141120,
      "byteLength": 2592,
      "target": 34962,
      "byteStride": 8
    },
    {
      "buffer": 0,
      "byteOffset": 143712,
      "byteLength": 3888,
      "target": 34962,
      "byteStride": 12
    },
    {
      "buffer": 0,
      "byteOffset": 147600,
      "byteLength": 5616,
      "target": 34962,
      "byteStride": 12
    },
    {
      "buffer": 0,
      "byteOffset": 153216,
      "byteLength": 3744,
      "target": 34962,
      "byteStride": 8
    },
    {
      "buffer": 0,
      "byteOffset": 156960,
      "byteLength": 5616,
      "target": 34962,
      "byteStride": 12
    },
    {
      "buffer": 0,
      "byteOffset": 162576,
      "byteLength": 10224,
      "target": 34962,
      "byteStride": 12
    },
    {
      "buffer": 0,
      "byteOffset": 172800,
      "byteLength": 6816,
      "target": 34962,
      "byteStride": 8
    },
    {
      "buffer": 0,
      "byteOffset": 179616,
      "byteLength": 10224,
      "target": 34962,
      "byteStride": 12
    },
    {
      "buffer": 0,
      "byteOffset": 189840,
      "byteLength": 5616,
      "target": 34962,
      "byteStride": 12
    },
    {
      "buffer": 0,
      "byteOffset": 195456,
      "byteLength": 3744,
      "target": 34962,
      "byteStride": 8
    },
    {
      "buffer": 0,
      "byteOffset": 199200,
      "byteLength": 5616,
      "target": 34962,
      "byteStride": 12
    },
    {
      "buffer": 0,
      "byteOffset": 204816,
      "byteLength": 4464,
      "target": 34962,
      "byteStride": 12
    },
    {
      "buffer": 0,
      "byteOffset": 209280,
      "byteLength": 2976,
      "target": 34962,
      "byteStride": 8
    },
    {
      "buffer": 0,
      "byteOffset": 212256,
      "byteLength": 4464,
      "target": 34962,
      "byteStride": 12
    }
  ],
  "buffers": [
    {
      "byteLength": 216720,
      "uri": "data:application/octet-stream;base64,"
    }
  ],
  "accessors": [
    {
      "bufferView": 0,
      "componentType": 5126,
      "count": 6,
      "max": [
        200,
        200,
        200
      ],
      "min": [
        0,
        0,
        0
      ],
      "type": "VEC3"
    },
    {
      "bufferView": 1,
      "componentType": 5126,
      "count": 6,
      "max": [
        1,
        1,
        1
      ],
      "min": [
        0,
        0,
        0
      ],
      "type": "VEC3"
    },
    {
      "bufferView": 2,
      "componentType": 5126,
      "count": 468,
      "max": [
        -164.3431396484375,
        33.87929916381836,
        -275
      ],
      "min": [
        -228.88275146484375,
        -33.87929916381836,
        -305
      ],
      "type": "VEC3"
    },
    {
      "bufferView": 3,
      "componentType": 5126,
      "count": 468,
      "max": [
        35.65685272216797,
        28.5
      ],
      "min": [
        -33.87929916381836,
        -28.5
      ],
      "type": "VEC2"
    },
    {
      "bufferView": 4,
      "componentType": 5126,
      "count": 468,
      "max": [
        0.998783528804779,
        0.9655899405479431,
        1
      ],
      "min": [
        -0.8360024094581604,
        -0.9655899405479431,
        -1
      ],
      "type": "VEC3"
    },
    {
      "bufferView": 5,
      "componentType": 5126,
      "count": 1044,
      "max": [
        -164.3431396484375,
        35.299251556396484,
        -75
      ],
      "min": [
        -234.22833251953125,
        -35.299251556396484,
        -105
      ],
      "type": "VEC3"
    },
    {
      "bufferView": 6,
      "componentType": 5126,
      "count": 1044,
      "max": [
        35.65685272216797,
        29.700000762939453
      ],
      "min": [
        -35.299251556396484,
        -29.700000762939453
      ],
      "type": "VEC2"
    },
    {
      "bufferView": 7,
      "componentType": 5126,
      "count": 1044,
      "max": [
        0.9759916067123413,
        0.9972386956214905,
        1
      ],
      "min": [
        -0.9977338314056396,
        -0.9972386956214905,
        -1
      ],
      "type": "VEC3"
    },
    {
      "bufferView": 8,
      "componentType": 5126,
      "count": 564,
      "max": [
        -164.3431396484375,
        30.900171279907227,
        125
      ],
      "min": [
        -235.6568603515625,
        -30.900171279907227,
        95
      ],
      "type": "VEC3"
    },
    {
      "bufferView": 9,
      "componentType": 5126,
      "count": 564,
      "max": [
        35.65685272216797,
        26
      ],
      "min": [
        -35.65685272216797,
        -26
      ],
      "type": "VEC2"
    },
    {
      "bufferView": 10,
      "componentType": 5126,
      "count": 564,
      "max": [
        0.9833179116249084,
        0.9427395462989807,
        1
      ],
      "min": [
        -0.9833179116249084,
        -0.9427395462989807,
        -1
      ],
      "type": "VEC3"
    },
    {
      "bufferView": 11,
      "componentType": 5126,
      "count": 420,
      "max": [
        -175.74278259277344,
        23.893312454223633,
        325
      ],
      "min": [
        -222.8000030517578,
        -23.893312454223633,
        295
      ],
      "type": "VEC3"
    },
    {
      "bufferView": 12,
      "componentType": 5126,
      "count": 420,
      "max": [
        20.98382568359375,
        19.700000762939453
      ],
      "min": [
        -20.98382568359375,
        -24
      ],
      "type": "VEC2"
    },
    {
      "bufferView": 13,
      "componentType": 5126,
      "count": 420,
      "max": [
        0.9395805597305298,
        0.9844952821731567,
        1
      ],
      "min": [
        -1,
        -0.9844952821731567,
        -1
      ],
      "type": "VEC3"
    },
    {
      "bufferView": 14,
      "componentType": 5126,
      "count": 660,
      "max": [
        35.65685272216797,
        34.71388244628906,
        -275
      ],
      "min": [
        -32.09706497192383,
        -34.71388244628906,
        -305
      ],
      "type": "VEC3"
    },
    {
      "bufferView": 15,
      "componentType": 5126,
      "count": 660,
      "max": [
        35.65685272216797,
        29.200000762939453
      ],
      "min": [
        -34.71388244628906,
        -29.200000762939453
      ],
      "type": "VEC2"
    },
    {
      "bufferView": 16,
      "componentType": 5126,
      "count": 660,
      "max": [
        0.9335265159606934,
        0.989815354347229,
        1
      ],
      "min": [
        -0.9967526793479919,
        -0.989815354347229,
        -1
      ],
      "type": "VEC3"
    },
    {
      "bufferView": 17,
      "componentType": 5126,
      "count": 564,
      "max": [
        35.65685272216797,
        30.900171279907227,
        -75
      ],
      "min": [
        -35.65685272216797,
        -30.900171279907227,
        -105
      ],
      "type": "VEC3"
    },
    {
      "bufferView": 18,
      "componentType": 5126,
      "count": 564,
      "max": [
        35.65685272216797,
        26
      ],
      "min": [
        -35.65685272216797,
        -26
      ],
      "type": "VEC2"
    },
    {
      "bufferView": 19,
      "componentType": 5126,
      "count": 564,
      "max": [
        0.9833179116249084,
        0.9427395462989807,
        1
      ],
      "min": [
        -0.9833179116249084,
        -0.9427395462989807,
        -1
      ],
      "type": "VEC3"
    },
    {
      "bufferView": 20,
      "componentType": 5126,
      "count": 564,
      "max": [
        24.14323616027832,
        24.14323616027832,
        125
      ],
      "min": [
        -24.14323616027832,
        -24.14323616027832,
        95
      ],
      "type": "VEC3"
    },
    {
      "bufferView": 21,
      "componentType": 5126,
      "count": 564,
      "max": [
        20.883403778076172,
        20
      ],
      "min": [
        -20.883403778076172,
        -24
      ],
      "type": "VEC2"
    },
    {
      "bufferView": 22,
      "componentType": 5126,
      "count": 564,
      "max": [
        0.9654290676116943,
        0.9654290676116943,
        1
      ],
      "min": [
        -0.9654290676116943,
        -0.9654290676116943,
        -1
      ],
      "type": "VEC3"
    },
    {
      "bufferView": 23,
      "componentType": 5126,
      "count": 324,
      "max": [
        24.438268661499023,
        23.831401824951172,
        325
      ],
      "min": [
        -22,
        -23.831401824951172,
        295
      ],
      "type": "VEC3"
    },
    {
      "bufferView": 24,
      "componentType": 5126,
      "count": 324,
      "max": [
        20,
        19.5
      ],
      "min": [
        -22,
        -24
      ],
      "type": "VEC2"
    },
    {
      "bufferView": 25,
      "componentType": 5126,
      "count": 324,
      "max": [
        0.9012524485588074,
        0.9745363593101501,
        1
      ],
      "min": [
        -1,
        -0.9745363593101501,
        -1
      ],
      "type": "VEC3"
    },
    {
      "bufferView": 26,
      "componentType": 5126,
      "count": 468,
      "max": [
        235.6568603515625,
        33.87929916381836,
        -275
      ],
      "min": [
        171.11724853515625,
        -33.87929916381836,
        -305
      ],
      "type": "VEC3"
    },
    {
      "bufferView": 27,
      "componentType": 5126,
      "count": 468,
      "max": [
        35.65685272216797,
        28.5
      ],
      "min": [
        -33.87929916381836,
        -28.5
      ],
      "type": "VEC2"
    },
    {
      "bufferView": 28,
      "componentType": 5126,
      "count": 468,
      "max": [
        0.998783528804779,
        0.9655899405479431,
        1
      ],
      "min": [
        -0.8360024094581604,
        -0.9655899405479431,
        -1
      ],
      "type": "VEC3"
    },
    {
      "bufferView": 29,
      "componentType": 5126,
      "count": 852,
      "max": [
        235.6568603515625,
        35.070438385009766,
        -75
      ],
      "min": [
        166.48728942871094,
        -35.070438385009766,
        -105
      ],
      "type": "VEC3"
    },
    {
      "bufferView": 30,
      "componentType": 5126,
      "count": 852,
      "max": [
        35.65685272216797,
        29.5
      ],
      "min": [
        -35.070438385009766,
        -29.5
      ],
      "type": "VEC2"
    },
    {
      "bufferView": 31,
      "componentType": 5126,
      "count": 852,
      "max": [
        0.9971309900283813,
        0.9949436187744141,
        1
      ],
      "min": [
        -0.9629172086715698,
        -0.9949436187744141,
        -1
      ],
      "type": "VEC3"
    },
    {
      "bufferView": 32,
      "componentType": 5126,
      "count": 468,
      "max": [
        235.6568603515625,
        33.87929916381836,
        125
      ],
      "min": [
        171.11724853515625,
        -33.87929916381836,
        95
      ],
      "type": "VEC3"
    },
    {
      "bufferView": 33,
      "componentType": 5126,
      "count": 468,
      "max": [
        35.65685272216797,
        28.5
      ],
      "min": [
        -33.87929916381836,
        -28.5
      ],
      "type": "VEC2"
    },
    {
      "bufferView": 34,
      "componentType": 5126,
      "count": 468,
      "max": [
        0.998783528804779,
        0.9655899405479431,
        1
      ],
      "min": [
        -0.8360024094581604,
        -0.9655899405479431,
        -1
      ],
      "type": "VEC3"
    },
    {
      "bufferView": 35,
      "componentType": 5126,
      "count": 372,
      "max": [
        235.6568603515625,
        35.65685272216797,
        325
      ],
      "min": [
        164.3431396484375,
        -35.65685272216797,
        295
      ],
      "type": "VEC3"
    },
    {
      "bufferView": 36,
      "componentType": 5126,
      "count": 372,
      "max": [
        35.65685272216797,
        30
      ],
      "min": [
        -35.65685272216797,
        -30
      ],
      "type": "VEC2"
    },
    {
      "bufferView": 37,
      "componentType": 5126,
      "count": 372,
      "max": [
        0.9270297288894653,
        0.9270297288894653,
        1
      ],
      "min": [
        -0.9270297288894653,
        -0.9270297288894653,
        -1
      ],
      "type": "VEC3"
    }
  ],
  "materials": [
    {
      "pbrMetallicRoughness": {
        "metallicFactor": 0.5,
        "roughnessFactor": 0.5
      }
    },
    {
      "pbrMetallicRoughness": {
        "baseColorFactor": [
          0.944561057290169,
          0.1170261296863464,
          0.9905847393332328,
          1
        ],
        "metallicFactor": 0,
        "roughnessFactor": 1
      },
      "name": "Textured_1"
    },
    {
      "pbrMetallicRoughness": {
        "baseColorFactor": [
          0.5987024886351311,
          0.5205992913965076,
          0.8567322228694647,
          1
        ],
        "metallicFactor": 0,
        "roughnessFactor": 1
      },
      "name": "Textured_2"
    },
    {
      "pbrMetallicRoughness": {
        "baseColorFactor": [
          0.08662113540421013,
          0.28533408796116055,
          0.07092658293455933,
          1
        ],
        "metallicFactor": 0,
        "roughnessFactor": 1
      },
      "name": "Textured_3"
    },
    {
      "pbrMetallicRoughness": {
        "baseColorFactor": [
          0.9651446700552906,
          0.7483172728933978,
          0.7601711200999786,
          1
        ],
        "metallicFactor": 0,
        "roughnessFactor": 1
      },
      "name": "Textured_4"
    },
    {
      "pbrMetallicRoughness": {
        "baseColorFactor": [
          0.0022596017384044487,
          0.6875124071749448,
          0.3222836116723353,
          1
        ],
        "metallicFactor": 0,
        "roughnessFactor": 1
      },
      "name": "Textured_5"
    },
    {
      "pbrMetallicRoughness": {
        "baseColorFactor": [
          0.7863475304701881,
          0.6903378574078631,
          0.04425232980391902,
          1
        ],
        "metallicFactor": 0,
        "roughnessFactor": 1
      },
      "name": "Textured_6"
    },
    {
      "pbrMetallicRoughness": {
        "baseColorFactor": [
          0.5274347787275842,
          0.7854919274260324,
          0.4755826255712339,
          1
        ],
        "metallicFactor": 0,
        "roughnessFactor": 1
      },
      "name": "Textured_7"
    },
    {
      "pbrMetallicRoughness": {
        "baseColorFactor": [
          0.18069267663014887,
          0.40849921865781846,
          0.7585453413824139,
          1
        ],
        "metallicFactor": 0,
        "roughnessFactor": 1
      },
      "name": "Textured_8"
    },
    {
      "pbrMetallicRoughness": {
        "baseColorFactor": [
          0.8628079334083165,
          0.7479315356861256,
          0.23133436992066447,
          1
        ],
        "metallicFactor": 0,
        "roughnessFactor": 1
      },
      "name": "Textured_9"
    }
  ],
  "meshes": [
    {
      "primitives": [
        {
          "mode": 1,
          "attributes": {
            "POSITION": 0,
            "COLOR_0": 1
          },
          "material": 0
        }
      ]
    },
    {
      "primitives": [
        {
          "mode": 4,
          "attributes": {
            "POSITION": 2,
            "TEXCOORD_0": 3,
            "NORMAL": 4
          },
          "material": 1
        }
      ]
    },
    {
      "primitives": [
        {
          "mode": 4,
          "attributes": {
            "POSITION": 5,
            "TEXCOORD_0": 6,
            "NORMAL": 7
          },
          "material": 2
        }
      ]
    },
    {
      "primitives": [
        {
          "mode": 4,
          "attributes": {
            "POSITION": 8,
            "TEXCOORD_0": 9,
            "NORMAL": 10
          },
          "material": 3
        }
      ]
    },
    {
      "primitives": [
        {
          "mode": 4,
          "attributes": {
            "POSITION": 11,
            "TEXCOORD_0": 12,
            "NORMAL": 13
          },
          "material": 4
        }
      ]
    },
    {
      "primitives": [
        {
          "mode": 4,
          "attributes": {
            "POSITION": 14,
            "TEXCOORD_0": 15,
            "NORMAL": 16
          },
          "material": 5
        }
      ]
    },
    {
      "primitives": [
        {
          "mode": 4,
          "attributes": {
            "POSITION": 17,
            "TEXCOORD_0": 18,
            "NORMAL": 19
          },
          "material": 6
        }
      ]
    },
    {
      "primitives": [
        {
          "mode": 4,
          "attributes": {
            "POSITION": 20,
            "TEXCOORD_0": 21,
            "NORMAL": 22
          },
          "material": 7
        }
      ]
    },
    {
      "primitives": [
        {
          "mode": 4,
          "attributes": {
            "POSITION": 23,
            "TEXCOORD_0": 24,
            "NORMAL": 25
          },
          "material": 8
        }
      ]
    },
    {
      "primitives": [
        {
          "mode": 4,
          "attributes": {
            "POSITION": 26,
            "TEXCOORD_0": 27,
            "NORMAL": 28
          },
          "material": 9
        }
      ]
    },
    {
      "primitives": [
        {
          "mode": 4,
          "attributes": {
            "POSITION": 29,
            "TEXCOORD_0": 30,
            "NORMAL": 31
          },
          "material": 1
        }
      ]
    },
    {
      "primitives": [
        {
          "mode": 4,
          "attributes": {
            "POSITION": 32,
            "TEXCOORD_0": 33,
            "NORMAL": 34
          },
          "material": 2
        }
      ]
    },
    {
      "primitives": [
        {
          "mode": 4,
          "attributes": {
            "POSITION": 35,
            "TEXCOORD_0": 36,
            "NORMAL": 37
          },
          "material": 3
        }
      ]
    }
  ]
}