{
  "asset": {
    "version": "2.0",
    "generator": "THREE.GLTFExporter"
  },
  "scenes": [
    {
      "nodes": [
        0,
        1,
        2,
        3,
        4,
        5,
        6,
        7,
        8,
        9
      ]
    }
  ],
  "scene": 0,
  "nodes": [
    {
      "mesh": 0
    },
    {
      "mesh": 1
    },
    {
      "mesh": 2
    },
    {
      "mesh": 3
    },
    {
      "mesh": 4
    },
    {
      "mesh": 5
    },
    {
      "mesh": 6
    },
    {
      "mesh": 7
    },
    {
      "mesh": 8
    },
    {
      "mesh": 9
    }
  ],
  "bufferViews": [
    {
      "buffer": 0,
      "byteOffset": 0,
      "byteLength": 72,
      "target": 34962,
      "byteStride": 12
    },
    {
      "buffer": 0,
      "byteOffset": 72,
      "byteLength": 72,
      "target": 34962,
      "byteStride": 12
    },
    {
      "buffer": 0,
      "byteOffset": 144,
      "byteLength": 60768,
      "target": 34962,
      "byteStride": 12
    },
    {
      "buffer": 0,
      "byteOffset": 60912,
      "byteLength": 40512,
      "target": 34962,
      "byteStride": 8
    },
    {
      "buffer": 0,
      "byteOffset": 101424,
      "byteLength": 60768,
      "target": 34962,
      "byteStride": 12
    },
    {
      "buffer": 0,
      "byteOffset": 162192,
      "byteLength": 91080,
      "target": 34962,
      "byteStride": 12
    },
    {
      "buffer": 0,
      "byteOffset": 253272,
      "byteLength": 60720,
      "target": 34962,
      "byteStride": 8
    },
    {
      "buffer": 0,
      "byteOffset": 313992,
      "byteLength": 91080,
      "target": 34962,
      "byteStride": 12
    },
    {
      "buffer": 0,
      "byteOffset": 405072,
      "byteLength": 216576,
      "target": 34962,
      "byteStride": 12
    },
    {
      "buffer": 0,
      "byteOffset": 621648,
      "byteLength": 144384,
      "target": 34962,
      "byteStride": 8
    },
    {
      "buffer": 0,
      "byteOffset": 766032,
      "byteLength": 216576,
      "target": 34962,
      "byteStride": 12
    },
    {
      "buffer": 0,
      "byteOffset": 982608,
      "byteLength": 127152,
      "target": 34962,
      "byteStride": 12
    },
    {
      "buffer": 0,
      "byteOffset": 1109760,
      "byteLength": 84768,
      "target": 34962,
      "byteStride": 8
    },
    {
      "buffer": 0,
      "byteOffset": 1194528,
      "byteLength": 127152,
      "target": 34962,
      "byteStride": 12
    },
    {
      "buffer": 0,
      "byteOffset": 1321680,
      "byteLength": 86616,
      "target": 34962,
      "byteStride": 12
    },
    {
      "buffer": 0,
      "byteOffset": 1408296,
      "byteLength": 57744,
      "target": 34962,
      "byteStride": 8
    },
    {
      "buffer": 0,
      "byteOffset": 1466040,
      "byteLength": 86616,
      "target": 34962,
      "byteStride": 12
    },
    {
      "buffer": 0,
      "byteOffset": 1552656,
      "byteLength": 300528,
      "target": 34962,
      "byteStride": 12
    },
    {
      "buffer": 0,
      "byteOffset": 1853184,
      "byteLength": 200352,
      "target": 34962,
      "byteStride": 8
    },
    {
      "buffer": 0,
      "byteOffset": 2053536,
      "byteLength": 300528,
      "target": 34962,
      "byteStride": 12
    },
    {
      "buffer": 0,
      "byteOffset": 2354064,
      "byteLength": 121680,
      "target": 34962,
      "byteStride": 12
    },
    {
      "buffer": 0,
      "byteOffset": 2475744,
      "byteLength": 81120,
      "target": 34962,
      "byteStride": 8
    },
    {
      "buffer": 0,
      "byteOffset": 2556864,
      "byteLength": 121680,
      "target": 34962,
      "byteStride": 12
    },
    {
      "buffer": 0,
      "byteOffset": 2678544,
      "byteLength": 43272,
      "target": 34962,
      "byteStride": 12
    },
    {
      "buffer": 0,
      "byteOffset": 2721816,
      "byteLength": 28848,
      "target": 34962,
      "byteStride": 8
    },
    {
      "buffer": 0,
      "byteOffset": 2750664,
      "byteLength": 43272,
      "target": 34962,
      "byteStride": 12
    },
    {
      "buffer": 0,
      "byteOffset": 2793936,
      "byteLength": 51984,
      "target": 34962,
      "byteStride": 12
    },
    {
      "buffer": 0,
      "byteOffset": 2845920,
      "byteLength": 34656,
      "target": 34962,
      "byteStride": 8
    },
    {
      "buffer": 0,
      "byteOffset": 2880576,
      "byteLength": 51984,
      "target": 34962,
      "byteStride": 12
    }
  ],
  "buffers": [
    {
      "byteLength": 2932560,
      "uri": "data:application/octet-stream;base64,"
    }
  ],
  "accessors": [
    {
      "bufferView": 0,
      "componentType": 5126,
      "count": 6,
      "max": [
        200,
        200,
        200
      ],
      "min": [
        0,
        0,
        0
      ],
      "type": "VEC3"
    },
    {
      "bufferView": 1,
      "componentType": 5126,
      "count": 6,
      "max": [
        1,
        1,
        1
      ],
      "min": [
        0,
        0,
        0
      ],
      "type": "VEC3"
    },
    {
      "bufferView": 2,
      "componentType": 5126,
      "count": 5064,
      "max": [
        -146.81643676757812,
        57.884727478027344,
        -183.7752227783203
      ],
      "min": [
        -258.87469482421875,
        -56.81230545043945,
        -215.3893585205078
      ],
      "type": "VEC3"
    },
    {
      "bufferView": 3,
      "componentType": 5126,
      "count": 5064,
      "max": [
        115.76945495605469,
        51.71699142456055
      ],
      "min": [
        -117.7493667602539,
        -31.449554443359375
      ],
      "type": "VEC2"
    },
    {
      "bufferView": 4,
      "componentType": 5126,
      "count": 5064,
      "max": [
        0.9981496930122375,
        0.9925851821899414,
        0.9841113686561584
      ],
      "min": [
        -0.9906473755836487,
        -0.9924491047859192,
        -0.9852802753448486
      ],
      "type": "VEC3"
    },
    {
      "bufferView": 5,
      "componentType": 5126,
      "count": 7590,
      "max": [
        -143.65509033203125,
        58.992000579833984,
        15.844878196716309
      ],
      "min": [
        -259.5745849609375,
        -58.545799255371094,
        -13.819133758544922
      ],
      "type": "VEC3"
    },
    {
      "bufferView": 6,
      "componentType": 5126,
      "count": 7590,
      "max": [
        117.98400115966797,
        41.565650939941406
      ],
      "min": [
        -119.14916229248047,
        -30.689756393432617
      ],
      "type": "VEC2"
    },
    {
      "bufferView": 7,
      "componentType": 5126,
      "count": 7590,
      "max": [
        0.9923559427261353,
        0.9944404363632202,
        0.9974477887153625
      ],
      "min": [
        -0.9995455145835876,
        -0.9979848861694336,
        -0.9937021136283875
      ],
      "type": "VEC3"
    },
    {
      "bufferView": 8,
      "componentType": 5126,
      "count": 18048,
      "max": [
        -129.8883056640625,
        69.06057739257812,
        219.2665557861328
      ],
      "min": [
        -269.2689514160156,
        -69.17363739013672,
        179.94735717773438
      ],
      "type": "VEC3"
    },
    {
      "bufferView": 9,
      "componentType": 5126,
      "count": 18048,
      "max": [
        140.22340393066406,
        41.10530090332031
      ],
      "min": [
        -138.5378875732422,
        -37.53310775756836
      ],
      "type": "VEC2"
    },
    {
      "bufferView": 10,
      "componentType": 5126,
      "count": 18048,
      "max": [
        0.9979439973831177,
        0.99972003698349,
        0.9999721050262451
      ],
      "min": [
        -0.9995601773262024,
        -0.9992519021034241,
        -0.9990059733390808
      ],
      "type": "VEC3"
    },
    {
      "bufferView": 11,
      "componentType": 5126,
      "count": 10596,
      "max": [
        62.661659240722656,
        64.44999694824219,
        -180.2945556640625
      ],
      "min": [
        -64.1368179321289,
        -64.46932983398438,
        -220.5018310546875
      ],
      "type": "VEC3"
    },
    {
      "bufferView": 12,
      "componentType": 5126,
      "count": 10596,
      "max": [
        128.89999389648438,
        42.00365447998047
      ],
      "min": [
        -128.93865966796875,
        -38.410884857177734
      ],
      "type": "VEC2"
    },
    {
      "bufferView": 13,
      "componentType": 5126,
      "count": 10596,
      "max": [
        0.9923331141471863,
        0.9848858714103699,
        0.9697359204292297
      ],
      "min": [
        -0.9922996759414673,
        -0.9858535528182983,
        -0.9696299433708191
      ],
      "type": "VEC3"
    },
    {
      "bufferView": 14,
      "componentType": 5126,
      "count": 7218,
      "max": [
        58.077083587646484,
        58.616477966308594,
        15.759780883789062
      ],
      "min": [
        -58.61592102050781,
        -58.47123336791992,
        -16.2266902923584
      ],
      "type": "VEC3"
    },
    {
      "bufferView": 15,
      "componentType": 5126,
      "count": 7218,
      "max": [
        117.23295593261719,
        33.4533805847168
      ],
      "min": [
        -117.23184204101562,
        -30.519561767578125
      ],
      "type": "VEC2"
    },
    {
      "bufferView": 16,
      "componentType": 5126,
      "count": 7218,
      "max": [
        0.9992024898529053,
        0.9971579313278198,
        0.997973620891571
      ],
      "min": [
        -0.9971274137496948,
        -0.9981700778007507,
        -0.9963290095329285
      ],
      "type": "VEC3"
    },
    {
      "bufferView": 17,
      "componentType": 5126,
      "count": 25044,
      "max": [
        64.1195297241211,
        64.51898956298828,
        220.496337890625
      ],
      "min": [
        -64.97811889648438,
        -64.60504913330078,
        178.86753845214844
      ],
      "type": "VEC3"
    },
    {
      "bufferView": 18,
      "componentType": 5126,
      "count": 25044,
      "max": [
        129.03797912597656,
        43.26492691040039
      ],
      "min": [
        -129.95623779296875,
        -39.99269104003906
      ],
      "type": "VEC2"
    },
    {
      "bufferView": 19,
      "componentType": 5126,
      "count": 25044,
      "max": [
        0.9932900667190552,
        0.9990829229354858,
        0.9993424415588379
      ],
      "min": [
        -0.9933850169181824,
        -0.9994610548019409,
        -0.9999948143959045
      ],
      "type": "VEC3"
    },
    {
      "bufferView": 20,
      "componentType": 5126,
      "count": 10140,
      "max": [
        257.6656494140625,
        62.554203033447266,
        -181.06788635253906
      ],
      "min": [
        136.6807098388672,
        -61.63444137573242,
        -220.19436645507812
      ],
      "type": "VEC3"
    },
    {
      "bufferView": 21,
      "componentType": 5126,
      "count": 10140,
      "max": [
        125.10840606689453,
        56.93434143066406
      ],
      "min": [
        -126.63858795166016,
        -36.864234924316406
      ],
      "type": "VEC2"
    },
    {
      "bufferView": 22,
      "componentType": 5126,
      "count": 10140,
      "max": [
        0.9941717386245728,
        0.9933072924613953,
        0.9961360692977905
      ],
      "min": [
        -0.990548312664032,
        -0.9930652379989624,
        -0.9960505366325378
      ],
      "type": "VEC3"
    },
    {
      "bufferView": 23,
      "componentType": 5126,
      "count": 3606,
      "max": [
        256.02227783203125,
        59.22563552856445,
        13.30053424835205
      ],
      "min": [
        142.75094604492188,
        -58.67377471923828,
        -15.858999252319336
      ],
      "type": "VEC3"
    },
    {
      "bufferView": 24,
      "componentType": 5126,
      "count": 3606,
      "max": [
        118.4512710571289,
        37.94472122192383
      ],
      "min": [
        -117.34754943847656,
        -25.6010684967041
      ],
      "type": "VEC2"
    },
    {
      "bufferView": 25,
      "componentType": 5126,
      "count": 3606,
      "max": [
        0.9963669776916504,
        0.9888837337493896,
        0.9986543655395508
      ],
      "min": [
        -0.9729781150817871,
        -0.995569109916687,
        -0.9995488524436951
      ],
      "type": "VEC3"
    },
    {
      "bufferView": 26,
      "componentType": 5126,
      "count": 4332,
      "max": [
        256.384765625,
        58.5821418762207,
        214.6219482421875
      ],
      "min": [
        140.22023010253906,
        -58.80490493774414,
        183.77529907226562
      ],
      "type": "VEC3"
    },
    {
      "bufferView": 27,
      "componentType": 5126,
      "count": 4332,
      "max": [
        117.1642837524414,
        41.11751174926758
      ],
      "min": [
        -119.5595474243164,
        -28.24390983581543
      ],
      "type": "VEC2"
    },
    {
      "bufferView": 28,
      "componentType": 5126,
      "count": 4332,
      "max": [
        0.9786010384559631,
        0.9288251996040344,
        0.9160666465759277
      ],
      "min": [
        -0.9784573316574097,
        -0.9406113624572754,
        -0.9428761005401611
      ],
      "type": "VEC3"
    }
  ],
  "materials": [
    {
      "pbrMetallicRoughness": {
        "metallicFactor": 0.5,
        "roughnessFactor": 0.5
      }
    },
    {
      "pbrMetallicRoughness": {
        "baseColorFactor": [
          0.09074179849284181,
          0.25058277873718215,
          0.3972915646884754,
          1
        ],
        "metallicFactor": 0,
        "roughnessFactor": 1
      }
    },
    {
      "pbrMetallicRoughness": {
        "baseColorFactor": [
          0.5303038864208989,
          0.6481322767609399,
          0.8319506436021564,
          1
        ],
        "metallicFactor": 0,
        "roughnessFactor": 1
      }
    },
    {
      "pbrMetallicRoughness": {
        "baseColorFactor": [
          0.43947736576225127,
          0.6816300314956458,
          0.3645692484767453,
          1
        ],
        "metallicFactor": 0,
        "roughnessFactor": 1
      }
    },
    {
      "pbrMetallicRoughness": {
        "baseColorFactor": [
          0.505921277685758,
          0.039870271437725036,
          0.12454147092882084,
          1
        ],
        "metallicFactor": 0,
        "roughnessFactor": 1
      }
    },
    {
      "pbrMetallicRoughness": {
        "baseColorFactor": [
          0.49664103661137315,
          0.022250465440767808,
          0.08367126434074179,
          1
        ],
        "metallicFactor": 0,
        "roughnessFactor": 1
      }
    },
    {
      "pbrMetallicRoughness": {
        "baseColorFactor": [
          0.6743817645252574,
          0.7509652889974932,
          0.8846382568237574,
          1
        ],
        "metallicFactor": 0,
        "roughnessFactor": 1
      }
    },
    {
      "pbrMetallicRoughness": {
        "baseColorFactor": [
          0.7124803799730519,
          0.05857256270529709,
          0.7296017419375003,
          1
        ],
        "metallicFactor": 0,
        "roughnessFactor": 1
      }
    },
    {
      "pbrMetallicRoughness": {
        "baseColorFactor": [
          0.28760677704034965,
          0.8016346971207051,
          0.484409090402657,
          1
        ],
        "metallicFactor": 0,
        "roughnessFactor": 1
      }
    },
    {
      "pbrMetallicRoughness": {
        "baseColorFactor": [
          0.11372620441886516,
          0.07632178565851122,
          0.3988674173757656,
          1
        ],
        "metallicFactor": 0,
        "roughnessFactor": 1
      }
    }
  ],
  "meshes": [
    {
      "primitives": [
        {
          "mode": 1,
          "attributes": {
            "POSITION": 0,
            "COLOR_0": 1
          },
          "material": 0
        }
      ]
    },
    {
      "primitives": [
        {
          "mode": 4,
          "attributes": {
            "POSITION": 2,
            "TEXCOORD_0": 3,
            "NORMAL": 4
          },
          "material": 1
        }
      ]
    },
    {
      "primitives": [
        {
          "mode": 4,
          "attributes": {
            "POSITION": 5,
            "TEXCOORD_0": 6,
            "NORMAL": 7
          },
          "material": 2
        }
      ]
    },
    {
      "primitives": [
        {
          "mode": 4,
          "attributes": {
            "POSITION": 8,
            "TEXCOORD_0": 9,
            "NORMAL": 10
          },
          "material": 3
        }
      ]
    },
    {
      "primitives": [
        {
          "mode": 4,
          "attributes": {
            "POSITION": 11,
            "TEXCOORD_0": 12,
            "NORMAL": 13
          },
          "material": 4
        }
      ]
    },
    {
      "primitives": [
        {
          "mode": 4,
          "attributes": {
            "POSITION": 14,
            "TEXCOORD_0": 15,
            "NORMAL": 16
          },
          "material": 5
        }
      ]
    },
    {
      "primitives": [
        {
          "mode": 4,
          "attributes": {
            "POSITION": 17,
            "TEXCOORD_0": 18,
            "NORMAL": 19
          },
          "material": 6
        }
      ]
    },
    {
      "primitives": [
        {
          "mode": 4,
          "attributes": {
            "POSITION": 20,
            "TEXCOORD_0": 21,
            "NORMAL": 22
          },
          "material": 7
        }
      ]
    },
    {
      "primitives": [
        {
          "mode": 4,
          "attributes": {
            "POSITION": 23,
            "TEXCOORD_0": 24,
            "NORMAL": 25
          },
          "material": 8
        }
      ]
    },
    {
      "primitives": [
        {
          "mode": 4,
          "attributes": {
            "POSITION": 26,
            "TEXCOORD_0": 27,
            "NORMAL": 28
          },
          "material": 9
        }
      ]
    }
  ]
}