{
  "asset": {
    "version": "2.0",
    "generator": "THREE.GLTFExporter"
  },
  "scenes": [
    {
      "nodes": [
        0,
        1,
        2,
        3,
        4,
        5,
        6,
        7,
        8,
        9
      ]
    }
  ],
  "scene": 0,
  "nodes": [
    {
      "mesh": 0
    },
    {
      "mesh": 1
    },
    {
      "mesh": 2
    },
    {
      "mesh": 3
    },
    {
      "mesh": 4
    },
    {
      "mesh": 5
    },
    {
      "mesh": 6
    },
    {
      "mesh": 7
    },
    {
      "mesh": 8
    },
    {
      "mesh": 9
    }
  ],
  "bufferViews": [
    {
      "buffer": 0,
      "byteOffset": 0,
      "byteLength": 72,
      "target": 34962,
      "byteStride": 12
    },
    {
      "buffer": 0,
      "byteOffset": 72,
      "byteLength": 72,
      "target": 34962,
      "byteStride": 12
    },
    {
      "buffer": 0,
      "byteOffset": 144,
      "byteLength": 2736,
      "target": 34962,
      "byteStride": 12
    },
    {
      "buffer": 0,
      "byteOffset": 2880,
      "byteLength": 1824,
      "target": 34962,
      "byteStride": 8
    },
    {
      "buffer": 0,
      "byteOffset": 4704,
      "byteLength": 2736,
      "target": 34962,
      "byteStride": 12
    },
    {
      "buffer": 0,
      "byteOffset": 7440,
      "byteLength": 13680,
      "target": 34962,
      "byteStride": 12
    },
    {
      "buffer": 0,
      "byteOffset": 21120,
      "byteLength": 9120,
      "target": 34962,
      "byteStride": 8
    },
    {
      "buffer": 0,
      "byteOffset": 30240,
      "byteLength": 13680,
      "target": 34962,
      "byteStride": 12
    },
    {
      "buffer": 0,
      "byteOffset": 43920,
      "byteLength": 2160,
      "target": 34962,
      "byteStride": 12
    },
    {
      "buffer": 0,
      "byteOffset": 46080,
      "byteLength": 1440,
      "target": 34962,
      "byteStride": 8
    },
    {
      "buffer": 0,
      "byteOffset": 47520,
      "byteLength": 2160,
      "target": 34962,
      "byteStride": 12
    },
    {
      "buffer": 0,
      "byteOffset": 49680,
      "byteLength": 3888,
      "target": 34962,
      "byteStride": 12
    },
    {
      "buffer": 0,
      "byteOffset": 53568,
      "byteLength": 2592,
      "target": 34962,
      "byteStride": 8
    },
    {
      "buffer": 0,
      "byteOffset": 56160,
      "byteLength": 3888,
      "target": 34962,
      "byteStride": 12
    },
    {
      "buffer": 0,
      "byteOffset": 60048,
      "byteLength": 6192,
      "target": 34962,
      "byteStride": 12
    },
    {
      "buffer": 0,
      "byteOffset": 66240,
      "byteLength": 4128,
      "target": 34962,
      "byteStride": 8
    },
    {
      "buffer": 0,
      "byteOffset": 70368,
      "byteLength": 6192,
      "target": 34962,
      "byteStride": 12
    },
    {
      "buffer": 0,
      "byteOffset": 76560,
      "byteLength": 6768,
      "target": 34962,
      "byteStride": 12
    },
    {
      "buffer": 0,
      "byteOffset": 83328,
      "byteLength": 4512,
      "target": 34962,
      "byteStride": 8
    },
    {
      "buffer": 0,
      "byteOffset": 87840,
      "byteLength": 6768,
      "target": 34962,
      "byteStride": 12
    },
    {
      "buffer": 0,
      "byteOffset": 94608,
      "byteLength": 5040,
      "target": 34962,
      "byteStride": 12
    },
    {
      "buffer": 0,
      "byteOffset": 99648,
      "byteLength": 3360,
      "target": 34962,
      "byteStride": 8
    },
    {
      "buffer": 0,
      "byteOffset": 103008,
      "byteLength": 5040,
      "target": 34962,
      "byteStride": 12
    },
    {
      "buffer": 0,
      "byteOffset": 108048,
      "byteLength": 6192,
      "target": 34962,
      "byteStride": 12
    },
    {
      "buffer": 0,
      "byteOffset": 114240,
      "byteLength": 4128,
      "target": 34962,
      "byteStride": 8
    },
    {
      "buffer": 0,
      "byteOffset": 118368,
      "byteLength": 6192,
      "target": 34962,
      "byteStride": 12
    },
    {
      "buffer": 0,
      "byteOffset": 124560,
      "byteLength": 6192,
      "target": 34962,
      "byteStride": 12
    },
    {
      "buffer": 0,
      "byteOffset": 130752,
      "byteLength": 4128,
      "target": 34962,
      "byteStride": 8
    },
    {
      "buffer": 0,
      "byteOffset": 134880,
      "byteLength": 6192,
      "target": 34962,
      "byteStride": 12
    }
  ],
  "buffers": [
    {
      "byteLength": 141072,
      "uri": "data:application/octet-stream;base64,"
    }
  ],
  "accessors": [
    {
      "bufferView": 0,
      "componentType": 5126,
      "count": 6,
      "max": [
        200,
        200,
        200
      ],
      "min": [
        0,
        0,
        0
      ],
      "type": "VEC3"
    },
    {
      "bufferView": 1,
      "componentType": 5126,
      "count": 6,
      "max": [
        1,
        1,
        1
      ],
      "min": [
        0,
        0,
        0
      ],
      "type": "VEC3"
    },
    {
      "bufferView": 2,
      "componentType": 5126,
      "count": 228,
      "max": [
        -175.0537872314453,
        23.69461441040039,
        -175
      ],
      "min": [
        -220.1999969482422,
        -23.69461441040039,
        -205
      ],
      "type": "VEC3"
    },
    {
      "bufferView": 3,
      "componentType": 5126,
      "count": 228,
      "max": [
        23.69461441040039,
        19
      ],
      "min": [
        -23.69461441040039,
        -24
      ],
      "type": "VEC2"
    },
    {
      "bufferView": 4,
      "componentType": 5126,
      "count": 228,
      "max": [
        0.8086992502212524,
        0.951948881149292,
        1
      ],
      "min": [
        -1,
        -0.951948881149292,
        -1
      ],
      "type": "VEC3"
    },
    {
      "bufferView": 5,
      "componentType": 5126,
      "count": 1140,
      "max": [
        -164.3431396484375,
        35.65685272216797,
        25
      ],
      "min": [
        -235.6568603515625,
        -35.65685272216797,
        -5
      ],
      "type": "VEC3"
    },
    {
      "bufferView": 6,
      "componentType": 5126,
      "count": 1140,
      "max": [
        35.65685272216797,
        30
      ],
      "min": [
        -35.65685272216797,
        -30
      ],
      "type": "VEC2"
    },
    {
      "bufferView": 7,
      "componentType": 5126,
      "count": 1140,
      "max": [
        0.982012927532196,
        0.982012927532196,
        1
      ],
      "min": [
        -0.982012927532196,
        -0.982012927532196,
        -1
      ],
      "type": "VEC3"
    },
    {
      "bufferView": 8,
      "componentType": 5126,
      "count": 180,
      "max": [
        -174.3431396484375,
        25.6568546295166,
        225
      ],
      "min": [
        -225.6568603515625,
        -25.6568546295166,
        195
      ],
      "type": "VEC3"
    },
    {
      "bufferView": 9,
      "componentType": 5126,
      "count": 180,
      "max": [
        25.6568546295166,
        20
      ],
      "min": [
        -25.6568546295166,
        -24
      ],
      "type": "VEC2"
    },
    {
      "bufferView": 10,
      "componentType": 5126,
      "count": 180,
      "max": [
        0.7071067690849304,
        0.7071067690849304,
        1
      ],
      "min": [
        -0.7071067690849304,
        -0.7071067690849304,
        -1
      ],
      "type": "VEC3"
    },
    {
      "bufferView": 11,
      "componentType": 5126,
      "count": 324,
      "max": [
        24.438268661499023,
        23.831401824951172,
        -175
      ],
      "min": [
        -22,
        -23.831401824951172,
        -205
      ],
      "type": "VEC3"
    },
    {
      "bufferView": 12,
      "componentType": 5126,
      "count": 324,
      "max": [
        20,
        19.5
      ],
      "min": [
        -22,
        -24
      ],
      "type": "VEC2"
    },
    {
      "bufferView": 13,
      "componentType": 5126,
      "count": 324,
      "max": [
        0.9012524485588074,
        0.9745363593101501,
        1
      ],
      "min": [
        -1,
        -0.9745363593101501,
        -1
      ],
      "type": "VEC3"
    },
    {
      "bufferView": 14,
      "componentType": 5126,
      "count": 516,
      "max": [
        24.171890258789062,
        23.926546096801758,
        25
      ],
      "min": [
        -23.200000762939453,
        -23.926546096801758,
        -5
      ],
      "type": "VEC3"
    },
    {
      "bufferView": 15,
      "componentType": 5126,
      "count": 516,
      "max": [
        20.304838180541992,
        19.799999237060547
      ],
      "min": [
        -19.200000762939453,
        -24
      ],
      "type": "VEC2"
    },
    {
      "bufferView": 16,
      "componentType": 5126,
      "count": 516,
      "max": [
        0.9587981104850769,
        0.9898784160614014,
        1
      ],
      "min": [
        -1,
        -0.9898784160614014,
        -1
      ],
      "type": "VEC3"
    },
    {
      "bufferView": 17,
      "componentType": 5126,
      "count": 564,
      "max": [
        35.65685272216797,
        30.900171279907227,
        225
      ],
      "min": [
        -35.65685272216797,
        -30.900171279907227,
        195
      ],
      "type": "VEC3"
    },
    {
      "bufferView": 18,
      "componentType": 5126,
      "count": 564,
      "max": [
        35.65685272216797,
        26
      ],
      "min": [
        -35.65685272216797,
        -26
      ],
      "type": "VEC2"
    },
    {
      "bufferView": 19,
      "componentType": 5126,
      "count": 564,
      "max": [
        0.9833179116249084,
        0.9427395462989807,
        1
      ],
      "min": [
        -0.9833179116249084,
        -0.9427395462989807,
        -1
      ],
      "type": "VEC3"
    },
    {
      "bufferView": 20,
      "componentType": 5126,
      "count": 420,
      "max": [
        224.25721740722656,
        23.893312454223633,
        -175
      ],
      "min": [
        177.1999969482422,
        -23.893312454223633,
        -205
      ],
      "type": "VEC3"
    },
    {
      "bufferView": 21,
      "componentType": 5126,
      "count": 420,
      "max": [
        20.98382568359375,
        19.700000762939453
      ],
      "min": [
        -20.98382568359375,
        -24
      ],
      "type": "VEC2"
    },
    {
      "bufferView": 22,
      "componentType": 5126,
      "count": 420,
      "max": [
        0.9395805597305298,
        0.9844952821731567,
        1
      ],
      "min": [
        -1,
        -0.9844952821731567,
        -1
      ],
      "type": "VEC3"
    },
    {
      "bufferView": 23,
      "componentType": 5126,
      "count": 516,
      "max": [
        224.17189025878906,
        23.926546096801758,
        25
      ],
      "min": [
        176.8000030517578,
        -23.926546096801758,
        -5
      ],
      "type": "VEC3"
    },
    {
      "bufferView": 24,
      "componentType": 5126,
      "count": 516,
      "max": [
        20.304838180541992,
        19.799999237060547
      ],
      "min": [
        -19.200000762939453,
        -24
      ],
      "type": "VEC2"
    },
    {
      "bufferView": 25,
      "componentType": 5126,
      "count": 516,
      "max": [
        0.9587981104850769,
        0.9898784160614014,
        1
      ],
      "min": [
        -1,
        -0.9898784160614014,
        -1
      ],
      "type": "VEC3"
    },
    {
      "bufferView": 26,
      "componentType": 5126,
      "count": 516,
      "max": [
        224.17189025878906,
        23.926546096801758,
        225
      ],
      "min": [
        176.8000030517578,
        -23.926546096801758,
        195
      ],
      "type": "VEC3"
    },
    {
      "bufferView": 27,
      "componentType": 5126,
      "count": 516,
      "max": [
        20.304838180541992,
        19.799999237060547
      ],
      "min": [
        -19.200000762939453,
        -24
      ],
      "type": "VEC2"
    },
    {
      "bufferView": 28,
      "componentType": 5126,
      "count": 516,
      "max": [
        0.9587981104850769,
        0.9898784160614014,
        1
      ],
      "min": [
        -1,
        -0.9898784160614014,
        -1
      ],
      "type": "VEC3"
    }
  ],
  "materials": [
    {
      "pbrMetallicRoughness": {
        "metallicFactor": 0.5,
        "roughnessFactor": 0.5
      }
    },
    {
      "pbrMetallicRoughness": {
        "baseColorFactor": [
          0.9545479736311966,
          0.7316990913012567,
          0.6847855896992052,
          1
        ],
        "metallicFactor": 0,
        "roughnessFactor": 1
      },
      "name": "Normaled_1"
    },
    {
      "pbrMetallicRoughness": {
        "baseColorFactor": [
          0.27843867847425474,
          0.5771440769506184,
          0.4572466173958678,
          1
        ],
        "metallicFactor": 0,
        "roughnessFactor": 1
      },
      "name": "Normaled_2"
    },
    {
      "pbrMetallicRoughness": {
        "baseColorFactor": [
          0.6809995074119961,
          0.5838298447828565,
          0.686201999216494,
          1
        ],
        "metallicFactor": 0,
        "roughnessFactor": 1
      },
      "name": "Normaled_3"
    },
    {
      "pbrMetallicRoughness": {
        "baseColorFactor": [
          0.7683196207265415,
          0.6713600367887531,
          0.41913354589401264,
          1
        ],
        "metallicFactor": 0,
        "roughnessFactor": 1
      },
      "name": "Normaled_4"
    },
    {
      "pbrMetallicRoughness": {
        "baseColorFactor": [
          0.3693908281368623,
          0.9520917555729373,
          0.8871095544707723,
          1
        ],
        "metallicFactor": 0,
        "roughnessFactor": 1
      },
      "name": "Normaled_5"
    },
    {
      "pbrMetallicRoughness": {
        "baseColorFactor": [
          0.21630359529931753,
          0.20720120525231223,
          0.6732874727024354,
          1
        ],
        "metallicFactor": 0,
        "roughnessFactor": 1
      },
      "name": "Normaled_6"
    },
    {
      "pbrMetallicRoughness": {
        "baseColorFactor": [
          0.01885414655666895,
          0.97084154743007,
          0.8452016282934529,
          1
        ],
        "metallicFactor": 0,
        "roughnessFactor": 1
      },
      "name": "Normaled_7"
    },
    {
      "pbrMetallicRoughness": {
        "baseColorFactor": [
          0.8876134009405443,
          0.2971499636785011,
          0.3245812637018346,
          1
        ],
        "metallicFactor": 0,
        "roughnessFactor": 1
      },
      "name": "Normaled_8"
    },
    {
      "pbrMetallicRoughness": {
        "baseColorFactor": [
          0.2094664379910327,
          0.5682935371233222,
          0.6174433505888066,
          1
        ],
        "metallicFactor": 0,
        "roughnessFactor": 1
      },
      "name": "Normaled_9"
    }
  ],
  "meshes": [
    {
      "primitives": [
        {
          "mode": 1,
          "attributes": {
            "POSITION": 0,
            "COLOR_0": 1
          },
          "material": 0
        }
      ]
    },
    {
      "primitives": [
        {
          "mode": 4,
          "attributes": {
            "POSITION": 2,
            "TEXCOORD_0": 3,
            "NORMAL": 4
          },
          "material": 1
        }
      ]
    },
    {
      "primitives": [
        {
          "mode": 4,
          "attributes": {
            "POSITION": 5,
            "TEXCOORD_0": 6,
            "NORMAL": 7
          },
          "material": 2
        }
      ]
    },
    {
      "primitives": [
        {
          "mode": 4,
          "attributes": {
            "POSITION": 8,
            "TEXCOORD_0": 9,
            "NORMAL": 10
          },
          "material": 3
        }
      ]
    },
    {
      "primitives": [
        {
          "mode": 4,
          "attributes": {
            "POSITION": 11,
            "TEXCOORD_0": 12,
            "NORMAL": 13
          },
          "material": 4
        }
      ]
    },
    {
      "primitives": [
        {
          "mode": 4,
          "attributes": {
            "POSITION": 14,
            "TEXCOORD_0": 15,
            "NORMAL": 16
          },
          "material": 5
        }
      ]
    },
    {
      "primitives": [
        {
          "mode": 4,
          "attributes": {
            "POSITION": 17,
            "TEXCOORD_0": 18,
            "NORMAL": 19
          },
          "material": 6
        }
      ]
    },
    {
      "primitives": [
        {
          "mode": 4,
          "attributes": {
            "POSITION": 20,
            "TEXCOORD_0": 21,
            "NORMAL": 22
          },
          "material": 7
        }
      ]
    },
    {
      "primitives": [
        {
          "mode": 4,
          "attributes": {
            "POSITION": 23,
            "TEXCOORD_0": 24,
            "NORMAL": 25
          },
          "material": 8
        }
      ]
    },
    {
      "primitives": [
        {
          "mode": 4,
          "attributes": {
            "POSITION": 26,
            "TEXCOORD_0": 27,
            "NORMAL": 28
          },
          "material": 9
        }
      ]
    }
  ]
}