{
  "asset": {
    "version": "2.0",
    "generator": "THREE.GLTFExporter"
  },
  "scenes": [
    {
      "nodes": [
        0,
        1,
        2,
        3,
        4,
        5,
        6
      ]
    }
  ],
  "scene": 0,
  "nodes": [
    {
      "mesh": 0
    },
    {
      "mesh": 1
    },
    {
      "mesh": 2
    },
    {
      "mesh": 3
    },
    {
      "mesh": 4
    },
    {
      "mesh": 5
    },
    {
      "mesh": 6
    }
  ],
  "bufferViews": [
    {
      "buffer": 0,
      "byteOffset": 0,
      "byteLength": 72,
      "target": 34962,
      "byteStride": 12
    },
    {
      "buffer": 0,
      "byteOffset": 72,
      "byteLength": 72,
      "target": 34962,
      "byteStride": 12
    },
    {
      "buffer": 0,
      "byteOffset": 144,
      "byteLength": 72576,
      "target": 34962,
      "byteStride": 12
    },
    {
      "buffer": 0,
      "byteOffset": 72720,
      "byteLength": 48384,
      "target": 34962,
      "byteStride": 8
    },
    {
      "buffer": 0,
      "byteOffset": 121104,
      "byteLength": 72576,
      "target": 34962,
      "byteStride": 12
    },
    {
      "buffer": 0,
      "byteOffset": 193680,
      "byteLength": 116208,
      "target": 34962,
      "byteStride": 12
    },
    {
      "buffer": 0,
      "byteOffset": 309888,
      "byteLength": 77472,
      "target": 34962,
      "byteStride": 8
    },
    {
      "buffer": 0,
      "byteOffset": 387360,
      "byteLength": 116208,
      "target": 34962,
      "byteStride": 12
    },
    {
      "buffer": 0,
      "byteOffset": 503568,
      "byteLength": 72576,
      "target": 34962,
      "byteStride": 12
    },
    {
      "buffer": 0,
      "byteOffset": 576144,
      "byteLength": 48384,
      "target": 34962,
      "byteStride": 8
    },
    {
      "buffer": 0,
      "byteOffset": 624528,
      "byteLength": 72576,
      "target": 34962,
      "byteStride": 12
    },
    {
      "buffer": 0,
      "byteOffset": 697104,
      "byteLength": 28944,
      "target": 34962,
      "byteStride": 12
    },
    {
      "buffer": 0,
      "byteOffset": 726048,
      "byteLength": 19296,
      "target": 34962,
      "byteStride": 8
    },
    {
      "buffer": 0,
      "byteOffset": 745344,
      "byteLength": 28944,
      "target": 34962,
      "byteStride": 12
    },
    {
      "buffer": 0,
      "byteOffset": 774288,
      "byteLength": 87120,
      "target": 34962,
      "byteStride": 12
    },
    {
      "buffer": 0,
      "byteOffset": 861408,
      "byteLength": 58080,
      "target": 34962,
      "byteStride": 8
    },
    {
      "buffer": 0,
      "byteOffset": 919488,
      "byteLength": 87120,
      "target": 34962,
      "byteStride": 12
    },
    {
      "buffer": 0,
      "byteOffset": 1006608,
      "byteLength": 21672,
      "target": 34962,
      "byteStride": 12
    },
    {
      "buffer": 0,
      "byteOffset": 1028280,
      "byteLength": 14448,
      "target": 34962,
      "byteStride": 8
    },
    {
      "buffer": 0,
      "byteOffset": 1042728,
      "byteLength": 21672,
      "target": 34962,
      "byteStride": 12
    }
  ],
  "buffers": [
    {
      "byteLength": 1064400,
      "uri": "data:application/octet-stream;base64,"
    }
  ],
  "accessors": [
    {
      "bufferView": 0,
      "componentType": 5126,
      "count": 6,
      "max": [
        200,
        200,
        200
      ],
      "min": [
        0,
        0,
        0
      ],
      "type": "VEC3"
    },
    {
      "bufferView": 1,
      "componentType": 5126,
      "count": 6,
      "max": [
        1,
        1,
        1
      ],
      "min": [
        0,
        0,
        0
      ],
      "type": "VEC3"
    },
    {
      "bufferView": 2,
      "componentType": 5126,
      "count": 6048,
      "max": [
        -188.29348754882812,
        102.21463012695312,
        -86.1156997680664
      ],
      "min": [
        -214.9590301513672,
        -126.38629913330078,
        -114.09049987792969
      ],
      "type": "VEC3"
    },
    {
      "bufferView": 3,
      "componentType": 5126,
      "count": 6048,
      "max": [
        23.413021087646484,
        204.42926025390625
      ],
      "min": [
        -144.48892211914062,
        -252.77259826660156
      ],
      "type": "VEC2"
    },
    {
      "bufferView": 4,
      "componentType": 5126,
      "count": 6048,
      "max": [
        0.966724157333374,
        0.9736276865005493,
        0.999904990196228
      ],
      "min": [
        -0.966724157333374,
        -0.9901293516159058,
        -0.9999061822891235
      ],
      "type": "VEC3"
    },
    {
      "bufferView": 5,
      "componentType": 5126,
      "count": 9684,
      "max": [
        -183.60934448242188,
        102.10901641845703,
        118.84580993652344
      ],
      "min": [
        -219.70530700683594,
        -128.5018310546875,
        79.51144409179688
      ],
      "type": "VEC3"
    },
    {
      "bufferView": 6,
      "componentType": 5126,
      "count": 9684,
      "max": [
        32.78132247924805,
        204.21803283691406
      ],
      "min": [
        -256.9468078613281,
        -257.003662109375
      ],
      "type": "VEC2"
    },
    {
      "bufferView": 7,
      "componentType": 5126,
      "count": 9684,
      "max": [
        0.9844481348991394,
        0.9897490739822388,
        0.9843456149101257
      ],
      "min": [
        -0.9844489693641663,
        -0.9677916169166565,
        -0.9843453168869019
      ],
      "type": "VEC3"
    },
    {
      "bufferView": 8,
      "componentType": 5126,
      "count": 6048,
      "max": [
        17.066436767578125,
        100.84406280517578,
        -80.76637268066406
      ],
      "min": [
        -19.744600296020508,
        -127.24980926513672,
        -118.26954650878906
      ],
      "type": "VEC3"
    },
    {
      "bufferView": 9,
      "componentType": 5126,
      "count": 6048,
      "max": [
        145.68661499023438,
        201.68812561035156
      ],
      "min": [
        -91.62026977539062,
        -254.49961853027344
      ],
      "type": "VEC2"
    },
    {
      "bufferView": 10,
      "componentType": 5126,
      "count": 6048,
      "max": [
        0.983112633228302,
        0.9983991980552673,
        0.9997786283493042
      ],
      "min": [
        -0.9441712498664856,
        -0.9885782599449158,
        -0.9979109168052673
      ],
      "type": "VEC3"
    },
    {
      "bufferView": 11,
      "componentType": 5126,
      "count": 2412,
      "max": [
        14.413546562194824,
        103.08816528320312,
        111.46376037597656
      ],
      "min": [
        -15.55841064453125,
        -127.87593078613281,
        86.07476806640625
      ],
      "type": "VEC3"
    },
    {
      "bufferView": 12,
      "componentType": 5126,
      "count": 2412,
      "max": [
        28.82709312438965,
        206.17633056640625
      ],
      "min": [
        -31.1168212890625,
        -255.75186157226562
      ],
      "type": "VEC2"
    },
    {
      "bufferView": 13,
      "componentType": 5126,
      "count": 2412,
      "max": [
        0.8066051602363586,
        0.9303244948387146,
        0.8140424489974976
      ],
      "min": [
        -0.8065820932388306,
        -0.9514855146408081,
        -0.8140419721603394
      ],
      "type": "VEC3"
    },
    {
      "bufferView": 14,
      "componentType": 5126,
      "count": 7260,
      "max": [
        219.1774139404297,
        103.98728942871094,
        -81.90376281738281
      ],
      "min": [
        181.3094482421875,
        -125.41132354736328,
        -118.42169189453125
      ],
      "type": "VEC3"
    },
    {
      "bufferView": 15,
      "componentType": 5126,
      "count": 7260,
      "max": [
        207.97457885742188,
        207.97457885742188
      ],
      "min": [
        -198.8821258544922,
        -250.82264709472656
      ],
      "type": "VEC2"
    },
    {
      "bufferView": 16,
      "componentType": 5126,
      "count": 7260,
      "max": [
        0.9996522665023804,
        0.9634633660316467,
        0.9619205594062805
      ],
      "min": [
        -0.9996505975723267,
        -0.9995979070663452,
        -0.9619221687316895
      ],
      "type": "VEC3"
    },
    {
      "bufferView": 17,
      "componentType": 5126,
      "count": 1806,
      "max": [
        213.09237670898438,
        101.58453369140625,
        110.1980972290039
      ],
      "min": [
        188.34458923339844,
        -128.03756713867188,
        85.49723052978516
      ],
      "type": "VEC3"
    },
    {
      "bufferView": 18,
      "componentType": 5126,
      "count": 1806,
      "max": [
        26.18475914001465,
        203.1690673828125
      ],
      "min": [
        -23.310815811157227,
        -256.07513427734375
      ],
      "type": "VEC2"
    },
    {
      "bufferView": 19,
      "componentType": 5126,
      "count": 1806,
      "max": [
        0.8694447875022888,
        0.9661657810211182,
        0.9993811845779419
      ],
      "min": [
        -0.914232075214386,
        -0.9508064389228821,
        -0.5884734392166138
      ],
      "type": "VEC3"
    }
  ],
  "materials": [
    {
      "pbrMetallicRoughness": {
        "metallicFactor": 0.5,
        "roughnessFactor": 0.5
      }
    },
    {
      "pbrMetallicRoughness": {
        "baseColorFactor": [
          0.9545479736311966,
          0.7316990913012567,
          0.6847855896992052,
          1
        ],
        "metallicFactor": 0,
        "roughnessFactor": 1
      },
      "name": "Normaled_1"
    },
    {
      "pbrMetallicRoughness": {
        "baseColorFactor": [
          0.27843867847425474,
          0.5771440769506184,
          0.4572466173958678,
          1
        ],
        "metallicFactor": 0,
        "roughnessFactor": 1
      },
      "name": "Normaled_2"
    },
    {
      "pbrMetallicRoughness": {
        "baseColorFactor": [
          0.6809995074119961,
          0.5838298447828565,
          0.686201999216494,
          1
        ],
        "metallicFactor": 0,
        "roughnessFactor": 1
      },
      "name": "Normaled_3"
    },
    {
      "pbrMetallicRoughness": {
        "baseColorFactor": [
          0.7683196207265415,
          0.6713600367887531,
          0.41913354589401264,
          1
        ],
        "metallicFactor": 0,
        "roughnessFactor": 1
      },
      "name": "Normaled_4"
    },
    {
      "pbrMetallicRoughness": {
        "baseColorFactor": [
          0.3693908281368623,
          0.9520917555729373,
          0.8871095544707723,
          1
        ],
        "metallicFactor": 0,
        "roughnessFactor": 1
      },
      "name": "Normaled_5"
    },
    {
      "pbrMetallicRoughness": {
        "baseColorFactor": [
          0.21630359529931753,
          0.20720120525231223,
          0.6732874727024354,
          1
        ],
        "metallicFactor": 0,
        "roughnessFactor": 1
      },
      "name": "Normaled_6"
    }
  ],
  "meshes": [
    {
      "primitives": [
        {
          "mode": 1,
          "attributes": {
            "POSITION": 0,
            "COLOR_0": 1
          },
          "material": 0
        }
      ]
    },
    {
      "primitives": [
        {
          "mode": 4,
          "attributes": {
            "POSITION": 2,
            "TEXCOORD_0": 3,
            "NORMAL": 4
          },
          "material": 1
        }
      ]
    },
    {
      "primitives": [
        {
          "mode": 4,
          "attributes": {
            "POSITION": 5,
            "TEXCOORD_0": 6,
            "NORMAL": 7
          },
          "material": 2
        }
      ]
    },
    {
      "primitives": [
        {
          "mode": 4,
          "attributes": {
            "POSITION": 8,
            "TEXCOORD_0": 9,
            "NORMAL": 10
          },
          "material": 3
        }
      ]
    },
    {
      "primitives": [
        {
          "mode": 4,
          "attributes": {
            "POSITION": 11,
            "TEXCOORD_0": 12,
            "NORMAL": 13
          },
          "material": 4
        }
      ]
    },
    {
      "primitives": [
        {
          "mode": 4,
          "attributes": {
            "POSITION": 14,
            "TEXCOORD_0": 15,
            "NORMAL": 16
          },
          "material": 5
        }
      ]
    },
    {
      "primitives": [
        {
          "mode": 4,
          "attributes": {
            "POSITION": 17,
            "TEXCOORD_0": 18,
            "NORMAL": 19
          },
          "material": 6
        }
      ]
    }
  ]
}