{
  "asset": {
    "version": "2.0",
    "generator": "THREE.GLTFExporter"
  },
  "scenes": [
    {
      "nodes": [
        0,
        1,
        2,
        3,
        4,
        5,
        6,
        7,
        8,
        9,
        10,
        11,
        12
      ]
    }
  ],
  "scene": 0,
  "nodes": [
    {
      "mesh": 0
    },
    {
      "mesh": 1
    },
    {
      "mesh": 2
    },
    {
      "mesh": 3
    },
    {
      "mesh": 4
    },
    {
      "mesh": 5
    },
    {
      "mesh": 6
    },
    {
      "mesh": 7
    },
    {
      "mesh": 8
    },
    {
      "mesh": 9
    },
    {
      "mesh": 10
    },
    {
      "mesh": 11
    },
    {
      "mesh": 12
    }
  ],
  "bufferViews": [
    {
      "buffer": 0,
      "byteOffset": 0,
      "byteLength": 72,
      "target": 34962,
      "byteStride": 12
    },
    {
      "buffer": 0,
      "byteOffset": 72,
      "byteLength": 72,
      "target": 34962,
      "byteStride": 12
    },
    {
      "buffer": 0,
      "byteOffset": 144,
      "byteLength": 116208,
      "target": 34962,
      "byteStride": 12
    },
    {
      "buffer": 0,
      "byteOffset": 116352,
      "byteLength": 77472,
      "target": 34962,
      "byteStride": 8
    },
    {
      "buffer": 0,
      "byteOffset": 193824,
      "byteLength": 116208,
      "target": 34962,
      "byteStride": 12
    },
    {
      "buffer": 0,
      "byteOffset": 310032,
      "byteLength": 116208,
      "target": 34962,
      "byteStride": 12
    },
    {
      "buffer": 0,
      "byteOffset": 426240,
      "byteLength": 77472,
      "target": 34962,
      "byteStride": 8
    },
    {
      "buffer": 0,
      "byteOffset": 503712,
      "byteLength": 116208,
      "target": 34962,
      "byteStride": 12
    },
    {
      "buffer": 0,
      "byteOffset": 619920,
      "byteLength": 28944,
      "target": 34962,
      "byteStride": 12
    },
    {
      "buffer": 0,
      "byteOffset": 648864,
      "byteLength": 19296,
      "target": 34962,
      "byteStride": 8
    },
    {
      "buffer": 0,
      "byteOffset": 668160,
      "byteLength": 28944,
      "target": 34962,
      "byteStride": 12
    },
    {
      "buffer": 0,
      "byteOffset": 697104,
      "byteLength": 79848,
      "target": 34962,
      "byteStride": 12
    },
    {
      "buffer": 0,
      "byteOffset": 776952,
      "byteLength": 53232,
      "target": 34962,
      "byteStride": 8
    },
    {
      "buffer": 0,
      "byteOffset": 830184,
      "byteLength": 79848,
      "target": 34962,
      "byteStride": 12
    },
    {
      "buffer": 0,
      "byteOffset": 910032,
      "byteLength": 28944,
      "target": 34962,
      "byteStride": 12
    },
    {
      "buffer": 0,
      "byteOffset": 938976,
      "byteLength": 19296,
      "target": 34962,
      "byteStride": 8
    },
    {
      "buffer": 0,
      "byteOffset": 958272,
      "byteLength": 28944,
      "target": 34962,
      "byteStride": 12
    },
    {
      "buffer": 0,
      "byteOffset": 987216,
      "byteLength": 87120,
      "target": 34962,
      "byteStride": 12
    },
    {
      "buffer": 0,
      "byteOffset": 1074336,
      "byteLength": 58080,
      "target": 34962,
      "byteStride": 8
    },
    {
      "buffer": 0,
      "byteOffset": 1132416,
      "byteLength": 87120,
      "target": 34962,
      "byteStride": 12
    },
    {
      "buffer": 0,
      "byteOffset": 1219536,
      "byteLength": 28944,
      "target": 34962,
      "byteStride": 12
    },
    {
      "buffer": 0,
      "byteOffset": 1248480,
      "byteLength": 19296,
      "target": 34962,
      "byteStride": 8
    },
    {
      "buffer": 0,
      "byteOffset": 1267776,
      "byteLength": 28944,
      "target": 34962,
      "byteStride": 12
    },
    {
      "buffer": 0,
      "byteOffset": 1296720,
      "byteLength": 36216,
      "target": 34962,
      "byteStride": 12
    },
    {
      "buffer": 0,
      "byteOffset": 1332936,
      "byteLength": 24144,
      "target": 34962,
      "byteStride": 8
    },
    {
      "buffer": 0,
      "byteOffset": 1357080,
      "byteLength": 36216,
      "target": 34962,
      "byteStride": 12
    },
    {
      "buffer": 0,
      "byteOffset": 1393296,
      "byteLength": 72576,
      "target": 34962,
      "byteStride": 12
    },
    {
      "buffer": 0,
      "byteOffset": 1465872,
      "byteLength": 48384,
      "target": 34962,
      "byteStride": 8
    },
    {
      "buffer": 0,
      "byteOffset": 1514256,
      "byteLength": 72576,
      "target": 34962,
      "byteStride": 12
    },
    {
      "buffer": 0,
      "byteOffset": 1586832,
      "byteLength": 174384,
      "target": 34962,
      "byteStride": 12
    },
    {
      "buffer": 0,
      "byteOffset": 1761216,
      "byteLength": 116256,
      "target": 34962,
      "byteStride": 8
    },
    {
      "buffer": 0,
      "byteOffset": 1877472,
      "byteLength": 174384,
      "target": 34962,
      "byteStride": 12
    },
    {
      "buffer": 0,
      "byteOffset": 2051856,
      "byteLength": 58032,
      "target": 34962,
      "byteStride": 12
    },
    {
      "buffer": 0,
      "byteOffset": 2109888,
      "byteLength": 38688,
      "target": 34962,
      "byteStride": 8
    },
    {
      "buffer": 0,
      "byteOffset": 2148576,
      "byteLength": 58032,
      "target": 34962,
      "byteStride": 12
    },
    {
      "buffer": 0,
      "byteOffset": 2206608,
      "byteLength": 43488,
      "target": 34962,
      "byteStride": 12
    },
    {
      "buffer": 0,
      "byteOffset": 2250096,
      "byteLength": 28992,
      "target": 34962,
      "byteStride": 8
    },
    {
      "buffer": 0,
      "byteOffset": 2279088,
      "byteLength": 43488,
      "target": 34962,
      "byteStride": 12
    }
  ],
  "buffers": [
    {
      "byteLength": 2322576,
      "uri": "data:application/octet-stream;base64,"
    }
  ],
  "accessors": [
    {
      "bufferView": 0,
      "componentType": 5126,
      "count": 6,
      "max": [
        200,
        200,
        200
      ],
      "min": [
        0,
        0,
        0
      ],
      "type": "VEC3"
    },
    {
      "bufferView": 1,
      "componentType": 5126,
      "count": 6,
      "max": [
        1,
        1,
        1
      ],
      "min": [
        0,
        0,
        0
      ],
      "type": "VEC3"
    },
    {
      "bufferView": 2,
      "componentType": 5126,
      "count": 9684,
      "max": [
        -179.9046630859375,
        103.7145767211914,
        -280.5615539550781
      ],
      "min": [
        -219.16539001464844,
        -128.22569274902344,
        -317.4971923828125
      ],
      "type": "VEC3"
    },
    {
      "bufferView": 3,
      "componentType": 5126,
      "count": 9684,
      "max": [
        113.0595932006836,
        207.4291534423828
      ],
      "min": [
        -255.36605834960938,
        -256.4513854980469
      ],
      "type": "VEC2"
    },
    {
      "bufferView": 4,
      "componentType": 5126,
      "count": 9684,
      "max": [
        0.9966850876808167,
        0.9676076173782349,
        0.9971137642860413
      ],
      "min": [
        -0.9966846108436584,
        -0.975861668586731,
        -0.9971137642860413
      ],
      "type": "VEC3"
    },
    {
      "bufferView": 5,
      "componentType": 5126,
      "count": 9684,
      "max": [
        -181.01495361328125,
        102.68026733398438,
        -84.44192504882812
      ],
      "min": [
        -219.45361328125,
        -129.3140106201172,
        -119.42304992675781
      ],
      "type": "VEC3"
    },
    {
      "bufferView": 6,
      "componentType": 5126,
      "count": 9684,
      "max": [
        200.9329376220703,
        205.36053466796875
      ],
      "min": [
        -254.7150421142578,
        -258.6280212402344
      ],
      "type": "VEC2"
    },
    {
      "bufferView": 7,
      "componentType": 5126,
      "count": 9684,
      "max": [
        0.9956948161125183,
        0.9833940863609314,
        0.9953059554100037
      ],
      "min": [
        -0.9956933259963989,
        -0.9533825516700745,
        -0.995306670665741
      ],
      "type": "VEC3"
    },
    {
      "bufferView": 8,
      "componentType": 5126,
      "count": 2412,
      "max": [
        -184.986328125,
        102.21370697021484,
        115.02861785888672
      ],
      "min": [
        -214.91458129882812,
        -126.96302795410156,
        86.05225372314453
      ],
      "type": "VEC3"
    },
    {
      "bufferView": 9,
      "componentType": 5126,
      "count": 2412,
      "max": [
        30.0273380279541,
        204.4274139404297
      ],
      "min": [
        -29.829160690307617,
        -253.92605590820312
      ],
      "type": "VEC2"
    },
    {
      "bufferView": 10,
      "componentType": 5126,
      "count": 2412,
      "max": [
        0.8216118216514587,
        0.9749355912208557,
        0.8220764994621277
      ],
      "min": [
        -0.8216120600700378,
        -0.9738011956214905,
        -0.8220769762992859
      ],
      "type": "VEC3"
    },
    {
      "bufferView": 11,
      "componentType": 5126,
      "count": 6654,
      "max": [
        -187.0504913330078,
        102.56562042236328,
        313.1311340332031
      ],
      "min": [
        -213.1087646484375,
        -127.59909057617188,
        286.8360290527344
      ],
      "type": "VEC3"
    },
    {
      "bufferView": 12,
      "componentType": 5126,
      "count": 6654,
      "max": [
        201.63018798828125,
        205.13124084472656
      ],
      "min": [
        -247.2307891845703,
        -255.19818115234375
      ],
      "type": "VEC2"
    },
    {
      "bufferView": 13,
      "componentType": 5126,
      "count": 6654,
      "max": [
        0.9971779584884644,
        0.9661661386489868,
        0.9995518326759338
      ],
      "min": [
        -0.9870191812515259,
        -0.9648963212966919,
        -0.9770011305809021
      ],
      "type": "VEC3"
    },
    {
      "bufferView": 14,
      "componentType": 5126,
      "count": 2412,
      "max": [
        14.3057222366333,
        101.38140106201172,
        -286.00482177734375
      ],
      "min": [
        -12.993876457214355,
        -126.96158599853516,
        -314.55535888671875
      ],
      "type": "VEC3"
    },
    {
      "bufferView": 15,
      "componentType": 5126,
      "count": 2412,
      "max": [
        28.6114444732666,
        202.76280212402344
      ],
      "min": [
        -25.98775291442871,
        -253.9231719970703
      ],
      "type": "VEC2"
    },
    {
      "bufferView": 16,
      "componentType": 5126,
      "count": 2412,
      "max": [
        0.725864052772522,
        0.9895537495613098,
        0.7197725772857666
      ],
      "min": [
        -0.7258756160736084,
        -0.9775682687759399,
        -0.7197717428207397
      ],
      "type": "VEC3"
    },
    {
      "bufferView": 17,
      "componentType": 5126,
      "count": 7260,
      "max": [
        17.703338623046875,
        102.03585815429688,
        -80.50040435791016
      ],
      "min": [
        -18.98598289489746,
        -129.0621795654297,
        -119.57449340820312
      ],
      "type": "VEC3"
    },
    {
      "bufferView": 18,
      "componentType": 5126,
      "count": 7260,
      "max": [
        150.80087280273438,
        204.07171630859375
      ],
      "min": [
        -135.2337646484375,
        -258.1243591308594
      ],
      "type": "VEC2"
    },
    {
      "bufferView": 19,
      "componentType": 5126,
      "count": 7260,
      "max": [
        0.9452313184738159,
        0.9885688424110413,
        0.9959878325462341
      ],
      "min": [
        -0.9452328681945801,
        -0.9618809223175049,
        -0.996002733707428
      ],
      "type": "VEC3"
    },
    {
      "bufferView": 20,
      "componentType": 5126,
      "count": 2412,
      "max": [
        14.898350715637207,
        101.96673583984375,
        115.03800201416016
      ],
      "min": [
        -13.654869079589844,
        -125.59901428222656,
        86.51927185058594
      ],
      "type": "VEC3"
    },
    {
      "bufferView": 21,
      "componentType": 5126,
      "count": 2412,
      "max": [
        29.796701431274414,
        203.9334716796875
      ],
      "min": [
        -27.309738159179688,
        -251.19802856445312
      ],
      "type": "VEC2"
    },
    {
      "bufferView": 22,
      "componentType": 5126,
      "count": 2412,
      "max": [
        0.8140470385551453,
        0.9749444127082825,
        0.816460132598877
      ],
      "min": [
        -0.8140474557876587,
        -0.997407078742981,
        -0.8164599537849426
      ],
      "type": "VEC3"
    },
    {
      "bufferView": 23,
      "componentType": 5126,
      "count": 3018,
      "max": [
        14.485220909118652,
        104.35311126708984,
        314.28057861328125
      ],
      "min": [
        -12.73769760131836,
        -127.93033599853516,
        284.4643249511719
      ],
      "type": "VEC3"
    },
    {
      "bufferView": 24,
      "componentType": 5126,
      "count": 3018,
      "max": [
        199.14547729492188,
        208.7062225341797
      ],
      "min": [
        -250.78814697265625,
        -255.8606719970703
      ],
      "type": "VEC2"
    },
    {
      "bufferView": 25,
      "componentType": 5126,
      "count": 3018,
      "max": [
        0.9424471855163574,
        0.8807370662689209,
        0.9995405077934265
      ],
      "min": [
        -0.9975789189338684,
        -0.9548251032829285,
        -0.9434106945991516
      ],
      "type": "VEC3"
    },
    {
      "bufferView": 26,
      "componentType": 5126,
      "count": 6048,
      "max": [
        214.64642333984375,
        100.80620574951172,
        -285.40789794921875
      ],
      "min": [
        185.53512573242188,
        -127.33580780029297,
        -314.13848876953125
      ],
      "type": "VEC3"
    },
    {
      "bufferView": 27,
      "componentType": 5126,
      "count": 6048,
      "max": [
        29.2928409576416,
        201.61241149902344
      ],
      "min": [
        -145.65188598632812,
        -254.67161560058594
      ],
      "type": "VEC2"
    },
    {
      "bufferView": 28,
      "componentType": 5126,
      "count": 6048,
      "max": [
        0.9668053388595581,
        0.9966232180595398,
        0.9999221563339233
      ],
      "min": [
        -0.9668052196502686,
        -0.9719886779785156,
        -0.9999218583106995
      ],
      "type": "VEC3"
    },
    {
      "bufferView": 29,
      "componentType": 5126,
      "count": 14532,
      "max": [
        220.01922607421875,
        103.31937408447266,
        -81.6761245727539
      ],
      "min": [
        180.38162231445312,
        -128.0288543701172,
        -118.39791870117188
      ],
      "type": "VEC3"
    },
    {
      "bufferView": 30,
      "componentType": 5126,
      "count": 14532,
      "max": [
        206.6387481689453,
        206.6387481689453
      ],
      "min": [
        -255.16845703125,
        -256.0577087402344
      ],
      "type": "VEC2"
    },
    {
      "bufferView": 31,
      "componentType": 5126,
      "count": 14532,
      "max": [
        0.9987139701843262,
        0.9749406576156616,
        0.9985476136207581
      ],
      "min": [
        -0.9987151622772217,
        -0.9794116616249084,
        -0.9985470175743103
      ],
      "type": "VEC3"
    },
    {
      "bufferView": 32,
      "componentType": 5126,
      "count": 4836,
      "max": [
        219.9557647705078,
        104.5777816772461,
        119.50920867919922
      ],
      "min": [
        182.05435180664062,
        -129.04794311523438,
        80.50682067871094
      ],
      "type": "VEC3"
    },
    {
      "bufferView": 33,
      "componentType": 5126,
      "count": 4836,
      "max": [
        39.91152572631836,
        209.1555633544922
      ],
      "min": [
        -35.891300201416016,
        -258.09588623046875
      ],
      "type": "VEC2"
    },
    {
      "bufferView": 34,
      "componentType": 5126,
      "count": 4836,
      "max": [
        0.8116661310195923,
        0.9522085189819336,
        0.8082205653190613
      ],
      "min": [
        -0.8116673827171326,
        -0.9600590467453003,
        -0.8082213997840881
      ],
      "type": "VEC3"
    },
    {
      "bufferView": 35,
      "componentType": 5126,
      "count": 3624,
      "max": [
        215.37591552734375,
        103.86014556884766,
        317.8990173339844
      ],
      "min": [
        181.47654724121094,
        -128.28781127929688,
        282.512451171875
      ],
      "type": "VEC3"
    },
    {
      "bufferView": 36,
      "componentType": 5126,
      "count": 3624,
      "max": [
        199.73626708984375,
        207.7202911376953
      ],
      "min": [
        -253.25743103027344,
        -256.57562255859375
      ],
      "type": "VEC2"
    },
    {
      "bufferView": 37,
      "componentType": 5126,
      "count": 3624,
      "max": [
        0.9871724247932434,
        0.9563687443733215,
        0.9590374827384949
      ],
      "min": [
        -0.6921373605728149,
        -0.9426479339599609,
        -0.9527249336242676
      ],
      "type": "VEC3"
    }
  ],
  "materials": [
    {
      "pbrMetallicRoughness": {
        "metallicFactor": 0.5,
        "roughnessFactor": 0.5
      }
    },
    {
      "pbrMetallicRoughness": {
        "baseColorFactor": [
          0.09074179849284181,
          0.25058277873718215,
          0.3972915646884754,
          1
        ],
        "metallicFactor": 0,
        "roughnessFactor": 1
      }
    },
    {
      "pbrMetallicRoughness": {
        "baseColorFactor": [
          0.5303038864208989,
          0.6481322767609399,
          0.8319506436021564,
          1
        ],
        "metallicFactor": 0,
        "roughnessFactor": 1
      }
    },
    {
      "pbrMetallicRoughness": {
        "baseColorFactor": [
          0.43947736576225127,
          0.6816300314956458,
          0.3645692484767453,
          1
        ],
        "metallicFactor": 0,
        "roughnessFactor": 1
      }
    },
    {
      "pbrMetallicRoughness": {
        "baseColorFactor": [
          0.505921277685758,
          0.039870271437725036,
          0.12454147092882084,
          1
        ],
        "metallicFactor": 0,
        "roughnessFactor": 1
      }
    },
    {
      "pbrMetallicRoughness": {
        "baseColorFactor": [
          0.49664103661137315,
          0.022250465440767808,
          0.08367126434074179,
          1
        ],
        "metallicFactor": 0,
        "roughnessFactor": 1
      }
    },
    {
      "pbrMetallicRoughness": {
        "baseColorFactor": [
          0.6743817645252574,
          0.7509652889974932,
          0.8846382568237574,
          1
        ],
        "metallicFactor": 0,
        "roughnessFactor": 1
      }
    },
    {
      "pbrMetallicRoughness": {
        "baseColorFactor": [
          0.7124803799730519,
          0.05857256270529709,
          0.7296017419375003,
          1
        ],
        "metallicFactor": 0,
        "roughnessFactor": 1
      }
    },
    {
      "pbrMetallicRoughness": {
        "baseColorFactor": [
          0.28760677704034965,
          0.8016346971207051,
          0.484409090402657,
          1
        ],
        "metallicFactor": 0,
        "roughnessFactor": 1
      }
    },
    {
      "pbrMetallicRoughness": {
        "baseColorFactor": [
          0.11372620441886516,
          0.07632178565851122,
          0.3988674173757656,
          1
        ],
        "metallicFactor": 0,
        "roughnessFactor": 1
      }
    }
  ],
  "meshes": [
    {
      "primitives": [
        {
          "mode": 1,
          "attributes": {
            "POSITION": 0,
            "COLOR_0": 1
          },
          "material": 0
        }
      ]
    },
    {
      "primitives": [
        {
          "mode": 4,
          "attributes": {
            "POSITION": 2,
            "TEXCOORD_0": 3,
            "NORMAL": 4
          },
          "material": 1
        }
      ]
    },
    {
      "primitives": [
        {
          "mode": 4,
          "attributes": {
            "POSITION": 5,
            "TEXCOORD_0": 6,
            "NORMAL": 7
          },
          "material": 2
        }
      ]
    },
    {
      "primitives": [
        {
          "mode": 4,
          "attributes": {
            "POSITION": 8,
            "TEXCOORD_0": 9,
            "NORMAL": 10
          },
          "material": 3
        }
      ]
    },
    {
      "primitives": [
        {
          "mode": 4,
          "attributes": {
            "POSITION": 11,
            "TEXCOORD_0": 12,
            "NORMAL": 13
          },
          "material": 4
        }
      ]
    },
    {
      "primitives": [
        {
          "mode": 4,
          "attributes": {
            "POSITION": 14,
            "TEXCOORD_0": 15,
            "NORMAL": 16
          },
          "material": 5
        }
      ]
    },
    {
      "primitives": [
        {
          "mode": 4,
          "attributes": {
            "POSITION": 17,
            "TEXCOORD_0": 18,
            "NORMAL": 19
          },
          "material": 6
        }
      ]
    },
    {
      "primitives": [
        {
          "mode": 4,
          "attributes": {
            "POSITION": 20,
            "TEXCOORD_0": 21,
            "NORMAL": 22
          },
          "material": 7
        }
      ]
    },
    {
      "primitives": [
        {
          "mode": 4,
          "attributes": {
            "POSITION": 23,
            "TEXCOORD_0": 24,
            "NORMAL": 25
          },
          "material": 8
        }
      ]
    },
    {
      "primitives": [
        {
          "mode": 4,
          "attributes": {
            "POSITION": 26,
            "TEXCOORD_0": 27,
            "NORMAL": 28
          },
          "material": 9
        }
      ]
    },
    {
      "primitives": [
        {
          "mode": 4,
          "attributes": {
            "POSITION": 29,
            "TEXCOORD_0": 30,
            "NORMAL": 31
          },
          "material": 1
        }
      ]
    },
    {
      "primitives": [
        {
          "mode": 4,
          "attributes": {
            "POSITION": 32,
            "TEXCOORD_0": 33,
            "NORMAL": 34
          },
          "material": 2
        }
      ]
    },
    {
      "primitives": [
        {
          "mode": 4,
          "attributes": {
            "POSITION": 35,
            "TEXCOORD_0": 36,
            "NORMAL": 37
          },
          "material": 3
        }
      ]
    }
  ]
}