{
  "asset": {
    "version": "2.0",
    "generator": "THREE.GLTFExporter"
  },
  "scenes": [
    {
      "nodes": [
        0,
        1,
        2,
        3,
        4,
        5,
        6,
        7,
        8,
        9,
        10,
        11,
        12,
        13,
        14,
        15,
        16
      ]
    }
  ],
  "scene": 0,
  "nodes": [
    {
      "mesh": 0
    },
    {
      "mesh": 1
    },
    {
      "mesh": 2
    },
    {
      "mesh": 3
    },
    {
      "mesh": 4
    },
    {
      "mesh": 5
    },
    {
      "mesh": 6
    },
    {
      "mesh": 7
    },
    {
      "mesh": 8
    },
    {
      "mesh": 9
    },
    {
      "mesh": 10
    },
    {
      "mesh": 11
    },
    {
      "mesh": 12
    },
    {
      "mesh": 13
    },
    {
      "mesh": 14
    },
    {
      "mesh": 15
    },
    {
      "mesh": 16
    }
  ],
  "bufferViews": [
    {
      "buffer": 0,
      "byteOffset": 0,
      "byteLength": 72,
      "target": 34962,
      "byteStride": 12
    },
    {
      "buffer": 0,
      "byteOffset": 72,
      "byteLength": 72,
      "target": 34962,
      "byteStride": 12
    },
    {
      "buffer": 0,
      "byteOffset": 144,
      "byteLength": 192,
      "target": 34962,
      "byteStride": 12
    },
    {
      "buffer": 0,
      "byteOffset": 336,
      "byteLength": 192,
      "target": 34962,
      "byteStride": 12
    },
    {
      "buffer": 0,
      "byteOffset": 528,
      "byteLength": 128,
      "target": 34962,
      "byteStride": 8
    },
    {
      "buffer": 0,
      "byteOffset": 656,
      "byteLength": 144,
      "target": 34963
    },
    {
      "buffer": 0,
      "byteOffset": 800,
      "byteLength": 108,
      "target": 34962,
      "byteStride": 12
    },
    {
      "buffer": 0,
      "byteOffset": 908,
      "byteLength": 288,
      "target": 34962,
      "byteStride": 12
    },
    {
      "buffer": 0,
      "byteOffset": 1196,
      "byteLength": 288,
      "target": 34962,
      "byteStride": 12
    },
    {
      "buffer": 0,
      "byteOffset": 1484,
      "byteLength": 192,
      "target": 34962,
      "byteStride": 8
    },
    {
      "buffer": 0,
      "byteOffset": 1676,
      "byteLength": 216,
      "target": 34963
    },
    {
      "buffer": 0,
      "byteOffset": 1892,
      "byteLength": 132,
      "target": 34962,
      "byteStride": 12
    },
    {
      "buffer": 0,
      "byteOffset": 2024,
      "byteLength": 384,
      "target": 34962,
      "byteStride": 12
    },
    {
      "buffer": 0,
      "byteOffset": 2408,
      "byteLength": 384,
      "target": 34962,
      "byteStride": 12
    },
    {
      "buffer": 0,
      "byteOffset": 2792,
      "byteLength": 256,
      "target": 34962,
      "byteStride": 8
    },
    {
      "buffer": 0,
      "byteOffset": 3048,
      "byteLength": 288,
      "target": 34963
    },
    {
      "buffer": 0,
      "byteOffset": 3336,
      "byteLength": 156,
      "target": 34962,
      "byteStride": 12
    },
    {
      "buffer": 0,
      "byteOffset": 3492,
      "byteLength": 288,
      "target": 34962,
      "byteStride": 12
    },
    {
      "buffer": 0,
      "byteOffset": 3780,
      "byteLength": 288,
      "target": 34962,
      "byteStride": 12
    },
    {
      "buffer": 0,
      "byteOffset": 4068,
      "byteLength": 192,
      "target": 34962,
      "byteStride": 8
    },
    {
      "buffer": 0,
      "byteOffset": 4260,
      "byteLength": 216,
      "target": 34963
    },
    {
      "buffer": 0,
      "byteOffset": 4476,
      "byteLength": 132,
      "target": 34962,
      "byteStride": 12
    },
    {
      "buffer": 0,
      "byteOffset": 4608,
      "byteLength": 288,
      "target": 34962,
      "byteStride": 12
    },
    {
      "buffer": 0,
      "byteOffset": 4896,
      "byteLength": 288,
      "target": 34962,
      "byteStride": 12
    },
    {
      "buffer": 0,
      "byteOffset": 5184,
      "byteLength": 192,
      "target": 34962,
      "byteStride": 8
    },
    {
      "buffer": 0,
      "byteOffset": 5376,
      "byteLength": 216,
      "target": 34963
    },
    {
      "buffer": 0,
      "byteOffset": 5592,
      "byteLength": 132,
      "target": 34962,
      "byteStride": 12
    },
    {
      "buffer": 0,
      "byteOffset": 5724,
      "byteLength": 384,
      "target": 34962,
      "byteStride": 12
    },
    {
      "buffer": 0,
      "byteOffset": 6108,
      "byteLength": 384,
      "target": 34962,
      "byteStride": 12
    },
    {
      "buffer": 0,
      "byteOffset": 6492,
      "byteLength": 256,
      "target": 34962,
      "byteStride": 8
    },
    {
      "buffer": 0,
      "byteOffset": 6748,
      "byteLength": 288,
      "target": 34963
    },
    {
      "buffer": 0,
      "byteOffset": 7036,
      "byteLength": 156,
      "target": 34962,
      "byteStride": 12
    },
    {
      "buffer": 0,
      "byteOffset": 7192,
      "byteLength": 288,
      "target": 34962,
      "byteStride": 12
    },
    {
      "buffer": 0,
      "byteOffset": 7480,
      "byteLength": 288,
      "target": 34962,
      "byteStride": 12
    },
    {
      "buffer": 0,
      "byteOffset": 7768,
      "byteLength": 192,
      "target": 34962,
      "byteStride": 8
    },
    {
      "buffer": 0,
      "byteOffset": 7960,
      "byteLength": 216,
      "target": 34963
    },
    {
      "buffer": 0,
      "byteOffset": 8176,
      "byteLength": 132,
      "target": 34962,
      "byteStride": 12
    },
    {
      "buffer": 0,
      "byteOffset": 8308,
      "byteLength": 144,
      "target": 34962,
      "byteStride": 12
    },
    {
      "buffer": 0,
      "byteOffset": 8452,
      "byteLength": 144,
      "target": 34962,
      "byteStride": 12
    },
    {
      "buffer": 0,
      "byteOffset": 8596,
      "byteLength": 96,
      "target": 34962,
      "byteStride": 8
    },
    {
      "buffer": 0,
      "byteOffset": 8692,
      "byteLength": 108,
      "target": 34963
    },
    {
      "buffer": 0,
      "byteOffset": 8800,
      "byteLength": 96,
      "target": 34962,
      "byteStride": 12
    }
  ],
  "buffers": [
    {
      "byteLength": 8896,
      "uri": "data:application/octet-stream;base64,"
    }
  ],
  "accessors": [
    {
      "bufferView": 0,
      "componentType": 5126,
      "count": 6,
      "max": [
        200,
        200,
        200
      ],
      "min": [
        0,
        0,
        0
      ],
      "type": "VEC3"
    },
    {
      "bufferView": 1,
      "componentType": 5126,
      "count": 6,
      "max": [
        1,
        1,
        1
      ],
      "min": [
        0,
        0,
        0
      ],
      "type": "VEC3"
    },
    {
      "bufferView": 2,
      "componentType": 5126,
      "count": 16,
      "max": [
        -257.0955505371094,
        151.39234924316406,
        -70
      ],
      "min": [
        -329.3941345214844,
        -5.998800277709961,
        -130
      ],
      "type": "VEC3"
    },
    {
      "bufferView": 3,
      "componentType": 5126,
      "count": 16,
      "max": [
        0.9995162487030029,
        0.19049358367919922,
        0.9998553991317749
      ],
      "min": [
        -0.9995827078819275,
        -0.18880246579647064,
        -0.9998665452003479
      ],
      "type": "VEC3"
    },
    {
      "bufferView": 4,
      "componentType": 5126,
      "count": 16,
      "max": [
        null,
        null
      ],
      "min": [
        null,
        null
      ],
      "type": "VEC2"
    },
    {
      "bufferView": 5,
      "componentType": 5123,
      "count": 72,
      "max": [
        15
      ],
      "min": [
        0
      ],
      "type": "SCALAR"
    },
    {
      "bufferView": 6,
      "componentType": 5126,
      "count": 9,
      "max": [
        -270,
        149,
        -70
      ],
      "min": [
        -330,
        0,
        -130
      ],
      "type": "VEC3"
    },
    {
      "bufferView": 7,
      "componentType": 5126,
      "count": 24,
      "max": [
        -275.41131591796875,
        154.0565948486328,
        126
      ],
      "min": [
        -357.3995056152344,
        -5.419545650482178,
        74
      ],
      "type": "VEC3"
    },
    {
      "bufferView": 8,
      "componentType": 5126,
      "count": 24,
      "max": [
        0.9912806749343872,
        0.31055232882499695,
        0.9672003388404846
      ],
      "min": [
        -0.9916618466377258,
        -0.3197290897369385,
        -0.9629668593406677
      ],
      "type": "VEC3"
    },
    {
      "bufferView": 9,
      "componentType": 5126,
      "count": 24,
      "max": [
        null,
        null
      ],
      "min": [
        null,
        null
      ],
      "type": "VEC2"
    },
    {
      "bufferView": 10,
      "componentType": 5123,
      "count": 108,
      "max": [
        23
      ],
      "min": [
        0
      ],
      "type": "SCALAR"
    },
    {
      "bufferView": 11,
      "componentType": 5126,
      "count": 11,
      "max": [
        -270,
        146,
        126
      ],
      "min": [
        -329,
        0,
        74
      ],
      "type": "VEC3"
    },
    {
      "bufferView": 12,
      "componentType": 5126,
      "count": 32,
      "max": [
        -68.9453125,
        154.41954040527344,
        -70
      ],
      "min": [
        -137.50640869140625,
        -3.673940187178589e-15,
        -130
      ],
      "type": "VEC3"
    },
    {
      "bufferView": 13,
      "componentType": 5126,
      "count": 32,
      "max": [
        0.9999437928199768,
        0.17583297193050385,
        0.9999918341636658
      ],
      "min": [
        -0.9999390840530396,
        -0.17613252997398376,
        -0.9999917149543762
      ],
      "type": "VEC3"
    },
    {
      "bufferView": 14,
      "componentType": 5126,
      "count": 32,
      "max": [
        null,
        null
      ],
      "min": [
        null,
        null
      ],
      "type": "VEC2"
    },
    {
      "bufferView": 15,
      "componentType": 5123,
      "count": 144,
      "max": [
        31
      ],
      "min": [
        0
      ],
      "type": "SCALAR"
    },
    {
      "bufferView": 16,
      "componentType": 5126,
      "count": 13,
      "max": [
        -70,
        149,
        -70
      ],
      "min": [
        -130,
        0,
        -130
      ],
      "type": "VEC3"
    },
    {
      "bufferView": 17,
      "componentType": 5126,
      "count": 24,
      "max": [
        -75.07962036132812,
        151.9786376953125,
        126
      ],
      "min": [
        -150.7863006591797,
        -2.3923566341400146,
        74
      ],
      "type": "VEC3"
    },
    {
      "bufferView": 18,
      "componentType": 5126,
      "count": 24,
      "max": [
        0.9885810613632202,
        0.16839763522148132,
        0.9643025994300842
      ],
      "min": [
        -0.9888677597045898,
        -0.17000535130500793,
        -0.967182457447052
      ],
      "type": "VEC3"
    },
    {
      "bufferView": 19,
      "componentType": 5126,
      "count": 24,
      "max": [
        null,
        null
      ],
      "min": [
        null,
        null
      ],
      "type": "VEC2"
    },
    {
      "bufferView": 20,
      "componentType": 5123,
      "count": 108,
      "max": [
        23
      ],
      "min": [
        0
      ],
      "type": "SCALAR"
    },
    {
      "bufferView": 21,
      "componentType": 5126,
      "count": 11,
      "max": [
        -70,
        149,
        126
      ],
      "min": [
        -125,
        0,
        74
      ],
      "type": "VEC3"
    },
    {
      "bufferView": 22,
      "componentType": 5126,
      "count": 24,
      "max": [
        140.82192993164062,
        153.57435607910156,
        -74
      ],
      "min": [
        70.09554290771484,
        -1.9936305284500122,
        -126
      ],
      "type": "VEC3"
    },
    {
      "bufferView": 23,
      "componentType": 5126,
      "count": 24,
      "max": [
        0.9950370788574219,
        0.1191452220082283,
        0.9664570689201355
      ],
      "min": [
        -0.9950371384620667,
        -0.11914519965648651,
        -0.9659878611564636
      ],
      "type": "VEC3"
    },
    {
      "bufferView": 24,
      "componentType": 5126,
      "count": 24,
      "max": [
        null,
        null
      ],
      "min": [
        null,
        null
      ],
      "type": "VEC2"
    },
    {
      "bufferView": 25,
      "componentType": 5123,
      "count": 108,
      "max": [
        23
      ],
      "min": [
        0
      ],
      "type": "SCALAR"
    },
    {
      "bufferView": 26,
      "componentType": 5126,
      "count": 11,
      "max": [
        130,
        150,
        -74
      ],
      "min": [
        75,
        0,
        -126
      ],
      "type": "VEC3"
    },
    {
      "bufferView": 27,
      "componentType": 5126,
      "count": 32,
      "max": [
        129.50640869140625,
        153.4528045654297,
        130
      ],
      "min": [
        27.27215576171875,
        -5.419545650482178,
        70
      ],
      "type": "VEC3"
    },
    {
      "bufferView": 28,
      "componentType": 5126,
      "count": 32,
      "max": [
        0.9653562903404236,
        0.3718422055244446,
        0.9999701380729675
      ],
      "min": [
        -0.9651074409484863,
        -0.37198153138160706,
        -0.9999755024909973
      ],
      "type": "VEC3"
    },
    {
      "bufferView": 29,
      "componentType": 5126,
      "count": 32,
      "max": [
        null,
        null
      ],
      "min": [
        null,
        null
      ],
      "type": "VEC2"
    },
    {
      "bufferView": 30,
      "componentType": 5123,
      "count": 144,
      "max": [
        31
      ],
      "min": [
        0
      ],
      "type": "SCALAR"
    },
    {
      "bufferView": 31,
      "componentType": 5126,
      "count": 13,
      "max": [
        130,
        142,
        130
      ],
      "min": [
        55,
        0,
        70
      ],
      "type": "VEC3"
    },
    {
      "bufferView": 32,
      "componentType": 5126,
      "count": 24,
      "max": [
        324.4951171875,
        154.50340270996094,
        -74
      ],
      "min": [
        238.78871154785156,
        -5.998800277709961,
        -126
      ],
      "type": "VEC3"
    },
    {
      "bufferView": 33,
      "componentType": 5126,
      "count": 24,
      "max": [
        0.9870045185089111,
        0.3278425931930542,
        0.9669598340988159
      ],
      "min": [
        -0.9873466491699219,
        -0.3374534547328949,
        -0.9632411003112793
      ],
      "type": "VEC3"
    },
    {
      "bufferView": 34,
      "componentType": 5126,
      "count": 24,
      "max": [
        null,
        null
      ],
      "min": [
        null,
        null
      ],
      "type": "VEC2"
    },
    {
      "bufferView": 35,
      "componentType": 5123,
      "count": 108,
      "max": [
        23
      ],
      "min": [
        0
      ],
      "type": "SCALAR"
    },
    {
      "bufferView": 36,
      "componentType": 5126,
      "count": 11,
      "max": [
        330,
        146,
        -74
      ],
      "min": [
        267,
        0,
        -126
      ],
      "type": "VEC3"
    },
    {
      "bufferView": 37,
      "componentType": 5126,
      "count": 12,
      "max": [
        314.8492431640625,
        150.19903564453125,
        126
      ],
      "min": [
        258.9520568847656,
        -4.242640495300293,
        74
      ],
      "type": "VEC3"
    },
    {
      "bufferView": 38,
      "componentType": 5126,
      "count": 12,
      "max": [
        0.9997926950454712,
        0.12306598573923111,
        0.999967098236084
      ],
      "min": [
        -0.8654934763908386,
        -0.12249713391065598,
        -0.9998807907104492
      ],
      "type": "VEC3"
    },
    {
      "bufferView": 39,
      "componentType": 5126,
      "count": 12,
      "max": [
        null,
        null
      ],
      "min": [
        null,
        null
      ],
      "type": "VEC2"
    },
    {
      "bufferView": 40,
      "componentType": 5123,
      "count": 54,
      "max": [
        11
      ],
      "min": [
        0
      ],
      "type": "SCALAR"
    },
    {
      "bufferView": 41,
      "componentType": 5126,
      "count": 8,
      "max": [
        330,
        149,
        126
      ],
      "min": [
        285,
        0,
        74
      ],
      "type": "VEC3"
    }
  ],
  "materials": [
    {
      "pbrMetallicRoughness": {
        "metallicFactor": 0.5,
        "roughnessFactor": 0.5
      }
    },
    {
      "pbrMetallicRoughness": {
        "baseColorFactor": [
          0.4567591125631041,
          0.3935622081793071,
          0.15771904229423295,
          1
        ],
        "metallicFactor": 0.5,
        "roughnessFactor": 0.5
      }
    },
    {
      "pbrMetallicRoughness": {
        "baseColorFactor": [
          0,
          0,
          1,
          1
        ],
        "metallicFactor": 0.5,
        "roughnessFactor": 0.5
      }
    },
    {
      "pbrMetallicRoughness": {
        "baseColorFactor": [
          0.26849091083857357,
          0.8089005909055671,
          0.1921801229354576,
          1
        ],
        "metallicFactor": 0.5,
        "roughnessFactor": 0.5
      }
    },
    {
      "pbrMetallicRoughness": {
        "baseColorFactor": [
          0,
          0,
          1,
          1
        ],
        "metallicFactor": 0.5,
        "roughnessFactor": 0.5
      }
    },
    {
      "pbrMetallicRoughness": {
        "baseColorFactor": [
          0.8152662245136373,
          0.34752780485365475,
          0.2681678295561849,
          1
        ],
        "metallicFactor": 0.5,
        "roughnessFactor": 0.5
      }
    },
    {
      "pbrMetallicRoughness": {
        "baseColorFactor": [
          0,
          0,
          1,
          1
        ],
        "metallicFactor": 0.5,
        "roughnessFactor": 0.5
      }
    },
    {
      "pbrMetallicRoughness": {
        "baseColorFactor": [
          0.10012142760921927,
          0.41965342071671263,
          0.27255132377140834,
          1
        ],
        "metallicFactor": 0.5,
        "roughnessFactor": 0.5
      }
    },
    {
      "pbrMetallicRoughness": {
        "baseColorFactor": [
          0,
          0,
          1,
          1
        ],
        "metallicFactor": 0.5,
        "roughnessFactor": 0.5
      }
    },
    {
      "pbrMetallicRoughness": {
        "baseColorFactor": [
          0.5764894944538226,
          0.7075802542093479,
          0.8530653700386532,
          1
        ],
        "metallicFactor": 0.5,
        "roughnessFactor": 0.5
      }
    },
    {
      "pbrMetallicRoughness": {
        "baseColorFactor": [
          0,
          0,
          1,
          1
        ],
        "metallicFactor": 0.5,
        "roughnessFactor": 0.5
      }
    },
    {
      "pbrMetallicRoughness": {
        "baseColorFactor": [
          0.22381965140482585,
          0.8154476518125819,
          0.40179771898203964,
          1
        ],
        "metallicFactor": 0.5,
        "roughnessFactor": 0.5
      }
    },
    {
      "pbrMetallicRoughness": {
        "baseColorFactor": [
          0,
          0,
          1,
          1
        ],
        "metallicFactor": 0.5,
        "roughnessFactor": 0.5
      }
    },
    {
      "pbrMetallicRoughness": {
        "baseColorFactor": [
          0.39479422416523224,
          0.8589661197197107,
          0.5313771027067913,
          1
        ],
        "metallicFactor": 0.5,
        "roughnessFactor": 0.5
      }
    },
    {
      "pbrMetallicRoughness": {
        "baseColorFactor": [
          0,
          0,
          1,
          1
        ],
        "metallicFactor": 0.5,
        "roughnessFactor": 0.5
      }
    },
    {
      "pbrMetallicRoughness": {
        "baseColorFactor": [
          0.4869912471978821,
          0.12185051447179229,
          0.10296755739324226,
          1
        ],
        "metallicFactor": 0.5,
        "roughnessFactor": 0.5
      }
    },
    {
      "pbrMetallicRoughness": {
        "baseColorFactor": [
          0,
          0,
          1,
          1
        ],
        "metallicFactor": 0.5,
        "roughnessFactor": 0.5
      }
    }
  ],
  "meshes": [
    {
      "primitives": [
        {
          "mode": 1,
          "attributes": {
            "POSITION": 0,
            "COLOR_0": 1
          },
          "material": 0
        }
      ]
    },
    {
      "primitives": [
        {
          "mode": 1,
          "attributes": {
            "POSITION": 2,
            "NORMAL": 3,
            "TEXCOORD_0": 4
          },
          "indices": 5,
          "material": 1
        }
      ]
    },
    {
      "primitives": [
        {
          "mode": 3,
          "attributes": {
            "POSITION": 6
          },
          "material": 2
        }
      ]
    },
    {
      "primitives": [
        {
          "mode": 1,
          "attributes": {
            "POSITION": 7,
            "NORMAL": 8,
            "TEXCOORD_0": 9
          },
          "indices": 10,
          "material": 3
        }
      ]
    },
    {
      "primitives": [
        {
          "mode": 3,
          "attributes": {
            "POSITION": 11
          },
          "material": 4
        }
      ]
    },
    {
      "primitives": [
        {
          "mode": 1,
          "attributes": {
            "POSITION": 12,
            "NORMAL": 13,
            "TEXCOORD_0": 14
          },
          "indices": 15,
          "material": 5
        }
      ]
    },
    {
      "primitives": [
        {
          "mode": 3,
          "attributes": {
            "POSITION": 16
          },
          "material": 6
        }
      ]
    },
    {
      "primitives": [
        {
          "mode": 1,
          "attributes": {
            "POSITION": 17,
            "NORMAL": 18,
            "TEXCOORD_0": 19
          },
          "indices": 20,
          "material": 7
        }
      ]
    },
    {
      "primitives": [
        {
          "mode": 3,
          "attributes": {
            "POSITION": 21
          },
          "material": 8
        }
      ]
    },
    {
      "primitives": [
        {
          "mode": 1,
          "attributes": {
            "POSITION": 22,
            "NORMAL": 23,
            "TEXCOORD_0": 24
          },
          "indices": 25,
          "material": 9
        }
      ]
    },
    {
      "primitives": [
        {
          "mode": 3,
          "attributes": {
            "POSITION": 26
          },
          "material": 10
        }
      ]
    },
    {
      "primitives": [
        {
          "mode": 1,
          "attributes": {
            "POSITION": 27,
            "NORMAL": 28,
            "TEXCOORD_0": 29
          },
          "indices": 30,
          "material": 11
        }
      ]
    },
    {
      "primitives": [
        {
          "mode": 3,
          "attributes": {
            "POSITION": 31
          },
          "material": 12
        }
      ]
    },
    {
      "primitives": [
        {
          "mode": 1,
          "attributes": {
            "POSITION": 32,
            "NORMAL": 33,
            "TEXCOORD_0": 34
          },
          "indices": 35,
          "material": 13
        }
      ]
    },
    {
      "primitives": [
        {
          "mode": 3,
          "attributes": {
            "POSITION": 36
          },
          "material": 14
        }
      ]
    },
    {
      "primitives": [
        {
          "mode": 1,
          "attributes": {
            "POSITION": 37,
            "NORMAL": 38,
            "TEXCOORD_0": 39
          },
          "indices": 40,
          "material": 15
        }
      ]
    },
    {
      "primitives": [
        {
          "mode": 3,
          "attributes": {
            "POSITION": 41
          },
          "material": 16
        }
      ]
    }
  ]
}